<?xml  version="1.0" encoding="UTF-8"?>
<!DOCTYPE svg PUBLIC "-//W3C//DTD SVG 1.0//EN" "http://www.w3.org/TR/2001/REC-SVG-20010904/DTD/svg10.dtd" >
<svg xmlns="http://www.w3.org/2000/svg" >
<metadata>
<version>1.0</version>
<id><![CDATA[American Typewriter ITCW01 Lt]]></id>
<vendor>Monotype Imaging Inc.</vendor>
<credits>
<name>Fonts.com WebFonts</name>
<URL>http://webfonts.fonts.com</URL>
<role>Home of the Web fonts</role>
</credits>
<license>
<URL>http://webfonts.fonts.com/Legal</URL>
</license>
<copyright><![CDATA[Font software Copyright 1990, 1991, 1994, 2002 Adobe Systems Incorporated. Typeface designs Copyright 2007 International Typeface Corporation. All rights reserved.]]></copyright>
<trademark><![CDATA["ITC is a trademark of International Typeface Corporation Registered in the U.S. Patent and Trademark Office and may be registered in certain jurisdictions;American Typewriter is a trademark of International Typeface Corporation and may be registered in certain jurisdictions."]]></trademark>
<licensee>
<name></name>
</licensee>
</metadata>
<defs >
<font horiz-adv-x="582" id="254ab931-e6d6-4307-9762-5914ded49f13">
<font-face font-family="" panose-1="2 9 3 4 3 5 5 2 3 4" ascent="890" descent="-250" units-per-em="1000" alphabetic="0">
</font-face>
<missing-glyph horiz-adv-x="0" />

<glyph unicode="&#xA;" />
<glyph unicode="&#xD;" horiz-adv-x="0" />
<glyph unicode=" " horiz-adv-x="320" />
<glyph unicode="!" horiz-adv-x="432" d="M230 153Q230 138 227 133T217 128Q209 128 205 133T201 153L197 680Q197 697 201 703T215 709Q234 709 234 680L230 153ZM167 38Q167 58 181 73T216 88Q237 88 251 73T265 38Q265 17 251 3T216 -12Q196 -12 182 2T167 38Z"  />
<glyph unicode="&quot;" horiz-adv-x="413" d="M123 698Q147 698 147 655Q147 644 146 623T142 576T138 523T134 472Q133 458 131 453T123 447Q118 447 116 452T112 472Q110 495 108 522T104 575T101 622T99 655Q99 698 123 698ZM291 698Q315 698 315 655Q315 644 314 623T310 576T306 523T302 472Q301 458 299 453T291 447Q286 447 284 452T280 472Q278 495 276 522T272 575T269 622T267 655Q267 698 291 698Z"  />
<glyph unicode="#" horiz-adv-x="639" d="M390 256L414 429H250L226 256H390ZM194 228H95Q77 228 77 238Q77 248 85 252T102 256H198L222 429H123Q105 429 105 439Q105 449 113 453T130 457H226L255 666Q257 680 262 685T274 691Q283 691 284 683T283 666L254 457H418L447 666Q449 680 454 685T466 691Q475 691 476 683T475 666L446 457H545Q563 457 563 447Q563 437 555 433T538 429H442L418 256H517Q535 256 535 246Q535 236 527 232T510 228H414L385 19Q383 5 378 0T366 -6Q357 -6 356 2T357 19L386 228H222L193 19Q191 5 186 0T174 -6Q165 -6 164 2T165 19L194 228Z"  />
<glyph unicode="$" horiz-adv-x="639" d="M318 0Q265 2 222 17T147 56T100 109T83 169Q83 178 85 189T93 209T108 225T132 232Q149 232 160 222T172 197Q172 180 161 172T137 163Q127 163 122 160T117 147Q117 143 123 125T149 86T210 47T318 23V342Q285 349 250 359T185 387T137 433T118 503Q118 535 130 565T168 619T231 658T318 676V782Q318 793 322 798T333 803Q340 803 342 799T345 782V676Q383 674 419 664T483 636T529 590T546 526Q546 503 533 488T497 472Q479 472 471 482T462 504Q462 512 467 521T484 535Q495 539 500 543T505 558Q505 565 500 579T478 609T429 637T345 653V365Q378 359 415 350T484 322T535 271T556 187Q556 162 548 132T517 75T453 28T345 0V-85Q345 -95 344 -104T331 -114Q321 -114 320 -105T318 -82V0ZM345 23Q382 27 415 38T474 70T513 119T528 190Q528 232 512 257T470 299T411 323T345 338V23ZM318 653Q271 650 238 636T185 600T155 552T146 502Q146 467 160 445T197 409T252 386T318 369V653Z"  />
<glyph unicode="%" horiz-adv-x="827" d="M470 184Q470 224 481 261T513 327T564 373T632 391Q672 391 702 376T752 333T782 267T792 184Q792 144 781 107T750 41T699 -5T631 -23Q591 -23 561 -8T511 35T480 101T470 184ZM500 185Q500 146 507 113T530 54T570 15T630 0Q664 0 689 16T730 59T754 118T762 185Q762 224 755 257T732 315T692 354T632 368Q597 368 573 352T532 310T508 251T500 185ZM66 492Q66 453 73 420T96 362T136 323T196 308Q230 308 255 324T296 366T320 426T328 492Q328 531 321 564T298 622T258 661T198 676Q163 676 139 660T98 618T74 558T66 492ZM36 492Q36 532 47 569T79 635T130 681T198 699Q238 699 268 684T318 641T348 575T358 492Q358 452 347 415T316 349T265 303T197 285Q157 285 127 300T77 343T46 409T36 492ZM619 652Q589 605 555 548T484 430T413 311T347 199T294 106T257 43Q243 19 235 5T222 -16T214 -24T208 -26Q203 -26 199 -21T195 -11Q195 -6 198 1T214 30Q229 55 254 97T311 192T378 304T449 421T516 534T573 632Q587 656 595 670T608 691T616 699T622 701Q627 701 631 696T635 686Q635 681 632 675T619 652Z"  />
<glyph unicode="&amp;" horiz-adv-x="846" d="M442 583Q442 548 426 520T386 469T333 428T280 396Q313 335 337 294T382 224T419 174T456 129Q463 142 474 175T498 246T520 317T535 363Q550 404 569 430T609 471T652 491T695 497Q729 497 753 486T792 456T814 417T821 377Q821 354 813 335T792 303T760 281T722 273Q690 273 673 290T655 328Q655 343 663 352T684 362Q692 362 699 357T706 340Q706 334 703 331T696 325T689 322T686 317Q686 312 697 306T725 299Q755 299 774 322T794 378Q794 388 790 404T775 435T744 461T693 472Q658 472 634 458T593 418T563 358T538 285Q524 240 516 213T502 169T490 139T475 108Q509 74 537 55T594 27T652 16T718 14Q761 14 778 13T796 1Q796 -8 784 -11T734 -15Q671 -15 629 -8T557 12T505 43T458 82Q447 67 432 49T394 16T340 -11T266 -22Q223 -22 186 -9T120 29T76 89T60 167Q60 218 79 256T126 322T185 369T241 402Q220 440 202 484T183 572Q183 599 193 622T220 662T262 688T316 698Q350 698 374 687T413 659T435 622T442 583ZM412 585Q412 614 402 631T376 659T345 672T316 675Q305 675 288 672T256 658T229 627T217 574Q217 552 223 529T237 484T254 446T269 418Q299 434 325 452T371 490T401 533T412 585ZM94 173Q94 129 109 97T150 44T206 13T269 3Q308 3 336 13T384 39T418 72T440 102Q417 129 396 155T354 212T308 283T252 379Q222 362 194 344T143 301T108 245T94 173Z"  />
<glyph unicode="&apos;" horiz-adv-x="245" d="M123 698Q147 698 147 655Q147 644 146 623T142 576T138 523T134 472Q133 458 131 453T123 447Q118 447 116 452T112 472Q110 495 108 522T104 575T101 622T99 655Q99 698 123 698Z"  />
<glyph unicode="(" horiz-adv-x="395" d="M84 248Q84 173 104 109T157 -9T235 -104T330 -175Q347 -185 357 -191T368 -201Q368 -209 358 -209Q347 -209 320 -196T259 -158T187 -94T119 -4T68 110T48 248Q48 325 68 389T120 504T189 592T261 655T323 692T359 705Q368 705 368 697Q368 694 358 688T335 673T309 658T292 647Q189 569 137 468T84 248Z"  />
<glyph unicode=")" horiz-adv-x="395" d="M311 248Q311 367 259 468T103 647Q98 650 86 657T61 673T37 687T27 697Q27 705 36 705Q45 705 72 693T133 655T205 593T274 504T326 389T347 248Q347 173 327 110T276 -4T208 -93T137 -157T75 -196T37 -209Q27 -209 27 -201Q27 -198 37 -192T65 -175Q114 -146 159 -105T237 -10T291 108T311 248Z"  />
<glyph unicode="*" horiz-adv-x="639" d="M336 521Q330 532 328 534T320 537Q315 537 312 535T303 521L263 450Q258 440 252 434T238 427Q233 427 227 431T221 443Q221 453 236 469L291 530Q303 544 303 549Q303 557 295 559T279 564L199 581Q188 583 179 587T169 603Q169 612 174 616T188 620Q194 620 209 613L284 579Q292 575 295 574T302 573Q309 573 311 578T313 587Q313 591 313 594T312 600L303 681Q303 685 302 688T301 697Q301 705 306 711T320 717Q329 717 333 710T338 696Q338 692 338 689T336 681L327 600Q327 596 327 594T326 587Q326 582 328 578T337 573Q343 573 355 579L430 613Q447 620 452 620Q460 620 465 615T470 603Q470 591 459 587T440 581L360 564Q352 562 344 560T336 550Q336 545 339 541T348 530L403 469Q418 453 418 444Q418 436 413 432T402 427Q394 427 388 434T376 450L336 521Z"  />
<glyph unicode="+" horiz-adv-x="600" d="M286 236H50V264H286V501H314V264H550V236H314V0H286V236Z"  />
<glyph unicode="&#x2c;" horiz-adv-x="226" d="M64 32Q64 52 78 67T116 82Q134 82 146 74T165 52T176 22T179 -10Q179 -53 167 -90T140 -154T111 -196T93 -212Q89 -212 85 -209T80 -200Q80 -196 84 -192Q123 -147 136 -106T149 -41Q149 -8 132 -8Q129 -8 119 -10Q109 -12 105 -12Q100 -12 93 -10T80 -3T69 11T64 32Z"  />
<glyph unicode="-" horiz-adv-x="244" d="M27 251Q16 251 8 255T0 268Q0 285 28 285H214Q231 285 237 281T244 268Q244 251 214 251H27Z"  />
<glyph unicode="." horiz-adv-x="226" d="M162 37Q162 15 147 2T113 -12Q94 -12 79 1T64 37Q64 59 79 72T113 86Q132 86 147 73T162 37Z"  />
<glyph unicode="/" horiz-adv-x="413" d="M103 48Q95 27 83 -7T57 -77T32 -142T14 -186Q9 -198 -4 -198Q-11 -198 -16 -194T-21 -183Q-21 -180 -16 -166T0 -123T30 -50T76 60Q139 212 199 364T316 673Q324 694 328 701T342 709Q349 709 354 705T359 691Q359 688 343 648T303 547T248 411T190 266T138 137T103 48Z"  />
<glyph unicode="0" horiz-adv-x="639" d="M594 338Q594 267 578 202T527 87T441 7T319 -23Q248 -23 197 7T112 87T62 202T45 338Q45 408 61 473T111 589T196 669T319 699Q389 699 441 669T527 589T577 474T594 338ZM564 338Q564 392 554 451T516 561T441 643T319 676Q245 676 198 644T123 561T86 452T75 338Q75 284 85 224T123 115T197 33T319 0Q393 0 440 32T515 114T553 224T564 338Z"  />
<glyph unicode="1" horiz-adv-x="639" d="M306 530Q306 569 305 594T299 634T281 655T247 661Q231 661 214 659T178 657Q155 657 155 670Q155 676 160 679T173 683Q192 683 210 680T251 676Q270 676 286 679T313 683Q328 683 330 670T333 639V237Q333 156 334 112T342 46T360 21T393 16Q408 16 426 18T459 20Q470 20 477 16T484 6Q484 -7 459 -7Q447 -7 429 -6T390 -4T352 -1T320 0Q307 0 288 -1T249 -3T210 -6T179 -7Q155 -7 155 6Q155 12 162 16T180 20Q195 20 213 18T246 16Q267 16 279 20T297 46T304 111T306 237V530Z"  />
<glyph unicode="2" horiz-adv-x="639" d="M86 50Q103 87 138 109T219 131Q283 131 346 74Q370 52 386 38T416 15T441 4T469 0Q490 0 509 9T542 33T564 68T572 109Q572 133 564 151T548 170Q546 170 538 160T520 150Q512 150 504 157T496 175Q496 188 507 196T532 205Q545 205 556 197T576 176T590 146T595 111Q595 85 586 61T561 19T521 -11T468 -23Q427 -23 398 -2T336 48Q310 72 282 88T213 104Q185 104 164 96T128 76T107 52T99 34Q99 28 103 28Q105 28 109 29T115 30Q126 30 132 23T138 7Q138 -1 131 -10T109 -19Q86 -19 75 4T64 61Q64 121 86 163T145 235T228 283T321 316Q366 329 404 341T469 373T512 422T528 498Q528 531 518 562T483 619T418 660T319 676Q259 676 217 660T149 619T111 566T99 513Q99 503 102 497T111 491Q116 491 123 496Q131 500 134 500Q150 500 157 489T164 467Q164 447 150 439T124 431Q117 431 109 434T92 444T79 465T73 499Q73 535 88 570T135 634T213 681T325 699Q383 699 426 683T497 640T540 578T554 503Q554 449 535 415T484 358T410 321T319 294Q246 274 201 248T130 190T95 123T85 50H86Z"  />
<glyph unicode="3" horiz-adv-x="639" d="M504 630Q509 635 513 640T518 649Q518 653 503 653H171Q142 653 133 646T124 605Q124 578 127 546T130 486Q130 472 125 468T115 463Q110 463 106 467T102 480Q102 493 104 515T106 558Q106 577 104 602T102 649Q102 676 127 676H511Q531 676 542 674T554 659Q554 651 548 643T533 626L319 417V415Q327 417 337 418T368 420Q430 420 471 402T538 354T573 290T584 219Q584 177 570 134T524 56T442 -1T319 -23Q258 -23 212 -7T136 34T90 92T74 158Q74 193 93 217T140 241Q156 241 167 232T179 207Q179 195 171 186T150 176Q144 176 136 180T121 185Q112 185 106 175T99 148Q99 117 116 90T163 43T230 12T310 0Q375 0 421 18T497 67T540 136T554 216Q554 249 546 282T516 340T460 382T371 398Q344 398 325 394T294 386T274 378T264 374Q255 374 255 383Q255 387 258 391T267 400L504 630Z"  />
<glyph unicode="4" horiz-adv-x="639" d="M428 176Q428 193 424 197T405 201H84Q67 201 55 205T43 220Q43 226 46 232T59 251L396 666Q410 683 418 691T437 699Q451 699 453 689T455 670V247Q455 232 458 228T478 224Q504 225 537 227T591 229Q606 229 611 225T616 215Q616 201 596 201H478Q462 201 459 197T455 176V155Q455 109 456 82T463 40T480 21T511 16Q522 16 536 18T560 20Q569 20 575 17T582 6Q582 -1 576 -4T563 -7Q540 -7 507 -4T441 0Q410 0 377 -3T320 -7Q313 -7 307 -4T301 6Q301 13 307 16T323 20Q332 20 346 18T372 16Q392 16 403 20T419 39T426 81T428 155V176ZM405 224Q420 224 424 227T428 247V646Q428 651 428 656T424 661Q422 661 420 658T415 653L81 238Q75 230 75 228Q75 224 87 224H405Z"  />
<glyph unicode="5" horiz-adv-x="639" d="M142 640Q145 662 148 669T166 676H500Q512 676 516 668T521 642Q523 620 529 600T536 564Q536 558 533 554T525 549Q515 549 513 559T507 606Q504 638 491 645T447 653H190Q177 653 173 649T167 625L133 355Q133 350 137 350Q141 350 149 359T162 373Q176 387 196 399T240 419T291 433T345 438Q399 438 443 423T518 379T566 311T583 222Q583 174 567 130T518 52T436 -2T323 -23Q274 -23 229 -10T150 26T96 82T76 156Q76 170 79 184T91 210T111 229T140 237Q160 237 169 226T178 203Q178 188 169 180T148 172Q143 172 135 177T120 183Q101 183 101 151Q101 125 115 98T156 50T223 14T315 0Q379 0 424 19T498 68T540 138T553 217Q553 271 536 308T489 370T423 404T347 415Q311 415 281 408T226 389T185 364T157 338Q143 321 137 318T125 314Q116 314 111 319T107 336L142 640Z"  />
<glyph unicode="6" horiz-adv-x="639" d="M100 228Q109 274 126 312T174 378T246 420T347 435Q402 435 445 419T520 374T567 306T584 218Q584 171 568 128T519 51T441 -3T335 -23Q275 -23 226 -1T140 63T85 167T65 309Q65 371 80 440T130 566T222 661T362 699Q407 699 444 687T507 655T548 606T563 547Q563 515 549 498T511 480Q497 480 486 488T475 512Q475 527 484 534T501 542Q507 542 511 539T521 536Q526 536 529 541T533 561Q533 581 522 601T489 638T435 665T361 676Q286 676 236 642T154 554T109 433T95 298Q95 278 96 263T99 228H100ZM346 412Q283 412 240 391T171 337T132 266T120 194Q120 145 139 109T189 48T258 12T335 0Q383 0 423 16T492 60T537 128T554 214Q554 255 541 291T502 354T437 396T346 412Z"  />
<glyph unicode="7" horiz-adv-x="639" d="M126 600Q149 654 188 676T263 699Q300 699 326 681T376 640T422 600T472 581Q490 581 503 589T526 607T541 626T546 639Q546 640 542 642T534 647T525 655T521 669Q521 680 529 688T548 696Q568 696 576 678T585 641Q585 606 573 575T542 516T500 463T452 413Q399 359 369 315T324 226T306 133T302 21Q302 -2 299 -9T284 -17Q271 -17 267 -7T263 18Q263 109 277 172T320 286T389 382T486 483Q509 506 522 523T542 556T551 584T556 610H554Q533 581 511 569T465 557Q432 557 408 575T362 616T317 656T261 675Q240 675 216 664T171 631T136 577T122 501Q122 487 123 474T125 447Q125 435 120 427T109 419Q102 419 98 426T94 442Q94 453 95 463T99 485T103 515T105 558Q105 591 103 619T101 675Q101 684 104 690T115 696Q128 696 128 675Q128 655 126 636T124 600H126Z"  />
<glyph unicode="8" horiz-adv-x="639" d="M239 402Q206 409 182 423T141 456T116 494T107 536Q107 570 121 599T163 651T230 686T319 699Q370 699 410 686T477 650T518 599T532 538Q532 495 501 457T400 402V400Q422 393 453 380T513 344T561 284T581 194Q581 143 561 103T505 35T423 -8T320 -23Q263 -23 215 -8T132 36T78 105T58 194Q58 249 78 285T126 345T186 381T239 400V402ZM551 188Q551 240 532 278T481 340T406 376T319 388Q270 388 228 375T154 337T106 275T88 192Q88 150 104 115T151 54T223 14T319 0Q371 0 413 14T486 53T534 113T551 188ZM319 676Q269 676 235 663T178 631T147 588T137 543Q137 518 149 495T185 453T242 423T319 411Q359 411 392 421T450 450T488 491T502 541Q502 561 493 584T463 628T406 662T319 676Z"  />
<glyph unicode="9" horiz-adv-x="639" d="M539 448Q530 401 513 363T465 298T393 256T292 241Q237 241 193 257T119 302T72 370T55 458Q55 504 71 547T120 625T198 679T304 699Q364 699 413 677T499 613T554 509T574 367Q574 305 559 236T509 110T417 15T277 -23Q232 -23 195 -11T132 21T91 69T76 129Q76 161 90 178T128 196Q142 196 153 188T164 164Q164 149 155 142T138 134Q132 134 128 137T118 140Q113 140 110 135T106 115Q106 95 117 75T150 38T204 11T278 0Q353 0 403 34T485 122T530 243T544 378Q544 398 543 413T540 448H539ZM293 264Q356 264 399 285T468 339T507 410T519 482Q519 531 500 567T450 628T381 664T304 676Q256 676 216 660T147 616T102 548T85 462Q85 421 98 385T137 322T202 280T293 264Z"  />
<glyph unicode=":" horiz-adv-x="226" d="M162 37Q162 15 147 2T113 -12Q94 -12 79 1T64 37Q64 59 79 72T113 86Q132 86 147 73T162 37ZM162 467Q162 445 147 432T113 418Q94 418 79 431T64 467Q64 489 79 502T113 516Q132 516 147 503T162 467Z"  />
<glyph unicode=";" horiz-adv-x="226" d="M64 32Q64 52 78 67T116 82Q134 82 146 74T165 52T176 22T179 -10Q179 -53 167 -90T140 -154T111 -196T93 -212Q89 -212 85 -209T80 -200Q80 -196 84 -192Q123 -147 136 -106T149 -41Q149 -8 132 -8Q129 -8 119 -10Q109 -12 105 -12Q100 -12 93 -10T80 -3T69 11T64 32ZM162 467Q162 445 147 432T113 418Q94 418 79 431T64 467Q64 489 79 502T113 516Q132 516 147 503T162 467Z"  />
<glyph unicode="&lt;" horiz-adv-x="600" d="M50 235V267L550 502V471L83 251L550 31V0L50 235Z"  />
<glyph unicode="=" horiz-adv-x="600" d="M50 361H550V333H50V361ZM50 167H550V139H50V167Z"  />
<glyph unicode="&gt;" horiz-adv-x="600" d="M50 31L517 251L50 471V502L550 267V235L50 0V31Z"  />
<glyph unicode="?" horiz-adv-x="583" d="M541 533Q541 491 527 461T489 409T438 372T380 344Q347 329 326 315T293 284T277 246T272 194Q272 165 270 150T258 134Q244 134 242 151T240 191Q240 227 247 252T268 297T304 332T356 361Q385 375 412 389T461 423T496 467T509 529Q509 556 499 584T465 634T402 671T305 686Q248 686 207 672T139 635T101 585T88 530Q88 499 105 478T144 456Q154 456 157 460T161 467Q161 470 158 477T154 489Q154 503 164 511T186 520Q196 520 207 512T219 484Q219 463 202 448T155 432Q117 432 89 457T60 531Q60 562 75 594T120 651T196 693T304 709Q373 709 418 692T491 649T529 591T541 533ZM210 38Q210 58 224 73T259 88Q280 88 294 73T308 38Q308 17 294 3T259 -12Q239 -12 225 2T210 38Z"  />
<glyph unicode="@" horiz-adv-x="770" d="M438 527Q401 527 363 503T294 440T244 353T224 259Q224 221 243 197T301 173Q330 173 359 188T415 230Q436 252 453 284T484 351T504 416T511 466Q511 494 492 510T438 527ZM451 239Q414 195 377 173T295 150Q253 150 225 176T197 251Q197 303 217 356T270 452T348 522T440 549Q471 549 497 537T529 496H531L540 523Q542 531 545 533T553 535Q558 535 562 533T567 524Q567 522 566 517T563 507L493 300Q487 282 483 267T478 235Q478 200 497 187T538 173Q574 173 604 196T656 256T690 339T702 434Q702 486 686 530T640 606T569 656T478 674Q420 674 368 656T270 606T187 532T124 442T84 343T69 243Q69 190 86 146T133 69T206 20T300 2Q347 2 393 18T488 66Q494 70 499 69T506 63T508 53T500 43Q476 26 449 14T394 -6T342 -18T296 -22Q240 -22 194 -3T115 50T64 132T45 237Q45 316 77 398T168 546T307 655T484 698Q538 698 582 678T659 623T708 540T726 434Q726 375 711 324T671 234T611 173T538 150Q510 150 494 158T468 180T456 208T453 239H451Z"  />
<glyph unicode="A" horiz-adv-x="752" d="M539 233Q535 244 532 247T517 250H247Q235 250 231 248T222 233L166 89Q158 67 156 61T154 49Q154 16 207 16Q218 16 232 18T259 20Q267 20 275 17T283 6Q283 -1 277 -4T262 -7Q238 -7 207 -4T137 0Q95 0 66 -3T12 -7Q7 -7 3 -4T-1 5Q-1 13 6 16T21 20Q33 20 42 18T62 16Q75 16 85 19T105 31T122 56T142 99L356 652Q364 672 371 679T388 686Q398 686 404 678T416 653L568 234Q598 153 616 109T646 44T667 20T688 16Q698 16 708 18T729 20Q741 20 747 16T753 6Q753 0 745 -3T730 -7Q710 -7 680 -4T620 0Q594 0 562 -3T504 -7Q496 -7 487 -5T477 5Q477 11 484 15T502 20Q516 20 531 18T563 16Q579 16 591 23T603 46Q603 51 600 66T591 97L539 233ZM497 271Q512 271 517 276T516 298L386 652L248 298Q242 283 245 277T266 271H497Z"  />
<glyph unicode="B" horiz-adv-x="714" d="M165 479Q165 538 164 573T158 628T142 654T111 660Q95 660 82 658T55 656Q48 656 41 659T33 670Q33 677 40 680T55 683Q78 683 109 680T180 676Q202 676 232 677T293 679T352 682T400 683Q514 683 566 643T618 529Q618 489 604 463T568 419T523 392T480 376V374Q495 371 523 364T579 336T627 280T648 186Q648 146 636 111T597 50T525 8T415 -7Q394 -7 363 -6T298 -4T234 -1T180 0Q140 0 109 -3T55 -7Q48 -7 41 -4T33 6Q33 14 40 17T55 20Q69 20 82 18T111 16Q131 16 142 22T158 47T164 102T165 197V479ZM194 428Q194 411 196 402T205 389T227 383T267 382Q294 382 325 382T387 384T443 389T484 397Q500 402 518 411T551 436T576 472T586 524Q586 570 568 597T521 638T460 656T396 660Q378 660 351 659T297 657T247 654T218 651Q210 649 205 646T198 637T195 620T194 593V428ZM194 117Q194 87 194 70T197 44T204 32T219 26Q228 24 248 22T293 19T346 17T398 16Q413 16 435 17T481 22T529 37T573 67T604 117T616 191Q616 251 592 285T530 336T449 357T366 361Q324 361 283 361T221 358Q211 357 206 355T198 347T195 330T194 298V117Z"  />
<glyph unicode="C" horiz-adv-x="658" d="M563 568Q562 594 561 612T560 646Q560 663 564 669T574 676Q580 676 583 671T587 660Q587 625 584 582T580 504Q580 481 583 454T587 400Q587 392 583 387T572 382Q564 382 560 388T556 402Q556 416 557 429T559 468Q559 497 550 533T517 600T452 653T348 675Q288 675 245 655T173 604T125 533T98 455T85 382T82 325Q82 273 94 216T136 111T218 32T350 1Q394 1 434 13T504 51T554 116T576 211Q577 229 579 241T593 253Q608 253 608 232Q608 193 595 149T551 66T470 3T346 -22Q280 -22 233 -2T152 50T99 121T68 201T54 277T50 337Q50 403 67 468T120 584T213 666T349 698Q402 698 437 685T497 653T535 611T561 568H563Z"  />
<glyph unicode="D" horiz-adv-x="752" d="M165 479Q165 538 164 573T158 628T142 654T111 660Q95 660 82 658T55 656Q48 656 41 659T33 670Q33 677 40 680T55 683Q78 683 109 680T180 676Q198 676 222 677T273 679T324 682T366 683Q459 683 517 663T615 597Q644 564 661 528T687 456T699 390T702 334Q702 306 698 272T684 201T654 130T604 66Q581 44 557 30T505 8T441 -4T361 -7Q344 -7 321 -6T273 -4T224 -1T180 0Q140 0 109 -3T55 -7Q48 -7 41 -4T33 6Q33 14 40 17T55 20Q69 20 82 18T111 16Q131 16 142 22T158 47T164 102T165 197V479ZM194 154Q194 122 194 102T195 68T197 48T201 38Q205 32 215 28T243 21T289 17T357 16Q389 16 425 19T495 32T561 63T617 117T656 203T670 327Q670 405 656 460T616 553T559 611T493 643T423 657T357 660Q342 660 319 659T274 655T233 649T210 642Q206 639 203 635T198 619T195 586T194 527V154Z"  />
<glyph unicode="E" horiz-adv-x="696" d="M463 21Q506 21 532 22T571 32T589 59T594 111Q594 142 592 169T589 220Q589 233 593 241T605 250Q610 250 615 244T621 224Q621 201 618 177T614 128Q614 98 617 75T621 29Q621 16 617 9T606 -1T589 -6T568 -7Q534 -7 487 -6T385 -3Q329 -2 270 -1T153 0Q133 0 118 -1T92 -3Q81 -5 72 -6T55 -7Q45 -7 36 -4T27 8Q27 25 52 25Q69 25 85 23T121 21Q137 21 146 25T159 41T164 73T165 124V570Q165 596 164 612T158 638T145 651T121 655Q101 655 85 653T52 651Q40 651 34 656T27 667Q27 672 33 677T52 683Q66 683 81 682T112 680Q129 678 145 677T178 676Q226 676 281 677T391 680Q445 681 492 682T572 683Q589 683 600 678T611 651Q611 620 608 595T604 543Q604 514 607 489T611 443Q611 432 609 420T594 407Q583 407 581 418T579 443Q579 452 580 470T581 508T583 547T584 574Q584 604 581 620T566 644T535 653T480 655H256Q236 655 224 654T206 643T197 615T194 559V409Q194 394 195 386T200 373T213 367T238 365H346Q363 365 378 367T404 374T421 391T428 420Q428 437 426 455T423 490Q423 506 428 512T438 518Q446 518 449 509T452 488Q452 477 451 460T449 423T446 386T445 356Q445 339 446 316T448 270T451 225T452 190Q452 161 438 161Q432 161 428 168T423 195Q423 214 425 234T428 276Q428 317 410 330T346 344H232Q218 344 210 342T199 336T195 323T194 301V85Q194 61 196 48T205 29T226 22T262 21H463Z"  />
<glyph unicode="F" horiz-adv-x="639" d="M165 570Q165 596 164 613T158 639T145 653T121 657Q101 657 85 655T52 653Q27 653 27 669Q27 677 34 680T54 683Q68 683 82 682T113 680Q129 678 145 677T178 676Q223 676 277 677T386 680Q440 681 487 682T566 683Q583 683 594 678T605 651Q605 620 602 595T598 543Q598 514 601 489T605 443Q605 432 603 422T588 411Q579 411 576 420T573 443Q573 452 574 470T575 508T577 547T578 574Q578 604 575 620T560 644T529 653T474 655H263Q238 655 224 654T204 648T196 632T194 602V384Q194 360 197 355T218 349H353Q402 349 418 368T433 420Q433 437 431 455T428 490Q428 506 433 512T443 518Q451 518 454 509T457 488Q457 477 456 460T454 423T451 386T450 356Q450 339 451 316T453 270T456 225T457 190Q457 161 443 161Q437 161 433 168T428 195Q428 214 430 234T433 276Q433 284 430 293T419 310T394 323T353 328H223Q201 328 198 318T194 291V197Q194 138 195 103T201 48T217 22T248 16Q264 16 277 18T304 20Q311 20 318 17T326 6Q326 -1 319 -4T304 -7Q281 -7 250 -4T180 0Q140 0 109 -3T55 -7Q48 -7 41 -4T33 6Q33 14 40 17T55 20Q69 20 82 18T111 16Q131 16 142 22T158 47T164 102T165 197V570Z"  />
<glyph unicode="G" horiz-adv-x="752" d="M585 108Q565 67 538 42T480 2T418 -17T361 -22Q285 -22 227 6T130 84T70 198T50 336Q50 414 72 480T136 594T235 670T361 698Q382 698 411 695T471 678T531 638T581 566H583Q582 594 581 614T580 646Q580 676 593 676Q600 676 603 670T607 656Q607 628 604 588T600 513Q600 482 603 459T607 414Q607 389 591 389Q581 389 578 397T575 412Q575 424 576 439T578 469Q578 517 562 555T516 620T446 661T360 675Q300 675 249 652T161 584T103 476T82 333Q82 255 103 193T160 89T247 24T357 1Q384 1 423 8T497 38T558 102T583 210Q583 254 574 275T535 297Q520 297 501 295T463 293Q452 293 445 297T438 307Q438 313 442 317T457 322Q479 322 512 319T576 315Q594 315 615 316T656 318T693 321T722 322Q744 322 744 307Q744 298 735 296T719 293Q702 293 690 295T661 297Q642 297 632 290T616 268T609 227T608 165Q608 139 611 102T614 32Q614 24 611 15T598 6Q588 6 585 15T582 30Q582 49 584 71T587 108H585Z"  />
<glyph unicode="H" horiz-adv-x="808" d="M165 479Q165 538 164 573T158 628T142 654T111 660Q95 660 82 658T55 656Q48 656 41 659T33 670Q33 677 40 680T55 683Q78 683 109 680T180 676Q219 676 250 679T304 683Q311 683 318 680T326 670Q326 662 319 659T304 656Q290 656 277 658T248 660Q228 660 217 654T201 629T195 574T194 479V391Q194 374 198 372T219 369H592Q608 369 611 371T615 390V479Q615 538 614 573T608 628T592 654T561 660Q545 660 532 658T505 656Q498 656 491 659T483 670Q483 677 490 680T505 683Q528 683 559 680T630 676Q669 676 700 679T754 683Q761 683 768 680T776 670Q776 662 769 659T754 656Q740 656 727 658T698 660Q678 660 667 654T651 629T645 574T644 479V197Q644 138 645 103T651 48T667 22T698 16Q714 16 727 18T754 20Q761 20 768 17T776 6Q776 -1 769 -4T754 -7Q731 -7 700 -4T630 0Q590 0 559 -3T505 -7Q498 -7 491 -4T483 6Q483 14 490 17T505 20Q519 20 532 18T561 16Q581 16 592 22T608 47T614 102T615 197V334Q615 342 613 345T603 348H209Q198 348 196 344T194 329V197Q194 138 195 103T201 48T217 22T248 16Q264 16 277 18T304 20Q311 20 318 17T326 6Q326 -1 319 -4T304 -7Q281 -7 250 -4T180 0Q140 0 109 -3T55 -7Q48 -7 41 -4T33 6Q33 14 40 17T55 20Q69 20 82 18T111 16Q131 16 142 22T158 47T164 102T165 197V479Z"  />
<glyph unicode="I" horiz-adv-x="358" d="M165 479Q165 538 164 573T158 628T142 654T111 660Q95 660 82 658T55 656Q48 656 41 659T33 670Q33 677 40 680T55 683Q78 683 109 680T180 676Q219 676 250 679T304 683Q311 683 318 680T326 670Q326 662 319 659T304 656Q290 656 277 658T248 660Q228 660 217 654T201 629T195 574T194 479V197Q194 138 195 103T201 48T217 22T248 16Q264 16 277 18T304 20Q311 20 318 17T326 6Q326 -1 319 -4T304 -7Q281 -7 250 -4T180 0Q140 0 109 -3T55 -7Q48 -7 41 -4T33 6Q33 14 40 17T55 20Q69 20 82 18T111 16Q131 16 142 22T158 47T164 102T165 197V479Z"  />
<glyph unicode="J" horiz-adv-x="620" d="M457 444Q457 523 456 566T451 631T435 656T405 660Q392 660 380 658T351 656Q341 656 335 660T328 669Q328 683 350 683Q374 683 403 680T475 676Q514 676 545 679T600 683Q612 683 615 678T618 670Q618 662 611 659T596 656Q582 656 567 658T538 660Q518 660 508 656T493 631T487 567T486 444V312Q486 254 485 216T479 153T470 112T457 83Q440 53 416 33T362 1T302 -16T239 -22Q194 -22 153 -12T82 20T33 73T14 148Q14 175 22 198T46 239T82 266T128 276Q160 276 175 262T191 229Q191 215 181 203T154 190Q140 190 133 199T125 218Q125 228 131 235T138 244Q138 253 120 253Q106 253 92 247T66 227T47 195T39 151Q39 120 51 93T87 45T146 13T229 1Q314 1 360 26T428 91T453 184T457 292V444Z"  />
<glyph unicode="K" horiz-adv-x="789" d="M376 372Q369 382 367 383T359 385Q355 385 353 383T343 375L205 250Q201 246 199 243T195 235T194 221T194 197Q194 138 195 103T201 48T217 22T248 16Q264 16 277 18T304 20Q311 20 318 17T326 6Q326 -1 319 -4T304 -7Q281 -7 250 -4T180 0Q140 0 109 -3T55 -7Q48 -7 41 -4T33 6Q33 14 40 17T55 20Q69 20 82 18T111 16Q131 16 142 22T158 47T164 102T165 197V479Q165 538 164 573T158 628T142 654T111 660Q95 660 82 658T55 656Q48 656 41 659T33 670Q33 677 40 680T55 683Q78 683 109 680T180 676Q219 676 250 679T304 683Q311 683 318 680T326 670Q326 662 319 659T304 656Q290 656 277 658T248 660Q228 660 217 654T201 629T195 574T194 479V273L410 465Q450 500 484 531T543 587T582 627T596 647Q596 660 573 660Q549 660 534 658T499 656Q482 656 475 658T468 669Q468 683 490 683Q514 683 543 680T615 676Q654 676 685 679T740 683Q748 683 754 680T761 669Q761 663 753 660T737 656Q725 656 714 658T685 660Q676 660 670 658T653 650T629 631T591 597L399 424Q391 416 390 414T388 408Q388 404 396 393Q438 335 471 289T532 205T584 133T634 68Q650 48 662 38T685 23T705 17T723 16Q734 16 745 18T771 20Q779 20 785 17T791 8Q791 2 788 -2T770 -7Q746 -7 715 -4T645 0Q616 0 583 -3T520 -7Q498 -7 498 6Q498 12 506 16T525 20Q542 20 558 18T589 16Q609 16 615 20T622 29Q622 31 621 34T615 44T601 64T575 100L376 372Z"  />
<glyph unicode="L" horiz-adv-x="639" d="M422 21Q474 21 505 22T554 33T576 60T582 113Q582 145 580 170T578 226Q578 240 583 249T594 258Q602 258 605 250T609 231Q609 217 608 206T606 181T603 152T602 111Q602 90 605 67T609 21Q609 7 603 0T570 -7Q536 -7 489 -6T386 -3Q331 -2 272 -1T153 0Q137 0 123 -1T96 -3Q84 -5 74 -6T55 -7Q45 -7 36 -4T27 8Q27 25 52 25Q67 25 84 23T121 21Q137 21 146 25T159 45T164 93T165 183V479Q165 538 164 573T158 628T142 654T111 660Q95 660 82 658T55 656Q48 656 41 659T33 670Q33 677 40 680T55 683Q78 683 109 680T180 676Q219 676 250 679T304 683Q311 683 318 680T326 670Q326 662 319 659T304 656Q290 656 277 658T248 660Q228 660 217 654T201 629T195 574T194 479V115Q194 83 194 64T199 36T212 24T238 21H422Z"  />
<glyph unicode="M" horiz-adv-x="940" d="M217 630Q215 634 211 638T203 642Q201 642 198 639T194 631V197Q194 138 195 103T201 48T217 22T248 16Q264 16 277 18T304 20Q311 20 318 17T326 6Q326 -1 319 -4T304 -7Q281 -7 250 -4T180 0Q140 0 109 -3T55 -7Q48 -7 41 -4T33 6Q33 14 40 17T55 20Q69 20 82 18T111 16Q131 16 142 22T158 47T164 102T165 197V479Q165 538 164 573T159 628T143 654T113 660Q99 660 84 658T55 656Q48 656 41 659T33 670Q33 683 55 683Q75 683 96 680Q107 678 118 677T140 676Q148 676 155 676T170 678Q178 679 186 679T202 680Q218 680 225 670T238 643L461 40Q465 30 469 30Q472 30 474 34T478 42L703 643Q709 659 716 669T739 680Q747 680 754 680T770 678Q778 677 785 677T801 676Q812 676 823 677T845 680Q867 683 886 683Q908 683 908 670Q908 662 901 659T886 656Q869 656 857 658T828 660Q808 660 798 654T783 629T777 574T776 479V197Q776 138 777 103T783 48T799 22T830 16Q846 16 859 18T886 20Q893 20 900 17T908 6Q908 -1 901 -4T886 -7Q863 -7 832 -4T762 0Q722 0 691 -3T637 -7Q630 -7 623 -4T615 6Q615 14 622 17T637 20Q651 20 664 18T693 16Q713 16 724 22T740 47T746 102T747 197V626Q747 631 746 635T740 639Q732 639 725 622L498 28Q490 7 483 2T468 -3Q457 -3 450 5T438 28L217 630Z"  />
<glyph unicode="N" horiz-adv-x="808" d="M207 636Q205 639 203 643T198 647Q196 647 195 643T194 633V197Q194 138 195 103T201 48T217 22T248 16Q264 16 277 18T304 20Q311 20 318 17T326 6Q326 -1 319 -4T304 -7Q281 -7 250 -4T180 0Q140 0 109 -3T55 -7Q48 -7 41 -4T33 6Q33 14 40 17T55 20Q69 20 82 18T111 16Q131 16 142 22T158 47T164 102T165 197V479Q165 538 164 573T159 628T143 654T113 660Q96 660 83 658T55 656Q48 656 41 659T33 670Q33 683 55 683Q74 683 95 680Q106 678 117 677T140 676Q147 676 153 676T168 678Q175 679 181 679T192 680Q202 680 209 675T234 642L613 42Q617 35 624 35Q627 35 628 39T629 46V479Q629 538 628 573T622 628T606 654T575 660Q559 660 546 658T519 656Q512 656 505 659T497 670Q497 677 504 680T519 683Q542 683 573 680T644 676Q683 676 714 679T768 683Q775 683 782 680T790 670Q790 662 783 659T768 656Q754 656 741 658T712 660Q692 660 681 654T665 629T659 574T658 479V42Q658 22 655 7T633 -9Q624 -9 615 -3T589 29L207 636Z"  />
<glyph unicode="O" horiz-adv-x="695" d="M50 338Q50 407 68 471T123 586T216 667T347 698Q422 698 478 668T570 587T625 472T644 338Q644 270 626 205T571 90T478 9T347 -22Q272 -22 216 8T124 89T69 205T50 338ZM82 338Q82 275 97 215T145 107T227 30T347 1Q416 1 466 30T549 106T596 214T612 338Q612 401 597 462T549 570T467 646T347 675Q278 675 228 646T145 570T98 462T82 338Z"  />
<glyph unicode="P" horiz-adv-x="658" d="M165 479Q165 538 164 573T158 628T142 654T111 660Q95 660 82 658T55 656Q48 656 41 659T33 670Q33 677 40 680T55 683Q79 683 113 680T180 676Q228 676 278 679T392 683Q507 683 566 631T625 485Q625 389 565 342T392 295H211Q200 295 197 291T194 276V197Q194 138 195 103T201 48T217 22T248 16Q264 16 277 18T304 20Q311 20 318 17T326 6Q326 -1 319 -4T304 -7Q281 -7 250 -4T180 0Q140 0 109 -3T55 -7Q48 -7 41 -4T33 6Q33 14 40 17T55 20Q69 20 82 18T111 16Q131 16 142 22T158 47T164 102T165 197V479ZM369 316Q388 316 411 317T460 322T509 337T551 365T581 413T593 484Q593 568 544 614T385 660Q366 660 344 659T301 657T259 655T224 654Q204 654 199 645T194 607V345Q194 328 201 322T235 316H369Z"  />
<glyph unicode="Q" horiz-adv-x="695" d="M644 338Q644 255 624 196T574 96T515 34T465 4Q467 -51 469 -86T480 -141T505 -170T551 -178Q582 -178 599 -167T623 -140T632 -106T634 -73Q634 -56 635 -48T646 -39Q658 -39 660 -51T662 -73Q662 -87 661 -109T649 -151T616 -185T551 -200Q511 -200 489 -189T457 -153T443 -93T439 -6Q429 -9 420 -12T399 -17Q388 -19 376 -20T347 -22Q272 -22 216 8T124 89T69 205T50 338Q50 407 68 471T123 586T216 667T347 698Q422 698 478 668T570 587T625 472T644 338ZM246 25Q236 33 226 49T215 98Q215 127 226 147T256 181T297 200T343 206Q385 206 409 190T445 149T461 93T465 31Q506 53 534 87T579 162T604 248T612 338Q612 401 597 462T549 570T467 646T347 675Q278 675 228 646T145 570T98 462T82 338Q82 279 94 228T127 137T178 67T244 23L246 25ZM339 183Q293 183 267 158T240 94Q240 74 246 58T266 28T302 8T357 1Q385 1 403 5T438 16Q439 62 434 94T417 146T386 174T339 183Z"  />
<glyph unicode="R" horiz-adv-x="771" d="M180 479Q180 538 179 573T173 628T157 654T126 660Q110 660 97 658T70 656Q63 656 56 659T48 670Q48 677 55 680T70 683Q99 683 128 680T195 676Q221 676 245 677T295 679T347 682T407 683Q471 683 516 670T588 633T628 579T641 510Q641 448 606 404T492 343V341Q526 331 548 317T582 280T600 222T605 136Q605 98 608 75T618 39T636 21T664 16Q687 16 702 18T729 20Q736 20 743 17T751 6Q751 -1 744 -4T729 -7Q721 -7 714 -6T692 -4Q679 -4 670 -5T651 -7Q628 -7 613 0T589 26T577 73T573 145Q573 191 570 226T548 286T491 322T381 334H251Q235 334 227 332T214 326T210 316T209 303V197Q209 138 210 103T216 48T232 22T263 16Q279 16 292 18T319 20Q326 20 333 17T341 6Q341 -1 334 -4T319 -7Q296 -7 265 -4T195 0Q155 0 124 -3T70 -7Q63 -7 56 -4T48 6Q48 14 55 17T70 20Q84 20 97 18T126 16Q146 16 157 22T173 47T179 102T180 197V479ZM421 355Q460 355 494 362T553 386T594 433T609 508Q609 565 585 596T525 641T450 657T382 660Q350 660 318 659T265 655Q246 653 235 651T218 642T211 622T209 587V395V375Q209 360 217 358T246 355H421Z"  />
<glyph unicode="S" horiz-adv-x="601" d="M83 92Q87 58 88 44T90 16Q90 -6 74 -6Q67 -6 63 2T58 21Q58 33 59 49T61 81T64 114T65 144Q65 157 64 174T62 207T59 239T58 265Q58 272 61 278T73 285Q87 285 87 268Q87 257 86 241T84 209Q84 149 103 109T153 45T223 11T303 1Q361 1 401 18T465 61T500 120T511 183Q511 233 492 262T443 306T377 326T306 334Q194 342 134 383T74 505Q74 542 88 577T131 639T200 682T294 698Q327 698 357 691T413 670T457 634T486 580H488Q490 610 488 628T485 658Q485 670 489 676T499 683Q513 683 513 658Q513 649 512 634T510 601T507 565T506 533Q506 506 509 480T513 436Q513 427 508 422T497 416Q492 416 488 421T483 437Q483 448 484 457T486 479Q486 575 436 625T295 675Q242 675 206 659T147 617T116 563T106 507Q106 463 125 436T174 393T240 370T309 360Q349 356 390 350T466 326T521 274T543 181Q543 151 532 116T494 50T423 -1T311 -22Q254 -22 216 -10T152 19T111 56T85 92H83Z"  />
<glyph unicode="T" horiz-adv-x="639" d="M305 612Q305 628 304 636T299 649T286 654T262 655H140Q112 655 97 652T75 636T67 597T66 525Q66 501 68 477T71 436Q71 423 66 417T55 411Q49 411 44 417T39 435Q39 454 42 477T46 527Q46 536 45 551T43 584T40 621T39 658Q39 683 76 683Q135 683 200 680T319 676Q374 676 439 679T563 683Q600 683 600 658Q600 640 599 621T597 584T594 551T593 527Q593 501 596 478T600 435Q600 424 595 418T584 411Q578 411 573 417T568 436Q568 453 570 477T573 525Q573 571 572 597T564 636T542 652T499 655H377Q362 655 354 654T341 649T335 637T334 612V197Q334 138 335 103T341 48T357 22T388 16Q404 16 417 18T444 20Q451 20 458 17T466 6Q466 -1 459 -4T444 -7Q421 -7 390 -4T320 0Q280 0 249 -3T195 -7Q188 -7 181 -4T173 6Q173 14 180 17T195 20Q209 20 222 18T251 16Q271 16 282 22T298 47T304 102T305 197V612Z"  />
<glyph unicode="U" horiz-adv-x="771" d="M599 479Q599 538 598 573T592 628T576 654T545 660Q529 660 516 658T489 656Q482 656 475 659T467 670Q467 677 474 680T489 683Q512 683 543 680T614 676Q653 676 684 679T738 683Q745 683 752 680T760 670Q760 662 753 659T738 656Q724 656 711 658T682 660Q662 660 651 654T635 629T629 574T628 479V212Q628 160 620 121T575 46Q554 26 530 13T481 -8T432 -19T389 -22Q363 -22 337 -18T285 -5T239 16T202 45Q182 66 171 85T153 125T145 168T143 217V479Q143 538 142 573T136 628T120 654T89 660Q73 660 60 658T33 656Q26 656 19 659T11 670Q11 677 18 680T33 683Q56 683 87 680T158 676Q197 676 228 679T282 683Q289 683 296 680T304 670Q304 662 297 659T282 656Q268 656 255 658T226 660Q206 660 195 654T179 629T173 574T172 479V234Q172 209 172 187T177 145T190 107T215 70Q247 34 291 18T383 1Q404 1 428 4T476 16T521 37T558 68Q571 84 579 97T592 127T597 162T599 210V479Z"  />
<glyph unicode="V" horiz-adv-x="658" d="M104 579Q94 607 87 623T74 648T58 658T35 660Q27 660 20 658T5 656Q-7 656 -12 660T-18 670Q-18 683 3 683Q19 683 45 680T99 676Q114 676 131 677T164 679T196 682T223 683Q231 683 236 679T241 670Q241 665 235 661T221 656Q208 656 197 658T166 660Q145 660 132 655T119 637Q119 630 122 618T135 579L326 43Q328 40 329 37T332 34Q335 34 337 38T340 44L523 579Q531 602 534 612T537 631Q537 648 522 654T492 660Q475 660 462 658T434 656Q425 656 418 659T411 670Q411 683 432 683Q456 683 491 680T559 676Q581 676 607 679T655 683Q676 683 676 671Q676 666 671 661T653 656Q646 656 639 658T623 660Q609 660 601 658T585 648T572 624T555 579L358 14Q353 1 348 -9T334 -20Q326 -20 321 -13T311 4L104 579Z"  />
<glyph unicode="W" horiz-adv-x="865" d="M440 622Q438 629 437 631T431 634Q426 634 425 631T421 619L286 33Q278 1 273 -9T255 -20Q247 -20 241 -12T229 19L105 585Q100 609 96 624T88 647T77 657T60 660Q50 660 41 658T21 656Q5 656 0 660T-6 670Q-6 683 13 683Q22 683 34 682T60 680T86 677T109 676Q123 676 140 677T176 679T210 682T239 683Q247 683 252 679T257 670Q257 656 234 656Q220 656 204 658T174 660Q150 660 141 653T131 632Q131 626 132 615T139 583L250 49Q251 44 252 40T255 35Q257 35 259 40T263 54L399 649Q404 672 411 678T431 685Q446 685 451 677T464 639L593 55Q595 50 597 43T602 35Q604 35 606 41T610 54L727 574Q730 587 732 595T734 609T735 617T736 624Q736 636 726 648T689 660Q673 660 660 658T632 656Q621 656 614 659T607 670Q607 676 613 679T630 683Q647 683 678 680T741 676Q764 676 793 679T849 683Q871 683 871 670Q871 662 864 659T851 656Q846 656 840 658T823 660Q810 660 801 658T784 650T771 631T760 597L630 20Q625 -3 619 -11T600 -20Q583 -20 574 16L440 622Z"  />
<glyph unicode="X" horiz-adv-x="752" d="M392 313Q382 327 375 327Q372 327 369 324T359 312L190 82Q170 56 165 45T159 30Q159 19 174 18T203 16Q219 16 231 18T258 20Q288 20 288 6Q288 -2 280 -4T265 -7Q253 -7 236 -6T200 -4T164 -1T136 0Q125 0 109 -1T77 -3T44 -6T18 -7Q11 -7 4 -5T-3 6Q-3 11 3 15T21 20Q33 20 45 18T71 16Q80 16 88 17T106 25T130 49T166 94L349 342Q357 352 357 357Q357 360 355 364T349 373L165 612Q142 642 130 651T97 660Q83 660 70 658T47 656Q36 656 30 659T23 670Q23 678 31 680T48 683Q59 683 74 682T104 680T134 677T158 676Q171 676 189 677T226 679T264 682T294 683Q316 683 316 670Q316 664 307 660T284 656Q268 656 254 658T213 660Q183 660 183 645Q183 639 187 631T209 600L360 403Q367 394 370 391T377 388Q381 388 384 391T394 403L541 601Q558 624 562 631T567 642Q567 652 561 656T533 660Q515 660 498 658T460 656Q435 656 435 670Q435 683 457 683Q468 683 484 682T519 680T555 677T588 676Q613 676 642 679T697 683Q704 683 712 681T721 671Q721 664 714 660T698 656Q685 656 675 658T648 660Q639 660 632 659T618 652T602 637T581 611L404 373Q396 362 396 358Q396 353 404 342L597 86Q616 60 629 46T652 26T670 18T687 16Q699 16 710 18T734 20Q743 20 749 16T756 6Q756 -1 748 -4T733 -7Q718 -7 689 -4T626 0Q610 0 591 -1T552 -3T514 -6T484 -7Q477 -7 470 -4T463 6Q463 11 469 15T487 20Q504 20 519 18T549 16Q568 16 582 17T597 30Q597 35 592 45T569 78L392 313Z"  />
<glyph unicode="Y" horiz-adv-x="639" d="M306 267Q306 281 300 291L99 617Q83 643 73 651T45 660Q32 660 20 658T-5 656Q-15 656 -22 659T-30 669Q-30 677 -23 680T-4 683Q17 683 47 680T101 676Q113 676 128 677T159 679T192 682T220 683Q240 683 240 671Q240 664 233 660T217 656Q197 656 177 658T138 660Q124 660 120 658T115 651Q115 648 118 643T126 629L306 331Q313 320 316 318T322 316Q327 316 330 319T339 331L507 601Q515 613 519 620T526 632T529 640T530 646Q530 654 520 657T495 660Q482 660 466 658T432 656Q423 656 411 658T399 669Q399 677 406 680T422 683Q448 683 480 680T543 676Q569 676 595 679T648 683Q656 683 662 680T668 669Q668 661 660 659T642 656Q634 656 624 658T603 660Q584 660 575 651T550 616L342 288Q337 280 336 275T335 264V150Q335 106 337 80T344 39T360 21T388 16Q404 16 417 18T444 20Q451 20 458 17T466 6Q466 -1 459 -4T444 -7Q421 -7 390 -4T320 0Q302 0 283 -1T246 -3T214 -6T190 -7Q169 -7 169 6Q169 13 176 16T191 20Q205 20 218 18T248 16Q264 16 275 19T293 37T303 80T306 158V267Z"  />
<glyph unicode="Z" horiz-adv-x="639" d="M82 0Q71 0 58 2T44 20Q44 27 48 34T72 64L531 629Q534 632 538 639T542 649Q542 652 537 652T523 653H149Q137 653 128 652T112 645T102 624T99 584Q99 548 101 521T104 462Q104 450 99 443T88 436Q79 436 76 445T72 472Q72 496 75 524T79 571Q79 590 76 610T72 642Q72 667 82 671T115 676H527Q551 676 564 674T578 656Q578 648 573 639T561 622L89 40Q85 35 82 32T78 27Q78 23 101 23H484Q504 23 516 27T534 40T543 65T545 105Q545 135 543 167T540 229Q540 247 545 253T556 260Q563 260 567 253T572 228Q572 210 569 179T565 114Q565 87 568 63T572 21Q572 5 562 3T538 0H82Z"  />
<glyph unicode="[" horiz-adv-x="338" d="M222 -174Q245 -174 260 -172T290 -170Q301 -170 308 -173T316 -185Q316 -201 288 -201Q274 -201 263 -200T240 -198T214 -195T182 -194Q155 -194 136 -197T90 -201Q79 -201 74 -192T69 -172Q69 -149 70 -120T72 -63V560Q72 587 71 616T69 669Q69 679 74 688T90 698Q116 698 135 695T182 691Q200 691 214 692T239 694T262 697T288 698Q316 698 316 682Q316 674 309 671T290 667Q275 667 260 669T222 671H147Q130 671 121 669T108 661T102 643T101 611V-114Q101 -134 102 -146T107 -164T121 -172T147 -174H222Z"  />
<glyph unicode="\" horiz-adv-x="413" d="M332 60Q359 -5 377 -49T407 -122T424 -165T429 -183Q429 -190 424 -194T412 -198Q399 -198 394 -186Q388 -173 377 -143T352 -77T326 -8T305 48Q294 78 271 136T219 265T160 410T106 546T65 648T49 691Q49 701 54 705T66 709Q75 709 79 702T92 673Q149 517 209 365T332 60Z"  />
<glyph unicode="]" horiz-adv-x="338" d="M191 -174Q207 -174 216 -172T230 -164T236 -146T237 -114V611Q237 631 236 643T231 661T217 669T191 671H116Q93 671 78 669T48 667Q37 667 30 670T22 682Q22 698 50 698Q64 698 75 697T98 695T124 692T156 691Q183 691 202 694T248 698Q259 698 264 689T269 669Q269 646 268 617T266 560V-63Q266 -90 267 -119T269 -172Q269 -182 264 -191T248 -201Q222 -201 203 -198T156 -194Q138 -194 124 -195T99 -197T76 -200T50 -201Q22 -201 22 -185Q22 -177 29 -174T48 -170Q63 -170 78 -172T116 -174H191Z"  />
<glyph unicode="^" horiz-adv-x="600" d="M284 676H316L488 311H456L300 643L144 311H112L284 676Z"  />
<glyph unicode="_" horiz-adv-x="500" d="M0 -75H500V-125H0V-75Z"  />
<glyph unicode="`" horiz-adv-x="500" d="M149 683Q138 691 135 695T131 704Q131 710 135 713T144 717Q149 717 155 714T168 705L301 606Q311 599 311 591Q311 586 308 584T302 581Q294 581 285 588L149 683Z"  />
<glyph unicode="a" horiz-adv-x="564" d="M405 102Q393 84 378 64T339 26T282 -3T201 -15Q165 -15 135 -5T84 25T50 68T37 122Q37 165 52 193T94 240T160 266T246 276Q266 277 293 280T344 293T386 324T403 381Q403 398 397 418T374 455T329 483T257 495Q218 495 189 486T139 462T109 428T98 390Q98 383 100 378T107 373Q108 373 110 377T117 387T128 396T144 401Q161 401 167 390T174 368Q174 349 160 337T127 325Q105 325 87 342T69 385Q69 410 81 433T117 475T175 505T253 516Q305 516 339 503T395 467T424 412T433 345V146Q433 111 434 85T440 42T456 15T489 6Q498 6 508 10T527 24T540 49T544 85Q542 111 542 126T545 150T550 160T557 162Q571 162 571 132Q571 98 568 71T557 25T532 -4T488 -15Q461 -15 446 -5T423 21T411 59T407 102H405ZM406 302Q406 313 402 313Q400 313 398 309T390 300Q377 287 363 279T332 265T294 257T244 253Q208 251 176 246T120 226T81 186T66 120Q66 90 80 69T115 33T161 13T208 6Q243 6 278 19T341 57T388 118T406 202V302Z"  />
<glyph unicode="b" horiz-adv-x="583" d="M106 13Q106 46 107 75T109 146V542Q109 589 108 615T104 655T92 671T68 674Q53 674 33 672T2 670Q-18 670 -18 683Q-18 697 -1 697Q7 697 20 695T63 693Q87 693 97 695T119 697Q131 697 133 692T136 676V391H138Q154 427 175 451T221 489T272 510T324 516Q364 516 403 501T473 453T523 371T542 251Q542 186 526 137T479 53T408 2T316 -15Q292 -15 268 -11T221 7T176 42T138 100H136Q136 80 137 58T139 16Q139 8 136 1T122 -7Q106 -7 106 12V13ZM513 248Q513 289 504 333T473 413T414 472T322 495Q268 495 237 476T189 437Q175 421 165 405T148 366T138 311T135 232Q135 126 180 66T315 6Q344 6 378 15T443 52T493 126T513 248Z"  />
<glyph unicode="c" horiz-adv-x="526" d="M69 245Q69 192 83 148T124 73T190 24T281 6Q339 6 374 26T427 72T451 120T457 148Q458 174 469 174Q485 174 485 155Q485 140 477 112T447 55T386 6T285 -15Q219 -15 173 8T97 68T54 152T40 245Q40 302 56 351T104 437T182 495T286 516Q328 516 363 504T422 471T461 423T475 365Q475 327 455 308T412 289Q395 289 384 299T372 326Q372 341 382 349T403 357Q417 357 423 349T435 341Q441 341 445 350T450 370Q450 388 441 410T413 450T362 482T288 495Q240 495 200 478T130 429T85 351T69 245Z"  />
<glyph unicode="d" horiz-adv-x="601" d="M439 89H437Q401 31 359 8T263 -15Q212 -15 171 4T101 59T56 141T40 244Q40 307 59 357T110 443T184 497T274 516Q297 516 320 512T365 496T405 465T437 415H439V542Q439 589 438 615T434 655T422 671T398 674Q383 674 363 672T332 670Q312 670 312 683Q312 697 329 697Q337 697 350 695T393 693Q417 693 427 695T449 697Q461 697 463 692T466 676V150Q466 103 466 77T471 38T483 22T508 19Q523 19 543 21T574 23Q584 23 588 19T593 10Q593 6 589 1T577 -4Q569 -4 556 -2T513 0Q489 0 479 -2T460 -4Q446 -4 443 8T439 41V89ZM441 255Q441 302 435 345T411 422T360 475T271 495Q229 495 193 477T129 426T85 347T69 243Q69 180 87 135T134 62T198 20T267 6Q303 6 335 19T391 59Q406 76 415 93T431 133T439 184T441 255Z"  />
<glyph unicode="e" horiz-adv-x="545" d="M91 260Q77 260 73 256T69 235Q69 195 80 154T115 80T178 27T271 6Q312 6 344 17T399 47T437 88T456 133Q461 155 465 166T477 177Q485 177 487 172T490 162Q490 150 480 121T446 61T379 8T273 -15Q208 -15 164 9T92 71T52 154T40 244Q40 303 57 353T105 439T180 495T278 516Q338 516 379 493T447 435T484 361T496 290Q496 267 486 264T455 260H91ZM450 284Q461 284 464 288T467 300Q467 321 459 354T429 418T370 472T276 495Q234 495 203 483T149 451T112 409T89 364T77 325T73 300Q73 289 78 287T95 284H450Z"  />
<glyph unicode="f" horiz-adv-x="357" d="M153 454Q153 471 150 476T135 482Q122 482 104 480T72 478Q62 478 55 481T48 492Q48 497 52 501T66 505Q73 505 80 505T96 503Q105 502 114 502T132 501Q146 501 149 504T154 522Q156 556 162 590T185 650T234 692T316 709Q371 709 400 685T430 630Q430 614 421 599T388 584Q368 584 361 596T354 618Q354 627 359 636T376 648Q381 649 385 650T390 654Q390 664 369 676T311 688Q273 688 248 676T207 642T186 591T180 525Q180 508 184 505T204 501Q214 501 228 501T258 503Q273 504 287 504T311 505Q326 505 332 501T338 492Q338 485 332 482T310 478Q284 478 254 480T206 482Q189 482 185 477T180 454V186Q180 129 181 96T187 45T203 22T236 16Q247 16 261 18T285 20Q294 20 300 17T307 6Q307 -1 301 -4T288 -7Q265 -7 232 -4T166 0Q135 0 102 -3T45 -7Q38 -7 32 -4T26 6Q26 13 32 16T48 20Q57 20 71 18T97 16Q118 16 129 21T146 44T152 95T153 186V454Z"  />
<glyph unicode="g" horiz-adv-x="602" d="M167 99Q156 100 139 104T105 117T76 144T64 189Q64 211 72 225T91 247T115 260T138 267Q131 281 126 296T121 340Q121 383 137 416T179 471T239 505T309 516Q346 516 377 505T430 481Q427 492 426 497T425 509Q425 530 433 545T456 571T487 587T521 592Q563 592 582 569T602 522Q602 499 588 486T557 472Q544 472 535 480T526 503Q526 517 534 524T551 531Q554 531 558 530T566 529Q573 529 573 539Q573 547 562 559T523 571Q490 571 471 552T451 505Q451 485 458 469T474 435Q483 418 490 398T497 348Q497 313 485 283T448 231T388 195T308 182Q274 182 249 188T205 204T174 223T155 240Q120 240 107 223T93 188Q93 160 110 145T157 123T225 115T304 113Q367 112 418 105T505 80T560 34T580 -38Q580 -79 561 -108T506 -157T421 -186T310 -195Q170 -195 104 -153T38 -43Q38 -7 52 18T87 58T129 83T167 97V99ZM468 345Q468 414 426 454T310 495Q269 495 239 482T189 448T160 399T150 344Q150 309 162 283T196 239T247 212T310 203Q382 203 425 243T468 345ZM313 -174Q387 -174 433 -161T506 -128T541 -85T551 -40Q551 -5 533 20T481 61T400 84T296 92Q230 92 186 81T116 50T78 7T67 -43Q67 -109 131 -141T313 -174Z"  />
<glyph unicode="h" horiz-adv-x="658" d="M139 542Q139 589 138 615T134 655T122 671T98 674Q83 674 63 672T32 670Q12 670 12 683Q12 697 29 697Q37 697 50 695T93 693Q117 693 127 695T149 697Q161 697 163 692T166 676V412H168Q176 425 190 443T225 477T279 505T355 516Q414 516 448 498T499 452T522 391T527 326V186Q527 129 528 96T534 45T550 22T583 16Q594 16 608 18T632 20Q641 20 647 17T654 6Q654 -1 648 -4T635 -7Q612 -7 579 -4T513 0Q482 0 449 -3T392 -7Q385 -7 379 -4T373 6Q373 13 379 16T395 20Q404 20 418 18T444 16Q465 16 476 21T493 44T499 95T500 186V311Q500 349 495 382T473 441T428 480T350 495Q314 495 281 483T222 447T181 385T166 299V186Q166 129 167 96T173 45T189 22T222 16Q233 16 247 18T271 20Q280 20 286 17T293 6Q293 -1 287 -4T274 -7Q251 -7 218 -4T152 0Q121 0 88 -3T31 -7Q24 -7 18 -4T12 6Q12 13 18 16T34 20Q43 20 57 18T83 16Q104 16 115 21T132 44T138 95T139 186V542Z"  />
<glyph unicode="i" horiz-adv-x="320" d="M157 350Q157 397 156 423T152 463T140 479T116 482Q101 482 81 480T50 478Q30 478 30 491Q30 505 47 505Q55 505 68 503T111 501Q135 501 145 503T167 505Q179 505 181 500T184 484V186Q184 129 185 96T191 45T207 22T240 16Q251 16 265 18T289 20Q298 20 304 17T311 6Q311 -1 305 -4T292 -7Q269 -7 236 -4T170 0Q139 0 106 -3T49 -7Q42 -7 36 -4T30 6Q30 13 36 16T52 20Q61 20 75 18T101 16Q122 16 133 21T150 44T156 95T157 186V350ZM124 620Q124 636 135 646T161 657Q176 657 187 647T198 620Q198 604 187 593T161 582Q146 582 135 593T124 620Z"  />
<glyph unicode="j" horiz-adv-x="282" d="M157 350Q157 397 156 423T152 463T140 479T116 482Q101 482 81 480T50 478Q30 478 30 491Q30 505 47 505Q55 505 68 503T111 501Q135 501 145 503T167 505Q179 505 181 500T184 484V-7Q184 -111 148 -155T28 -200Q-13 -200 -39 -190T-82 -164T-104 -132T-111 -101Q-111 -81 -98 -68T-66 -54Q-49 -54 -41 -65T-32 -89Q-32 -109 -42 -113T-59 -119Q-62 -120 -66 -121T-70 -128Q-70 -134 -65 -142T-48 -159T-18 -173T26 -179Q59 -179 84 -171T125 -143T149 -90T157 -7V350ZM124 620Q124 636 135 646T161 657Q176 657 187 647T198 620Q198 604 187 593T161 582Q146 582 135 593T124 620Z"  />
<glyph unicode="k" horiz-adv-x="620" d="M305 276Q298 286 296 287T289 289Q284 289 273 279L166 184Q166 128 167 95T173 45T189 22T222 16Q233 16 247 18T271 20Q280 20 286 17T293 6Q293 -1 287 -4T274 -7Q251 -7 218 -4T152 0Q121 0 88 -3T31 -7Q24 -7 18 -4T12 6Q12 13 18 16T34 20Q43 20 57 18T83 16Q104 16 115 21T132 44T138 95T139 186V542Q139 589 138 615T134 655T122 671T98 674Q83 674 63 672T32 670Q12 670 12 683Q12 697 29 697Q37 697 50 695T93 693Q117 693 127 695T149 697Q161 697 163 692T166 676V219L401 428Q424 449 430 457T436 472Q436 479 431 482T401 485Q387 485 375 483T352 481Q343 481 337 485T330 495Q330 501 336 504T352 508Q363 508 378 507T411 505T443 502T470 501Q480 501 495 502T527 504T559 507T586 508Q594 508 600 504T606 495Q606 487 599 484T584 481Q575 481 563 483T540 485Q527 485 517 483T496 474T473 458T445 433L327 328Q318 320 317 317T315 311Q315 307 323 296L478 79Q493 58 502 46T520 27T537 18T562 16Q573 16 588 18T614 20Q624 20 629 16T635 6Q635 -7 609 -7Q585 -7 554 -4T496 0Q467 0 434 -3T378 -7Q367 -7 362 -3T356 6Q356 20 378 20Q389 20 400 18T425 16Q470 16 470 34Q470 37 465 46T454 66T440 88T427 106L305 276Z"  />
<glyph unicode="l" horiz-adv-x="301" d="M139 542Q139 589 138 615T134 655T122 671T98 674Q83 674 63 672T32 670Q12 670 12 683Q12 697 29 697Q37 697 50 695T93 693Q117 693 127 695T149 697Q161 697 163 692T166 676V186Q166 129 167 96T173 45T189 22T222 16Q233 16 247 18T271 20Q280 20 286 17T293 6Q293 -1 287 -4T274 -7Q251 -7 218 -4T152 0Q121 0 88 -3T31 -7Q24 -7 18 -4T12 6Q12 13 18 16T34 20Q43 20 57 18T83 16Q104 16 115 21T132 44T138 95T139 186V542Z"  />
<glyph unicode="m" horiz-adv-x="996" d="M157 350Q157 397 156 423T152 463T140 479T116 482Q101 482 81 480T50 478Q30 478 30 491Q30 505 47 505Q55 505 68 503T111 501Q135 501 145 503T167 505Q179 505 181 500T184 484V416H186Q190 427 200 444T229 477T277 504T351 516Q397 516 426 505T473 477T501 440T517 402Q523 415 534 434T566 472T616 503T693 516Q742 516 775 502T828 466T856 414T864 356V186Q864 129 865 96T871 45T887 22T920 16Q931 16 945 18T969 20Q978 20 984 17T991 6Q991 -1 985 -4T972 -7Q949 -7 916 -4T850 0Q819 0 786 -3T729 -7Q722 -7 716 -4T710 6Q710 13 716 16T732 20Q741 20 755 18T781 16Q802 16 813 21T830 44T836 95T837 186V329Q837 361 833 391T813 444T768 481T690 495Q613 495 569 446T524 288V186Q524 129 525 96T531 45T547 22T580 16Q591 16 605 18T629 20Q638 20 644 17T651 6Q651 -1 645 -4T632 -7Q609 -7 576 -4T510 0Q479 0 446 -3T389 -7Q382 -7 376 -4T370 6Q370 13 376 16T392 20Q401 20 415 18T441 16Q462 16 473 21T490 44T496 95T497 186V320Q497 348 494 378T475 435T431 478T350 495Q272 495 228 448T184 309V186Q184 129 185 96T191 45T207 22T240 16Q251 16 265 18T289 20Q298 20 304 17T311 6Q311 -1 305 -4T292 -7Q269 -7 236 -4T170 0Q139 0 106 -3T49 -7Q42 -7 36 -4T30 6Q30 13 36 16T52 20Q61 20 75 18T101 16Q122 16 133 21T150 44T156 95T157 186V350Z"  />
<glyph unicode="n" horiz-adv-x="696" d="M157 350Q157 397 156 423T152 463T140 479T116 482Q101 482 81 480T50 478Q30 478 30 491Q30 505 47 505Q55 505 68 503T111 501Q135 501 145 503T167 505Q179 505 181 500T184 484V407H186Q192 419 204 438T237 474T292 503T374 516Q432 516 469 499T527 452T556 381T564 292V186Q564 129 565 96T571 45T587 22T620 16Q631 16 645 18T669 20Q678 20 684 17T691 6Q691 -1 685 -4T672 -7Q649 -7 616 -4T550 0Q519 0 486 -3T429 -7Q422 -7 416 -4T410 6Q410 13 416 16T432 20Q441 20 455 18T481 16Q502 16 513 21T530 44T536 95T537 186V288Q537 333 531 370T507 436T457 479T371 495Q277 495 231 440T184 290V186Q184 129 185 96T191 45T207 22T240 16Q251 16 265 18T289 20Q298 20 304 17T311 6Q311 -1 305 -4T292 -7Q269 -7 236 -4T170 0Q139 0 106 -3T49 -7Q42 -7 36 -4T30 6Q30 13 36 16T52 20Q61 20 75 18T101 16Q122 16 133 21T150 44T156 95T157 186V350Z"  />
<glyph unicode="o" horiz-adv-x="564" d="M524 251Q524 197 507 149T459 65T383 7T282 -15Q226 -15 182 6T106 64T57 149T40 251Q40 305 57 353T105 437T181 494T282 516Q338 516 382 495T458 437T507 353T524 251ZM495 251Q495 299 481 343T439 421T372 475T282 495Q232 495 193 475T126 422T84 344T69 251Q69 203 83 159T125 80T192 26T282 6Q332 6 371 26T438 80T480 158T495 251Z"  />
<glyph unicode="p" horiz-adv-x="601" d="M131 350Q131 397 130 423T126 463T114 479T90 482Q75 482 55 480T24 478Q4 478 4 491Q4 505 21 505Q29 505 42 503T85 501Q109 501 119 503T141 505Q153 505 155 500T158 484V400H160Q178 439 201 462T250 497T299 512T343 516Q404 516 445 493T512 433T549 351T561 259Q561 208 548 159T506 71T434 9T330 -15Q314 -15 292 -12T246 1T200 31T160 83H158V-8Q158 -65 159 -98T165 -149T181 -172T214 -178Q225 -178 239 -176T263 -174Q272 -174 278 -177T285 -188Q285 -195 279 -198T266 -201Q243 -201 210 -198T144 -194Q113 -194 80 -197T23 -201Q16 -201 10 -198T4 -188Q4 -181 10 -178T26 -174Q35 -174 49 -176T75 -178Q96 -178 107 -173T124 -150T130 -99T131 -8V350ZM532 254Q532 297 524 340T493 417T435 473T342 495Q312 495 289 488T250 472T223 452T207 436Q191 418 181 401T166 360T158 304T156 223Q156 193 158 170T164 129T177 96T197 66Q219 40 255 23T334 6Q355 6 389 14T454 49T509 124T532 254Z"  />
<glyph unicode="q" horiz-adv-x="564" d="M442 74H440Q432 62 421 47T390 18T341 -5T270 -15Q211 -15 168 4T97 58T54 140T40 243Q40 317 60 369T114 453T188 501T272 516Q329 516 372 494T440 422H442V498Q442 516 456 516Q464 516 466 511T469 499V-8Q469 -65 470 -98T476 -149T492 -172T525 -178Q536 -178 550 -176T574 -174Q583 -174 589 -177T596 -188Q596 -195 590 -198T577 -201Q554 -201 521 -198T455 -194Q424 -194 391 -197T334 -201Q327 -201 321 -198T315 -188Q315 -181 321 -178T337 -174Q346 -174 360 -176T386 -178Q407 -178 418 -173T435 -150T441 -99T442 -8V74ZM443 306Q443 345 434 379T404 439T351 480T271 495Q218 495 180 474T117 418T81 336T69 241Q69 205 77 164T107 88T168 29T269 6Q320 6 353 21T407 65T435 133T443 221V306Z"  />
<glyph unicode="r" horiz-adv-x="508" d="M157 350Q157 397 156 423T152 463T140 479T116 482Q101 482 81 480T50 478Q30 478 30 491Q30 505 47 505Q55 505 68 503T111 501Q135 501 145 503T167 505Q179 505 181 500T184 484V417H186Q191 427 202 443T232 476T279 504T346 516Q369 516 394 509T440 488T474 450T488 393Q488 355 469 332T424 308Q403 308 395 320T387 343Q387 360 397 366T417 373Q424 373 431 367T445 360Q451 360 455 372T459 398Q459 414 453 431T432 463T397 486T344 495Q264 495 224 447T184 287V186Q184 129 185 96T191 45T207 22T240 16Q251 16 265 18T289 20Q298 20 304 17T311 6Q311 -1 305 -4T292 -7Q269 -7 236 -4T170 0Q139 0 106 -3T49 -7Q42 -7 36 -4T30 6Q30 13 36 16T52 20Q61 20 75 18T101 16Q122 16 133 21T150 44T156 95T157 186V350Z"  />
<glyph unicode="s" horiz-adv-x="508" d="M83 72Q83 57 84 38T86 9Q86 1 84 -6T73 -13Q63 -13 61 -6T59 8Q59 33 62 63T66 117Q66 143 63 169T59 212Q59 223 62 230T73 237Q86 237 86 212Q86 198 85 184T83 154Q83 120 97 93T135 46T192 17T263 6Q303 6 334 16T386 44T417 84T428 132Q428 165 416 185T379 216T320 234T240 246Q207 250 177 256T125 276T89 312T75 370Q75 402 89 428T127 474T182 505T250 516Q289 516 315 507T360 485T388 457T405 432H407Q407 452 406 462T404 482Q404 489 407 499T420 510Q428 510 429 502T431 482Q431 466 428 444T424 396Q424 378 427 356T431 319Q431 313 428 307T417 301Q409 301 407 306T404 317Q404 326 405 334T407 351Q407 371 400 396T376 443T328 480T253 495Q220 495 193 486T146 461T115 423T104 375Q104 345 114 327T146 299T205 282T295 267Q318 264 346 258T399 239T440 203T457 142Q457 109 443 80T404 30T342 -3T263 -15Q218 -15 187 -5T134 20T101 48T85 72H83Z"  />
<glyph unicode="t" horiz-adv-x="376" d="M110 433Q110 464 107 472T81 481Q70 481 53 479T25 477Q16 477 11 481T6 491Q6 504 25 504Q30 504 36 504T49 503Q55 502 61 502T74 501Q105 501 111 515T118 562Q118 573 118 585T119 608T124 624T132 631Q140 631 141 626T143 612Q143 589 141 570T139 524Q139 507 149 504T190 501Q198 501 209 501T232 503Q244 503 255 503T273 504Q285 504 289 500T294 491Q294 485 290 481T269 477Q260 477 247 477T219 479T190 480T163 481Q153 481 148 480T141 473T138 458T137 433V218Q137 166 140 127T153 60T183 20T235 6Q271 6 290 22T319 61T329 112T331 162Q331 173 330 184T329 204Q329 225 344 225Q359 225 359 204Q359 155 357 115T342 46T305 1T235 -15Q170 -15 140 26T110 162V433Z"  />
<glyph unicode="u" horiz-adv-x="658" d="M497 93H495Q490 83 479 65T447 29T394 -2T316 -15Q258 -15 222 0T164 43T136 108T128 190V350Q128 397 127 423T123 463T111 479T87 482Q72 482 52 480T21 478Q1 478 1 491Q1 505 18 505Q26 505 39 503T82 501Q106 501 116 503T138 505Q150 505 152 500T155 484V185Q155 97 191 52T314 6Q370 6 405 25T461 75T489 146T497 226V350Q497 397 496 423T492 463T480 479T456 482Q441 482 421 480T390 478Q370 478 370 491Q370 505 387 505Q395 505 408 503T451 501Q475 501 485 503T507 505Q519 505 521 500T524 484V151Q524 104 525 78T529 38T541 22T565 19Q580 19 600 21T631 23Q651 23 651 10Q651 -4 634 -4Q626 -4 613 -2T570 0Q546 0 536 -2T514 -4Q502 -4 500 1T497 17V93Z"  />
<glyph unicode="v" horiz-adv-x="583" d="M99 420Q91 439 86 451T75 471T63 482T46 485Q37 485 26 483T6 481Q-4 481 -11 483T-18 493Q-18 508 1 508Q8 508 20 507T48 505T78 502T106 501Q116 501 130 502T161 504T195 507T227 508Q236 508 240 504T245 493Q245 487 239 484T225 481Q210 481 191 483T157 485Q134 485 126 478T118 461Q118 447 133 411L282 48Q285 40 287 35T292 30Q295 30 299 38T306 54L458 425Q465 441 466 447T468 459Q468 465 462 475T426 485Q409 485 393 483T362 481Q355 481 350 484T344 493Q344 501 350 504T365 508Q375 508 391 507T424 505T457 502T482 501Q501 501 531 504T582 508Q590 508 595 504T600 495Q600 487 593 484T580 481Q572 481 566 483T551 485Q540 485 532 484T516 475T500 453T480 411L317 14Q315 8 309 -2T293 -12Q283 -12 277 -3T265 20L99 420Z"  />
<glyph unicode="w" horiz-adv-x="808" d="M107 426Q98 458 89 471T54 485Q45 485 38 483T19 481Q9 481 3 485T-4 494Q-4 502 3 505T19 508Q29 508 42 507T70 505T98 502T123 501Q146 501 177 504T231 508Q252 508 252 494Q252 489 247 485T224 481Q208 481 191 483T160 485Q143 485 136 478T129 460Q129 455 130 448T135 427L238 60Q245 38 250 38Q256 38 261 58L378 473Q381 484 386 492T404 501Q420 501 427 478L556 54Q560 38 567 38Q571 38 574 41T581 59L673 407Q679 430 680 438T682 456Q682 474 668 479T631 485Q616 485 602 483T573 481Q565 481 560 484T555 494Q555 500 562 504T577 508Q599 508 627 505T685 501Q707 501 738 504T792 508Q803 508 807 504T812 494Q812 481 792 481Q780 481 770 483T750 485Q740 485 734 483T723 473T714 451T703 413L597 24Q593 10 588 -1T568 -12Q554 -12 548 0T537 26L416 430Q414 438 411 444T405 450Q401 450 399 445T394 432L279 24Q275 10 270 -1T250 -12Q236 -12 230 0T219 26L107 426Z"  />
<glyph unicode="x" horiz-adv-x="639" d="M332 224Q329 228 324 233T316 239Q311 239 299 225L177 83Q158 61 151 51T144 35Q144 16 176 16Q192 16 208 18T240 20Q251 20 257 16T264 6Q264 -7 244 -7Q233 -7 218 -6T185 -4T149 -1T117 0Q94 0 67 -3T18 -7Q7 -7 4 -4T0 6Q0 20 21 20Q31 20 41 18T61 16Q70 16 77 18T91 26T108 42T132 70L285 249Q294 260 294 265Q294 270 285 281L159 431Q144 449 135 459T118 475T105 483T89 485Q80 485 72 483T51 481Q38 481 34 484T29 494Q29 499 35 503T54 508Q77 508 108 505T162 501Q172 501 186 502T215 504T243 507T267 508Q278 508 282 504T286 494Q286 489 282 485T268 481Q259 481 248 483T227 485Q197 485 185 480T172 464Q172 459 178 450T198 423L299 304Q311 290 315 290Q318 290 323 295T332 304L445 435Q459 452 462 456T466 466Q466 474 458 479T436 485Q422 485 406 483T377 481Q357 481 357 494Q357 499 362 503T378 508Q398 508 426 505T477 501Q502 501 533 504T589 508Q597 508 603 504T610 494Q610 489 604 485T588 481Q579 481 571 483T554 485Q528 485 507 464T467 421L347 281Q339 273 338 271T337 266Q337 261 338 259T346 249L511 56Q522 43 538 30T572 16Q582 16 591 18T610 20Q619 20 625 17T632 6Q632 -7 609 -7Q585 -7 559 -4T505 0Q494 0 480 -1T451 -3T422 -6T398 -7Q384 -7 379 -3T374 6Q374 11 379 15T398 20Q411 20 429 18T459 16Q475 16 482 21T489 32Q489 40 483 47T466 67L332 224Z"  />
<glyph unicode="y" horiz-adv-x="583" d="M104 407Q89 446 77 465T36 485Q30 485 25 483T8 481Q4 481 -1 484T-6 494Q-6 503 1 505T14 508Q38 508 60 505T109 501Q135 501 163 504T218 508Q225 508 234 507T244 494Q244 487 237 484T220 481Q206 481 191 483T161 485Q120 485 120 462Q120 457 124 442T135 410L281 34Q283 29 285 25T289 21Q293 21 298 34L454 415Q468 447 468 458Q468 466 463 471T452 480T438 484T426 485Q412 485 397 483T367 481Q358 481 352 484T346 494Q346 501 353 504T366 508Q386 508 413 505T467 501Q495 501 524 504T574 508Q579 508 585 505T592 494Q592 481 567 481Q559 481 554 483T539 485Q530 485 524 482T511 470T496 444T476 397L303 -20Q283 -69 261 -103T215 -158T162 -190T101 -200Q68 -200 44 -191T3 -166T-22 -133T-30 -97Q-30 -73 -15 -58T20 -42Q36 -42 46 -52T56 -77Q56 -90 47 -99T22 -109Q17 -109 14 -107T5 -105Q-1 -105 -1 -115Q-1 -124 5 -135T25 -155T57 -172T101 -179Q134 -179 159 -168T203 -139T235 -103T255 -66T266 -36T270 -23Q270 -16 269 -11T263 5L104 407Z"  />
<glyph unicode="z" horiz-adv-x="545" d="M94 0Q73 0 57 2T40 21Q40 29 45 38T73 70L436 455Q441 459 444 464T448 474Q448 477 444 477T423 478H135Q122 478 112 477T96 471T86 453T82 420Q82 403 84 376T86 335Q86 325 83 318T71 311Q64 311 61 317T58 335Q58 345 60 359T62 389Q62 409 60 431T58 475Q58 485 60 490T69 497T88 500T119 501H434Q462 501 473 499T484 482Q484 465 463 444L86 46Q84 43 79 37T74 28Q74 24 78 24T98 23H407Q425 23 435 24T450 30T457 48T459 82Q459 104 457 130T455 186Q455 200 459 207T470 214Q484 214 484 186Q484 165 482 143T480 99Q480 80 482 62T484 24Q484 6 473 3T432 0H94Z"  />
<glyph unicode="{" horiz-adv-x="338" d="M91 247Q110 242 124 233T149 202T164 142T169 42Q169 20 168 1T164 -37T160 -75T158 -115Q158 -142 169 -157T193 -172Q199 -172 203 -169T210 -161T218 -153T229 -149Q244 -149 250 -156T257 -171Q257 -182 248 -191T222 -200Q179 -200 154 -173T128 -96Q128 -81 129 -67T133 -36T137 6T139 64Q139 106 137 134T127 181T109 211T80 229Q72 233 67 236T61 248Q61 257 66 260T80 267Q98 274 109 285T127 314T136 361T139 432Q139 466 138 490T134 532T130 563T128 592Q128 642 153 669T222 696Q238 696 247 687T257 667Q257 659 251 652T229 645Q223 645 219 648T211 656T203 664T193 668Q180 668 169 653T158 611Q158 590 159 571T163 534T167 496T169 454Q169 392 164 354T149 295T125 263T91 249V247Z"  />
<glyph unicode="|" horiz-adv-x="200" d="M86 750H114V-250H86V750Z"  />
<glyph unicode="}" horiz-adv-x="338" d="M247 249Q228 253 214 263T189 294T174 354T169 454Q169 476 170 495T174 533T178 571T180 611Q180 638 169 653T145 668Q139 668 135 665T128 657T120 649T109 645Q94 645 88 652T81 667Q81 678 90 687T116 696Q159 696 184 669T210 592Q210 577 209 564T205 532T201 490T199 432Q199 390 201 362T211 315T229 285T258 267Q266 263 271 260T277 248Q277 239 272 236T258 229Q240 222 229 211T211 182T202 135T199 64Q199 29 200 6T204 -36T208 -67T210 -96Q210 -146 185 -173T116 -200Q100 -200 91 -191T81 -171Q81 -163 87 -156T109 -149Q115 -149 119 -152T127 -160T135 -168T145 -172Q158 -172 169 -157T180 -115Q180 -94 179 -75T175 -38T171 0T169 42Q169 103 174 141T189 201T213 232T247 247V249Z"  />
<glyph unicode="~" horiz-adv-x="600" d="M77 229Q84 242 97 254T126 277T161 294T200 301Q229 301 258 289T316 264Q345 250 372 239T418 228Q447 228 468 248T504 290L523 271Q505 238 476 219T418 200Q395 200 367 211T310 236Q281 250 252 261T200 273Q171 273 142 255T95 211L77 229Z"  />
<glyph unicode="&#xA0;" horiz-adv-x="320" />
<glyph unicode="&#xA1;" horiz-adv-x="432" d="M235 -171Q235 -188 231 -194T217 -200Q198 -200 198 -171L202 356Q202 371 205 376T215 381Q223 381 227 376T231 356L235 -171ZM265 466Q265 446 251 431T216 416Q195 416 181 431T167 466Q167 487 181 501T216 516Q236 516 250 502T265 466Z"  />
<glyph unicode="&#xA2;" horiz-adv-x="639" d="M318 78Q268 79 228 98T159 152T115 232T99 335Q99 400 115 449T160 532T230 585T318 611V720Q318 742 332 742Q345 742 345 720V611Q402 608 438 590T494 549T523 501T531 459Q531 430 514 408T470 385Q452 385 441 396T429 422Q429 437 439 444T460 452Q472 452 480 444T493 435Q497 435 501 442T506 464Q506 480 500 501T475 540T426 572T345 588V101Q418 104 460 138T513 235Q516 252 518 259T529 267Q541 267 541 247Q541 221 530 193T496 139T435 97T345 78V-27Q345 -50 332 -50Q327 -50 323 -45T318 -27V78ZM318 588Q257 580 220 551T163 485T136 407T129 336Q129 299 137 259T168 184T226 126T318 101V588Z"  />
<glyph unicode="&#xA3;" horiz-adv-x="639" d="M97 374Q80 374 80 388Q80 393 83 397T96 401H114H195Q181 431 171 463T160 535Q160 575 173 605T211 657T268 688T340 699Q374 699 404 690T458 665T494 625T508 571Q508 543 497 527T468 511Q455 511 445 519T434 541Q434 553 440 558T458 568Q472 574 472 594Q472 611 462 626T435 652T394 669T341 676Q313 676 286 668T238 644T203 601T190 537Q190 515 197 483T231 401H446Q464 401 469 397T475 386Q475 380 472 377T457 374H245Q265 340 280 312T306 260T321 214T326 167Q326 148 322 132T310 98Q346 66 372 47T417 17T451 3T479 0Q501 0 520 9T555 36T578 79T587 134Q587 165 578 185T556 218T527 236T499 241Q471 241 452 223T428 178Q426 166 425 160T415 154Q401 154 401 173Q401 185 406 201T424 233T454 258T500 269Q550 269 583 233T617 134Q617 110 610 82T587 31T545 -7T482 -23Q461 -23 442 -18T401 -2T354 27T297 71Q287 54 274 37T242 7T200 -15T146 -23Q116 -23 94 -14T57 10T35 43T27 79Q27 95 33 113T53 146T88 171T140 181Q149 181 161 180T191 172T232 152T285 115Q289 126 292 139T295 170Q295 212 273 260T207 374H97ZM136 158Q104 158 81 135T57 79Q57 66 62 52T78 27T106 8T149 0Q195 0 222 25T273 87Q263 96 248 108T215 131T177 150T136 158Z"  />
<glyph unicode="&#xA4;" horiz-adv-x="639" d="M458 181Q429 157 394 144T320 130Q281 130 246 144T182 181L102 100Q91 88 81 88Q74 88 70 92T66 102Q66 112 80 126L158 205Q133 234 119 269T105 343Q105 383 119 418T158 480L81 557Q66 572 66 582Q66 588 70 592T80 597Q89 597 105 581L182 504Q211 529 246 542T320 556Q359 556 394 543T458 504L535 581Q551 597 560 597Q566 597 570 592T574 582Q574 571 559 557L482 480Q507 453 521 419T535 343Q535 303 521 268T482 205L560 126Q574 113 574 102Q574 90 560 88Q550 88 538 100L458 181ZM135 343Q135 305 150 272T191 214T250 175T320 160Q357 160 390 174T449 213T490 271T505 343Q505 382 490 415T450 473T391 512T320 526Q284 526 251 512T192 474T151 416T135 343Z"  />
<glyph unicode="&#xA5;" horiz-adv-x="639" d="M69 221Q49 221 49 235Q49 246 64 246H304V268Q304 277 302 281T297 292L263 359H69Q58 359 54 363T49 373Q49 384 64 384H250L131 614Q121 634 110 647T77 660Q63 660 52 658T29 656Q21 656 13 658T4 669Q4 677 12 680T30 683Q51 683 81 680T135 676Q147 676 162 677T193 679T226 682T254 683Q262 683 268 680T274 669Q274 662 267 659T251 656Q231 656 210 658T172 660Q148 660 148 647Q148 645 151 638T157 625L304 332Q309 323 312 321T319 318Q324 318 327 320T336 332L475 598Q482 611 486 619T492 631T495 638T496 643Q496 653 487 656T462 660Q445 660 431 658T399 656Q366 656 366 669Q366 677 373 680T389 683Q415 683 447 680T510 676Q536 676 562 679T615 683Q623 683 629 680T635 669Q635 662 627 659T609 656Q598 656 591 658T569 660Q552 660 541 648T517 613L391 384H579Q590 384 594 381T598 372Q598 367 594 363T577 359H377L339 289Q335 281 334 277T332 265V246H579Q590 246 594 243T598 234Q598 221 576 221H332Q333 149 334 108T342 46T358 21T388 16Q404 16 417 18T444 20Q451 20 458 17T466 6Q466 -1 459 -4T444 -7Q421 -7 390 -4T320 0Q302 0 283 -1T246 -3T214 -6T190 -7Q169 -7 169 6Q169 13 176 16T191 20Q205 20 218 18T248 16Q267 16 277 21T294 46T301 107T304 221H69Z"  />
<glyph unicode="&#xA6;" horiz-adv-x="200" d="M86 175H114V-175H86V175ZM86 675H114V325H86V675Z"  />
<glyph unicode="&#xA7;" horiz-adv-x="639" d="M127 299Q127 332 140 357T173 401T211 430T242 448Q210 465 187 492T163 561Q163 580 171 603T199 648T253 683T340 698Q385 698 418 687T474 659T508 619T519 575Q519 559 515 549T504 533T490 525T478 523Q460 523 452 535T443 559Q443 564 445 572T456 586Q471 596 474 600T478 609Q478 622 467 634T438 655T395 669T344 675Q304 675 276 665T229 638T202 602T193 562Q193 538 203 521T232 488T280 458T347 425Q383 408 415 391T472 355T510 311T524 255Q524 203 492 168T413 108Q427 99 442 88T470 61T491 25T500 -24Q500 -59 486 -86T447 -131T386 -159T310 -169Q263 -169 227 -157T166 -125T128 -78T115 -20Q115 12 130 27T165 42Q186 42 193 30T201 7Q201 -7 194 -15T178 -29T162 -42T155 -60Q155 -74 166 -89T197 -116T246 -137T312 -146Q340 -146 368 -139T419 -118T456 -81T470 -28Q470 -1 462 18T433 55T379 91T292 137Q252 158 222 175T170 210T138 249T127 299ZM156 300Q156 278 164 262T197 227T267 185T386 122Q398 128 416 139T452 166T481 204T494 254Q494 278 486 295T454 331T385 372T267 432Q253 425 234 414T198 387T169 350T156 300Z"  />
<glyph unicode="&#xA8;" horiz-adv-x="500" d="M120 644Q120 659 131 671T160 683Q177 683 187 671T198 644Q198 629 188 617T160 605Q143 605 132 617T120 644ZM302 644Q302 659 313 671T342 683Q359 683 369 671T380 644Q380 629 370 617T342 605Q325 605 314 617T302 644Z"  />
<glyph unicode="&#xA9;" horiz-adv-x="770" d="M746 338Q746 263 718 198T640 83T525 6T385 -22Q311 -22 245 6T130 83T53 197T24 338Q24 413 52 478T130 593T245 670T385 698Q459 698 525 670T640 593T717 479T746 338ZM723 338Q723 408 697 469T624 576T517 648T385 675Q315 675 254 649T146 577T74 470T47 338Q47 268 73 207T146 100T253 28T385 1Q455 1 516 27T624 99T696 206T723 338ZM528 493Q526 507 526 512T526 525Q526 547 540 547Q550 547 550 534Q550 517 549 490T545 442Q544 430 547 414T550 381Q550 373 546 370T536 367Q523 367 523 384Q523 392 524 402T525 422Q525 445 517 466T493 504T452 531T394 541Q339 541 307 516T258 458T236 390T231 337Q231 303 239 269T266 208T316 163T395 146Q419 146 443 152T487 172T520 209T535 267Q536 281 538 287T549 294Q562 294 562 278Q562 256 554 230T526 180T474 141T394 125Q343 125 307 143T248 191T215 261T204 344Q204 386 215 425T251 495T311 543T396 562Q429 562 452 554T490 535T513 512T526 493H528Z"  />
<glyph unicode="&#xAA;" horiz-adv-x="413" d="M345 500Q345 508 348 513T356 519Q368 519 368 505Q368 488 367 472T360 444T345 425T317 418Q300 418 290 424T275 441T269 461T268 479H266Q262 473 255 463T235 442T202 425T152 418Q118 418 98 426T66 447T50 472T46 496Q46 512 51 527T72 553T114 572T186 582Q193 582 205 584T228 591T248 606T256 633Q256 656 237 674T175 692Q130 692 109 674T88 640Q88 636 89 633Q93 638 98 642T111 647Q122 647 126 640T131 626Q131 615 122 608T101 600Q87 600 76 610T65 635Q65 647 71 660T90 684T124 702T178 709Q228 709 258 688T288 614V507Q288 473 291 454T317 435Q334 435 340 447T345 475V500ZM266 591Q249 576 233 571T194 563Q163 560 140 557T101 548T77 529T69 496Q69 479 76 468T96 451T122 442T151 439Q174 439 195 445T231 464T256 494T266 537V591ZM46 336Q33 336 33 348Q33 354 36 355T46 357H367Q381 357 381 347Q381 336 370 336H363H46Z"  />
<glyph unicode="&#xAB;" horiz-adv-x="376" d="M55 251Q47 265 47 269Q47 273 50 278T55 287L150 446Q156 457 158 459T166 462Q172 462 175 459T178 451Q178 447 176 443T172 435L90 287Q88 284 86 279T84 269Q84 267 85 263T90 251L172 103Q174 101 176 96T178 87Q178 83 175 80T166 76Q162 76 159 78T150 92L55 251ZM186 251Q178 265 178 269Q178 273 181 278T186 287L281 446Q287 457 289 459T297 462Q303 462 306 459T309 451Q309 447 307 443T303 435L221 287Q219 284 217 279T215 269Q215 267 216 263T221 251L303 103Q305 101 307 96T309 87Q309 83 306 80T297 76Q293 76 290 78T281 92L186 251Z"  />
<glyph unicode="&#xAC;" horiz-adv-x="600" d="M522 333H50V361H550V139H522V333Z"  />
<glyph unicode="&#xAD;" horiz-adv-x="244" d="M27 251Q16 251 8 255T0 268Q0 285 28 285H214Q231 285 237 281T244 268Q244 251 214 251H27Z"  />
<glyph unicode="&#xAE;" horiz-adv-x="770" d="M397 357Q431 357 453 364T489 383T507 411T512 444Q512 474 500 491T468 517T423 528T374 531Q364 531 349 531T320 530T293 528T276 525Q269 523 268 518T267 492V377Q267 363 269 360T287 357H397ZM490 250Q490 279 482 296T459 323T422 335T372 338H290Q273 338 270 335T267 323V242Q267 214 267 197T271 170T280 157T297 154Q308 154 316 156T332 158Q342 158 346 155T350 146Q350 141 347 137T333 133Q319 133 299 137T255 140Q230 141 210 137T176 133Q166 133 163 137T159 146Q159 151 163 154T177 158Q185 158 193 156T212 154Q222 154 228 157T237 169T241 196T242 242V429Q242 465 241 485T237 516T228 529T212 532Q203 532 195 530T177 528Q169 528 164 532T159 541Q159 546 162 549T176 553Q189 553 212 550T255 546Q270 546 288 547T324 549T358 552T386 553Q467 553 503 525T539 446Q539 422 531 404T510 374T483 354T457 346V344Q478 336 489 323T506 295T513 265T514 237Q514 211 515 195T519 169T529 156T546 152Q567 152 578 155T600 158Q610 158 614 155T618 146Q618 141 615 137T601 133Q595 133 586 134T568 135Q559 135 550 134T534 133Q519 133 510 140T497 159T491 183T490 207V250ZM746 338Q746 263 718 198T640 83T525 6T385 -22Q311 -22 245 6T130 83T53 197T24 338Q24 413 52 478T130 593T245 670T385 698Q459 698 525 670T640 593T717 479T746 338ZM723 338Q723 408 697 469T624 576T517 648T385 675Q315 675 254 649T146 577T74 470T47 338Q47 268 73 207T146 100T253 28T385 1Q455 1 516 27T624 99T696 206T723 338Z"  />
<glyph unicode="&#xAF;" horiz-adv-x="500" d="M112 640Q105 640 100 643T94 654Q94 660 98 663T113 666H384Q406 666 406 653Q406 640 384 640H112Z"  />
<glyph unicode="&#xB0;" horiz-adv-x="400" d="M343 556Q343 526 332 500T302 455T256 424T200 413Q170 413 144 424T99 454T68 500T57 556Q57 586 68 612T98 657T144 688T200 699Q230 699 256 688T301 658T332 612T343 556ZM80 556Q80 531 89 509T115 471T153 446T200 436Q225 436 247 445T285 471T310 509T320 556Q320 581 311 603T285 641T247 666T200 676Q175 676 153 667T115 641T90 603T80 556Z"  />
<glyph unicode="&#xB1;" horiz-adv-x="600" d="M286 275H50V303H286V501H314V303H550V275H314V74H286V275ZM50 28H550V0H50V28Z"  />
<glyph unicode="&#xB2;" horiz-adv-x="420" d="M57 447Q70 466 91 477T140 488Q161 488 181 480T222 454Q238 440 248 432T267 419T284 412T302 410Q330 410 347 428T364 471Q364 486 359 492T350 498Q348 498 345 492T336 486Q330 486 323 490T316 505Q316 516 325 521T343 527Q360 527 372 509T385 466Q385 453 380 440T363 415T337 396T302 388Q276 388 256 400T216 431Q199 446 181 455T137 464Q117 464 104 459T82 448T70 436T66 427Q66 426 68 426Q69 426 71 426T76 427Q81 427 86 422T91 409Q91 401 86 396T68 390Q51 390 43 404T35 438Q35 477 49 504T87 549T141 579T202 599Q231 606 256 614T299 633T327 662T337 705Q337 722 331 739T309 771T268 795T205 804Q167 804 141 795T98 773T74 744T66 718Q66 705 74 705Q77 705 81 707T90 710Q98 710 103 704T108 686Q108 676 100 669T74 661Q65 661 53 670T41 705Q41 724 51 745T82 784T134 813T209 825Q248 825 277 815T325 788T353 750T362 708Q362 677 350 657T316 622T268 599T209 582Q159 569 129 552T82 517T61 480T55 447H57Z"  />
<glyph unicode="&#xB3;" horiz-adv-x="420" d="M317 776Q320 778 323 782T326 788Q326 790 316 790H113Q93 790 88 786T82 761Q82 748 84 730T86 694Q86 676 72 676Q66 676 63 680T60 690Q60 698 61 711T62 737Q62 748 61 763T60 796Q60 812 76 812H330Q350 812 356 810T362 802Q362 797 359 791T348 778L211 656L213 654Q214 655 219 656T239 657Q279 657 306 646T350 618T373 578T380 535Q380 509 371 483T340 436T285 402T203 388Q162 388 132 398T81 423T50 458T40 497Q40 521 53 536T87 551Q100 551 108 545T116 527Q116 504 97 504Q92 504 86 507T76 510Q71 510 68 505T64 491Q64 475 75 461T105 435T148 417T197 410Q238 410 267 420T315 448T343 487T352 529Q352 548 347 567T327 601T290 625T233 635Q198 635 184 628T165 621Q161 621 159 624T157 630Q157 632 159 635T165 641L317 776Z"  />
<glyph unicode="&#xB4;" horiz-adv-x="500" d="M332 705Q339 710 345 713T356 717Q361 717 365 714T369 704Q369 699 366 695T351 683L215 588Q206 581 198 581Q195 581 192 583T189 591Q189 599 199 606L332 705Z"  />
<glyph unicode="&#xB5;" horiz-adv-x="658" d="M497 93H495Q490 83 479 65T447 29T394 -2T316 -15Q297 -15 275 -13T230 -1T188 24T153 67L151 65Q150 21 155 -37T161 -154Q161 -176 159 -188T142 -200Q128 -200 126 -185T124 -154Q124 -112 124 -61T126 38T127 127T128 190V350Q128 397 127 423T123 463T111 479T87 482Q72 482 52 480T21 478Q1 478 1 491Q1 505 18 505Q26 505 39 503T82 501Q106 501 116 503T138 505Q150 505 152 500T155 484V185Q155 97 191 52T314 6Q370 6 405 25T461 75T489 146T497 226V350Q497 397 496 423T492 463T480 479T456 482Q441 482 421 480T390 478Q370 478 370 491Q370 505 387 505Q395 505 408 503T451 501Q475 501 485 503T507 505Q519 505 521 500T524 484V151Q524 104 525 78T529 38T541 22T565 19Q580 19 600 21T631 23Q651 23 651 10Q651 -4 634 -4Q626 -4 613 -2T570 0Q546 0 536 -2T514 -4Q502 -4 500 1T497 17V93Z"  />
<glyph unicode="&#xB6;" horiz-adv-x="639" d="M282 275Q282 289 276 291T248 293Q163 293 118 339T73 482Q73 536 88 573T127 635T182 670T245 681Q287 681 319 678Q336 676 350 676T378 676H455Q466 676 478 677T504 679Q517 680 528 680T547 681Q566 681 566 668Q566 655 547 655Q536 655 525 656T505 658Q486 658 476 652T461 625T456 569T455 475V39Q455 26 455 -3T456 -63T459 -120T464 -156Q470 -170 482 -174T506 -178Q514 -178 526 -176T545 -174Q556 -174 561 -178T566 -188Q566 -195 562 -198T544 -201Q527 -201 500 -198T455 -194Q441 -194 426 -197T397 -201Q391 -201 389 -196T387 -189Q387 -183 390 -181T404 -175Q416 -170 418 -162T423 -130Q424 -122 424 -98T425 -45T426 7T427 39V638Q427 652 420 654T388 657H347Q333 657 326 656T315 650T311 636T310 610V39Q310 32 310 8T311 -45T312 -97T314 -130Q316 -153 318 -161T333 -175Q343 -179 346 -181T350 -189Q350 -191 348 -196T340 -201Q326 -201 311 -198T282 -194Q264 -194 237 -197T193 -201Q180 -201 176 -198T171 -188Q171 -183 177 -179T192 -174Q198 -174 210 -176T231 -178Q242 -178 254 -174T273 -156Q276 -147 278 -121T281 -63T282 -3T282 39V275Z"  />
<glyph unicode="&#xB7;" horiz-adv-x="226" d="M162 250Q162 228 147 215T113 201Q94 201 79 214T64 250Q64 272 79 285T113 299Q132 299 147 286T162 250Z"  />
<glyph unicode="&#xB8;" horiz-adv-x="500" d="M217 0H245L218 -62Q229 -60 240 -58T266 -56Q308 -56 330 -75T352 -121Q352 -140 342 -154T317 -177T284 -190T247 -195Q226 -195 207 -190T174 -178T152 -163T144 -146Q144 -135 157 -135Q164 -135 168 -138T179 -150Q186 -158 203 -166T247 -174Q284 -174 303 -158T322 -121Q322 -101 305 -89T255 -77Q236 -77 225 -82Q219 -85 208 -89T194 -93Q188 -93 185 -89T181 -81Q181 -79 183 -74T187 -65L217 0Z"  />
<glyph unicode="&#xB9;" horiz-adv-x="420" d="M197 718Q197 742 197 757T193 782T181 794T159 798Q151 798 140 797T118 795Q110 795 105 797T99 806Q99 813 104 815T114 818Q127 818 142 816T169 814Q177 814 188 816T209 818Q219 818 220 811T222 792V553Q222 505 223 478T228 438T240 423T261 420Q268 420 279 421T300 423Q307 423 314 420T321 411Q321 404 316 401T304 398Q295 398 283 399T257 400T231 402T210 403Q201 403 189 402T164 401T138 399T116 398Q109 398 104 401T99 411Q99 417 105 420T119 423Q129 423 140 422T158 420Q171 420 179 422T191 438T196 478T197 553V718Z"  />
<glyph unicode="&#xBA;" horiz-adv-x="413" d="M65 563Q65 591 74 617T101 664T145 697T207 709Q242 709 268 697T312 665T339 618T348 563Q348 534 339 508T313 462T269 430T207 418Q172 418 146 430T101 462T74 508T65 563ZM90 563Q90 537 98 514T121 474T157 447T207 437Q234 437 255 447T292 474T315 514T323 563Q323 589 315 612T292 652T256 680T207 690Q179 690 158 680T121 653T98 612T90 563ZM46 336Q41 336 37 338T33 348Q33 355 37 356T46 357H364Q370 357 375 356T380 347Q380 342 377 339T372 336H362H46Z"  />
<glyph unicode="&#xBB;" horiz-adv-x="376" d="M286 251Q290 259 291 263T292 269Q292 274 290 279T286 287L204 435Q202 438 200 442T198 451Q198 455 201 458T210 462Q215 462 217 460T226 446L321 287Q323 283 326 278T329 269Q329 265 321 251L226 92Q220 81 217 79T210 76Q205 76 202 79T198 87Q198 91 200 96T204 103L286 251ZM155 251Q159 259 160 263T161 269Q161 274 159 279T155 287L73 435Q71 438 69 442T67 451Q67 455 70 458T79 462Q84 462 86 460T95 446L190 287Q192 283 195 278T198 269Q198 265 190 251L95 92Q89 81 86 79T79 76Q74 76 71 79T67 87Q67 91 69 96T73 103L155 251Z"  />
<glyph unicode="&#xBC;" horiz-adv-x="800" d="M156 583Q156 607 156 622T152 647T140 659T118 663Q110 663 99 662T77 660Q69 660 64 662T58 671Q58 678 63 680T73 683Q86 683 101 681T128 679Q136 679 147 681T168 683Q178 683 179 676T181 657V418Q181 370 182 343T187 303T199 288T220 285Q227 285 238 286T259 288Q266 288 273 285T280 276Q280 269 275 266T263 263Q254 263 242 264T216 265T190 267T169 268Q160 268 148 267T123 266T97 264T75 263Q68 263 63 266T58 276Q58 282 64 285T78 288Q88 288 99 287T117 285Q130 285 138 287T150 303T155 343T156 418V583ZM514 648Q527 676 531 682T542 689Q547 689 550 685T554 675Q554 670 547 655T518 598Q507 576 487 537T442 449T387 344T329 233T273 124T225 28Q218 14 214 6T208 -6T203 -12T197 -13Q192 -13 188 -10T184 2Q184 6 192 21T221 78Q232 100 252 139T297 227T352 332T410 443T466 552T514 648ZM614 109Q614 116 612 117T602 119H394Q382 119 374 122T365 135Q365 144 376 156L595 403Q603 412 609 417T623 423Q634 423 636 415T638 402V151Q638 144 640 143T650 141Q655 141 659 141T669 142Q682 143 698 143T723 144Q734 144 738 141T742 132Q742 119 726 119H650Q642 119 640 118T638 109V96Q638 70 639 55T643 32T652 21T671 18Q675 18 679 18T689 19Q693 19 696 19T703 20Q720 20 720 8Q720 1 715 -1T705 -4Q699 -4 690 -4T671 -2Q660 -1 648 -1T626 0Q615 0 604 0T581 -2Q571 -3 563 -3T547 -4Q541 -4 537 -2T532 8Q532 20 549 20Q552 20 555 20T563 19Q568 18 572 18T581 18Q593 18 599 20T609 31T613 55T614 96V109ZM602 141Q610 141 612 142T614 151V385Q614 390 612 390Q611 390 606 385L398 146Q396 144 396 143Q396 141 401 141H602Z"  />
<glyph unicode="&#xBD;" horiz-adv-x="800" d="M122 583Q122 607 122 622T118 647T106 659T84 663Q76 663 65 662T43 660Q35 660 30 662T24 671Q24 678 29 680T39 683Q52 683 67 681T94 679Q102 679 113 681T134 683Q144 683 145 676T147 657V418Q147 370 148 343T153 303T165 288T186 285Q193 285 204 286T225 288Q232 288 239 285T246 276Q246 269 241 266T229 263Q220 263 208 264T182 265T156 267T135 268Q126 268 114 267T89 266T63 264T41 263Q34 263 29 266T24 276Q24 282 30 285T44 288Q54 288 65 287T83 285Q96 285 104 287T116 303T121 343T122 418V583ZM480 648Q493 676 497 682T508 689Q513 689 516 685T520 675Q520 670 513 655T484 598Q473 576 453 537T408 449T353 344T295 233T239 124T191 28Q184 14 180 6T174 -6T169 -12T163 -13Q158 -13 154 -10T150 2Q150 6 158 21T187 78Q198 100 218 139T263 227T318 332T376 443T432 552T480 648ZM445 45Q458 64 479 75T528 86Q570 86 610 52Q626 38 636 30T655 17T672 10T690 8Q718 8 735 26T752 69Q752 84 747 90T738 96Q736 96 733 90T724 84Q718 84 711 88T704 103Q704 114 713 119T731 125Q748 125 760 107T773 64Q773 51 768 38T751 13T725 -6T690 -14Q664 -14 644 -2T604 29Q587 44 569 53T525 62Q505 62 492 57T470 46T458 34T454 25Q454 24 456 24Q457 24 459 24T464 25Q469 25 474 20T479 7Q479 -1 474 -6T456 -12Q439 -12 431 2T423 36Q423 75 437 102T475 147T529 177T590 197Q619 204 644 212T687 231T715 260T725 303Q725 320 719 337T697 369T656 393T593 402Q555 402 529 393T486 371T462 342T454 316Q454 303 462 303Q465 303 469 305T478 308Q486 308 491 302T496 284Q496 274 488 267T462 259Q453 259 441 268T429 303Q429 322 439 343T470 382T522 411T597 423Q636 423 665 413T713 386T741 348T750 306Q750 275 738 255T704 220T656 197T597 180Q547 167 517 150T470 115T449 78T443 45H445Z"  />
<glyph unicode="&#xBE;" horiz-adv-x="800" d="M576 648Q589 676 593 682T604 689Q609 689 612 685T616 675Q616 670 609 655T580 598Q569 576 549 537T504 449T449 344T391 233T335 124T287 28Q280 14 276 6T270 -6T265 -12T259 -13Q254 -13 250 -10T246 2Q246 6 254 21T283 78Q294 100 314 139T359 227T414 332T472 443T528 552T576 648ZM671 109Q671 116 669 117T659 119H451Q439 119 431 122T422 135Q422 144 433 156L652 403Q660 412 666 417T680 423Q691 423 693 415T695 402V151Q695 144 697 143T707 141Q712 141 716 141T726 142Q739 143 755 143T780 144Q791 144 795 141T799 132Q799 119 783 119H707Q699 119 697 118T695 109V96Q695 70 696 55T700 32T709 21T728 18Q732 18 736 18T746 19Q750 19 753 19T760 20Q777 20 777 8Q777 1 772 -1T762 -4Q756 -4 747 -4T728 -2Q717 -1 705 -1T683 0Q672 0 661 0T638 -2Q628 -3 620 -3T604 -4Q598 -4 594 -2T589 8Q589 20 606 20Q609 20 612 20T620 19Q625 18 629 18T638 18Q650 18 656 20T666 31T670 55T671 96V109ZM659 141Q667 141 669 142T671 151V385Q671 390 669 390Q668 390 663 385L455 146Q453 144 453 143Q453 141 458 141H659ZM297 641Q300 643 303 647T306 653Q306 655 296 655H93Q73 655 68 651T62 626Q62 613 64 595T66 559Q66 541 52 541Q46 541 43 545T40 555Q40 563 41 576T42 602Q42 613 41 628T40 661Q40 677 56 677H310Q330 677 336 675T342 667Q342 662 339 656T328 643L191 521L193 519Q194 520 199 521T219 522Q259 522 286 511T330 483T353 443T360 400Q360 374 351 348T320 301T265 267T183 253Q142 253 112 263T61 288T30 323T20 362Q20 386 33 401T67 416Q80 416 88 410T96 392Q96 369 77 369Q72 369 66 372T56 375Q51 375 48 370T44 356Q44 340 55 326T85 300T128 282T177 275Q218 275 247 285T295 313T323 352T332 394Q332 413 327 432T307 466T270 490T213 500Q178 500 164 493T145 486Q141 486 139 489T137 495Q137 497 139 500T145 506L297 641Z"  />
<glyph unicode="&#xBF;" horiz-adv-x="583" d="M343 318Q343 282 336 257T315 212T279 177T227 148Q198 134 171 120T122 86T87 42T74 -20Q74 -47 84 -75T118 -125T181 -162T278 -177Q335 -177 376 -163T444 -126T482 -76T495 -21Q495 10 478 31T439 53Q429 53 426 49T422 42Q422 39 425 32T429 20Q429 6 419 -2T397 -11Q387 -11 376 -3T364 25Q364 46 381 61T428 77Q466 77 494 52T523 -22Q523 -54 508 -85T463 -142T387 -184T279 -200Q210 -200 165 -183T92 -140T54 -82T42 -24Q42 18 56 48T94 100T145 137T203 165Q236 180 257 194T290 225T306 263T311 315Q311 344 313 359T325 375Q339 375 341 358T343 318ZM373 466Q373 446 359 431T324 416Q303 416 289 431T275 466Q275 487 289 501T324 516Q344 516 358 502T373 466Z"  />
<glyph unicode="&#xC0;" horiz-adv-x="752" d="M539 233Q535 244 532 247T517 250H247Q235 250 231 248T222 233L166 89Q158 67 156 61T154 49Q154 16 207 16Q218 16 232 18T259 20Q267 20 275 17T283 6Q283 -1 277 -4T262 -7Q238 -7 207 -4T137 0Q95 0 66 -3T12 -7Q7 -7 3 -4T-1 5Q-1 13 6 16T21 20Q33 20 42 18T62 16Q75 16 85 19T105 31T122 56T142 99L356 652Q364 672 371 679T388 686Q398 686 404 678T416 653L568 234Q598 153 616 109T646 44T667 20T688 16Q698 16 708 18T729 20Q741 20 747 16T753 6Q753 0 745 -3T730 -7Q710 -7 680 -4T620 0Q594 0 562 -3T504 -7Q496 -7 487 -5T477 5Q477 11 484 15T502 20Q516 20 531 18T563 16Q579 16 591 23T603 46Q603 51 600 66T591 97L539 233ZM497 271Q512 271 517 276T516 298L386 652L248 298Q242 283 245 277T266 271H497ZM285 828Q274 836 271 840T267 849Q267 855 271 858T280 862Q285 862 291 859T304 850L437 751Q447 744 447 736Q447 731 444 729T438 726Q430 726 421 733L285 828Z"  />
<glyph unicode="&#xC1;" horiz-adv-x="752" d="M539 233Q535 244 532 247T517 250H247Q235 250 231 248T222 233L166 89Q158 67 156 61T154 49Q154 16 207 16Q218 16 232 18T259 20Q267 20 275 17T283 6Q283 -1 277 -4T262 -7Q238 -7 207 -4T137 0Q95 0 66 -3T12 -7Q7 -7 3 -4T-1 5Q-1 13 6 16T21 20Q33 20 42 18T62 16Q75 16 85 19T105 31T122 56T142 99L356 652Q364 672 371 679T388 686Q398 686 404 678T416 653L568 234Q598 153 616 109T646 44T667 20T688 16Q698 16 708 18T729 20Q741 20 747 16T753 6Q753 0 745 -3T730 -7Q710 -7 680 -4T620 0Q594 0 562 -3T504 -7Q496 -7 487 -5T477 5Q477 11 484 15T502 20Q516 20 531 18T563 16Q579 16 591 23T603 46Q603 51 600 66T591 97L539 233ZM497 271Q512 271 517 276T516 298L386 652L248 298Q242 283 245 277T266 271H497ZM468 850Q475 855 481 858T492 862Q497 862 501 859T505 849Q505 844 502 840T487 828L351 733Q342 726 334 726Q331 726 328 728T325 736Q325 744 335 751L468 850Z"  />
<glyph unicode="&#xC2;" horiz-adv-x="752" d="M539 233Q535 244 532 247T517 250H247Q235 250 231 248T222 233L166 89Q158 67 156 61T154 49Q154 16 207 16Q218 16 232 18T259 20Q267 20 275 17T283 6Q283 -1 277 -4T262 -7Q238 -7 207 -4T137 0Q95 0 66 -3T12 -7Q7 -7 3 -4T-1 5Q-1 13 6 16T21 20Q33 20 42 18T62 16Q75 16 85 19T105 31T122 56T142 99L356 652Q364 672 371 679T388 686Q398 686 404 678T416 653L568 234Q598 153 616 109T646 44T667 20T688 16Q698 16 708 18T729 20Q741 20 747 16T753 6Q753 0 745 -3T730 -7Q710 -7 680 -4T620 0Q594 0 562 -3T504 -7Q496 -7 487 -5T477 5Q477 11 484 15T502 20Q516 20 531 18T563 16Q579 16 591 23T603 46Q603 51 600 66T591 97L539 233ZM497 271Q512 271 517 276T516 298L386 652L248 298Q242 283 245 277T266 271H497ZM386 831L249 750Q242 745 233 745Q223 745 223 756Q223 763 236 771L371 853Q376 855 379 857T386 860Q389 860 392 858T401 853L536 771Q549 763 549 756Q549 745 539 745Q530 745 523 750L386 831Z"  />
<glyph unicode="&#xC3;" horiz-adv-x="752" d="M539 233Q535 244 532 247T517 250H247Q235 250 231 248T222 233L166 89Q158 67 156 61T154 49Q154 16 207 16Q218 16 232 18T259 20Q267 20 275 17T283 6Q283 -1 277 -4T262 -7Q238 -7 207 -4T137 0Q95 0 66 -3T12 -7Q7 -7 3 -4T-1 5Q-1 13 6 16T21 20Q33 20 42 18T62 16Q75 16 85 19T105 31T122 56T142 99L356 652Q364 672 371 679T388 686Q398 686 404 678T416 653L568 234Q598 153 616 109T646 44T667 20T688 16Q698 16 708 18T729 20Q741 20 747 16T753 6Q753 0 745 -3T730 -7Q710 -7 680 -4T620 0Q594 0 562 -3T504 -7Q496 -7 487 -5T477 5Q477 11 484 15T502 20Q516 20 531 18T563 16Q579 16 591 23T603 46Q603 51 600 66T591 97L539 233ZM497 271Q512 271 517 276T516 298L386 652L248 298Q242 283 245 277T266 271H497ZM445 759Q436 759 415 764T369 777Q346 784 325 789T296 795Q280 795 268 789T246 773Q236 763 233 763Q230 763 229 765T227 769Q227 770 233 778T250 796T277 813T315 821Q323 821 344 816T391 805Q415 799 436 794T466 789Q502 789 521 809Q529 817 532 819T538 822Q545 822 545 818Q545 816 539 807T521 787T489 768T445 759Z"  />
<glyph unicode="&#xC4;" horiz-adv-x="752" d="M539 233Q535 244 532 247T517 250H247Q235 250 231 248T222 233L166 89Q158 67 156 61T154 49Q154 16 207 16Q218 16 232 18T259 20Q267 20 275 17T283 6Q283 -1 277 -4T262 -7Q238 -7 207 -4T137 0Q95 0 66 -3T12 -7Q7 -7 3 -4T-1 5Q-1 13 6 16T21 20Q33 20 42 18T62 16Q75 16 85 19T105 31T122 56T142 99L356 652Q364 672 371 679T388 686Q398 686 404 678T416 653L568 234Q598 153 616 109T646 44T667 20T688 16Q698 16 708 18T729 20Q741 20 747 16T753 6Q753 0 745 -3T730 -7Q710 -7 680 -4T620 0Q594 0 562 -3T504 -7Q496 -7 487 -5T477 5Q477 11 484 15T502 20Q516 20 531 18T563 16Q579 16 591 23T603 46Q603 51 600 66T591 97L539 233ZM497 271Q512 271 517 276T516 298L386 652L248 298Q242 283 245 277T266 271H497ZM256 789Q256 804 267 816T296 828Q313 828 323 816T334 789Q334 774 324 762T296 750Q279 750 268 762T256 789ZM438 789Q438 804 449 816T478 828Q495 828 505 816T516 789Q516 774 506 762T478 750Q461 750 450 762T438 789Z"  />
<glyph unicode="&#xC5;" horiz-adv-x="752" d="M539 233Q535 244 532 247T517 250H247Q235 250 231 248T222 233L166 89Q158 67 156 61T154 49Q154 16 207 16Q218 16 232 18T259 20Q267 20 275 17T283 6Q283 -1 277 -4T262 -7Q238 -7 207 -4T137 0Q95 0 66 -3T12 -7Q7 -7 3 -4T-1 5Q-1 13 6 16T21 20Q33 20 42 18T62 16Q75 16 85 19T105 31T122 56T142 99L356 652Q364 672 371 679T388 686Q398 686 404 678T416 653L568 234Q598 153 616 109T646 44T667 20T688 16Q698 16 708 18T729 20Q741 20 747 16T753 6Q753 0 745 -3T730 -7Q710 -7 680 -4T620 0Q594 0 562 -3T504 -7Q496 -7 487 -5T477 5Q477 11 484 15T502 20Q516 20 531 18T563 16Q579 16 591 23T603 46Q603 51 600 66T591 97L539 233ZM497 271Q512 271 517 276T516 298L386 652L248 298Q242 283 245 277T266 271H497ZM470 807Q470 773 446 749T386 724Q351 724 327 748T302 807Q302 841 326 865T386 890Q421 890 445 866T470 807ZM443 807Q443 828 428 847T386 866Q359 866 344 847T329 807Q329 786 344 767T386 748Q413 748 428 767T443 807Z"  />
<glyph unicode="&#xC6;" horiz-adv-x="1128" d="M895 21Q938 21 964 22T1003 32T1021 59T1026 111Q1026 142 1024 169T1021 220Q1021 233 1025 241T1037 250Q1042 250 1047 244T1053 224Q1053 201 1050 177T1046 128Q1046 98 1049 75T1053 29Q1053 16 1049 9T1038 -1T1021 -6T1000 -7Q966 -7 919 -6T817 -3Q761 -2 702 -1T585 0Q565 0 550 -1T524 -3Q513 -5 504 -6T487 -7Q477 -7 468 -4T459 8Q459 25 484 25Q501 25 517 23T553 21Q569 21 578 25T591 41T596 73T597 124V310Q597 329 591 332T564 335H370Q353 335 344 329T318 302L137 56Q121 36 121 31Q121 21 132 19T153 16Q173 16 192 18T230 20Q256 20 256 6Q256 -2 249 -4T235 -7Q224 -7 207 -6T172 -4T134 -1T99 0Q70 -1 39 -4T-13 -7Q-22 -7 -28 -3T-35 6Q-35 14 -27 17T-12 20Q2 20 15 18T43 16Q52 16 59 17T72 23T86 36T104 59L545 653Q556 668 565 674T589 680Q594 680 602 680T620 678Q630 677 641 677T664 676Q671 676 687 676T726 677T773 678T825 680Q878 681 925 682T1004 683Q1021 683 1032 678T1043 651Q1043 620 1040 595T1036 543Q1036 514 1039 489T1043 443Q1043 432 1041 420T1026 407Q1015 407 1013 418T1011 443Q1011 452 1012 470T1013 508T1015 547T1016 574Q1016 604 1013 620T998 644T967 653T912 655H688Q668 655 656 654T638 643T629 615T626 559V406Q626 380 629 368T652 356H794Q805 356 817 358T838 366T854 384T860 417Q860 434 858 452T855 487Q855 503 860 509T870 515Q878 515 881 506T884 485Q884 474 883 457T881 420T878 383T877 353Q877 336 878 313T880 267T883 222T884 187Q884 158 870 158Q864 158 860 165T855 192Q855 211 857 231T860 273Q860 288 858 299T848 319T825 331T783 335H652Q632 335 629 326T626 298V85Q626 61 628 48T637 29T658 22T694 21H895ZM560 356Q586 356 591 363T597 390V613Q597 625 595 636T580 648Q575 648 570 643T553 623L385 395Q376 382 373 377T369 366Q369 356 399 356H560Z"  />
<glyph unicode="&#xC7;" horiz-adv-x="658" d="M289 -17Q237 -9 199 14T134 70T91 139T65 213T53 282T50 337Q50 403 67 468T120 584T213 666T349 698Q402 698 437 685T497 653T535 611T561 568H563Q562 594 561 612T560 646Q560 663 564 669T574 676Q580 676 583 671T587 660Q587 625 584 582T580 504Q580 481 583 454T587 400Q587 392 583 387T572 382Q564 382 560 388T556 402Q556 416 557 429T559 468Q559 497 550 533T517 600T452 653T348 675Q288 675 245 655T173 604T125 533T98 455T85 382T82 325Q82 273 94 216T136 111T218 32T350 1Q394 1 434 13T504 51T554 116T576 211Q577 229 579 241T593 253Q608 253 608 232Q608 193 595 149T551 66T470 3T346 -22Q338 -22 330 -22T315 -21L297 -62Q308 -60 319 -58T345 -56Q387 -56 409 -75T431 -121Q431 -140 421 -154T396 -177T363 -190T326 -195Q305 -195 286 -190T253 -178T231 -163T223 -146Q223 -135 236 -135Q243 -135 247 -138T258 -150Q265 -158 282 -166T326 -174Q363 -174 382 -158T401 -121Q401 -101 384 -89T334 -77Q315 -77 304 -82Q279 -93 273 -93Q267 -93 264 -89T260 -81Q260 -79 266 -65L289 -17Z"  />
<glyph unicode="&#xC8;" horiz-adv-x="696" d="M463 21Q506 21 532 22T571 32T589 59T594 111Q594 142 592 169T589 220Q589 233 593 241T605 250Q610 250 615 244T621 224Q621 201 618 177T614 128Q614 98 617 75T621 29Q621 16 617 9T606 -1T589 -6T568 -7Q534 -7 487 -6T385 -3Q329 -2 270 -1T153 0Q133 0 118 -1T92 -3Q81 -5 72 -6T55 -7Q45 -7 36 -4T27 8Q27 25 52 25Q69 25 85 23T121 21Q137 21 146 25T159 41T164 73T165 124V570Q165 596 164 612T158 638T145 651T121 655Q101 655 85 653T52 651Q40 651 34 656T27 667Q27 672 33 677T52 683Q66 683 81 682T112 680Q129 678 145 677T178 676Q226 676 281 677T391 680Q445 681 492 682T572 683Q589 683 600 678T611 651Q611 620 608 595T604 543Q604 514 607 489T611 443Q611 432 609 420T594 407Q583 407 581 418T579 443Q579 452 580 470T581 508T583 547T584 574Q584 604 581 620T566 644T535 653T480 655H256Q236 655 224 654T206 643T197 615T194 559V409Q194 394 195 386T200 373T213 367T238 365H346Q363 365 378 367T404 374T421 391T428 420Q428 437 426 455T423 490Q423 506 428 512T438 518Q446 518 449 509T452 488Q452 477 451 460T449 423T446 386T445 356Q445 339 446 316T448 270T451 225T452 190Q452 161 438 161Q432 161 428 168T423 195Q423 214 425 234T428 276Q428 317 410 330T346 344H232Q218 344 210 342T199 336T195 323T194 301V85Q194 61 196 48T205 29T226 22T262 21H463ZM247 828Q236 836 233 840T229 849Q229 855 233 858T242 862Q247 862 253 859T266 850L399 751Q409 744 409 736Q409 731 406 729T400 726Q392 726 383 733L247 828Z"  />
<glyph unicode="&#xC9;" horiz-adv-x="696" d="M463 21Q506 21 532 22T571 32T589 59T594 111Q594 142 592 169T589 220Q589 233 593 241T605 250Q610 250 615 244T621 224Q621 201 618 177T614 128Q614 98 617 75T621 29Q621 16 617 9T606 -1T589 -6T568 -7Q534 -7 487 -6T385 -3Q329 -2 270 -1T153 0Q133 0 118 -1T92 -3Q81 -5 72 -6T55 -7Q45 -7 36 -4T27 8Q27 25 52 25Q69 25 85 23T121 21Q137 21 146 25T159 41T164 73T165 124V570Q165 596 164 612T158 638T145 651T121 655Q101 655 85 653T52 651Q40 651 34 656T27 667Q27 672 33 677T52 683Q66 683 81 682T112 680Q129 678 145 677T178 676Q226 676 281 677T391 680Q445 681 492 682T572 683Q589 683 600 678T611 651Q611 620 608 595T604 543Q604 514 607 489T611 443Q611 432 609 420T594 407Q583 407 581 418T579 443Q579 452 580 470T581 508T583 547T584 574Q584 604 581 620T566 644T535 653T480 655H256Q236 655 224 654T206 643T197 615T194 559V409Q194 394 195 386T200 373T213 367T238 365H346Q363 365 378 367T404 374T421 391T428 420Q428 437 426 455T423 490Q423 506 428 512T438 518Q446 518 449 509T452 488Q452 477 451 460T449 423T446 386T445 356Q445 339 446 316T448 270T451 225T452 190Q452 161 438 161Q432 161 428 168T423 195Q423 214 425 234T428 276Q428 317 410 330T346 344H232Q218 344 210 342T199 336T195 323T194 301V85Q194 61 196 48T205 29T226 22T262 21H463ZM430 850Q437 855 443 858T454 862Q459 862 463 859T467 849Q467 844 464 840T449 828L313 733Q304 726 296 726Q293 726 290 728T287 736Q287 744 297 751L430 850Z"  />
<glyph unicode="&#xCA;" horiz-adv-x="696" d="M463 21Q506 21 532 22T571 32T589 59T594 111Q594 142 592 169T589 220Q589 233 593 241T605 250Q610 250 615 244T621 224Q621 201 618 177T614 128Q614 98 617 75T621 29Q621 16 617 9T606 -1T589 -6T568 -7Q534 -7 487 -6T385 -3Q329 -2 270 -1T153 0Q133 0 118 -1T92 -3Q81 -5 72 -6T55 -7Q45 -7 36 -4T27 8Q27 25 52 25Q69 25 85 23T121 21Q137 21 146 25T159 41T164 73T165 124V570Q165 596 164 612T158 638T145 651T121 655Q101 655 85 653T52 651Q40 651 34 656T27 667Q27 672 33 677T52 683Q66 683 81 682T112 680Q129 678 145 677T178 676Q226 676 281 677T391 680Q445 681 492 682T572 683Q589 683 600 678T611 651Q611 620 608 595T604 543Q604 514 607 489T611 443Q611 432 609 420T594 407Q583 407 581 418T579 443Q579 452 580 470T581 508T583 547T584 574Q584 604 581 620T566 644T535 653T480 655H256Q236 655 224 654T206 643T197 615T194 559V409Q194 394 195 386T200 373T213 367T238 365H346Q363 365 378 367T404 374T421 391T428 420Q428 437 426 455T423 490Q423 506 428 512T438 518Q446 518 449 509T452 488Q452 477 451 460T449 423T446 386T445 356Q445 339 446 316T448 270T451 225T452 190Q452 161 438 161Q432 161 428 168T423 195Q423 214 425 234T428 276Q428 317 410 330T346 344H232Q218 344 210 342T199 336T195 323T194 301V85Q194 61 196 48T205 29T226 22T262 21H463ZM348 831L211 750Q204 745 195 745Q185 745 185 756Q185 763 198 771L333 853Q338 855 341 857T348 860Q351 860 354 858T363 853L498 771Q511 763 511 756Q511 745 501 745Q492 745 485 750L348 831Z"  />
<glyph unicode="&#xCB;" horiz-adv-x="696" d="M463 21Q506 21 532 22T571 32T589 59T594 111Q594 142 592 169T589 220Q589 233 593 241T605 250Q610 250 615 244T621 224Q621 201 618 177T614 128Q614 98 617 75T621 29Q621 16 617 9T606 -1T589 -6T568 -7Q534 -7 487 -6T385 -3Q329 -2 270 -1T153 0Q133 0 118 -1T92 -3Q81 -5 72 -6T55 -7Q45 -7 36 -4T27 8Q27 25 52 25Q69 25 85 23T121 21Q137 21 146 25T159 41T164 73T165 124V570Q165 596 164 612T158 638T145 651T121 655Q101 655 85 653T52 651Q40 651 34 656T27 667Q27 672 33 677T52 683Q66 683 81 682T112 680Q129 678 145 677T178 676Q226 676 281 677T391 680Q445 681 492 682T572 683Q589 683 600 678T611 651Q611 620 608 595T604 543Q604 514 607 489T611 443Q611 432 609 420T594 407Q583 407 581 418T579 443Q579 452 580 470T581 508T583 547T584 574Q584 604 581 620T566 644T535 653T480 655H256Q236 655 224 654T206 643T197 615T194 559V409Q194 394 195 386T200 373T213 367T238 365H346Q363 365 378 367T404 374T421 391T428 420Q428 437 426 455T423 490Q423 506 428 512T438 518Q446 518 449 509T452 488Q452 477 451 460T449 423T446 386T445 356Q445 339 446 316T448 270T451 225T452 190Q452 161 438 161Q432 161 428 168T423 195Q423 214 425 234T428 276Q428 317 410 330T346 344H232Q218 344 210 342T199 336T195 323T194 301V85Q194 61 196 48T205 29T226 22T262 21H463ZM218 789Q218 804 229 816T258 828Q275 828 285 816T296 789Q296 774 286 762T258 750Q241 750 230 762T218 789ZM400 789Q400 804 411 816T440 828Q457 828 467 816T478 789Q478 774 468 762T440 750Q423 750 412 762T400 789Z"  />
<glyph unicode="&#xCC;" horiz-adv-x="358" d="M165 479Q165 538 164 573T158 628T142 654T111 660Q95 660 82 658T55 656Q48 656 41 659T33 670Q33 677 40 680T55 683Q78 683 109 680T180 676Q219 676 250 679T304 683Q311 683 318 680T326 670Q326 662 319 659T304 656Q290 656 277 658T248 660Q228 660 217 654T201 629T195 574T194 479V197Q194 138 195 103T201 48T217 22T248 16Q264 16 277 18T304 20Q311 20 318 17T326 6Q326 -1 319 -4T304 -7Q281 -7 250 -4T180 0Q140 0 109 -3T55 -7Q48 -7 41 -4T33 6Q33 14 40 17T55 20Q69 20 82 18T111 16Q131 16 142 22T158 47T164 102T165 197V479ZM79 828Q68 836 65 840T61 849Q61 855 65 858T74 862Q79 862 85 859T98 850L231 751Q241 744 241 736Q241 731 238 729T232 726Q224 726 215 733L79 828Z"  />
<glyph unicode="&#xCD;" horiz-adv-x="358" d="M165 479Q165 538 164 573T158 628T142 654T111 660Q95 660 82 658T55 656Q48 656 41 659T33 670Q33 677 40 680T55 683Q78 683 109 680T180 676Q219 676 250 679T304 683Q311 683 318 680T326 670Q326 662 319 659T304 656Q290 656 277 658T248 660Q228 660 217 654T201 629T195 574T194 479V197Q194 138 195 103T201 48T217 22T248 16Q264 16 277 18T304 20Q311 20 318 17T326 6Q326 -1 319 -4T304 -7Q281 -7 250 -4T180 0Q140 0 109 -3T55 -7Q48 -7 41 -4T33 6Q33 14 40 17T55 20Q69 20 82 18T111 16Q131 16 142 22T158 47T164 102T165 197V479ZM262 850Q269 855 275 858T286 862Q291 862 295 859T299 849Q299 844 296 840T281 828L145 733Q136 726 128 726Q125 726 122 728T119 736Q119 744 129 751L262 850Z"  />
<glyph unicode="&#xCE;" horiz-adv-x="358" d="M165 479Q165 538 164 573T158 628T142 654T111 660Q95 660 82 658T55 656Q48 656 41 659T33 670Q33 677 40 680T55 683Q78 683 109 680T180 676Q219 676 250 679T304 683Q311 683 318 680T326 670Q326 662 319 659T304 656Q290 656 277 658T248 660Q228 660 217 654T201 629T195 574T194 479V197Q194 138 195 103T201 48T217 22T248 16Q264 16 277 18T304 20Q311 20 318 17T326 6Q326 -1 319 -4T304 -7Q281 -7 250 -4T180 0Q140 0 109 -3T55 -7Q48 -7 41 -4T33 6Q33 14 40 17T55 20Q69 20 82 18T111 16Q131 16 142 22T158 47T164 102T165 197V479ZM180 831L43 750Q36 745 27 745Q17 745 17 756Q17 763 30 771L165 853Q170 855 173 857T180 860Q183 860 186 858T195 853L330 771Q343 763 343 756Q343 745 333 745Q324 745 317 750L180 831Z"  />
<glyph unicode="&#xCF;" horiz-adv-x="358" d="M165 479Q165 538 164 573T158 628T142 654T111 660Q95 660 82 658T55 656Q48 656 41 659T33 670Q33 677 40 680T55 683Q78 683 109 680T180 676Q219 676 250 679T304 683Q311 683 318 680T326 670Q326 662 319 659T304 656Q290 656 277 658T248 660Q228 660 217 654T201 629T195 574T194 479V197Q194 138 195 103T201 48T217 22T248 16Q264 16 277 18T304 20Q311 20 318 17T326 6Q326 -1 319 -4T304 -7Q281 -7 250 -4T180 0Q140 0 109 -3T55 -7Q48 -7 41 -4T33 6Q33 14 40 17T55 20Q69 20 82 18T111 16Q131 16 142 22T158 47T164 102T165 197V479ZM50 789Q50 804 61 816T90 828Q107 828 117 816T128 789Q128 774 118 762T90 750Q73 750 62 762T50 789ZM232 789Q232 804 243 816T272 828Q289 828 299 816T310 789Q310 774 300 762T272 750Q255 750 244 762T232 789Z"  />
<glyph unicode="&#xD0;" horiz-adv-x="752" d="M194 154Q194 122 194 102T195 68T197 48T201 38Q205 32 215 28T243 21T289 17T357 16Q389 16 425 19T495 32T561 63T617 117T656 203T670 327Q670 405 656 460T616 553T559 611T493 643T423 657T357 660Q340 660 317 659T272 655T233 649T210 642Q206 639 203 635T198 619T195 586T194 527V369H419Q439 369 439 359T419 348H194V154ZM165 348H54Q34 348 34 358T54 369H165V479Q165 538 164 573T158 628T142 654T111 660Q95 660 82 658T55 656Q48 656 41 659T33 670Q33 677 40 680T55 683Q78 683 109 680T180 676Q196 676 220 677T271 679T323 682T366 683Q459 683 517 663T615 597Q644 564 661 528T687 456T699 390T702 334Q702 306 698 272T684 201T654 130T604 66Q581 44 557 30T505 8T441 -4T361 -7Q343 -7 319 -6T270 -4T222 -1T180 0Q140 0 109 -3T55 -7Q48 -7 41 -4T33 6Q33 14 40 17T55 20Q69 20 82 18T111 16Q131 16 142 22T158 47T164 102T165 197V348Z"  />
<glyph unicode="&#xD1;" horiz-adv-x="808" d="M207 636Q205 639 203 643T198 647Q196 647 195 643T194 633V197Q194 138 195 103T201 48T217 22T248 16Q264 16 277 18T304 20Q311 20 318 17T326 6Q326 -1 319 -4T304 -7Q281 -7 250 -4T180 0Q140 0 109 -3T55 -7Q48 -7 41 -4T33 6Q33 14 40 17T55 20Q69 20 82 18T111 16Q131 16 142 22T158 47T164 102T165 197V479Q165 538 164 573T159 628T143 654T113 660Q96 660 83 658T55 656Q48 656 41 659T33 670Q33 683 55 683Q74 683 95 680Q106 678 117 677T140 676Q147 676 153 676T168 678Q175 679 181 679T192 680Q202 680 209 675T234 642L613 42Q617 35 624 35Q627 35 628 39T629 46V479Q629 538 628 573T622 628T606 654T575 660Q559 660 546 658T519 656Q512 656 505 659T497 670Q497 677 504 680T519 683Q542 683 573 680T644 676Q683 676 714 679T768 683Q775 683 782 680T790 670Q790 662 783 659T768 656Q754 656 741 658T712 660Q692 660 681 654T665 629T659 574T658 479V42Q658 22 655 7T633 -9Q624 -9 615 -3T589 29L207 636ZM463 759Q454 759 433 764T387 777Q364 784 343 789T314 795Q298 795 286 789T264 773Q254 763 251 763Q248 763 247 765T245 769Q245 770 251 778T268 796T295 813T333 821Q341 821 362 816T409 805Q433 799 454 794T484 789Q520 789 539 809Q547 817 550 819T556 822Q563 822 563 818Q563 816 557 807T539 787T507 768T463 759Z"  />
<glyph unicode="&#xD2;" horiz-adv-x="695" d="M50 338Q50 407 68 471T123 586T216 667T347 698Q422 698 478 668T570 587T625 472T644 338Q644 270 626 205T571 90T478 9T347 -22Q272 -22 216 8T124 89T69 205T50 338ZM82 338Q82 275 97 215T145 107T227 30T347 1Q416 1 466 30T549 106T596 214T612 338Q612 401 597 462T549 570T467 646T347 675Q278 675 228 646T145 570T98 462T82 338ZM246 828Q235 836 232 840T228 849Q228 855 232 858T241 862Q246 862 252 859T265 850L398 751Q408 744 408 736Q408 731 405 729T399 726Q391 726 382 733L246 828Z"  />
<glyph unicode="&#xD3;" horiz-adv-x="695" d="M50 338Q50 407 68 471T123 586T216 667T347 698Q422 698 478 668T570 587T625 472T644 338Q644 270 626 205T571 90T478 9T347 -22Q272 -22 216 8T124 89T69 205T50 338ZM82 338Q82 275 97 215T145 107T227 30T347 1Q416 1 466 30T549 106T596 214T612 338Q612 401 597 462T549 570T467 646T347 675Q278 675 228 646T145 570T98 462T82 338ZM429 850Q436 855 442 858T453 862Q458 862 462 859T466 849Q466 844 463 840T448 828L312 733Q303 726 295 726Q292 726 289 728T286 736Q286 744 296 751L429 850Z"  />
<glyph unicode="&#xD4;" horiz-adv-x="695" d="M50 338Q50 407 68 471T123 586T216 667T347 698Q422 698 478 668T570 587T625 472T644 338Q644 270 626 205T571 90T478 9T347 -22Q272 -22 216 8T124 89T69 205T50 338ZM82 338Q82 275 97 215T145 107T227 30T347 1Q416 1 466 30T549 106T596 214T612 338Q612 401 597 462T549 570T467 646T347 675Q278 675 228 646T145 570T98 462T82 338ZM347 831L210 750Q203 745 194 745Q184 745 184 756Q184 763 197 771L332 853Q337 855 340 857T347 860Q350 860 353 858T362 853L497 771Q510 763 510 756Q510 745 500 745Q491 745 484 750L347 831Z"  />
<glyph unicode="&#xD5;" horiz-adv-x="695" d="M50 338Q50 407 68 471T123 586T216 667T347 698Q422 698 478 668T570 587T625 472T644 338Q644 270 626 205T571 90T478 9T347 -22Q272 -22 216 8T124 89T69 205T50 338ZM82 338Q82 275 97 215T145 107T227 30T347 1Q416 1 466 30T549 106T596 214T612 338Q612 401 597 462T549 570T467 646T347 675Q278 675 228 646T145 570T98 462T82 338ZM406 759Q397 759 376 764T330 777Q307 784 286 789T257 795Q241 795 229 789T207 773Q197 763 194 763Q191 763 190 765T188 769Q188 770 194 778T211 796T238 813T276 821Q284 821 305 816T352 805Q376 799 397 794T427 789Q463 789 482 809Q490 817 493 819T499 822Q506 822 506 818Q506 816 500 807T482 787T450 768T406 759Z"  />
<glyph unicode="&#xD6;" horiz-adv-x="695" d="M50 338Q50 407 68 471T123 586T216 667T347 698Q422 698 478 668T570 587T625 472T644 338Q644 270 626 205T571 90T478 9T347 -22Q272 -22 216 8T124 89T69 205T50 338ZM82 338Q82 275 97 215T145 107T227 30T347 1Q416 1 466 30T549 106T596 214T612 338Q612 401 597 462T549 570T467 646T347 675Q278 675 228 646T145 570T98 462T82 338ZM217 789Q217 804 228 816T257 828Q274 828 284 816T295 789Q295 774 285 762T257 750Q240 750 229 762T217 789ZM399 789Q399 804 410 816T439 828Q456 828 466 816T477 789Q477 774 467 762T439 750Q422 750 411 762T399 789Z"  />
<glyph unicode="&#xD7;" horiz-adv-x="600" d="M50 23L279 251L50 477L70 499L300 271L530 499L550 477L321 251L550 23L530 2L300 231L70 2L50 23Z"  />
<glyph unicode="&#xD8;" horiz-adv-x="695" d="M347 675Q278 675 228 646T145 570T98 462T82 338Q82 300 87 262T105 189T135 123T178 68L337 362Q372 425 406 491T481 636Q453 655 420 665T347 675ZM506 618Q466 546 431 482T361 354Q324 286 286 213T201 48Q230 25 266 13T347 1Q416 1 466 30T549 106T596 214T612 338Q612 378 606 418T586 494T553 562T506 618ZM165 44Q136 69 115 102T79 174T57 254T50 338Q50 407 68 471T123 586T216 667T347 698Q390 698 426 688T493 658L538 745Q543 756 548 759T558 763Q571 763 571 748Q571 743 569 738T562 723L518 641Q550 615 573 582T613 509T636 426T644 338Q644 270 626 205T571 90T478 9T347 -22Q300 -22 261 -10T189 25L140 -69Q132 -84 129 -86T119 -89Q112 -89 108 -84T104 -74Q104 -69 106 -65T113 -52L165 44Z"  />
<glyph unicode="&#xD9;" horiz-adv-x="771" d="M599 479Q599 538 598 573T592 628T576 654T545 660Q529 660 516 658T489 656Q482 656 475 659T467 670Q467 677 474 680T489 683Q512 683 543 680T614 676Q653 676 684 679T738 683Q745 683 752 680T760 670Q760 662 753 659T738 656Q724 656 711 658T682 660Q662 660 651 654T635 629T629 574T628 479V212Q628 160 620 121T575 46Q554 26 530 13T481 -8T432 -19T389 -22Q363 -22 337 -18T285 -5T239 16T202 45Q182 66 171 85T153 125T145 168T143 217V479Q143 538 142 573T136 628T120 654T89 660Q73 660 60 658T33 656Q26 656 19 659T11 670Q11 677 18 680T33 683Q56 683 87 680T158 676Q197 676 228 679T282 683Q289 683 296 680T304 670Q304 662 297 659T282 656Q268 656 255 658T226 660Q206 660 195 654T179 629T173 574T172 479V234Q172 209 172 187T177 145T190 107T215 70Q247 34 291 18T383 1Q404 1 428 4T476 16T521 37T558 68Q571 84 579 97T592 127T597 162T599 210V479ZM284 828Q273 836 270 840T266 849Q266 855 270 858T279 862Q284 862 290 859T303 850L436 751Q446 744 446 736Q446 731 443 729T437 726Q429 726 420 733L284 828Z"  />
<glyph unicode="&#xDA;" horiz-adv-x="771" d="M599 479Q599 538 598 573T592 628T576 654T545 660Q529 660 516 658T489 656Q482 656 475 659T467 670Q467 677 474 680T489 683Q512 683 543 680T614 676Q653 676 684 679T738 683Q745 683 752 680T760 670Q760 662 753 659T738 656Q724 656 711 658T682 660Q662 660 651 654T635 629T629 574T628 479V212Q628 160 620 121T575 46Q554 26 530 13T481 -8T432 -19T389 -22Q363 -22 337 -18T285 -5T239 16T202 45Q182 66 171 85T153 125T145 168T143 217V479Q143 538 142 573T136 628T120 654T89 660Q73 660 60 658T33 656Q26 656 19 659T11 670Q11 677 18 680T33 683Q56 683 87 680T158 676Q197 676 228 679T282 683Q289 683 296 680T304 670Q304 662 297 659T282 656Q268 656 255 658T226 660Q206 660 195 654T179 629T173 574T172 479V234Q172 209 172 187T177 145T190 107T215 70Q247 34 291 18T383 1Q404 1 428 4T476 16T521 37T558 68Q571 84 579 97T592 127T597 162T599 210V479ZM467 850Q474 855 480 858T491 862Q496 862 500 859T504 849Q504 844 501 840T486 828L350 733Q341 726 333 726Q330 726 327 728T324 736Q324 744 334 751L467 850Z"  />
<glyph unicode="&#xDB;" horiz-adv-x="771" d="M599 479Q599 538 598 573T592 628T576 654T545 660Q529 660 516 658T489 656Q482 656 475 659T467 670Q467 677 474 680T489 683Q512 683 543 680T614 676Q653 676 684 679T738 683Q745 683 752 680T760 670Q760 662 753 659T738 656Q724 656 711 658T682 660Q662 660 651 654T635 629T629 574T628 479V212Q628 160 620 121T575 46Q554 26 530 13T481 -8T432 -19T389 -22Q363 -22 337 -18T285 -5T239 16T202 45Q182 66 171 85T153 125T145 168T143 217V479Q143 538 142 573T136 628T120 654T89 660Q73 660 60 658T33 656Q26 656 19 659T11 670Q11 677 18 680T33 683Q56 683 87 680T158 676Q197 676 228 679T282 683Q289 683 296 680T304 670Q304 662 297 659T282 656Q268 656 255 658T226 660Q206 660 195 654T179 629T173 574T172 479V234Q172 209 172 187T177 145T190 107T215 70Q247 34 291 18T383 1Q404 1 428 4T476 16T521 37T558 68Q571 84 579 97T592 127T597 162T599 210V479ZM385 831L248 750Q241 745 232 745Q222 745 222 756Q222 763 235 771L370 853Q375 855 378 857T385 860Q388 860 391 858T400 853L535 771Q548 763 548 756Q548 745 538 745Q529 745 522 750L385 831Z"  />
<glyph unicode="&#xDC;" horiz-adv-x="771" d="M599 479Q599 538 598 573T592 628T576 654T545 660Q529 660 516 658T489 656Q482 656 475 659T467 670Q467 677 474 680T489 683Q512 683 543 680T614 676Q653 676 684 679T738 683Q745 683 752 680T760 670Q760 662 753 659T738 656Q724 656 711 658T682 660Q662 660 651 654T635 629T629 574T628 479V212Q628 160 620 121T575 46Q554 26 530 13T481 -8T432 -19T389 -22Q363 -22 337 -18T285 -5T239 16T202 45Q182 66 171 85T153 125T145 168T143 217V479Q143 538 142 573T136 628T120 654T89 660Q73 660 60 658T33 656Q26 656 19 659T11 670Q11 677 18 680T33 683Q56 683 87 680T158 676Q197 676 228 679T282 683Q289 683 296 680T304 670Q304 662 297 659T282 656Q268 656 255 658T226 660Q206 660 195 654T179 629T173 574T172 479V234Q172 209 172 187T177 145T190 107T215 70Q247 34 291 18T383 1Q404 1 428 4T476 16T521 37T558 68Q571 84 579 97T592 127T597 162T599 210V479ZM255 789Q255 804 266 816T295 828Q312 828 322 816T333 789Q333 774 323 762T295 750Q278 750 267 762T255 789ZM437 789Q437 804 448 816T477 828Q494 828 504 816T515 789Q515 774 505 762T477 750Q460 750 449 762T437 789Z"  />
<glyph unicode="&#xDD;" horiz-adv-x="639" d="M306 267Q306 281 300 291L99 617Q83 643 73 651T45 660Q32 660 20 658T-5 656Q-15 656 -22 659T-30 669Q-30 677 -23 680T-4 683Q17 683 47 680T101 676Q113 676 128 677T159 679T192 682T220 683Q240 683 240 671Q240 664 233 660T217 656Q197 656 177 658T138 660Q124 660 120 658T115 651Q115 648 118 643T126 629L306 331Q313 320 316 318T322 316Q327 316 330 319T339 331L507 601Q515 613 519 620T526 632T529 640T530 646Q530 654 520 657T495 660Q482 660 466 658T432 656Q423 656 411 658T399 669Q399 677 406 680T422 683Q448 683 480 680T543 676Q569 676 595 679T648 683Q656 683 662 680T668 669Q668 661 660 659T642 656Q634 656 624 658T603 660Q584 660 575 651T550 616L342 288Q337 280 336 275T335 264V150Q335 106 337 80T344 39T360 21T388 16Q404 16 417 18T444 20Q451 20 458 17T466 6Q466 -1 459 -4T444 -7Q421 -7 390 -4T320 0Q302 0 283 -1T246 -3T214 -6T190 -7Q169 -7 169 6Q169 13 176 16T191 20Q205 20 218 18T248 16Q264 16 275 19T293 37T303 80T306 158V267ZM401 850Q408 855 414 858T425 862Q430 862 434 859T438 849Q438 844 435 840T420 828L284 733Q275 726 267 726Q264 726 261 728T258 736Q258 744 268 751L401 850Z"  />
<glyph unicode="&#xDE;" horiz-adv-x="677" d="M235 156Q222 156 215 156T203 152T197 142T195 123Q195 90 196 69T203 37T219 21T248 16Q264 16 277 18T304 20Q311 20 318 17T326 6Q326 -1 319 -4T304 -7Q281 -7 250 -4T180 0Q140 0 109 -3T55 -7Q48 -7 41 -4T33 6Q33 14 40 17T55 20Q69 20 82 18T111 16Q131 16 142 22T158 47T164 102T165 197V479Q165 538 164 573T158 628T142 654T111 660Q95 660 82 658T55 656Q48 656 41 659T33 670Q33 677 40 680T55 683Q78 683 109 680T180 676Q219 676 250 679T304 683Q311 683 318 680T326 670Q326 662 319 659T304 656Q290 656 277 658T248 660Q220 660 208 641T196 567Q196 549 198 541T218 532Q226 532 250 533T302 536T355 539T392 541Q507 541 566 490T625 345Q625 249 565 203T392 156H235ZM369 177Q397 177 435 179T509 197T568 246T593 342Q593 390 578 423T536 478T472 508T391 518Q380 518 356 517T306 515T257 513T224 512Q214 512 208 510T199 503T195 489T194 465V206Q194 195 196 190T207 181T231 178T275 177H369Z"  />
<glyph unicode="&#xDF;" horiz-adv-x="658" d="M244 56Q244 46 245 35T247 14Q247 -6 234 -6Q227 -6 224 1T220 15Q220 43 223 78T227 141Q227 156 224 175T220 209Q220 219 224 223T234 227Q247 227 247 209Q247 195 246 177T244 142Q244 117 252 93T277 51T322 21T390 9Q439 9 475 24T536 64T572 120T584 185Q584 229 570 256T530 301T471 328T399 348Q370 356 352 369T334 410Q334 426 341 437T359 457T384 470T409 480Q431 487 450 496T483 517T505 547T513 588Q513 616 502 636T471 669T428 689T377 696Q342 696 314 687T263 664T225 633T199 597Q192 585 187 568T179 532T175 495T173 461V80Q173 57 173 41T168 14T156 -2T133 -7Q122 -7 108 -4T80 0Q65 0 46 -3T12 -7Q4 -7 -1 -3T-7 7Q-7 12 -2 16T17 20Q32 20 51 18T91 16Q112 16 123 19T139 32T145 56T146 96V450Q146 468 139 475T110 482Q100 482 82 480T53 478Q45 478 40 482T35 492Q35 505 54 505Q59 505 68 505T87 503Q97 502 105 502T119 501Q129 501 135 502T146 510T153 528T161 561Q167 588 183 615T225 665T289 702T376 717Q427 717 459 704T510 670T535 628T542 590Q542 555 527 531T490 492T448 468T414 456Q397 451 380 442T363 411Q363 400 369 392T384 379T403 371T421 366Q457 358 491 348T553 319T596 269T613 189Q613 139 595 101T545 38T475 -1T396 -14Q361 -14 337 -7T295 10T266 33T246 56H244Z"  />
<glyph unicode="&#xE0;" horiz-adv-x="564" d="M405 102Q393 84 378 64T339 26T282 -3T201 -15Q165 -15 135 -5T84 25T50 68T37 122Q37 165 52 193T94 240T160 266T246 276Q266 277 293 280T344 293T386 324T403 381Q403 398 397 418T374 455T329 483T257 495Q218 495 189 486T139 462T109 428T98 390Q98 383 100 378T107 373Q108 373 110 377T117 387T128 396T144 401Q161 401 167 390T174 368Q174 349 160 337T127 325Q105 325 87 342T69 385Q69 410 81 433T117 475T175 505T253 516Q305 516 339 503T395 467T424 412T433 345V146Q433 111 434 85T440 42T456 15T489 6Q498 6 508 10T527 24T540 49T544 85Q542 111 542 126T545 150T550 160T557 162Q571 162 571 132Q571 98 568 71T557 25T532 -4T488 -15Q461 -15 446 -5T423 21T411 59T407 102H405ZM406 302Q406 313 402 313Q400 313 398 309T390 300Q377 287 363 279T332 265T294 257T244 253Q208 251 176 246T120 226T81 186T66 120Q66 90 80 69T115 33T161 13T208 6Q243 6 278 19T341 57T388 118T406 202V302ZM166 683Q155 691 152 695T148 704Q148 710 152 713T161 717Q166 717 172 714T185 705L318 606Q328 599 328 591Q328 586 325 584T319 581Q311 581 302 588L166 683Z"  />
<glyph unicode="&#xE1;" horiz-adv-x="564" d="M405 102Q393 84 378 64T339 26T282 -3T201 -15Q165 -15 135 -5T84 25T50 68T37 122Q37 165 52 193T94 240T160 266T246 276Q266 277 293 280T344 293T386 324T403 381Q403 398 397 418T374 455T329 483T257 495Q218 495 189 486T139 462T109 428T98 390Q98 383 100 378T107 373Q108 373 110 377T117 387T128 396T144 401Q161 401 167 390T174 368Q174 349 160 337T127 325Q105 325 87 342T69 385Q69 410 81 433T117 475T175 505T253 516Q305 516 339 503T395 467T424 412T433 345V146Q433 111 434 85T440 42T456 15T489 6Q498 6 508 10T527 24T540 49T544 85Q542 111 542 126T545 150T550 160T557 162Q571 162 571 132Q571 98 568 71T557 25T532 -4T488 -15Q461 -15 446 -5T423 21T411 59T407 102H405ZM406 302Q406 313 402 313Q400 313 398 309T390 300Q377 287 363 279T332 265T294 257T244 253Q208 251 176 246T120 226T81 186T66 120Q66 90 80 69T115 33T161 13T208 6Q243 6 278 19T341 57T388 118T406 202V302ZM349 705Q356 710 362 713T373 717Q378 717 382 714T386 704Q386 699 383 695T368 683L232 588Q223 581 215 581Q212 581 209 583T206 591Q206 599 216 606L349 705Z"  />
<glyph unicode="&#xE2;" horiz-adv-x="564" d="M405 102Q393 84 378 64T339 26T282 -3T201 -15Q165 -15 135 -5T84 25T50 68T37 122Q37 165 52 193T94 240T160 266T246 276Q266 277 293 280T344 293T386 324T403 381Q403 398 397 418T374 455T329 483T257 495Q218 495 189 486T139 462T109 428T98 390Q98 383 100 378T107 373Q108 373 110 377T117 387T128 396T144 401Q161 401 167 390T174 368Q174 349 160 337T127 325Q105 325 87 342T69 385Q69 410 81 433T117 475T175 505T253 516Q305 516 339 503T395 467T424 412T433 345V146Q433 111 434 85T440 42T456 15T489 6Q498 6 508 10T527 24T540 49T544 85Q542 111 542 126T545 150T550 160T557 162Q571 162 571 132Q571 98 568 71T557 25T532 -4T488 -15Q461 -15 446 -5T423 21T411 59T407 102H405ZM406 302Q406 313 402 313Q400 313 398 309T390 300Q377 287 363 279T332 265T294 257T244 253Q208 251 176 246T120 226T81 186T66 120Q66 90 80 69T115 33T161 13T208 6Q243 6 278 19T341 57T388 118T406 202V302ZM267 686L130 605Q123 600 114 600Q104 600 104 611Q104 618 117 626L252 708Q257 710 260 712T267 715Q270 715 273 713T282 708L417 626Q430 618 430 611Q430 600 420 600Q411 600 404 605L267 686Z"  />
<glyph unicode="&#xE3;" horiz-adv-x="564" d="M405 102Q393 84 378 64T339 26T282 -3T201 -15Q165 -15 135 -5T84 25T50 68T37 122Q37 165 52 193T94 240T160 266T246 276Q266 277 293 280T344 293T386 324T403 381Q403 398 397 418T374 455T329 483T257 495Q218 495 189 486T139 462T109 428T98 390Q98 383 100 378T107 373Q108 373 110 377T117 387T128 396T144 401Q161 401 167 390T174 368Q174 349 160 337T127 325Q105 325 87 342T69 385Q69 410 81 433T117 475T175 505T253 516Q305 516 339 503T395 467T424 412T433 345V146Q433 111 434 85T440 42T456 15T489 6Q498 6 508 10T527 24T540 49T544 85Q542 111 542 126T545 150T550 160T557 162Q571 162 571 132Q571 98 568 71T557 25T532 -4T488 -15Q461 -15 446 -5T423 21T411 59T407 102H405ZM406 302Q406 313 402 313Q400 313 398 309T390 300Q377 287 363 279T332 265T294 257T244 253Q208 251 176 246T120 226T81 186T66 120Q66 90 80 69T115 33T161 13T208 6Q243 6 278 19T341 57T388 118T406 202V302ZM326 614Q317 614 296 619T250 632Q227 639 206 644T177 650Q161 650 149 644T127 628Q117 618 114 618Q111 618 110 620T108 624Q108 625 114 633T131 651T158 668T196 676Q204 676 225 671T272 660Q296 654 317 649T347 644Q383 644 402 664Q410 672 413 674T419 677Q426 677 426 673Q426 671 420 662T402 642T370 623T326 614Z"  />
<glyph unicode="&#xE4;" horiz-adv-x="564" d="M405 102Q393 84 378 64T339 26T282 -3T201 -15Q165 -15 135 -5T84 25T50 68T37 122Q37 165 52 193T94 240T160 266T246 276Q266 277 293 280T344 293T386 324T403 381Q403 398 397 418T374 455T329 483T257 495Q218 495 189 486T139 462T109 428T98 390Q98 383 100 378T107 373Q108 373 110 377T117 387T128 396T144 401Q161 401 167 390T174 368Q174 349 160 337T127 325Q105 325 87 342T69 385Q69 410 81 433T117 475T175 505T253 516Q305 516 339 503T395 467T424 412T433 345V146Q433 111 434 85T440 42T456 15T489 6Q498 6 508 10T527 24T540 49T544 85Q542 111 542 126T545 150T550 160T557 162Q571 162 571 132Q571 98 568 71T557 25T532 -4T488 -15Q461 -15 446 -5T423 21T411 59T407 102H405ZM406 302Q406 313 402 313Q400 313 398 309T390 300Q377 287 363 279T332 265T294 257T244 253Q208 251 176 246T120 226T81 186T66 120Q66 90 80 69T115 33T161 13T208 6Q243 6 278 19T341 57T388 118T406 202V302ZM137 644Q137 659 148 671T177 683Q194 683 204 671T215 644Q215 629 205 617T177 605Q160 605 149 617T137 644ZM319 644Q319 659 330 671T359 683Q376 683 386 671T397 644Q397 629 387 617T359 605Q342 605 331 617T319 644Z"  />
<glyph unicode="&#xE5;" horiz-adv-x="564" d="M405 102Q393 84 378 64T339 26T282 -3T201 -15Q165 -15 135 -5T84 25T50 68T37 122Q37 165 52 193T94 240T160 266T246 276Q266 277 293 280T344 293T386 324T403 381Q403 398 397 418T374 455T329 483T257 495Q218 495 189 486T139 462T109 428T98 390Q98 383 100 378T107 373Q108 373 110 377T117 387T128 396T144 401Q161 401 167 390T174 368Q174 349 160 337T127 325Q105 325 87 342T69 385Q69 410 81 433T117 475T175 505T253 516Q305 516 339 503T395 467T424 412T433 345V146Q433 111 434 85T440 42T456 15T489 6Q498 6 508 10T527 24T540 49T544 85Q542 111 542 126T545 150T550 160T557 162Q571 162 571 132Q571 98 568 71T557 25T532 -4T488 -15Q461 -15 446 -5T423 21T411 59T407 102H405ZM406 302Q406 313 402 313Q400 313 398 309T390 300Q377 287 363 279T332 265T294 257T244 253Q208 251 176 246T120 226T81 186T66 120Q66 90 80 69T115 33T161 13T208 6Q243 6 278 19T341 57T388 118T406 202V302ZM351 662Q351 628 327 604T267 579Q232 579 208 603T183 662Q183 696 207 720T267 745Q302 745 326 721T351 662ZM324 662Q324 683 309 702T267 721Q240 721 225 702T210 662Q210 641 225 622T267 603Q294 603 309 622T324 662Z"  />
<glyph unicode="&#xE6;" horiz-adv-x="921" d="M430 138Q422 109 409 82T371 33T312 -2T225 -15Q136 -15 87 23T37 133Q37 211 93 249T248 288H392Q399 288 404 288T412 293T416 306T417 331Q417 370 409 400T382 452T333 484T258 495Q216 495 186 485T137 459T109 427T100 397Q100 390 102 384T109 378Q111 378 114 382T121 391T132 401T147 405Q161 405 170 396T180 372Q180 353 167 341T133 329Q108 329 90 347T71 391Q71 412 82 434T117 474T175 504T257 516Q288 516 319 509T376 486T418 441T437 370H439Q451 397 467 423T509 470T569 503T652 516Q705 516 746 498T816 448T858 377T873 293Q873 273 863 269T832 264H467Q453 264 448 261T443 235Q443 196 454 156T490 82T553 28T646 6Q689 6 721 19T777 52T815 96T834 141Q839 163 842 171T853 179Q861 179 863 174T866 162Q866 151 856 122T821 63T754 9T646 -15Q602 -15 568 -3T507 29T463 78T432 138H430ZM828 288Q839 288 842 291T845 303Q845 322 837 354T808 417T749 472T654 495Q611 495 580 483T525 453T486 412T462 368T450 329T446 302Q446 291 453 290T469 288H828ZM254 264Q165 264 116 232T66 131Q66 95 81 71T119 32T172 12T229 6Q326 6 371 63T416 239Q416 256 413 260T393 264H254Z"  />
<glyph unicode="&#xE7;" horiz-adv-x="526" d="M226 -9Q176 1 141 26T84 86T51 162T40 245Q40 302 56 351T104 437T182 495T286 516Q328 516 363 504T422 471T461 423T475 365Q475 327 455 308T412 289Q395 289 384 299T372 326Q372 341 382 349T403 357Q417 357 423 349T435 341Q441 341 445 350T450 370Q450 388 441 410T413 450T362 482T288 495Q240 495 200 478T130 429T85 351T69 245Q69 192 83 148T124 73T190 24T281 6Q339 6 374 26T427 72T451 120T457 148Q458 174 469 174Q485 174 485 155Q485 140 477 112T447 55T386 6T285 -15Q277 -15 269 -15T252 -13L231 -62Q242 -60 253 -58T279 -56Q321 -56 343 -75T365 -121Q365 -140 355 -154T330 -177T297 -190T260 -195Q239 -195 220 -190T187 -178T165 -163T157 -146Q157 -135 170 -135Q177 -135 181 -138T192 -150Q199 -158 216 -166T260 -174Q297 -174 316 -158T335 -121Q335 -101 318 -89T268 -77Q249 -77 238 -82Q215 -93 207 -93Q201 -93 198 -89T194 -81Q194 -79 196 -75T200 -65L226 -9Z"  />
<glyph unicode="&#xE8;" horiz-adv-x="545" d="M91 260Q77 260 73 256T69 235Q69 195 80 154T115 80T178 27T271 6Q312 6 344 17T399 47T437 88T456 133Q461 155 465 166T477 177Q485 177 487 172T490 162Q490 150 480 121T446 61T379 8T273 -15Q208 -15 164 9T92 71T52 154T40 244Q40 303 57 353T105 439T180 495T278 516Q338 516 379 493T447 435T484 361T496 290Q496 267 486 264T455 260H91ZM450 284Q461 284 464 288T467 300Q467 321 459 354T429 418T370 472T276 495Q234 495 203 483T149 451T112 409T89 364T77 325T73 300Q73 289 78 287T95 284H450ZM171 683Q160 691 157 695T153 704Q153 710 157 713T166 717Q171 717 177 714T190 705L323 606Q333 599 333 591Q333 586 330 584T324 581Q316 581 307 588L171 683Z"  />
<glyph unicode="&#xE9;" horiz-adv-x="545" d="M91 260Q77 260 73 256T69 235Q69 195 80 154T115 80T178 27T271 6Q312 6 344 17T399 47T437 88T456 133Q461 155 465 166T477 177Q485 177 487 172T490 162Q490 150 480 121T446 61T379 8T273 -15Q208 -15 164 9T92 71T52 154T40 244Q40 303 57 353T105 439T180 495T278 516Q338 516 379 493T447 435T484 361T496 290Q496 267 486 264T455 260H91ZM450 284Q461 284 464 288T467 300Q467 321 459 354T429 418T370 472T276 495Q234 495 203 483T149 451T112 409T89 364T77 325T73 300Q73 289 78 287T95 284H450ZM354 705Q361 710 367 713T378 717Q383 717 387 714T391 704Q391 699 388 695T373 683L237 588Q228 581 220 581Q217 581 214 583T211 591Q211 599 221 606L354 705Z"  />
<glyph unicode="&#xEA;" horiz-adv-x="545" d="M91 260Q77 260 73 256T69 235Q69 195 80 154T115 80T178 27T271 6Q312 6 344 17T399 47T437 88T456 133Q461 155 465 166T477 177Q485 177 487 172T490 162Q490 150 480 121T446 61T379 8T273 -15Q208 -15 164 9T92 71T52 154T40 244Q40 303 57 353T105 439T180 495T278 516Q338 516 379 493T447 435T484 361T496 290Q496 267 486 264T455 260H91ZM450 284Q461 284 464 288T467 300Q467 321 459 354T429 418T370 472T276 495Q234 495 203 483T149 451T112 409T89 364T77 325T73 300Q73 289 78 287T95 284H450ZM272 686L135 605Q128 600 119 600Q109 600 109 611Q109 618 122 626L257 708Q262 710 265 712T272 715Q275 715 278 713T287 708L422 626Q435 618 435 611Q435 600 425 600Q416 600 409 605L272 686Z"  />
<glyph unicode="&#xEB;" horiz-adv-x="545" d="M91 260Q77 260 73 256T69 235Q69 195 80 154T115 80T178 27T271 6Q312 6 344 17T399 47T437 88T456 133Q461 155 465 166T477 177Q485 177 487 172T490 162Q490 150 480 121T446 61T379 8T273 -15Q208 -15 164 9T92 71T52 154T40 244Q40 303 57 353T105 439T180 495T278 516Q338 516 379 493T447 435T484 361T496 290Q496 267 486 264T455 260H91ZM450 284Q461 284 464 288T467 300Q467 321 459 354T429 418T370 472T276 495Q234 495 203 483T149 451T112 409T89 364T77 325T73 300Q73 289 78 287T95 284H450ZM142 644Q142 659 153 671T182 683Q199 683 209 671T220 644Q220 629 210 617T182 605Q165 605 154 617T142 644ZM324 644Q324 659 335 671T364 683Q381 683 391 671T402 644Q402 629 392 617T364 605Q347 605 336 617T324 644Z"  />
<glyph unicode="&#xEC;" horiz-adv-x="320" d="M157 350Q157 397 156 423T152 463T140 479T116 482Q101 482 81 480T50 478Q30 478 30 491Q30 505 47 505Q55 505 68 503T111 501Q135 501 145 503T167 505Q179 505 181 500T184 484V186Q184 129 185 96T191 45T207 22T240 16Q251 16 265 18T289 20Q298 20 304 17T311 6Q311 -1 305 -4T292 -7Q269 -7 236 -4T170 0Q139 0 106 -3T49 -7Q42 -7 36 -4T30 6Q30 13 36 16T52 20Q61 20 75 18T101 16Q122 16 133 21T150 44T156 95T157 186V350ZM60 683Q49 691 46 695T42 704Q42 710 46 713T55 717Q60 717 66 714T79 705L212 606Q222 599 222 591Q222 586 219 584T213 581Q205 581 196 588L60 683Z"  />
<glyph unicode="&#xED;" horiz-adv-x="320" d="M157 350Q157 397 156 423T152 463T140 479T116 482Q101 482 81 480T50 478Q30 478 30 491Q30 505 47 505Q55 505 68 503T111 501Q135 501 145 503T167 505Q179 505 181 500T184 484V186Q184 129 185 96T191 45T207 22T240 16Q251 16 265 18T289 20Q298 20 304 17T311 6Q311 -1 305 -4T292 -7Q269 -7 236 -4T170 0Q139 0 106 -3T49 -7Q42 -7 36 -4T30 6Q30 13 36 16T52 20Q61 20 75 18T101 16Q122 16 133 21T150 44T156 95T157 186V350ZM243 705Q250 710 256 713T267 717Q272 717 276 714T280 704Q280 699 277 695T262 683L126 588Q117 581 109 581Q106 581 103 583T100 591Q100 599 110 606L243 705Z"  />
<glyph unicode="&#xEE;" horiz-adv-x="320" d="M157 350Q157 397 156 423T152 463T140 479T116 482Q101 482 81 480T50 478Q30 478 30 491Q30 505 47 505Q55 505 68 503T111 501Q135 501 145 503T167 505Q179 505 181 500T184 484V186Q184 129 185 96T191 45T207 22T240 16Q251 16 265 18T289 20Q298 20 304 17T311 6Q311 -1 305 -4T292 -7Q269 -7 236 -4T170 0Q139 0 106 -3T49 -7Q42 -7 36 -4T30 6Q30 13 36 16T52 20Q61 20 75 18T101 16Q122 16 133 21T150 44T156 95T157 186V350ZM161 686L24 605Q17 600 8 600Q-2 600 -2 611Q-2 618 11 626L146 708Q151 710 154 712T161 715Q164 715 167 713T176 708L311 626Q324 618 324 611Q324 600 314 600Q305 600 298 605L161 686Z"  />
<glyph unicode="&#xEF;" horiz-adv-x="320" d="M157 350Q157 397 156 423T152 463T140 479T116 482Q101 482 81 480T50 478Q30 478 30 491Q30 505 47 505Q55 505 68 503T111 501Q135 501 145 503T167 505Q179 505 181 500T184 484V186Q184 129 185 96T191 45T207 22T240 16Q251 16 265 18T289 20Q298 20 304 17T311 6Q311 -1 305 -4T292 -7Q269 -7 236 -4T170 0Q139 0 106 -3T49 -7Q42 -7 36 -4T30 6Q30 13 36 16T52 20Q61 20 75 18T101 16Q122 16 133 21T150 44T156 95T157 186V350ZM31 644Q31 659 42 671T71 683Q88 683 98 671T109 644Q109 629 99 617T71 605Q54 605 43 617T31 644ZM213 644Q213 659 224 671T253 683Q270 683 280 671T291 644Q291 629 281 617T253 605Q236 605 225 617T213 644Z"  />
<glyph unicode="&#xF0;" horiz-adv-x="564" d="M69 251Q69 203 83 159T125 80T192 26T282 6Q337 6 378 28T446 87T486 172T499 272Q499 312 485 351T444 423T376 475T282 495Q232 495 193 475T126 422T84 344T69 251ZM491 393Q474 478 434 539T338 635L211 578Q205 575 200 577T194 583T193 593T201 601L317 653Q282 673 248 682T179 691Q152 691 152 704Q152 711 157 714T170 717Q210 717 254 704T343 665L453 714Q461 717 466 715T472 709T473 700T465 693L363 648Q397 624 427 590T480 511T515 413T528 292Q528 221 511 164T461 67T384 6T282 -15Q226 -15 182 6T106 64T57 149T40 251Q40 305 57 353T105 437T181 494T282 516Q431 516 489 393H491Z"  />
<glyph unicode="&#xF1;" horiz-adv-x="696" d="M157 350Q157 397 156 423T152 463T140 479T116 482Q101 482 81 480T50 478Q30 478 30 491Q30 505 47 505Q55 505 68 503T111 501Q135 501 145 503T167 505Q179 505 181 500T184 484V407H186Q192 419 204 438T237 474T292 503T374 516Q432 516 469 499T527 452T556 381T564 292V186Q564 129 565 96T571 45T587 22T620 16Q631 16 645 18T669 20Q678 20 684 17T691 6Q691 -1 685 -4T672 -7Q649 -7 616 -4T550 0Q519 0 486 -3T429 -7Q422 -7 416 -4T410 6Q410 13 416 16T432 20Q441 20 455 18T481 16Q502 16 513 21T530 44T536 95T537 186V288Q537 333 531 370T507 436T457 479T371 495Q277 495 231 440T184 290V186Q184 129 185 96T191 45T207 22T240 16Q251 16 265 18T289 20Q298 20 304 17T311 6Q311 -1 305 -4T292 -7Q269 -7 236 -4T170 0Q139 0 106 -3T49 -7Q42 -7 36 -4T30 6Q30 13 36 16T52 20Q61 20 75 18T101 16Q122 16 133 21T150 44T156 95T157 186V350ZM407 614Q398 614 377 619T331 632Q308 639 287 644T258 650Q242 650 230 644T208 628Q198 618 195 618Q192 618 191 620T189 624Q189 625 195 633T212 651T239 668T277 676Q285 676 306 671T353 660Q377 654 398 649T428 644Q464 644 483 664Q491 672 494 674T500 677Q507 677 507 673Q507 671 501 662T483 642T451 623T407 614Z"  />
<glyph unicode="&#xF2;" horiz-adv-x="564" d="M524 251Q524 197 507 149T459 65T383 7T282 -15Q226 -15 182 6T106 64T57 149T40 251Q40 305 57 353T105 437T181 494T282 516Q338 516 382 495T458 437T507 353T524 251ZM495 251Q495 299 481 343T439 421T372 475T282 495Q232 495 193 475T126 422T84 344T69 251Q69 203 83 159T125 80T192 26T282 6Q332 6 371 26T438 80T480 158T495 251ZM181 683Q170 691 167 695T163 704Q163 710 167 713T176 717Q181 717 187 714T200 705L333 606Q343 599 343 591Q343 586 340 584T334 581Q326 581 317 588L181 683Z"  />
<glyph unicode="&#xF3;" horiz-adv-x="564" d="M524 251Q524 197 507 149T459 65T383 7T282 -15Q226 -15 182 6T106 64T57 149T40 251Q40 305 57 353T105 437T181 494T282 516Q338 516 382 495T458 437T507 353T524 251ZM495 251Q495 299 481 343T439 421T372 475T282 495Q232 495 193 475T126 422T84 344T69 251Q69 203 83 159T125 80T192 26T282 6Q332 6 371 26T438 80T480 158T495 251ZM364 705Q371 710 377 713T388 717Q393 717 397 714T401 704Q401 699 398 695T383 683L247 588Q238 581 230 581Q227 581 224 583T221 591Q221 599 231 606L364 705Z"  />
<glyph unicode="&#xF4;" horiz-adv-x="564" d="M524 251Q524 197 507 149T459 65T383 7T282 -15Q226 -15 182 6T106 64T57 149T40 251Q40 305 57 353T105 437T181 494T282 516Q338 516 382 495T458 437T507 353T524 251ZM495 251Q495 299 481 343T439 421T372 475T282 495Q232 495 193 475T126 422T84 344T69 251Q69 203 83 159T125 80T192 26T282 6Q332 6 371 26T438 80T480 158T495 251ZM282 686L145 605Q138 600 129 600Q119 600 119 611Q119 618 132 626L267 708Q272 710 275 712T282 715Q285 715 288 713T297 708L432 626Q445 618 445 611Q445 600 435 600Q426 600 419 605L282 686Z"  />
<glyph unicode="&#xF5;" horiz-adv-x="564" d="M524 251Q524 197 507 149T459 65T383 7T282 -15Q226 -15 182 6T106 64T57 149T40 251Q40 305 57 353T105 437T181 494T282 516Q338 516 382 495T458 437T507 353T524 251ZM495 251Q495 299 481 343T439 421T372 475T282 495Q232 495 193 475T126 422T84 344T69 251Q69 203 83 159T125 80T192 26T282 6Q332 6 371 26T438 80T480 158T495 251ZM341 614Q332 614 311 619T265 632Q242 639 221 644T192 650Q176 650 164 644T142 628Q132 618 129 618Q126 618 125 620T123 624Q123 625 129 633T146 651T173 668T211 676Q219 676 240 671T287 660Q311 654 332 649T362 644Q398 644 417 664Q425 672 428 674T434 677Q441 677 441 673Q441 671 435 662T417 642T385 623T341 614Z"  />
<glyph unicode="&#xF6;" horiz-adv-x="564" d="M524 251Q524 197 507 149T459 65T383 7T282 -15Q226 -15 182 6T106 64T57 149T40 251Q40 305 57 353T105 437T181 494T282 516Q338 516 382 495T458 437T507 353T524 251ZM495 251Q495 299 481 343T439 421T372 475T282 495Q232 495 193 475T126 422T84 344T69 251Q69 203 83 159T125 80T192 26T282 6Q332 6 371 26T438 80T480 158T495 251ZM152 644Q152 659 163 671T192 683Q209 683 219 671T230 644Q230 629 220 617T192 605Q175 605 164 617T152 644ZM334 644Q334 659 345 671T374 683Q391 683 401 671T412 644Q412 629 402 617T374 605Q357 605 346 617T334 644Z"  />
<glyph unicode="&#xF7;" horiz-adv-x="600" d="M50 264H550V236H50V264ZM339 35Q339 18 327 7T300 -4Q285 -4 273 7T261 35Q261 52 273 63T300 74Q315 74 327 63T339 35ZM339 465Q339 448 327 437T300 426Q285 426 273 437T261 465Q261 482 273 493T300 504Q315 504 327 493T339 465Z"  />
<glyph unicode="&#xF8;" horiz-adv-x="564" d="M69 251Q69 192 90 141T150 53Q157 65 175 97T216 173T266 264T314 354T354 429T377 473Q333 495 282 495Q232 495 193 475T126 422T84 344T69 251ZM495 251Q495 314 471 369T400 459Q389 440 371 406T330 331T284 244T239 159T200 86T174 36Q223 6 282 6Q332 6 371 26T438 80T480 158T495 251ZM139 31Q90 71 65 128T40 251Q40 305 57 353T105 437T181 494T282 516Q337 516 388 493L427 570Q435 585 446 585Q451 585 456 582T461 571Q461 567 460 564T453 551L411 480Q466 442 495 382T524 251Q524 197 507 149T459 65T383 7T282 -15Q249 -15 220 -7T163 15L131 -50Q125 -62 120 -68T107 -74Q101 -74 97 -70T92 -61Q92 -52 99 -40L139 31Z"  />
<glyph unicode="&#xF9;" horiz-adv-x="658" d="M497 93H495Q490 83 479 65T447 29T394 -2T316 -15Q258 -15 222 0T164 43T136 108T128 190V350Q128 397 127 423T123 463T111 479T87 482Q72 482 52 480T21 478Q1 478 1 491Q1 505 18 505Q26 505 39 503T82 501Q106 501 116 503T138 505Q150 505 152 500T155 484V185Q155 97 191 52T314 6Q370 6 405 25T461 75T489 146T497 226V350Q497 397 496 423T492 463T480 479T456 482Q441 482 421 480T390 478Q370 478 370 491Q370 505 387 505Q395 505 408 503T451 501Q475 501 485 503T507 505Q519 505 521 500T524 484V151Q524 104 525 78T529 38T541 22T565 19Q580 19 600 21T631 23Q651 23 651 10Q651 -4 634 -4Q626 -4 613 -2T570 0Q546 0 536 -2T514 -4Q502 -4 500 1T497 17V93ZM208 683Q197 691 194 695T190 704Q190 710 194 713T203 717Q208 717 214 714T227 705L360 606Q370 599 370 591Q370 586 367 584T361 581Q353 581 344 588L208 683Z"  />
<glyph unicode="&#xFA;" horiz-adv-x="658" d="M497 93H495Q490 83 479 65T447 29T394 -2T316 -15Q258 -15 222 0T164 43T136 108T128 190V350Q128 397 127 423T123 463T111 479T87 482Q72 482 52 480T21 478Q1 478 1 491Q1 505 18 505Q26 505 39 503T82 501Q106 501 116 503T138 505Q150 505 152 500T155 484V185Q155 97 191 52T314 6Q370 6 405 25T461 75T489 146T497 226V350Q497 397 496 423T492 463T480 479T456 482Q441 482 421 480T390 478Q370 478 370 491Q370 505 387 505Q395 505 408 503T451 501Q475 501 485 503T507 505Q519 505 521 500T524 484V151Q524 104 525 78T529 38T541 22T565 19Q580 19 600 21T631 23Q651 23 651 10Q651 -4 634 -4Q626 -4 613 -2T570 0Q546 0 536 -2T514 -4Q502 -4 500 1T497 17V93ZM391 705Q398 710 404 713T415 717Q420 717 424 714T428 704Q428 699 425 695T410 683L274 588Q265 581 257 581Q254 581 251 583T248 591Q248 599 258 606L391 705Z"  />
<glyph unicode="&#xFB;" horiz-adv-x="658" d="M497 93H495Q490 83 479 65T447 29T394 -2T316 -15Q258 -15 222 0T164 43T136 108T128 190V350Q128 397 127 423T123 463T111 479T87 482Q72 482 52 480T21 478Q1 478 1 491Q1 505 18 505Q26 505 39 503T82 501Q106 501 116 503T138 505Q150 505 152 500T155 484V185Q155 97 191 52T314 6Q370 6 405 25T461 75T489 146T497 226V350Q497 397 496 423T492 463T480 479T456 482Q441 482 421 480T390 478Q370 478 370 491Q370 505 387 505Q395 505 408 503T451 501Q475 501 485 503T507 505Q519 505 521 500T524 484V151Q524 104 525 78T529 38T541 22T565 19Q580 19 600 21T631 23Q651 23 651 10Q651 -4 634 -4Q626 -4 613 -2T570 0Q546 0 536 -2T514 -4Q502 -4 500 1T497 17V93ZM309 686L172 605Q165 600 156 600Q146 600 146 611Q146 618 159 626L294 708Q299 710 302 712T309 715Q312 715 315 713T324 708L459 626Q472 618 472 611Q472 600 462 600Q453 600 446 605L309 686Z"  />
<glyph unicode="&#xFC;" horiz-adv-x="658" d="M497 93H495Q490 83 479 65T447 29T394 -2T316 -15Q258 -15 222 0T164 43T136 108T128 190V350Q128 397 127 423T123 463T111 479T87 482Q72 482 52 480T21 478Q1 478 1 491Q1 505 18 505Q26 505 39 503T82 501Q106 501 116 503T138 505Q150 505 152 500T155 484V185Q155 97 191 52T314 6Q370 6 405 25T461 75T489 146T497 226V350Q497 397 496 423T492 463T480 479T456 482Q441 482 421 480T390 478Q370 478 370 491Q370 505 387 505Q395 505 408 503T451 501Q475 501 485 503T507 505Q519 505 521 500T524 484V151Q524 104 525 78T529 38T541 22T565 19Q580 19 600 21T631 23Q651 23 651 10Q651 -4 634 -4Q626 -4 613 -2T570 0Q546 0 536 -2T514 -4Q502 -4 500 1T497 17V93ZM179 644Q179 659 190 671T219 683Q236 683 246 671T257 644Q257 629 247 617T219 605Q202 605 191 617T179 644ZM361 644Q361 659 372 671T401 683Q418 683 428 671T439 644Q439 629 429 617T401 605Q384 605 373 617T361 644Z"  />
<glyph unicode="&#xFD;" horiz-adv-x="583" d="M104 407Q89 446 77 465T36 485Q30 485 25 483T8 481Q4 481 -1 484T-6 494Q-6 503 1 505T14 508Q38 508 60 505T109 501Q135 501 163 504T218 508Q225 508 234 507T244 494Q244 487 237 484T220 481Q206 481 191 483T161 485Q120 485 120 462Q120 457 124 442T135 410L281 34Q283 29 285 25T289 21Q293 21 298 34L454 415Q468 447 468 458Q468 466 463 471T452 480T438 484T426 485Q412 485 397 483T367 481Q358 481 352 484T346 494Q346 501 353 504T366 508Q386 508 413 505T467 501Q495 501 524 504T574 508Q579 508 585 505T592 494Q592 481 567 481Q559 481 554 483T539 485Q530 485 524 482T511 470T496 444T476 397L303 -20Q283 -69 261 -103T215 -158T162 -190T101 -200Q68 -200 44 -191T3 -166T-22 -133T-30 -97Q-30 -73 -15 -58T20 -42Q36 -42 46 -52T56 -77Q56 -90 47 -99T22 -109Q17 -109 14 -107T5 -105Q-1 -105 -1 -115Q-1 -124 5 -135T25 -155T57 -172T101 -179Q134 -179 159 -168T203 -139T235 -103T255 -66T266 -36T270 -23Q270 -16 269 -11T263 5L104 407ZM373 705Q380 710 386 713T397 717Q402 717 406 714T410 704Q410 699 407 695T392 683L256 588Q247 581 239 581Q236 581 233 583T230 591Q230 599 240 606L373 705Z"  />
<glyph unicode="&#xFE;" horiz-adv-x="601" d="M131 542Q131 589 130 615T126 655T114 671T90 674Q75 674 55 672T24 670Q4 670 4 683Q4 697 21 697Q29 697 42 695T85 693Q109 693 119 695T141 697Q153 697 155 692T158 676V400H160Q178 439 201 462T249 497T298 512T343 516Q404 516 445 493T512 433T549 351T561 259Q561 208 548 159T506 71T434 9T330 -15Q313 -15 291 -12T245 1T199 31T160 83H158V-8Q158 -65 159 -98T165 -149T181 -172T214 -178Q225 -178 239 -176T263 -174Q272 -174 278 -177T285 -188Q285 -195 279 -198T266 -201Q243 -201 210 -198T144 -194Q113 -194 80 -197T23 -201Q16 -201 10 -198T4 -188Q4 -181 10 -178T26 -174Q35 -174 49 -176T75 -178Q96 -178 107 -173T124 -150T130 -99T131 -8V542ZM532 254Q532 297 524 340T493 417T435 473T342 495Q312 495 289 488T250 472T223 452T207 436Q191 418 181 401T166 360T158 304T156 223Q156 193 158 170T164 129T177 96T197 66Q219 40 255 23T334 6Q355 6 389 14T454 49T509 124T532 254Z"  />
<glyph unicode="&#xFF;" horiz-adv-x="583" d="M104 407Q89 446 77 465T36 485Q30 485 25 483T8 481Q4 481 -1 484T-6 494Q-6 503 1 505T14 508Q38 508 60 505T109 501Q135 501 163 504T218 508Q225 508 234 507T244 494Q244 487 237 484T220 481Q206 481 191 483T161 485Q120 485 120 462Q120 457 124 442T135 410L281 34Q283 29 285 25T289 21Q293 21 298 34L454 415Q468 447 468 458Q468 466 463 471T452 480T438 484T426 485Q412 485 397 483T367 481Q358 481 352 484T346 494Q346 501 353 504T366 508Q386 508 413 505T467 501Q495 501 524 504T574 508Q579 508 585 505T592 494Q592 481 567 481Q559 481 554 483T539 485Q530 485 524 482T511 470T496 444T476 397L303 -20Q283 -69 261 -103T215 -158T162 -190T101 -200Q68 -200 44 -191T3 -166T-22 -133T-30 -97Q-30 -73 -15 -58T20 -42Q36 -42 46 -52T56 -77Q56 -90 47 -99T22 -109Q17 -109 14 -107T5 -105Q-1 -105 -1 -115Q-1 -124 5 -135T25 -155T57 -172T101 -179Q134 -179 159 -168T203 -139T235 -103T255 -66T266 -36T270 -23Q270 -16 269 -11T263 5L104 407ZM161 644Q161 659 172 671T201 683Q218 683 228 671T239 644Q239 629 229 617T201 605Q184 605 173 617T161 644ZM343 644Q343 659 354 671T383 683Q400 683 410 671T421 644Q421 629 411 617T383 605Q366 605 355 617T343 644Z"  />
<glyph unicode="&#x131;" horiz-adv-x="320" d="M157 350Q157 397 156 423T152 463T140 479T116 482Q101 482 81 480T50 478Q30 478 30 491Q30 505 47 505Q55 505 68 503T111 501Q135 501 145 503T167 505Q179 505 181 500T184 484V186Q184 129 185 96T191 45T207 22T240 16Q251 16 265 18T289 20Q298 20 304 17T311 6Q311 -1 305 -4T292 -7Q269 -7 236 -4T170 0Q139 0 106 -3T49 -7Q42 -7 36 -4T30 6Q30 13 36 16T52 20Q61 20 75 18T101 16Q122 16 133 21T150 44T156 95T157 186V350Z"  />
<glyph unicode="&#x152;" horiz-adv-x="1147" d="M82 338Q82 275 97 215T145 107T227 30T347 1Q416 1 466 30T549 106T596 214T612 338Q612 401 597 462T549 570T467 646T347 675Q278 675 228 646T145 570T98 462T82 338ZM912 21Q955 21 981 22T1020 32T1038 59T1043 111Q1043 142 1041 169T1038 220Q1038 233 1042 241T1054 250Q1059 250 1064 244T1070 224Q1070 201 1067 178T1063 124Q1063 91 1066 69T1070 25Q1070 8 1059 3T1029 -3Q1006 -3 974 -2T918 0Q848 0 802 0T726 -1T680 -2T651 -3Q632 -3 621 2T610 25Q610 67 612 108T616 194H614Q599 145 575 106T518 38T442 -6T347 -22Q272 -22 216 8T124 89T69 205T50 338Q50 407 68 471T123 586T216 667T347 698Q400 698 443 683T520 639T578 571T616 483H618Q616 537 613 578T610 651Q610 668 621 673T651 679Q663 679 677 679T707 678Q722 677 736 677T762 676H908Q920 676 934 676T964 678Q979 678 993 678T1019 679Q1038 679 1049 674T1060 651Q1060 620 1057 595T1053 543Q1053 514 1056 489T1060 443Q1060 432 1058 420T1043 407Q1032 407 1030 418T1028 443Q1028 452 1029 470T1030 508T1032 547T1033 574Q1033 604 1029 620T1014 644T983 653T929 655H705Q685 655 673 653T655 641T646 611T643 553V406Q643 392 644 384T649 372T662 367T687 365H795Q812 365 827 367T853 374T870 391T877 420Q877 437 875 455T872 490Q872 506 877 512T887 518Q895 518 898 509T901 488Q901 477 900 460T898 423T895 386T894 356Q894 339 895 316T897 270T900 225T901 190Q901 161 887 161Q881 161 877 168T872 195Q872 214 874 234T877 276Q877 317 859 330T795 344H681Q667 344 659 342T648 336T644 323T643 303V85Q643 61 645 48T654 29T675 22T711 21H912Z"  />
<glyph unicode="&#x153;" horiz-adv-x="996" d="M904 284V286Q915 286 918 290T921 302Q921 322 913 355T883 419T825 472T731 495Q689 495 657 483T602 451T564 409T540 364T528 325T524 300Q524 290 531 287T549 284H904ZM506 151Q475 73 418 29T282 -15Q226 -15 182 6T106 64T57 149T40 251Q40 305 57 353T105 437T181 494T282 516Q365 516 422 471T508 345H510Q533 423 591 469T732 516Q792 516 833 493T901 435T938 361T950 290Q950 269 940 265T909 260H545Q531 260 526 256T520 235Q520 195 531 154T568 80T632 27T725 6Q766 6 798 17T853 47T891 88T910 133Q915 155 919 166T931 177Q939 177 941 172T944 162Q944 150 934 121T900 61T833 8T727 -15Q679 -15 642 -2T578 35T534 88T508 151H506ZM69 251Q69 203 83 159T125 80T192 26T282 6Q332 6 371 26T438 80T480 158T495 251Q495 299 481 343T439 421T372 475T282 495Q232 495 193 475T126 422T84 344T69 251Z"  />
<glyph unicode="&#x160;" horiz-adv-x="601" d="M83 92Q87 58 88 44T90 16Q90 -6 74 -6Q67 -6 63 2T58 21Q58 33 59 49T61 81T64 114T65 144Q65 157 64 174T62 207T59 239T58 265Q58 272 61 278T73 285Q87 285 87 268Q87 257 86 241T84 209Q84 149 103 109T153 45T223 11T303 1Q361 1 401 18T465 61T500 120T511 183Q511 233 492 262T443 306T377 326T306 334Q194 342 134 383T74 505Q74 542 88 577T131 639T200 682T294 698Q327 698 357 691T413 670T457 634T486 580H488Q490 610 488 628T485 658Q485 670 489 676T499 683Q513 683 513 658Q513 649 512 634T510 601T507 565T506 533Q506 506 509 480T513 436Q513 427 508 422T497 416Q492 416 488 421T483 437Q483 448 484 457T486 479Q486 575 436 625T295 675Q242 675 206 659T147 617T116 563T106 507Q106 463 125 436T174 393T240 370T309 360Q349 356 390 350T466 326T521 274T543 181Q543 151 532 116T494 50T423 -1T311 -22Q254 -22 216 -10T152 19T111 56T85 92H83ZM150 833Q137 841 137 848Q137 859 147 859Q152 859 156 858T163 854L300 773L437 854Q440 856 444 857T453 859Q463 859 463 848Q463 841 450 833L315 751Q304 744 300 744Q295 744 285 751L150 833Z"  />
<glyph unicode="&#x161;" horiz-adv-x="508" d="M83 72Q83 57 84 38T86 9Q86 1 84 -6T73 -13Q63 -13 61 -6T59 8Q59 33 62 63T66 117Q66 143 63 169T59 212Q59 223 62 230T73 237Q86 237 86 212Q86 198 85 184T83 154Q83 120 97 93T135 46T192 17T263 6Q303 6 334 16T386 44T417 84T428 132Q428 165 416 185T379 216T320 234T240 246Q207 250 177 256T125 276T89 312T75 370Q75 402 89 428T127 474T182 505T250 516Q289 516 315 507T360 485T388 457T405 432H407Q407 452 406 462T404 482Q404 489 407 499T420 510Q428 510 429 502T431 482Q431 466 428 444T424 396Q424 378 427 356T431 319Q431 313 428 307T417 301Q409 301 407 306T404 317Q404 326 405 334T407 351Q407 371 400 396T376 443T328 480T253 495Q220 495 193 486T146 461T115 423T104 375Q104 345 114 327T146 299T205 282T295 267Q318 264 346 258T399 239T440 203T457 142Q457 109 443 80T404 30T342 -3T263 -15Q218 -15 187 -5T134 20T101 48T85 72H83ZM104 688Q91 696 91 703Q91 714 101 714Q106 714 110 713T117 709L254 628L391 709Q394 711 398 712T407 714Q417 714 417 703Q417 696 404 688L269 606Q258 599 254 599Q249 599 239 606L104 688Z"  />
<glyph unicode="&#x178;" horiz-adv-x="639" d="M306 267Q306 281 300 291L99 617Q83 643 73 651T45 660Q32 660 20 658T-5 656Q-15 656 -22 659T-30 669Q-30 677 -23 680T-4 683Q17 683 47 680T101 676Q113 676 128 677T159 679T192 682T220 683Q240 683 240 671Q240 664 233 660T217 656Q197 656 177 658T138 660Q124 660 120 658T115 651Q115 648 118 643T126 629L306 331Q313 320 316 318T322 316Q327 316 330 319T339 331L507 601Q515 613 519 620T526 632T529 640T530 646Q530 654 520 657T495 660Q482 660 466 658T432 656Q423 656 411 658T399 669Q399 677 406 680T422 683Q448 683 480 680T543 676Q569 676 595 679T648 683Q656 683 662 680T668 669Q668 661 660 659T642 656Q634 656 624 658T603 660Q584 660 575 651T550 616L342 288Q337 280 336 275T335 264V150Q335 106 337 80T344 39T360 21T388 16Q404 16 417 18T444 20Q451 20 458 17T466 6Q466 -1 459 -4T444 -7Q421 -7 390 -4T320 0Q302 0 283 -1T246 -3T214 -6T190 -7Q169 -7 169 6Q169 13 176 16T191 20Q205 20 218 18T248 16Q264 16 275 19T293 37T303 80T306 158V267ZM189 789Q189 804 200 816T229 828Q246 828 256 816T267 789Q267 774 257 762T229 750Q212 750 201 762T189 789ZM371 789Q371 804 382 816T411 828Q428 828 438 816T449 789Q449 774 439 762T411 750Q394 750 383 762T371 789Z"  />
<glyph unicode="&#x17D;" horiz-adv-x="639" d="M82 0Q71 0 58 2T44 20Q44 27 48 34T72 64L531 629Q534 632 538 639T542 649Q542 652 537 652T523 653H149Q137 653 128 652T112 645T102 624T99 584Q99 548 101 521T104 462Q104 450 99 443T88 436Q79 436 76 445T72 472Q72 496 75 524T79 571Q79 590 76 610T72 642Q72 667 82 671T115 676H527Q551 676 564 674T578 656Q578 648 573 639T561 622L89 40Q85 35 82 32T78 27Q78 23 101 23H484Q504 23 516 27T534 40T543 65T545 105Q545 135 543 167T540 229Q540 247 545 253T556 260Q563 260 567 253T572 228Q572 210 569 179T565 114Q565 87 568 63T572 21Q572 5 562 3T538 0H82ZM169 833Q156 841 156 848Q156 859 166 859Q171 859 175 858T182 854L319 773L456 854Q459 856 463 857T472 859Q482 859 482 848Q482 841 469 833L334 751Q323 744 319 744Q314 744 304 751L169 833Z"  />
<glyph unicode="&#x17E;" horiz-adv-x="545" d="M94 0Q73 0 57 2T40 21Q40 29 45 38T73 70L436 455Q441 459 444 464T448 474Q448 477 444 477T423 478H135Q122 478 112 477T96 471T86 453T82 420Q82 403 84 376T86 335Q86 325 83 318T71 311Q64 311 61 317T58 335Q58 345 60 359T62 389Q62 409 60 431T58 475Q58 485 60 490T69 497T88 500T119 501H434Q462 501 473 499T484 482Q484 465 463 444L86 46Q84 43 79 37T74 28Q74 24 78 24T98 23H407Q425 23 435 24T450 30T457 48T459 82Q459 104 457 130T455 186Q455 200 459 207T470 214Q484 214 484 186Q484 165 482 143T480 99Q480 80 482 62T484 24Q484 6 473 3T432 0H94ZM122 688Q109 696 109 703Q109 714 119 714Q124 714 128 713T135 709L272 628L409 709Q412 711 416 712T425 714Q435 714 435 703Q435 696 422 688L287 606Q276 599 272 599Q267 599 257 606L122 688Z"  />
<glyph unicode="&#x192;" horiz-adv-x="639" d="M334 435H254Q236 435 236 448Q236 460 254 460H339L357 563Q361 585 367 611T389 660T429 698T498 713Q522 713 547 707T593 690T626 661T639 623Q639 609 631 597T606 584Q594 584 586 592T577 613Q577 621 580 626T586 635T593 641T596 648Q596 653 590 660T571 674T542 685T502 690Q480 690 462 686T430 668T406 630T389 568L370 460H499Q518 460 518 449Q518 435 493 435H366L289 11Q280 -36 266 -78T227 -151T169 -202T87 -221Q63 -221 41 -216T2 -200T-25 -176T-35 -145Q-35 -128 -24 -120T-2 -111Q10 -111 19 -119T28 -141Q28 -149 25 -156T21 -170Q21 -174 23 -178T33 -187T54 -195T87 -198Q124 -198 153 -181T203 -133T239 -61T263 30L334 435Z"  />
<glyph unicode="&#x2C6;" horiz-adv-x="500" d="M250 686L113 605Q106 600 97 600Q87 600 87 611Q87 618 100 626L235 708Q240 710 243 712T250 715Q253 715 256 713T265 708L400 626Q413 618 413 611Q413 600 403 600Q394 600 387 605L250 686Z"  />
<glyph unicode="&#x2DC;" horiz-adv-x="500" d="M309 614Q300 614 279 619T233 632Q210 639 189 644T160 650Q144 650 132 644T110 628Q100 618 97 618Q94 618 93 620T91 624Q91 625 97 633T114 651T141 668T179 676Q187 676 208 671T255 660Q279 654 300 649T330 644Q366 644 385 664Q393 672 396 674T402 677Q409 677 409 673Q409 671 403 662T385 642T353 623T309 614Z"  />
<glyph unicode="&#x2013;" horiz-adv-x="500" d="M60 251Q43 251 38 257T32 269Q32 275 37 280T62 285H437Q456 285 462 281T468 268Q468 260 462 256T437 251H60Z"  />
<glyph unicode="&#x2014;" horiz-adv-x="1000" d="M60 251Q32 251 32 269Q32 285 62 285H936Q955 285 961 281T968 268Q968 251 936 251H60Z"  />
<glyph unicode="&#x2018;" horiz-adv-x="245" d="M180 454Q180 434 166 419T128 404Q110 404 98 412T79 434T68 464T65 496Q65 539 76 576T103 640T132 682T151 698Q155 698 159 695T164 686Q164 682 160 678Q121 633 108 592T95 527Q95 494 112 494Q116 494 126 496Q136 498 139 498Q144 498 151 496T164 489T175 475T180 454Z"  />
<glyph unicode="&#x2019;" horiz-adv-x="245" d="M180 606Q180 563 168 526T141 462T112 420T94 404Q90 404 86 407T81 416Q81 420 85 424Q124 469 137 510T150 575Q150 608 133 608Q128 608 120 606T106 604Q101 604 94 606T81 613T70 627T65 648Q65 668 79 683T117 698Q135 698 147 690T166 668T177 638T180 606Z"  />
<glyph unicode="&#x201A;" horiz-adv-x="245" d="M65 32Q65 52 79 67T117 82Q135 82 147 74T166 52T177 22T180 -10Q180 -53 168 -90T141 -154T112 -196T94 -212Q90 -212 86 -209T81 -200Q81 -196 85 -192Q124 -147 137 -106T150 -41Q150 -8 133 -8Q130 -8 120 -10Q110 -12 106 -12Q101 -12 94 -10T81 -3T70 11T65 32Z"  />
<glyph unicode="&#x201C;" horiz-adv-x="413" d="M180 454Q180 434 166 419T128 404Q110 404 98 412T79 434T68 464T65 496Q65 539 76 576T103 640T132 682T151 698Q155 698 159 695T164 686Q164 682 160 678Q121 633 108 592T95 527Q95 494 112 494Q116 494 126 496Q136 498 139 498Q144 498 151 496T164 489T175 475T180 454ZM348 454Q348 434 334 419T296 404Q278 404 266 412T247 434T236 464T233 496Q233 539 244 576T271 640T300 682T319 698Q323 698 327 695T332 686Q332 682 328 678Q289 633 276 592T263 527Q263 494 280 494Q284 494 294 496Q304 498 307 498Q312 498 319 496T332 489T343 475T348 454Z"  />
<glyph unicode="&#x201D;" horiz-adv-x="413" d="M180 606Q180 563 168 526T141 462T112 420T94 404Q90 404 86 407T81 416Q81 420 85 424Q124 469 137 510T150 575Q150 608 133 608Q128 608 120 606T106 604Q101 604 94 606T81 613T70 627T65 648Q65 668 79 683T117 698Q135 698 147 690T166 668T177 638T180 606ZM348 606Q348 563 336 526T309 462T280 420T262 404Q258 404 254 407T249 416Q249 420 253 424Q292 469 305 510T318 575Q318 608 301 608Q296 608 288 606T274 604Q269 604 262 606T249 613T238 627T233 648Q233 668 247 683T285 698Q303 698 315 690T334 668T345 638T348 606Z"  />
<glyph unicode="&#x201E;" horiz-adv-x="413" d="M65 32Q65 52 79 67T117 82Q135 82 147 74T166 52T177 22T180 -10Q180 -53 168 -90T141 -154T112 -196T94 -212Q90 -212 86 -209T81 -200Q81 -196 85 -192Q124 -147 137 -106T150 -41Q150 -8 133 -8Q130 -8 120 -10Q110 -12 106 -12Q101 -12 94 -10T81 -3T70 11T65 32ZM233 32Q233 52 247 67T285 82Q303 82 315 74T334 52T345 22T348 -10Q348 -53 336 -90T309 -154T280 -196T262 -212Q258 -212 254 -209T249 -200Q249 -196 253 -192Q292 -147 305 -106T318 -41Q318 -8 301 -8Q298 -8 288 -10Q278 -12 274 -12Q269 -12 262 -10T249 -3T238 11T233 32Z"  />
<glyph unicode="&#x2020;" horiz-adv-x="639" d="M330 456Q331 408 332 350T333 231T335 113T336 7T337 -75T338 -122Q338 -140 334 -146T319 -152Q309 -152 305 -146T301 -122Q301 -110 301 -76T302 7T303 113T305 231T306 349T308 456L136 446Q124 445 116 449T107 466Q107 485 138 484L308 476Q307 503 306 535T304 599T302 656T301 696Q301 717 320 717Q331 717 334 711T338 696Q338 682 337 656T335 599T332 536T330 476L500 484Q517 485 524 479T531 465Q531 457 525 451T503 446L330 456Z"  />
<glyph unicode="&#x2021;" horiz-adv-x="639" d="M309 100L138 92Q124 91 116 95T107 111Q107 121 115 126T136 130L309 120Q307 169 305 212T303 290Q303 321 304 359T309 456L136 446Q124 445 116 450T107 465Q107 473 114 479T138 484L309 476L301 689Q300 705 304 711T318 717Q331 717 335 710T338 689L330 476L500 484Q518 485 524 479T531 465Q531 457 525 451T503 446L330 456Q333 397 334 359T336 290Q336 256 334 213T330 120L503 130Q515 131 523 126T531 110Q531 99 521 95T500 92L330 100L338 -124Q339 -137 335 -144T319 -151Q308 -151 305 -146T301 -131L309 100Z"  />
<glyph unicode="&#x2022;" horiz-adv-x="332" d="M232 338Q232 309 211 292T166 274Q142 274 121 291T100 338Q100 367 121 385T166 403Q190 403 211 385T232 338Z"  />
<glyph unicode="&#x2026;" horiz-adv-x="1000" d="M216 37Q216 15 201 2T167 -12Q148 -12 133 1T118 37Q118 59 133 72T167 86Q186 86 201 73T216 37ZM549 37Q549 15 534 2T500 -12Q481 -12 466 1T451 37Q451 59 466 72T500 86Q519 86 534 73T549 37ZM882 37Q882 15 867 2T833 -12Q814 -12 799 1T784 37Q784 59 799 72T833 86Q852 86 867 73T882 37Z"  />
<glyph unicode="&#x2030;" horiz-adv-x="1222" d="M864 184Q864 224 875 261T907 327T958 373T1026 391Q1066 391 1096 376T1146 333T1176 267T1186 184Q1186 144 1175 107T1144 41T1093 -5T1025 -23Q985 -23 955 -8T905 35T874 101T864 184ZM894 185Q894 146 901 113T924 54T964 15T1024 0Q1058 0 1083 16T1124 59T1148 118T1156 185Q1156 224 1149 257T1126 315T1086 354T1026 368Q991 368 967 352T926 310T902 251T894 185ZM470 184Q470 224 481 261T513 327T564 373T632 391Q672 391 702 376T752 333T782 267T792 184Q792 144 781 107T750 41T699 -5T631 -23Q591 -23 561 -8T511 35T480 101T470 184ZM500 185Q500 146 507 113T530 54T570 15T630 0Q664 0 689 16T730 59T754 118T762 185Q762 224 755 257T732 315T692 354T632 368Q597 368 573 352T532 310T508 251T500 185ZM66 492Q66 453 73 420T96 362T136 323T196 308Q230 308 255 324T296 366T320 426T328 492Q328 531 321 564T298 622T258 661T198 676Q163 676 139 660T98 618T74 558T66 492ZM36 492Q36 532 47 569T79 635T130 681T198 699Q238 699 268 684T318 641T348 575T358 492Q358 452 347 415T316 349T265 303T197 285Q157 285 127 300T77 343T46 409T36 492ZM619 652Q589 605 555 548T484 430T413 311T347 199T294 106T257 43Q243 19 235 5T222 -16T214 -24T208 -26Q203 -26 199 -21T195 -11Q195 -6 198 1T214 30Q229 55 254 97T311 192T378 304T449 421T516 534T573 632Q587 656 595 670T608 691T616 699T622 701Q627 701 631 696T635 686Q635 681 632 675T619 652Z"  />
<glyph unicode="&#x2039;" horiz-adv-x="245" d="M55 251Q47 265 47 269Q47 273 50 278T55 287L150 446Q156 457 158 459T166 462Q172 462 175 459T178 451Q178 447 176 443T172 435L90 287Q88 284 86 279T84 269Q84 267 85 263T90 251L172 103Q174 101 176 96T178 87Q178 83 175 80T166 76Q162 76 159 78T150 92L55 251Z"  />
<glyph unicode="&#x203A;" horiz-adv-x="245" d="M155 251Q159 259 160 263T161 269Q161 274 159 279T155 287L73 435Q71 438 69 442T67 451Q67 455 70 458T79 462Q84 462 86 460T95 446L190 287Q192 283 195 278T198 269Q198 265 190 251L95 92Q89 81 86 79T79 76Q74 76 71 79T67 87Q67 91 69 96T73 103L155 251Z"  />
<glyph unicode="&#x20AC;" horiz-adv-x="639" d="M43 267Q18 267 18 281Q18 293 40 293H85Q84 304 84 315T84 338Q84 350 84 362T86 387H43Q18 387 18 401Q18 413 40 413H88Q95 471 114 523T165 614T245 676T358 699Q430 699 474 668T544 580L550 567V584Q550 588 550 594T548 614Q548 619 548 628T547 645Q547 674 562 674Q574 674 574 658Q574 654 574 644T572 619Q571 599 570 586T569 563T568 544T567 526Q567 511 567 500T569 477Q571 461 571 454T572 445Q572 427 559 427Q543 427 543 450Q543 461 544 469T546 491Q546 524 534 557T497 617T438 659T357 676Q301 676 260 656T189 601T142 517T118 413H382Q411 413 411 400Q411 387 380 387H116Q115 374 115 362T114 336Q114 325 114 315T115 293H382Q411 293 411 280Q411 267 380 267H117Q123 209 139 160T184 76T256 20T359 0Q448 0 503 54T564 208Q565 228 567 238T579 249Q594 249 594 229Q594 172 578 126T530 46T455 -5T355 -23Q288 -23 240 0T160 62T111 155T87 267H43Z"  />
<glyph unicode="&#x2122;" horiz-adv-x="1066" d="M208 635Q208 652 204 655T180 659H104Q87 659 78 658T64 649T59 626T58 583Q58 569 60 555T62 530Q62 525 60 519T49 512Q41 512 39 519T37 531Q37 541 39 550T41 569Q41 592 39 616T37 663Q37 680 62 680Q100 680 142 678T221 676Q254 676 298 678T378 680Q404 680 404 663Q404 641 402 617T400 569Q400 558 402 550T404 531Q404 526 401 519T391 512Q384 512 382 518T379 530Q379 540 381 554T383 583Q383 610 383 625T378 648T364 657T337 659H261Q241 659 237 656T233 635V373Q233 345 233 328T237 301T246 288T263 285Q274 285 282 287T298 289Q308 289 312 286T316 277Q316 272 313 268T299 264Q285 264 265 267T221 271Q196 271 176 268T142 264Q132 264 129 268T125 277Q125 282 129 285T143 289Q151 289 159 287T178 285Q188 285 194 288T203 300T207 327T208 373V635ZM576 640Q572 648 566 648Q561 648 561 643V373Q561 345 561 328T565 301T574 288T591 285Q602 285 610 287T626 289Q636 289 640 286T644 277Q644 272 641 268T627 264Q613 264 593 268T549 271Q524 272 504 268T470 264Q460 264 457 268T453 277Q453 282 457 285T471 289Q479 289 487 287T506 285Q516 285 522 288T531 300T535 327T536 373V570Q536 602 536 620T533 647T524 658T508 660Q500 660 490 659T471 658Q466 658 461 660T456 669Q456 680 471 680Q477 680 484 680T498 678Q506 677 513 677T526 676Q533 676 538 676T548 677Q553 678 557 678T566 678Q577 678 582 672T591 656L731 309Q738 290 740 290Q743 290 750 309L890 656Q894 665 899 671T915 678Q920 678 925 678T936 677Q941 677 946 677T956 676Q964 676 970 676T985 678Q992 679 998 679T1011 680Q1026 680 1026 669Q1026 663 1021 661T1011 658Q1003 658 993 659T974 660Q963 660 958 658T950 649T947 626T946 584V373Q946 345 946 328T950 301T959 288T976 285Q987 285 995 287T1011 289Q1021 289 1025 286T1029 277Q1029 272 1026 268T1012 264Q998 264 978 268T934 271Q909 272 889 268T855 264Q845 264 842 268T838 277Q838 282 842 285T856 289Q864 289 872 287T891 285Q901 285 907 288T916 300T920 327T921 373V641Q921 648 917 648Q913 648 910 641L764 288Q759 275 753 271T739 266Q724 266 717 285L576 640Z"  />

</font>
</defs>
</svg>
