<?xml  version="1.0" encoding="UTF-8"?>
<!DOCTYPE svg PUBLIC "-//W3C//DTD SVG 1.0//EN" "http://www.w3.org/TR/2001/REC-SVG-20010904/DTD/svg10.dtd" >
<svg xmlns="http://www.w3.org/2000/svg" >
<metadata>
<version>1.0</version>
<id><![CDATA[ITC Arecibo W01 Regular]]></id>
<vendor>Monotype Imaging Inc.</vendor>
<credits>
<name>Fonts.com WebFonts</name>
<URL>http://webfonts.fonts.com</URL>
<role>Home of the Web fonts</role>
</credits>
<license>
<URL>http://webfonts.fonts.com/Legal</URL>
</license>
<copyright><![CDATA[Copyright 2002 International Typeface Corporation. All rights reserved.]]></copyright>
<trademark><![CDATA["ITC" is a trademark of International Typeface Corporation Registered in U.S. Patent and Trademark Office and may be registered in certain other jurisdictions; "Arecibo" is a trademark of International Typeface Corporation and may be registered in certain jurisdictions.]]></trademark>
<licensee>
<name></name>
</licensee>
</metadata>
<defs >
<font horiz-adv-x="353" id="a5fab48f-93a0-403a-b60e-bfdb0b69d973">
<font-face font-family="" panose-1="2 0 6 6 2 0 0 2 0 4" ascent="830" descent="-170" units-per-em="1000" alphabetic="0">
</font-face>
<missing-glyph horiz-adv-x="0" />

<glyph unicode="&#xA;" />
<glyph unicode="&#xD;" horiz-adv-x="0" />
<glyph unicode=" " horiz-adv-x="275" />
<glyph unicode="!" horiz-adv-x="173" d="M70 229V833H132V229H70ZM41 200V833H52V212H132V200H41ZM64 29V103H138V29H64ZM35 0V103H47V12H138V0H35Z"  />
<glyph unicode="&quot;" horiz-adv-x="283" d="M191 613V833H243V613H191ZM162 584V833H173V596H243V584H162ZM69 613V833H121V613H69ZM40 584V833H52V596H121V584H40Z"  />
<glyph unicode="#" horiz-adv-x="524" d="M500 547H426L423 531H497L495 519H419L373 315H446L436 268H362L358 251H432L430 239H356L325 104H266L304 268H187L182 251H279L241 87H321L319 75H225L263 239H180L149 104H90L128 268H53L63 315H105L152 518H78L95 593H108L93 530H167L119 315H138L191 547H172H159H117L128 593H170L208 758H220L182 593H202L240 758H299L261 593H345L384 758H396L358 593H378L416 758H475L437 593H511L500 547ZM143 75H49L87 239H13L31 315H43L28 251H104L65 87H145L143 75ZM250 547L246 530H343L294 315H314L367 547H250ZM244 518L197 315H281L328 518H244Z"  />
<glyph unicode="$" horiz-adv-x="428" d="M341 165Q341 136 328 120T290 104H261V87H281Q298 87 311 91T340 112Q324 75 281 75H261V29H197V104H180Q149 104 133 120T116 165V305H180V150H249V401H171Q130 401 109 427T87 485V696Q87 743 121 754Q99 735 99 696V485Q99 456 117 435T173 413H261V150H278V430H167Q143 430 130 446T116 492V696Q116 725 130 741T169 758V833H180V758H197V833H261V758H290Q314 758 327 741T341 695V613H278V711H180V694H261V596H341V584H249V683H180V478H290Q314 478 327 461T341 415V165ZM169 0V75Q128 75 108 100T87 158V305H99V158Q99 130 118 109T180 87V12H261V0H169Z"  />
<glyph unicode="%" horiz-adv-x="548" d="M208 460Q208 420 175 420H94Q61 420 61 460V793Q61 833 94 833H175Q191 833 199 822T208 792V460ZM207 425Q197 401 169 401H96Q69 401 56 418T42 456V793Q42 823 64 831Q50 817 50 793V456Q50 437 62 423T99 409H169Q180 409 188 411T207 425ZM164 19H120L410 833H454L164 19ZM106 8H161L158 0H93L390 833H398L106 8ZM506 60Q506 41 498 30T473 19H393Q376 19 368 30T359 60V392Q359 432 393 432H473Q489 432 497 421T506 391V60ZM506 25Q496 0 467 0H394Q368 0 354 17T340 55V392Q340 422 362 430Q348 418 348 392V55Q348 36 360 22T397 8H467Q478 8 487 11T506 25ZM167 803H102V791H156V450H167V803ZM148 784H102V450H148V784ZM465 402H400V391H454V50H465V402ZM446 383H400V50H446V383Z"  />
<glyph unicode="&amp;" horiz-adv-x="394" d="M305 401V90Q305 61 292 45T254 29H130Q105 29 92 44T79 89V390Q79 424 87 436T109 453V456Q94 463 87 474T79 512V773Q79 801 93 817T131 833H305V787H143V769H305V758H143V477H213V577H225V477H242V577H305V478H374V431H305V413H374V401H305ZM304 37Q297 20 282 10T245 0H132Q91 0 71 25T50 83V398Q50 433 65 455Q57 466 54 479T50 512V773Q50 795 59 809T85 829Q74 820 68 806T62 772V512Q62 471 83 455Q62 438 62 398V83Q62 54 80 33T137 12H245Q262 12 276 16T304 37ZM242 431H143V413H225V75H242V431ZM213 401H143V75H213V401Z"  />
<glyph unicode="&apos;" horiz-adv-x="174" d="M75 613V833H128V613H75ZM46 584V833H58V596H128V584H46Z"  />
<glyph unicode="(" horiz-adv-x="200" d="M176 833Q169 793 159 741T138 627T121 497T114 357Q114 316 117 272T125 183T136 96T149 18T160 -45T169 -89H119Q104 -28 92 36T71 160T57 271T52 357Q52 464 72 585T126 833H176ZM98 -118Q69 -9 46 110T23 357Q23 464 43 585T97 833H110Q78 707 57 586T35 357Q35 301 41 239T58 116T80 -3T106 -106H173L176 -118H98Z"  />
<glyph unicode=")" horiz-adv-x="200" d="M176 359Q176 306 172 256T160 151T139 39T110 -87H60Q70 -35 79 16T96 121T108 233T113 359Q113 433 104 515T83 669Q70 752 54 833H101Q117 774 130 713T154 591T170 471T176 359ZM103 -117H25Q32 -77 42 -25T61 88T77 218T84 360Q84 421 78 488T62 618T42 737T24 833H36Q43 796 53 741T73 621T89 489T96 360Q96 304 93 253T82 148T65 33T40 -105H106L103 -117Z"  />
<glyph unicode="*" horiz-adv-x="406" d="M254 663L301 598L269 575L217 647L206 631L266 551L311 584L318 574L263 534L198 623L150 558L119 580L191 678L48 725L60 762L164 728V838H176V725L193 719V838H232V728L336 762L348 725L236 688L246 673L354 709L358 697L254 663ZM95 577L141 544L134 533L78 574L143 663L38 697L42 709L163 669L95 577Z"  />
<glyph unicode="+" d="M200 269V86H153V269H30V316H153V499H200V316H322V269H200Z"  />
<glyph unicode="&#x2c;" horiz-adv-x="223" d="M108 -78H59L92 103H154L108 -78ZM102 -106H28L63 103H74L40 -95H104L102 -106Z"  />
<glyph unicode="-" horiz-adv-x="375" d="M89 421V486H315V421H89ZM60 392V486H72V404H315V392H60Z"  />
<glyph unicode="." horiz-adv-x="223" d="M89 29V103H163V29H89ZM60 0V103H72V12H163V0H60Z"  />
<glyph unicode="/" horiz-adv-x="321" d="M77 -31H18L283 878H342L77 -31ZM-5 -49H73L69 -60H-21L252 878H266L-5 -49Z"  />
<glyph unicode="0" d="M303 90Q303 61 290 45T252 29H130Q105 29 92 45T79 90V772Q79 801 92 817T130 833H252Q277 833 290 816T303 770V90ZM302 37Q295 20 280 10T243 0H132Q91 0 71 25T50 83V772Q50 819 84 829Q62 810 62 772V83Q62 54 80 33T137 12H243Q260 12 274 16T302 37ZM241 787H142V769H224V75H241V787ZM212 758H142V75H212V758Z"  />
<glyph unicode="1" horiz-adv-x="325" d="M69 29V75H119V758H46V833H57V769H130V75H148V787H75V833H210V75H285V29H69ZM40 0V75H52V12H285V0H40Z"  />
<glyph unicode="2" horiz-adv-x="333" d="M40 584V772Q40 819 74 829Q52 810 52 772V596H131V584H40ZM69 29V416Q69 445 82 461T120 478H202V758H131V613H69V772Q69 801 82 817T120 833H242Q267 833 280 816T293 770V493Q293 463 281 447T244 430H131V413H234Q251 413 265 417T293 438Q286 421 271 411T234 401H131V75H293V29H69ZM40 0V417Q40 463 74 474Q52 454 52 417V12H293V0H40ZM231 787H131V769H214V478H231V787Z"  />
<glyph unicode="3" horiz-adv-x="334" d="M132 584V596H51V772Q51 792 57 806T74 829Q40 819 40 773V584H132ZM229 75H212H229ZM290 37Q276 20 262 16T231 12H127Q89 12 70 33T51 83V260H40V83Q40 51 60 26T122 0H231Q252 0 267 10T290 37ZM294 512Q294 485 286 474T264 456V453Q278 448 285 434T293 385V88Q293 59 279 44T240 29H120Q95 29 82 45T69 90V260H132V75H200V402H87V478H99V413H212V75H229V430H116V478H202V758H131V613H69V773Q69 801 83 817T121 833H243Q267 833 280 816T294 770V512ZM231 477V787H131V769H214V477H231Z"  />
<glyph unicode="4" horiz-adv-x="334" d="M294 29Q291 29 281 29T260 29T240 29T231 29V430H69V833H132V478H202V832H214V478H231V833H294V29ZM202 0V401H40V833H52V413H214V12H293V0H202Z"  />
<glyph unicode="5" horiz-adv-x="334" d="M131 758V478H242Q267 478 280 461T293 414V90Q293 61 280 45T242 29H120Q95 29 82 45T69 90V260H132V75H202V401H40V833H52V413H214V75H231V430H69V833H294V787H131V769H294V758H131ZM292 37Q285 20 270 10T233 0H122Q81 0 61 25T40 83V260H52V83Q52 54 70 33T127 11H233Q250 11 264 15T292 37Z"  />
<glyph unicode="6" horiz-adv-x="341" d="M301 90Q301 61 288 45T250 29H128Q103 29 90 45T77 90V772Q77 801 90 817T128 833H250Q275 833 288 816T301 770V613H239V787H139V769H222V596H301V584H211V758H139V478H250Q275 478 288 461T301 414V90ZM300 37Q293 20 278 10T241 0H130Q89 0 70 25T50 83V772Q50 795 58 809T82 829Q60 810 60 772V83Q60 54 78 33T135 12H241Q258 12 272 16T300 37ZM239 430H139V413H222V75H239V430ZM210 401H139V75H210V401Z"  />
<glyph unicode="7" horiz-adv-x="322" d="M127 29H68L237 786H68V833H302L127 29ZM46 12H123L120 0H30L199 758H40V833H52V769H215L46 12Z"  />
<glyph unicode="8" horiz-adv-x="333" d="M293 90Q293 61 280 45T242 29H120Q95 29 82 44T69 89V390Q69 424 77 436T99 453V456Q84 463 77 474T69 512V773Q69 801 82 817T122 833H245Q269 833 281 816T293 769V512Q293 485 285 474T263 456V453Q277 448 285 436T293 390V90ZM292 37Q285 20 270 10T233 0H122Q81 0 61 25T40 83V398Q40 433 55 455Q47 466 44 479T40 512V773Q40 819 74 829Q52 810 52 772V512Q52 471 73 455Q52 438 52 398V83Q52 54 70 33T127 12H233Q250 12 264 16T292 37ZM231 787H131V770H214V478H231V787ZM202 758H131V477H202V758ZM231 430H131V413H214V86H231V430ZM202 402H131V75H202V402Z"  />
<glyph unicode="9" horiz-adv-x="343" d="M293 90Q293 61 280 45T242 29H120Q95 29 82 45T69 90V260H132V75H202V401H123Q103 401 88 408T62 427T46 454T40 485V772Q40 819 74 829Q52 810 52 772V485Q52 456 70 435T126 413H214V75H231V430H120Q95 430 82 446T69 492V772Q69 801 82 817T120 833H242Q267 833 280 816T293 770V90ZM292 37Q285 20 270 10T233 0H122Q81 0 61 25T40 83V260H52V83Q52 54 70 33T127 12H233Q250 12 264 16T292 37ZM231 787H132V769H214V478H231V787ZM202 758H132V478H202V758Z"  />
<glyph unicode=":" horiz-adv-x="223" d="M89 402V478H163V402H89ZM60 373V478H72V384H163V373H60ZM89 29V103H163V29H89ZM60 0V103H72V12H163V0H60Z"  />
<glyph unicode=";" horiz-adv-x="223" d="M87 402V478H161V402H87ZM58 373V478H70V384H161V373H58ZM115 -78H66L99 103H161L115 -78ZM109 -106H35L70 103H81L47 -95H111L109 -106Z"  />
<glyph unicode="&lt;" d="M32 273V302L322 474V420L95 288V286L322 154V99L32 273Z"  />
<glyph unicode="=" d="M30 371V418H322V371H30ZM30 166V213H322V166H30Z"  />
<glyph unicode="&gt;" d="M31 99V154L258 286V288L31 420V474L321 302V273L31 99Z"  />
<glyph unicode="?" horiz-adv-x="325" d="M36 584V772Q36 819 70 829Q48 810 48 772V596H130V584H36ZM289 438Q282 421 267 411T230 401H198V204H135V416Q135 445 148 461T186 478H198V758H129V613H65V772Q65 801 78 817T116 833H238Q263 833 276 816T289 770V496Q289 467 277 451T240 434H198V413H230Q247 413 261 417T289 438ZM107 175V416Q107 463 140 474Q118 454 118 416V186H198V175H107ZM131 29V103H205V29H131ZM102 0V103H114V12H205V0H102ZM227 787H129V769H210V478H227V787Z"  />
<glyph unicode="@" horiz-adv-x="664" d="M611 175Q597 138 554 138H287Q246 138 225 163T204 221V461Q204 484 213 498T238 518Q228 509 222 495T216 461V221Q216 192 235 171T291 149H554Q571 149 584 153T611 175ZM130 29Q106 29 92 44T78 89L79 598Q79 627 92 643T130 659H562Q587 659 600 643T613 597V228Q613 199 600 183T563 166H285Q261 166 248 182T234 228L233 461Q233 490 246 506T283 522H406Q426 522 436 513T452 492Q457 479 458 463V213H522V584H141V75H614V29H130ZM133 0Q92 0 71 25T50 83V599Q50 645 84 656Q62 637 62 598V83Q62 54 81 33T138 12L614 11V0H133ZM550 613H141V596H533V213H550V613ZM396 476H297V459H378V213H396V476ZM366 447H297V213H367L366 447Z"  />
<glyph unicode="A" horiz-adv-x="387" d="M228 0V401H159V29H66V772Q66 819 100 829Q78 810 78 772V75H95V772Q95 801 108 817T146 833H269Q293 833 306 816T319 770V75H351V29H257V430H159V413H240V12H351V0H228ZM36 0V75H48V12H159V0H36ZM257 787H159V769H240V478H257V787ZM228 758H159V478H228V758Z"  />
<glyph unicode="B" horiz-adv-x="368" d="M318 89Q318 61 300 45T255 29H65V758H36V833H48V770H76V75H94V787H65V833H267Q292 833 305 817T318 774V509Q318 484 310 474T288 456V453Q302 448 310 436T318 392V89ZM314 37Q298 0 255 0H36V75H48V12H255Q272 12 287 18T314 37ZM256 787H156V770H238V478H256V787ZM227 758H156V478H227V758ZM260 430H156V413H238V75H260V430ZM227 402H156V75H227V402Z"  />
<glyph unicode="C" horiz-adv-x="339" d="M303 90Q303 61 290 45T252 29H130Q105 29 92 45T79 90V772Q79 801 92 817T130 833H252Q277 833 290 816T303 770V613H241V787H143V769H224V596H303V584H212V758H143V75H212V260H224V75H241V260H303V90ZM302 37Q295 20 280 10T243 0H132Q91 0 71 25T50 83V772Q50 819 84 829Q62 810 62 772V83Q62 54 80 33T137 12H243Q260 12 274 16T302 37Z"  />
<glyph unicode="D" horiz-adv-x="368" d="M318 89Q318 61 300 45T255 29H65V758H36V833H48V769H76V75H94V787H65V833H267Q292 833 305 817T318 774V89ZM314 37Q298 0 255 0H36V75H48V12H255Q272 12 287 18T314 37ZM256 787H156V769H238V75H256V787ZM227 758H156V75H227V758Z"  />
<glyph unicode="E" d="M65 29V758H36V833H48V769H76V75H94V787H65V833H317V613H255V787H156V769H237V596H317V584H226V758H156V478H282V430H156V413H282V401H156V75H226V260H237V75H255V260H317V29H65ZM36 0V75H48V12H317V0H36Z"  />
<glyph unicode="F" d="M226 584V758H156V478H282V430H156V413H282V401H156V75H186V29H65V758H36V833H48V769H76V75H94V787H65V833H317V613H255V787H156V769H237V596H317V584H226ZM36 0V75H48V12H186V0H36Z"  />
<glyph unicode="G" horiz-adv-x="339" d="M303 90Q303 61 290 45T252 29H130Q105 29 92 45T79 90V772Q79 801 92 817T130 833H252Q277 833 290 816T303 770V613H241V787H143V769H224V596H303V584H212V758H143V75H212V401H183V478H195V413H224V75H241V430H212V478H303V90ZM302 37Q295 20 280 10T243 0H132Q91 0 71 25T50 83V772Q50 819 84 829Q62 810 62 772V83Q62 54 80 33T137 12H243Q260 12 274 16T302 37Z"  />
<glyph unicode="H" horiz-adv-x="387" d="M228 0V401H159V29H67V758H38V833H50V769H78V75H95V787H67V833H159V478H228V833H240V478H257V833H351V787H319V769H351V758H319V75H351V29H257V430H159V413H240V12H351V0H228ZM36 0V75H48V12H159V0H36Z"  />
<glyph unicode="I" horiz-adv-x="222" d="M65 29V758H36V833H48V769H76V75H94V787H65V833H186V787H156V769H186V758H156V75H186V29H65ZM36 0V75H48V12H186V0H36Z"  />
<glyph unicode="J" horiz-adv-x="355" d="M289 758V90Q289 61 276 45T238 29H116Q91 29 78 45T65 90V260H129V75H198V758H169V833H181V769H210V75H227V787H198V833H319V787H289V769H319V758H289ZM288 37Q281 20 266 10T229 0H118Q77 0 57 25T36 83V260H48V83Q48 54 66 33T123 12H229Q246 12 260 16T288 37Z"  />
<glyph unicode="K" horiz-adv-x="386" d="M227 0V401H157V75H188V29H65V758H36V833H48V770H76V75H94V787H65V833H188V787H157V770H188V758H157V478H227V833H238V478H256V833H348V787H318V770H348V758H318V509Q318 484 310 474T288 456V453Q302 448 310 436T318 392V75H350V29H256V430H157V413H238V12H350V0H227ZM36 0V75H48V12H188V0H36Z"  />
<glyph unicode="L" d="M65 29V758H36V833H48V769H76V75H94V787H65V833H186V787H156V769H186V758H156V75H226V260H237V75H255V260H317V29H65ZM36 0V75H48V12H317V0H36Z"  />
<glyph unicode="M" horiz-adv-x="527" d="M368 0V758H310V29H247V787H159V769H229V12H310V0H218V758H159V29H66V758H36V833H48V769H78V75H95V787H65V833H410Q433 833 446 816T459 770V75H491V29H398V787H310V769H381V12H491V0H368ZM36 0V75H48V12H159V0H36Z"  />
<glyph unicode="N" horiz-adv-x="387" d="M228 0V758H159V75H190V29H66V758H36V833H48V769H78V75H95V787H65V833H269Q293 833 306 816T319 770V75H351V29H257V787H159V769H240V12H351V0H228ZM36 0V75H48V12H190V0H36Z"  />
<glyph unicode="O" d="M303 90Q303 61 290 45T252 29H130Q105 29 92 45T79 90V772Q79 801 92 817T130 833H252Q277 833 290 816T303 770V90ZM302 37Q295 20 280 10T243 0H132Q91 0 71 25T50 83V772Q50 819 84 829Q62 810 62 772V83Q62 54 80 33T137 12H243Q260 12 274 16T302 37ZM241 787H143V769H224V75H241V787ZM212 758H143V75H212V758Z"  />
<glyph unicode="P" horiz-adv-x="355" d="M319 492Q319 463 305 447T267 430H156V413H258Q275 413 288 417T317 438Q310 421 295 411T258 401H156V75H189V29H65V758H36V833H48V769H76V75H94V787H65V833H267Q292 833 305 817T319 774V492ZM36 0V75H48V12H189V0H36ZM256 787H156V769H238V478H256V787ZM227 758H156V478H227V758Z"  />
<glyph unicode="Q" d="M303 90Q303 61 290 45T252 29H222V12H243Q260 12 274 16T302 37Q295 20 280 10T243 0H222V-69H160V29H130Q105 29 92 45T79 90V772Q79 801 92 817T130 833H252Q277 833 290 816T303 770V90ZM131 -98V0Q90 0 70 25T50 83V772Q50 819 84 829Q62 810 62 772V83Q62 54 80 33T137 12H143V-87H222V-98H131ZM241 787H143V769H224V75H241V787ZM212 758H143V75H212V758Z"  />
<glyph unicode="R" horiz-adv-x="386" d="M227 0V401H156V75H189V29H65V758H36V833H48V770H76V75H94V787H65V833H267Q292 833 305 817T318 774V512Q318 485 310 474T288 456V453Q302 448 310 436T318 390V75H350V29H256V430H156V413H238V12H350V0H227ZM36 0V75H48V12H189V0H36ZM256 787H156V770H238V478H256V787ZM227 758H156V478H227V758Z"  />
<glyph unicode="S" horiz-adv-x="325" d="M289 90Q289 61 276 45T238 29H116Q91 29 78 45T65 90V260H129V75H198V401H119Q99 401 84 408T58 427T42 454T36 485V772Q36 819 70 829Q48 810 48 772V485Q48 456 66 435T122 413H210V75H227V430H116Q91 430 78 446T65 492V772Q65 801 78 817T116 833H238Q263 833 276 816T289 770V613H227V787H129V769H210V596H289V584H198V758H129V478H238Q263 478 276 461T289 415V90ZM288 37Q281 20 266 10T229 0H118Q77 0 57 25T36 83V260H48V83Q48 54 66 33T123 12H229Q246 12 260 16T288 37Z"  />
<glyph unicode="T" horiz-adv-x="404" d="M36 584V833H48V596H127V584H36ZM277 584V758H248V75H278V29H156V758H127V613H65V833H368V613H306V787H248V769H288V596H368V584H277ZM127 0V75H139V12H278V0H127ZM185 787H127V769H168V75H185V787Z"  />
<glyph unicode="U" horiz-adv-x="384" d="M318 758V90Q318 61 305 45T267 29H145Q120 29 107 45T94 90V787H65V833H157V75H227V833H238V75H256V833H348V787H318V769H348V758H318ZM317 37Q310 20 295 10T258 0H147Q106 0 86 25T65 83V758H36V833H48V769H76V83Q76 54 95 33T152 12H258Q275 12 288 16T317 37Z"  />
<glyph unicode="V" horiz-adv-x="385" d="M319 758V413Q319 404 317 373T302 288L244 29H169L111 288Q99 341 97 372T94 413V787H65V833H157V413Q157 405 159 373T171 288L191 182L211 288Q216 314 219 337T224 377Q226 396 227 413V833H239V413Q239 404 237 373T224 288L198 150L205 111H208L242 288Q253 342 254 373T256 413V833H349V787H319V769H349V758H319ZM237 0H146L81 288Q69 341 67 372T65 413V758H36V833H48V769H76V413Q76 405 79 373T93 288L154 12H240L237 0Z"  />
<glyph unicode="W" horiz-adv-x="524" d="M458 758V91Q458 62 445 46T407 29H343Q312 29 298 35T279 59H275Q270 41 254 35T212 29H145Q120 29 107 45T94 90V787H65V833H157V75H216V833H228V75H245V833H309V75H367V833H380V75H397V833H488V787H458V769H488V758H458ZM457 37Q450 20 435 10T398 0H336Q316 0 302 2T277 15Q266 7 257 4T229 0H147Q106 0 86 25T65 83V758H36V833H48V769H76V83Q76 54 95 33T152 12H219Q236 12 252 16T277 34Q285 20 302 16T337 12H398Q415 12 428 16T457 37Z"  />
<glyph unicode="X" horiz-adv-x="387" d="M228 0V402H159V29H66V398Q66 433 81 455Q73 466 70 479T66 512V758H37V833H49V770H78V512Q78 471 99 455Q78 438 78 398V75H95V390Q95 424 103 436T125 453V456Q110 463 103 474T95 512V787H66V833H159V478H228V833H240V478H257V833H350V787H319V770H350V758H319V512Q319 485 311 474T289 456V453Q303 448 311 436T319 390V75H351V29H257V430H159V413H240V12H351V0H228ZM36 0V75H48V12H159V0H36Z"  />
<glyph unicode="Y" horiz-adv-x="384" d="M318 758V492Q318 463 305 447T267 430H238V413H258Q275 413 288 417T317 438Q310 421 295 411T258 401H238V75H269V29H146V401Q106 403 86 428T65 485V758H36V833H48V769H76V485Q76 456 95 435T152 413H157V75H175V430H145Q120 430 107 446T94 492V787H65V833H157V478H227V833H238V478H256V833H348V787H318V769H348V758H318ZM117 0V75H129V12H269V0H117Z"  />
<glyph unicode="Z" horiz-adv-x="359" d="M53 584V833H65V596H145V584H53ZM147 75H216V260H228V75H245V260H308V29H76L253 787H146V769H229L52 12H308V0H36L214 758H146V613H82V833H323L147 75Z"  />
<glyph unicode="[" horiz-adv-x="233" d="M65 -89V833H197V787H127V769H197V758H127V-43H197V-89H65ZM36 -118V833H48V-106H197V-118H36Z"  />
<glyph unicode="\" horiz-adv-x="297" d="M228 29L-7 833H52L287 29H228ZM205 0L-38 833H-26L215 12H291L295 0H205Z"  />
<glyph unicode="]" horiz-adv-x="233" d="M65 -89V-43H105V758H36V769H117V-43H134V787H36V833H197V-89H65ZM36 -118V-43H48V-106H197V-118H36Z"  />
<glyph unicode="^" d="M291 405L177 640H175L63 405H12L167 712H185L341 405H291Z"  />
<glyph unicode="_" horiz-adv-x="500" d="M0 -148V-103H500V-148H0Z"  />
<glyph unicode="`" horiz-adv-x="280" d="M150 731L99 825H155L199 731H150ZM134 704L69 825H81L141 715H205L211 704H134Z"  />
<glyph unicode="a" horiz-adv-x="377" d="M223 0V401H154V29H61V598Q61 645 95 656Q73 636 73 598V75H90V598Q90 627 103 643T141 659H264Q288 659 301 643T314 597V75H346V29H252V430H154V413H235V12H346V0H223ZM31 0V75H43V12H154V0H31ZM252 613H154V596H235V478H252V613ZM223 584H154V478H223V584Z"  />
<glyph unicode="b" horiz-adv-x="358" d="M313 89Q313 61 295 45T250 29H60V584H31V659H43V596H71V75H89V613H60V659H262Q287 659 300 643T313 600V509Q313 484 305 474T283 456V453Q297 448 305 436T313 392V89ZM309 37Q293 0 250 0H31V75H43V12H250Q267 12 282 18T309 37ZM251 613H151V596H233V478H251V613ZM222 585H151V478H222V585ZM255 430H151V413H233V75H255V430ZM222 402H151V75H222V402Z"  />
<glyph unicode="c" horiz-adv-x="329" d="M298 90Q298 61 285 45T247 29H125Q100 29 87 45T74 90V598Q74 627 87 643T125 659H247Q272 659 285 643T298 597V507H236V613H138V596H219V489H298V478H207V584H138V75H207V260H219V75H236V260H298V90ZM297 37Q290 20 275 10T238 0H127Q86 0 66 25T45 83V598Q45 645 79 656Q57 636 57 598V83Q57 54 75 33T132 12H238Q255 12 269 16T297 37Z"  />
<glyph unicode="d" horiz-adv-x="358" d="M313 89Q313 61 295 45T250 29H60V584H31V659H43V596H71V75H89V613H60V659H262Q287 659 300 643T313 600V89ZM309 37Q293 0 250 0H31V75H43V12H250Q267 12 282 18T309 37ZM251 613H151V596H233V75H251V613ZM222 584H151V75H222V584Z"  />
<glyph unicode="e" horiz-adv-x="343" d="M60 29V584H31V659H43V596H71V75H89V613H60V659H312V548H250V613H151V596H232V531H312V519H221V584H151V478H277V430H151V413H277V401H151V75H221V260H232V75H250V260H312V29H60ZM31 0V75H43V12H312V0H31Z"  />
<glyph unicode="f" horiz-adv-x="343" d="M221 519V584H151V478H277V430H151V413H277V401H151V75H181V29H60V584H31V659H43V596H71V75H89V613H60V659H312V548H250V613H151V596H232V531H312V519H221ZM31 0V75H43V12H181V0H31Z"  />
<glyph unicode="g" horiz-adv-x="343" d="M298 90Q298 61 285 45T247 29H125Q100 29 87 45T74 90V598Q74 627 87 643T125 659H247Q272 659 285 643T298 597V548H236V613H138V596H219V531H298V519H207V584H138V75H207V401H178V478H190V413H219V75H236V430H207V478H298V90ZM297 37Q290 20 275 10T238 0H127Q86 0 66 25T45 83V598Q45 645 79 656Q57 636 57 598V83Q57 54 75 33T132 12H238Q255 12 269 16T297 37Z"  />
<glyph unicode="h" horiz-adv-x="377" d="M223 0V401H154V29H62V584H33V659H45V596H73V75H90V613H62V659H154V478H223V659H235V478H252V659H346V613H314V596H346V584H314V75H346V29H252V430H154V413H235V12H346V0H223ZM31 0V75H43V12H154V0H31Z"  />
<glyph unicode="i" horiz-adv-x="212" d="M151 596V613V596ZM181 0V12H43V75H31V0H181ZM181 29H60V584H31V659H43V596H71V75H89V613H60V659H181V613H151V596H181V584H151V75H181V29Z"  />
<glyph unicode="j" horiz-adv-x="345" d="M284 596V613V596ZM283 37Q269 20 255 16T224 12H118Q80 12 62 33T43 83V260H31V83Q31 51 51 26T113 0H224Q245 0 260 10T283 37ZM314 584H284V90Q284 61 271 45T233 29H111Q86 29 73 45T60 90V260H124V75H193V584H164V659H176V596H205V75H222V613H193V659H314V613H284V596H314V584Z"  />
<glyph unicode="k" horiz-adv-x="376" d="M222 0V402H152V75H183V29H60V584H31V659H43V596H71V75H89V613H60V659H183V613H152V596H183V584H152V478H222V659H233V478H251V659H343V613H313V596H343V584H313V509Q313 484 305 474T283 456V453Q297 448 305 436T313 392V75H345V29H251V430H152V413H233V12H345V0H222ZM31 0V75H43V12H183V0H31Z"  />
<glyph unicode="l" horiz-adv-x="343" d="M60 29V584H31V659H43V596H71V75H89V613H60V659H181V613H151V596H181V584H151V75H221V260H232V75H250V260H312V29H60ZM31 0V75H43V12H312V0H31Z"  />
<glyph unicode="m" horiz-adv-x="517" d="M363 0V584H305V29H242V613H154V596H224V12H305V0H213V584H154V29H61V584H31V659H43V596H73V75H90V613H60V659H405Q428 659 441 643T454 597V75H486V29H393V613H305V596H376V12H486V0H363ZM31 0V75H43V12H154V0H31Z"  />
<glyph unicode="n" horiz-adv-x="377" d="M223 0V584H154V75H185V29H61V584H31V659H43V596H73V75H90V613H60V659H264Q288 659 301 643T314 597V75H346V29H252V613H154V596H235V12H346V0H223ZM31 0V75H43V12H185V0H31Z"  />
<glyph unicode="o" horiz-adv-x="343" d="M298 90Q298 61 285 45T247 29H125Q100 29 87 45T74 90V598Q74 627 87 643T125 659H247Q272 659 285 643T298 597V90ZM297 37Q290 20 275 10T238 0H127Q86 0 66 25T45 83V598Q45 645 79 656Q57 636 57 598V83Q57 54 75 33T132 12H238Q255 12 269 16T297 37ZM236 613H138V596H219V75H236V613ZM207 584H138V75H207V584Z"  />
<glyph unicode="p" horiz-adv-x="345" d="M314 493Q314 464 300 447T262 430H151V413H253Q270 413 283 417T312 438Q305 421 290 411T253 401H151V75H184V29H60V584H31V659H43V596H71V75H89V613H60V659H262Q287 659 300 643T314 600V493ZM31 0V75H43V12H184V0H31ZM251 613H151V596H233V477H251V613ZM222 584H151V478H222V584Z"  />
<glyph unicode="q" horiz-adv-x="343" d="M298 90Q298 61 285 45T247 29H217V12H238Q255 12 269 16T297 37Q290 20 275 10T238 0H217V-69H155V29H125Q100 29 87 45T74 90V598Q74 627 87 643T125 659H247Q272 659 285 643T298 597V90ZM126 -98V0Q85 0 65 25T45 83V598Q45 645 79 656Q57 636 57 598V83Q57 54 75 33T132 12H138V-87H217V-98H126ZM236 613H138V596H219V75H236V613ZM207 584H138V75H207V584Z"  />
<glyph unicode="r" horiz-adv-x="376" d="M222 0V402H151V75H184V29H60V584H31V659H43V596H71V75H89V613H60V659H262Q287 659 300 643T313 600V512Q313 485 305 474T283 456V453Q297 448 305 436T313 390V75H345V29H251V430H151V413H233V12H345V0H222ZM31 0V75H43V12H184V0H31ZM251 613H151V596H233V478H251V613ZM222 584H151V478H222V584Z"  />
<glyph unicode="s" horiz-adv-x="329" d="M284 90Q284 61 271 45T233 29H111Q86 29 73 45T60 90V260H124V75H193V401H114Q94 401 79 408T53 427T37 454T31 485V599Q31 646 65 657Q43 637 43 599V485Q43 456 61 435T117 413H205V75H222V430H111Q86 430 73 446T60 492V599Q60 628 73 643T111 659H233Q258 659 271 643T284 598V548H222V613H124V596H205V531H284V519H193V584H124V478H233Q258 478 271 461T284 415V90ZM283 37Q276 20 261 10T224 0H113Q72 0 52 25T31 83V260H43V83Q43 54 61 33T118 12H224Q241 12 255 16T283 37Z"  />
<glyph unicode="t" horiz-adv-x="394" d="M31 519V659H43V531H122V519H31ZM272 519V584H243V75H273V29H151V584H122V548H60V659H363V548H301V613H243V596H283V531H363V519H272ZM122 0V75H134V12H273V0H122ZM180 613H122V596H163V75H180V613Z"  />
<glyph unicode="u" horiz-adv-x="374" d="M313 584V90Q313 61 300 45T262 29H140Q115 29 102 45T89 90V613H60V659H152V75H222V659H233V75H251V659H343V613H313V596H343V584H313ZM312 37Q305 20 290 10T253 0H142Q101 0 81 25T60 83V584H31V659H43V596H71V83Q71 54 90 33T147 12H253Q270 12 283 16T312 37Z"  />
<glyph unicode="v" horiz-adv-x="375" d="M314 584V413Q314 404 312 373T297 288L239 29H164L106 288Q94 341 92 372T89 413V613H60V659H152V413Q152 405 154 373T166 288L186 182L206 288Q211 314 214 337T219 377Q221 396 222 413V659H234V413Q234 404 232 373T219 288L193 150L200 111H203L237 288Q248 342 249 373T251 413V659H344V613H314V596H344V584H314ZM232 0H141L76 288Q64 341 62 372T60 413V584H31V659H43V596H71V413Q71 405 74 373T88 288L149 12H235L232 0Z"  />
<glyph unicode="w" horiz-adv-x="514" d="M453 584V91Q453 62 440 46T402 29H338Q307 29 293 35T274 59H270Q265 41 249 35T207 29H140Q115 29 102 45T89 90V613H60V659H152V75H211V659H223V75H240V659H304V75H362V659H375V75H392V659H483V613H453V596H483V584H453ZM452 37Q445 20 430 10T393 0H331Q311 0 297 2T272 15Q261 7 252 4T224 0H142Q101 0 81 25T60 83V584H31V659H43V596H71V83Q71 54 90 33T147 12H214Q231 12 247 16T272 34Q280 20 297 16T332 12H393Q410 12 423 16T452 37Z"  />
<glyph unicode="x" horiz-adv-x="377" d="M223 0V402H154V29H61V398Q61 433 76 455Q68 466 65 479T61 512V584H32V659H44V596H73V512Q73 471 94 455Q73 438 73 398V75H90V390Q90 424 98 436T120 453V456Q105 463 98 474T90 512V613H61V659H154V478H223V659H235V478H252V659H345V613H314V596H345V584H314V512Q314 485 306 474T284 456V453Q298 448 306 436T314 390V75H346V29H252V430H154V413H235V12H346V0H223ZM31 0V75H43V12H154V0H31Z"  />
<glyph unicode="y" horiz-adv-x="374" d="M313 584V492Q313 463 300 447T262 430H233V413H253Q270 413 283 417T312 438Q305 421 290 411T253 401H233V75H264V29H141V401Q101 403 81 428T60 485V584H31V659H43V596H71V485Q71 456 90 435T147 413H152V75H170V430H140Q115 430 102 446T89 492V613H60V659H152V478H222V659H233V478H251V659H343V613H313V596H343V584H313ZM112 0V75H124V12H264V0H112Z"  />
<glyph unicode="z" horiz-adv-x="335" d="M48 519V659H60V531H140V519H48ZM142 75H211V260H223V75H240V260H303V29H71L235 613H141V596H210L47 12H303V0H31L195 584H141V548H77V659H304L142 75ZM229 75H240H229Z"  />
<glyph unicode="{" horiz-adv-x="237" d="M135 -87Q110 -87 97 -71T84 -26V351H12V397H55V771Q55 794 64 809T88 829Q66 809 66 771V397H84V771Q84 800 97 816T135 833H225V787H147V769H225V757H146V433Q146 408 134 393T99 377V373Q146 373 146 311V-41H225V-87H135ZM137 -116Q96 -116 76 -91T55 -33V322H12V334H66V-33Q66 -62 85 -83T142 -105H225V-116H137Z"  />
<glyph unicode="|" horiz-adv-x="147" d="M50 -235V765H97V-235H50Z"  />
<glyph unicode="}" horiz-adv-x="237" d="M182 323V-26Q182 -55 169 -71T131 -87H12V-41H91V312Q91 333 97 350T112 375Q101 386 96 401T91 433V758H12V769H103V433Q103 412 111 397T130 375Q119 369 111 352T103 312V-41H120V311Q120 372 169 374V377Q147 377 135 392T120 434V787H12V833H131Q156 833 169 816T182 770V398H225V352H182V334H225V323H182ZM181 -79Q174 -96 159 -106T122 -116H12V-105H122Q139 -105 152 -101T181 -79Z"  />
<glyph unicode="~" d="M331 312Q317 283 296 264T249 245Q226 245 206 252T169 271Q153 282 138 289T107 296Q95 296 78 283T49 243L21 274Q33 301 55 321T109 342Q129 342 145 336T184 315Q201 304 215 298T246 291Q258 291 275 303T303 344L331 312Z"  />
<glyph unicode="&#xA0;" horiz-adv-x="275" />
<glyph unicode="&#xA1;" horiz-adv-x="173" d="M64 620V695H138V620H64ZM35 592V695H47V604H138V592H35ZM70 -109V494H132V-109H70ZM41 -138V494H52V-126H132V-138H41Z"  />
<glyph unicode="&#xA2;" horiz-adv-x="428" d="M341 264Q341 235 328 219T290 202H261V185H280Q298 185 311 189T339 210Q332 193 317 183T280 173H261V128H197V203H179Q149 203 133 219T116 264V598Q116 627 131 643T170 659V734H180V659H197V734H260V659H289Q314 659 327 643T340 597V515H278V613H181V596H261V497H341V485H249V584H180V248H249V391H261V248H278V391H341V264ZM170 98V173Q129 173 108 199T87 257V598Q87 644 121 655Q99 636 99 598V257Q99 229 118 207T180 185V110H261V98H170Z"  />
<glyph unicode="&#xA3;" horiz-adv-x="428" d="M83 29V75H123V402H76V478H88V413H134V75H152V430H105V478H123V772Q123 819 156 830Q134 810 134 772V478H152V772Q152 801 165 817T202 833H312Q337 833 350 817T363 771V678H301V787H214V769H283V661H363V650H272V758H214V478H330V430H214V413H330V402H214V75H282V260H294V75H311V260H373V29H83ZM55 0V75H66V12H373V0H55Z"  />
<glyph unicode="&#xA4;" horiz-adv-x="477" d="M422 143L356 209Q300 167 238 167Q213 167 183 175T121 209L54 143L25 174L91 238Q51 294 51 354Q51 415 91 470L25 535L54 566L121 500Q154 524 183 532T238 541Q264 541 295 532T355 500L422 566L452 535L385 470Q408 439 417 410T427 354Q427 298 385 238L452 174L422 143ZM384 355Q384 387 372 413T339 459T292 488T239 499Q208 499 181 488T135 456T104 410T93 355Q93 325 104 299T136 252T182 221T238 209Q268 209 294 220T341 252T372 298T384 355Z"  />
<glyph unicode="&#xA5;" horiz-adv-x="428" d="M340 758V493Q340 464 327 447T289 430H260V413H280Q297 413 310 417T339 439Q332 422 317 412T280 402H260V370H365V324H260V306H365V295H260V249H350V203H260V185H350V174H260V75H291V28H168V173H78V249H89V185H179V74H197V202H106V248H168V294H63V370H74V306H179V248H197V323H91V369H168V401Q128 403 108 428T87 485V757H58V833H70V769H98V486Q98 457 117 436T171 414H179V369H197V429H167Q142 429 129 446T116 492V786H87V833H179V478H249V833H260V478H278V833H370V787H340V769H370V758H340ZM140 0V75H152V12H292V0H140Z"  />
<glyph unicode="&#xA6;" horiz-adv-x="147" d="M50 347V765H97V347H50ZM50 -235V184H97V-235H50Z"  />
<glyph unicode="&#xA7;" horiz-adv-x="355" d="M305 -26Q305 -55 292 -71T254 -87H130Q105 -87 92 -71T79 -26V51H142V-41H214V155H133Q92 155 71 180T50 238V484Q50 519 65 541Q57 552 54 565T50 598V773Q50 820 84 831Q62 811 62 773V598Q62 557 83 541Q62 524 62 484V238Q62 209 80 188T136 166H225V-41H243V183H130Q105 183 92 199T79 245V476Q79 510 87 522T109 539V542Q94 549 87 560T79 598V773Q79 802 92 817T130 833H253Q278 833 291 817T304 772V701H242V787H142V769H224V684H304V672H213V758H142V561H254Q279 561 292 545T305 500V265Q305 240 297 230T275 212V209Q289 204 297 192T305 148V-26ZM304 -79Q297 -96 282 -106T245 -116H132Q91 -116 71 -91T50 -33V51H62V-33Q62 -62 80 -83T137 -105H245Q262 -105 275 -101T304 -79ZM243 515H142V497H225V230H243V515ZM214 486H142V230H214V486Z"  />
<glyph unicode="&#xA8;" horiz-adv-x="280" d="M196 740V800H257V740H196ZM168 713V800H179V724H257V713H168ZM51 740V800H112V740H51ZM24 713V800H35V724H112V713H24Z"  />
<glyph unicode="&#xA9;" horiz-adv-x="911" d="M851 416Q851 330 820 254T735 122T609 33T455 0Q373 0 301 32T176 121T91 254T60 416Q60 502 91 578T175 710T301 799T455 832Q537 832 609 800T735 711T820 578T851 416ZM791 415Q791 488 765 552T694 665T587 741T455 769Q385 769 324 741T218 665T146 553T120 415Q120 341 146 277T217 164T324 89T455 61Q525 61 586 88T693 164T765 276T791 415ZM582 196Q582 167 569 151T531 135H409Q384 135 371 151T358 196V662Q358 691 371 707T409 723H531Q556 723 569 707T582 661V588H520V677H422V660H503V570H582V559H491V648H422V181H491V287H503V181H520V287H582V196ZM581 143Q574 126 559 116T522 106H411Q370 106 350 131T329 189V662Q329 709 363 720Q341 700 341 662V189Q341 160 359 139T416 118H522Q539 118 553 122T581 143Z"  />
<glyph unicode="&#xAA;" horiz-adv-x="245" d="M145 401V613H100V420H40V793Q40 823 61 831Q47 817 47 793V450H58V793Q58 833 92 833H171Q188 833 196 822T205 792V450H225V420H164V632H100V621H153V409H225V402L145 401ZM20 401V450H28V409H100V401H20ZM40 335V365H225V335H40ZM20 314V365H28V322H225V314H20ZM164 803H100V792H153V662H164V803ZM145 784H100V662H145V784Z"  />
<glyph unicode="&#xAB;" horiz-adv-x="334" d="M233 331L304 130H255L173 331L265 559H313L233 331ZM235 101L142 331L234 559H247L154 331L243 113H309L314 101H235ZM111 331L182 130H133L51 331L144 559H191L111 331ZM114 101L20 331L112 559H125L33 331L122 113H188L192 101H114Z"  />
<glyph unicode="&#xAC;" d="M275 158V364H30V411H322V158H275Z"  />
<glyph unicode="&#xAD;" horiz-adv-x="375" d="M89 421V486H315V421H89ZM60 392V486H72V404H315V392H60Z"  />
<glyph unicode="&#xAE;" horiz-adv-x="535" d="M480 618Q480 571 464 531T418 460T351 413T268 395Q224 395 185 412T117 460T72 530T55 618Q55 665 71 706T117 777T185 824T268 842Q312 842 350 825T418 777T463 706T480 618ZM447 617Q447 656 433 691T395 751T338 792T268 807Q230 807 198 792T141 752T102 691T88 617Q88 578 102 544T140 485T197 444T268 429Q305 429 337 444T394 484T433 544T447 617ZM302 472V615H246V516H265V489H193V722H176V766H183V728H199V516H210V739H193V766H326Q340 766 347 757T355 731V680Q355 663 351 657T338 647V645Q346 642 350 635T355 608V516H374V489H319V632H246V622H309V479H374V472H302ZM176 472V516H183V479H265V472H176ZM319 739H246V728H309V659H319V739ZM302 722H246V659H302V722Z"  />
<glyph unicode="&#xAF;" horiz-adv-x="280" d="M51 742V787H257V742H51ZM23 715V787H34V726H257V715H23Z"  />
<glyph unicode="&#xB0;" horiz-adv-x="417" d="M367 694Q367 664 356 638T325 593T279 563T223 552Q193 552 167 563T122 593T91 638T80 694Q80 724 91 750T121 795T167 826T223 838Q253 838 279 827T324 796T355 750T367 694ZM337 582Q320 551 289 536T223 521Q187 521 156 534T101 571T64 626T50 694Q50 715 57 738T76 781T107 816T148 835Q107 813 85 777T63 694Q63 661 75 632T110 581T161 547T223 534Q255 534 284 546T337 582ZM320 694Q320 714 313 731T292 762T261 783T223 791Q202 791 183 782T149 757Q162 768 177 773T210 778Q230 778 247 771T278 750T298 719T306 682Q306 647 285 620Q301 636 310 653T320 694ZM297 673Q297 714 270 742T202 770Q190 770 171 765T144 751Q136 742 131 724T126 694Q126 674 134 657T155 626T187 606T225 598Q237 598 254 603T280 617Q288 626 292 644T297 673Z"  />
<glyph unicode="&#xB1;" d="M30 0V47H322V0H30ZM200 312V113H153V312H30V359H153V559H200V359H322V312H200Z"  />
<glyph unicode="&#xB2;" horiz-adv-x="233" d="M34 707V793Q34 823 56 831Q41 817 41 793V715H93V707H34ZM52 420V616Q52 656 86 656H140V784H93V726H52V793Q52 833 86 833H166Q182 833 190 822T199 792V667Q199 647 191 636T167 625H93V614H161Q172 614 181 616T199 630Q189 606 161 606H93V450H199V420H52ZM34 401V616Q34 646 56 654Q41 640 41 616V409H199V401H34ZM159 803H93V791H147V656H159V803Z"  />
<glyph unicode="&#xB3;" horiz-adv-x="233" d="M33 707V794Q33 824 55 830Q40 817 40 793V715H93V707H33ZM200 461Q200 442 191 431T165 420H85Q68 420 60 431T52 461V539H93V450H139V606H62V656H70V614H147V450H158V625H82V656H138V784H93V726H52V794Q52 812 60 822T85 833H166Q182 833 190 822T199 792V679Q199 661 195 654T181 642V640Q190 637 195 629T200 598V461ZM198 425Q188 401 159 401H86Q60 401 47 417T33 455V539H40V455Q40 436 52 423T90 409H159Q170 409 179 411T198 425ZM158 803H93V792H146V656H158V803Z"  />
<glyph unicode="&#xB4;" horiz-adv-x="280" d="M159 731H112L155 825H211L159 731ZM146 704H69L125 825H137L87 715H152L146 704Z"  />
<glyph unicode="&#xB5;" horiz-adv-x="345" d="M300 38Q295 20 278 10T240 0H138V-89H74V659H138V75H207V659H219V75H236V659H300V91Q300 62 287 46T249 29H138V12H240Q257 12 271 16T300 38ZM45 -117V659H57V-106H138V-117H45Z"  />
<glyph unicode="&#xB6;" horiz-adv-x="504" d="M401 757V-87H354V786H256V769H337V-104H401V-116H325V757H256V-87H209V430H130Q105 430 92 446T79 492V772Q79 801 92 817T130 833H454V786H401V769H454V757H401ZM180 -116V401H133Q113 401 98 408T72 427T56 454T50 485V772Q50 819 84 829Q62 810 62 772V485Q62 456 80 435T136 413H192V-104H256V-116H180Z"  />
<glyph unicode="&#xB7;" horiz-adv-x="223" d="M89 379V453H163V379H89ZM60 350V453H72V362H163V350H60Z"  />
<glyph unicode="&#xB8;" horiz-adv-x="280" d="M164 -103H115L147 -26H206L164 -103ZM151 -130H74L119 -26H130L91 -119H156L151 -130Z"  />
<glyph unicode="&#xB9;" horiz-adv-x="233" d="M55 420V451H88V784H40V833H47V791H95V451H107V803H59V833H148V451H197V420H55ZM36 401V450H44V409H197V401H36Z"  />
<glyph unicode="&#xBA;" horiz-adv-x="246" d="M206 460Q206 442 198 432T173 421H91Q75 421 67 431T58 460V792Q58 833 91 833H173Q189 833 197 822T206 792V460ZM204 426Q194 401 167 401H93Q67 401 54 418T40 456V792Q40 822 61 830Q48 818 48 792V456Q48 438 60 424T96 409H167Q178 409 186 412T204 426ZM62 335V365H203V335H62ZM42 314V365H49V322H203V314H42ZM165 803H100V791H153V451H165V803ZM146 783H100V451H146V783Z"  />
<glyph unicode="&#xBB;" horiz-adv-x="334" d="M231 130H183L253 331L173 559H221L313 331L231 130ZM157 113H224L220 101H141L222 331L142 559H154L233 331L157 113ZM110 130H62L132 331L52 559H100L192 331L110 130ZM36 113H103L99 101H20L101 331L21 559H33L112 331L36 113Z"  />
<glyph unicode="&#xBC;" horiz-adv-x="538" d="M62 420V451H94V784H47V833H54V791H102V451H113V803H65V833H154V451H203V420H62ZM153 19H109L399 833H443L153 19ZM95 8H150L146 0H82L378 833H387L95 8ZM454 19V224H348V432H389V255H435V432H442V255H454V432H495V19H454ZM435 0V205H329V432H336V213H442V8H495V0H435ZM43 401V450H50V409H203V401H43Z"  />
<glyph unicode="&#xBD;" horiz-adv-x="538" d="M61 420V451H93V784H45V833H53V791H101V451H112V803H64V833H153V451H202V420H61ZM331 306V391Q331 421 353 429Q338 416 338 391V313H391V306H331ZM152 19H108L398 833H442L152 19ZM94 8H149L146 0H81L378 833H386L94 8ZM350 18V214Q350 254 383 254H437V382H391V325H350V391Q350 431 383 431H463Q480 431 488 420T497 390V265Q497 245 489 234T464 223H391V212H458Q469 212 478 215T497 229Q492 217 482 211T458 204H391V49H497V18H350ZM42 401V450H49V409H202V401H42ZM331 -1V214Q331 244 353 252Q338 239 338 214V7H497V-1H331ZM456 401H391V390H444V254H456V401Z"  />
<glyph unicode="&#xBE;" horiz-adv-x="538" d="M36 707V794Q36 823 58 830Q44 818 44 793V715H96V707H36ZM204 461Q204 442 195 431T168 420H88Q72 420 64 431T55 461V539H96V450H142V606H65V656H73V614H150V450H161V625H85V656H142V784H96V726H55V794Q55 812 63 822T88 833H169Q185 833 193 822T202 792V679Q202 661 198 654T184 642V640Q193 637 198 629T204 598V461ZM160 19H116L406 833H450L160 19ZM102 8H157L153 0H89L385 833H394L102 8ZM461 19V224H355V432H396V255H442V432H449V255H461V432H502V19H461ZM442 0V205H336V432H343V213H449V8H502V0H442ZM201 425Q191 401 162 401H90Q63 401 50 417T36 455V539H43V455Q43 436 55 423T93 409H162Q173 409 182 411T201 425ZM161 803H96V792H150V656H161V803Z"  />
<glyph unicode="&#xBF;" horiz-adv-x="325" d="M148 619V695H222V619H148ZM119 592V695H131V604H222V592H119ZM289 -48Q289 -77 276 -93T238 -109H116Q92 -109 79 -93T65 -48V278Q65 307 78 323T116 339H126V521H138V339H155V521H216V359Q216 330 204 311T167 292H127V275H157Q175 275 188 279T216 301Q209 284 194 274T157 264H127V-63H197V122H208V-63H226V122H289V-48ZM288 -101Q281 -118 266 -128T229 -138H118Q77 -138 57 -113T36 -55V278Q36 325 70 336Q48 316 48 278V-55Q48 -84 66 -105T123 -126H229Q246 -126 259 -122T288 -101Z"  />
<glyph unicode="&#xC0;" horiz-adv-x="387" d="M228 0V401H159V29H66V772Q66 819 100 829Q78 810 78 772V75H95V772Q95 801 108 817T146 833H269Q293 833 306 816T319 770V75H351V29H257V430H159V413H240V12H351V0H228ZM36 0V75H48V12H159V0H36ZM257 787H159V769H240V478H257V787ZM228 758H159V478H228V758ZM193 905L142 999H198L242 905H193ZM177 878L112 999H124L184 889H248L254 878H177Z"  />
<glyph unicode="&#xC1;" horiz-adv-x="387" d="M228 0V401H159V29H66V772Q66 819 100 829Q78 810 78 772V75H95V772Q95 801 108 817T146 833H269Q293 833 306 816T319 770V75H351V29H257V430H159V413H240V12H351V0H228ZM36 0V75H48V12H159V0H36ZM257 787H159V769H240V478H257V787ZM228 758H159V478H228V758ZM237 905H190L233 999H289L237 905ZM224 878H147L203 999H215L165 889H230L224 878Z"  />
<glyph unicode="&#xC2;" horiz-adv-x="387" d="M228 0V401H159V29H66V772Q66 819 100 829Q78 810 78 772V75H95V772Q95 801 108 817T146 833H269Q293 833 306 816T319 770V75H351V29H257V430H159V413H240V12H351V0H228ZM36 0V75H48V12H159V0H36ZM257 787H159V769H240V478H257V787ZM228 758H159V478H228V758ZM239 878L197 937L177 906H125L188 999H241L303 906H253L215 962L204 946L245 889H314L322 878H239ZM94 889H164L157 878H74L155 999H169L94 889Z"  />
<glyph unicode="&#xC3;" horiz-adv-x="387" d="M228 0V401H159V29H66V772Q66 819 100 829Q78 810 78 772V75H95V772Q95 801 108 817T146 833H269Q293 833 306 816T319 770V75H351V29H257V430H159V413H240V12H351V0H228ZM36 0V75H48V12H159V0H36ZM257 787H159V769H240V478H257V787ZM228 758H159V478H228V758ZM314 958Q314 944 313 935T303 918Q292 907 280 906T257 909L141 964V947L249 895Q270 885 284 890T307 902Q298 888 287 884T267 880Q255 880 245 885L141 933V891H100V946Q100 966 115 980T151 995Q163 995 171 991L245 955V993H256V950L274 941V993H314V958ZM104 992Q84 974 84 937V891H74V937Q74 958 82 972T104 992Z"  />
<glyph unicode="&#xC4;" horiz-adv-x="387" d="M228 0V401H159V29H66V772Q66 819 100 829Q78 810 78 772V75H95V772Q95 801 108 817T146 833H269Q293 833 306 816T319 770V75H351V29H257V430H159V413H240V12H351V0H228ZM36 0V75H48V12H159V0H36ZM257 787H159V769H240V478H257V787ZM228 758H159V478H228V758ZM250 914V974H311V914H250ZM222 887V974H233V898H311V887H222ZM105 914V974H166V914H105ZM78 887V974H89V898H166V887H78Z"  />
<glyph unicode="&#xC5;" horiz-adv-x="387" d="M228 0V401H159V29H66V772Q66 819 100 829Q78 810 78 772V75H95V772Q95 801 108 817T146 833H269Q293 833 306 816T319 770V75H351V29H257V430H159V413H240V12H351V0H228ZM36 0V75H48V12H159V0H36ZM257 787H159V769H240V478H257V787ZM228 758H159V478H228V758ZM267 964Q267 939 250 922T208 905Q183 905 166 922T148 964Q148 989 165 1006T207 1023Q232 1023 249 1006T267 964ZM267 918Q261 898 243 888T208 878Q190 878 175 885T147 903T128 930T121 964Q121 981 133 1000T162 1023Q148 1012 140 997T132 964Q132 933 154 911T207 889Q225 889 240 897T267 918ZM233 964Q233 975 226 982T208 989Q196 989 189 981T182 964Q182 953 189 946T207 939Q218 939 225 946T232 964H233Z"  />
<glyph unicode="&#xC6;" horiz-adv-x="516" d="M228 29V401H159V29H66V772Q66 819 100 830Q78 810 78 772V75H95V772Q95 801 108 817T146 833H480V613H417V787H319V769H400V596H480V585H389V758H319V478H445V430H319V413H445V401H319V75H389V260H400V75H417V260H480V29H228ZM199 0V75H211V12H480V0H199ZM36 0V75H48V12H159V0H36ZM257 787H159V769H239V478H257V787ZM228 758H159V478H228V758ZM257 430H159V413H239V75H257V430Z"  />
<glyph unicode="&#xC7;" horiz-adv-x="339" d="M303 90Q303 61 290 45T252 29H130Q105 29 92 45T79 90V772Q79 801 92 817T130 833H252Q277 833 290 816T303 770V613H241V787H143V769H224V596H303V584H212V758H143V75H212V260H224V75H241V260H303V90ZM302 37Q295 20 280 10T243 0H132Q91 0 71 25T50 83V772Q50 819 84 829Q62 810 62 772V83Q62 54 80 33T137 12H243Q260 12 274 16T302 37ZM177 -103H128L160 -26H219L177 -103ZM164 -130H87L132 -26H143L104 -119H169L164 -130Z"  />
<glyph unicode="&#xC8;" d="M65 29V758H36V833H48V769H76V75H94V787H65V833H317V613H255V787H156V769H237V596H317V584H226V758H156V478H282V430H156V413H282V401H156V75H226V260H237V75H255V260H317V29H65ZM36 0V75H48V12H317V0H36ZM170 905L119 999H175L219 905H170ZM154 878L89 999H101L161 889H225L231 878H154Z"  />
<glyph unicode="&#xC9;" d="M65 29V758H36V833H48V769H76V75H94V787H65V833H317V613H255V787H156V769H237V596H317V584H226V758H156V478H282V430H156V413H282V401H156V75H226V260H237V75H255V260H317V29H65ZM36 0V75H48V12H317V0H36ZM222 905H175L218 999H274L222 905ZM209 878H132L188 999H200L150 889H215L209 878Z"  />
<glyph unicode="&#xCA;" d="M65 29V758H36V833H48V769H76V75H94V787H65V833H317V613H255V787H156V769H237V596H317V584H226V758H156V478H282V430H156V413H282V401H156V75H226V260H237V75H255V260H317V29H65ZM36 0V75H48V12H317V0H36ZM221 878L179 937L159 906H107L170 999H223L285 906H235L197 962L186 946L227 889H296L304 878H221ZM76 889H146L139 878H56L137 999H151L76 889Z"  />
<glyph unicode="&#xCB;" d="M65 29V758H36V833H48V769H76V75H94V787H65V833H317V613H255V787H156V769H237V596H317V584H226V758H156V478H282V430H156V413H282V401H156V75H226V260H237V75H255V260H317V29H65ZM36 0V75H48V12H317V0H36ZM237 914V974H298V914H237ZM209 887V974H220V898H298V887H209ZM92 914V974H153V914H92ZM65 887V974H76V898H153V887H65Z"  />
<glyph unicode="&#xCC;" horiz-adv-x="222" d="M65 29V758H36V833H48V769H76V75H94V787H65V833H186V787H156V769H186V758H156V75H186V29H65ZM36 0V75H48V12H186V0H36ZM101 905L50 999H106L150 905H101ZM85 878L20 999H32L92 889H156L162 878H85Z"  />
<glyph unicode="&#xCD;" horiz-adv-x="222" d="M65 29V758H36V833H48V769H76V75H94V787H65V833H186V787H156V769H186V758H156V75H186V29H65ZM36 0V75H48V12H186V0H36ZM158 905H111L154 999H210L158 905ZM145 878H68L124 999H136L86 889H151L145 878Z"  />
<glyph unicode="&#xCE;" horiz-adv-x="222" d="M65 29V758H36V833H48V769H76V75H94V787H65V833H186V787H156V769H186V758H156V75H186V29H65ZM36 0V75H48V12H186V0H36ZM156 878L114 937L94 906H42L105 999H158L220 906H170L132 962L121 946L162 889H231L239 878H156ZM11 889H81L74 878H-9L72 999H86L11 889Z"  />
<glyph unicode="&#xCF;" horiz-adv-x="222" d="M65 29V758H36V833H48V769H76V75H94V787H65V833H186V787H156V769H186V758H156V75H186V29H65ZM36 0V75H48V12H186V0H36ZM169 914V974H230V914H169ZM141 887V974H152V898H230V887H141ZM24 914V974H85V914H24ZM-3 887V974H8V898H85V887H-3Z"  />
<glyph unicode="&#xD0;" horiz-adv-x="368" d="M318 89Q318 61 300 45T254 29H65V401H8V478H20V413H76V75H94V430H37V478H65V758H36V833H47V769H76V478H94V787H65V833H267Q292 833 305 817T318 774V89ZM313 37Q306 20 291 10T254 0H36V75H47V12H254Q272 12 287 18T313 37ZM256 787H156V769H238V75H256V787ZM227 758H156V478H213V430H156V413H213V401H156V75H227V758Z"  />
<glyph unicode="&#xD1;" horiz-adv-x="387" d="M228 0V758H159V75H190V29H66V758H36V833H48V769H78V75H95V787H65V833H269Q293 833 306 816T319 770V75H351V29H257V787H159V769H240V12H351V0H228ZM36 0V75H48V12H190V0H36ZM304 958Q304 944 303 935T293 918Q282 907 270 906T247 909L131 964V947L239 895Q260 885 274 890T297 902Q288 888 277 884T257 880Q245 880 235 885L131 933V891H90V946Q90 966 105 980T141 995Q153 995 161 991L235 955V993H246V950L264 941V993H304V958ZM94 992Q74 974 74 937V891H64V937Q64 958 72 972T94 992Z"  />
<glyph unicode="&#xD2;" d="M303 90Q303 61 290 45T252 29H130Q105 29 92 45T79 90V772Q79 801 92 817T130 833H252Q277 833 290 816T303 770V90ZM302 37Q295 20 280 10T243 0H132Q91 0 71 25T50 83V772Q50 819 84 829Q62 810 62 772V83Q62 54 80 33T137 12H243Q260 12 274 16T302 37ZM241 787H143V769H224V75H241V787ZM212 758H143V75H212V758ZM170 905L119 999H175L219 905H170ZM154 878L89 999H101L161 889H225L231 878H154Z"  />
<glyph unicode="&#xD3;" d="M303 90Q303 61 290 45T252 29H130Q105 29 92 45T79 90V772Q79 801 92 817T130 833H252Q277 833 290 816T303 770V90ZM302 37Q295 20 280 10T243 0H132Q91 0 71 25T50 83V772Q50 819 84 829Q62 810 62 772V83Q62 54 80 33T137 12H243Q260 12 274 16T302 37ZM241 787H143V769H224V75H241V787ZM212 758H143V75H212V758ZM222 905H175L218 999H274L222 905ZM209 878H132L188 999H200L150 889H215L209 878Z"  />
<glyph unicode="&#xD4;" d="M303 90Q303 61 290 45T252 29H130Q105 29 92 45T79 90V772Q79 801 92 817T130 833H252Q277 833 290 816T303 770V90ZM302 37Q295 20 280 10T243 0H132Q91 0 71 25T50 83V772Q50 819 84 829Q62 810 62 772V83Q62 54 80 33T137 12H243Q260 12 274 16T302 37ZM241 787H143V769H224V75H241V787ZM212 758H143V75H212V758ZM218 878L176 937L156 906H104L167 999H220L282 906H232L194 962L183 946L224 889H293L301 878H218ZM73 889H143L136 878H53L134 999H148L73 889Z"  />
<glyph unicode="&#xD5;" d="M303 90Q303 61 290 45T252 29H130Q105 29 92 45T79 90V772Q79 801 92 817T130 833H252Q277 833 290 816T303 770V90ZM302 37Q295 20 280 10T243 0H132Q91 0 71 25T50 83V772Q50 819 84 829Q62 810 62 772V83Q62 54 80 33T137 12H243Q260 12 274 16T302 37ZM241 787H143V769H224V75H241V787ZM212 758H143V75H212V758ZM297 958Q297 944 296 935T286 918Q275 907 263 906T240 909L124 964V947L232 895Q253 885 267 890T290 902Q281 888 270 884T250 880Q238 880 228 885L124 933V891H83V946Q83 966 98 980T134 995Q146 995 154 991L228 955V993H239V950L257 941V993H297V958ZM87 992Q67 974 67 937V891H57V937Q57 958 65 972T87 992Z"  />
<glyph unicode="&#xD6;" d="M303 90Q303 61 290 45T252 29H130Q105 29 92 45T79 90V772Q79 801 92 817T130 833H252Q277 833 290 816T303 770V90ZM302 37Q295 20 280 10T243 0H132Q91 0 71 25T50 83V772Q50 819 84 829Q62 810 62 772V83Q62 54 80 33T137 12H243Q260 12 274 16T302 37ZM241 787H143V769H224V75H241V787ZM212 758H143V75H212V758ZM236 914V974H297V914H236ZM208 887V974H219V898H297V887H208ZM91 914V974H152V914H91ZM64 887V974H75V898H152V887H64Z"  />
<glyph unicode="&#xD7;" d="M316 124L176 264L37 124L1 160L140 299L2 437L38 473L176 335L315 473L350 437L212 299L352 160L316 124Z"  />
<glyph unicode="&#xD8;" d="M303 720V90Q303 61 290 45T252 29H130Q103 29 90 48L84 30Q95 19 107 16T137 12H243Q260 12 274 16T302 37Q295 20 280 10T243 0H132Q98 0 80 17L76 5L50 15L79 103V772Q79 801 92 817T130 833H252Q268 833 278 826L286 850L298 846L289 817Q292 815 293 811T300 798L314 842L340 835L303 720ZM84 830Q62 810 62 772V105L29 3L71 -10L67 -22L13 -5L50 107V772Q50 819 84 830ZM212 758H143V400L212 617V758ZM241 787H143V769H224V613L143 360V304L241 613V787ZM241 523L224 471V75H241V523ZM212 431L143 214V75H212V431Z"  />
<glyph unicode="&#xD9;" horiz-adv-x="384" d="M318 758V90Q318 61 305 45T267 29H145Q120 29 107 45T94 90V787H65V833H157V75H227V833H238V75H256V833H348V787H318V769H348V758H318ZM317 37Q310 20 295 10T258 0H147Q106 0 86 25T65 83V758H36V833H48V769H76V83Q76 54 95 33T152 12H258Q275 12 288 16T317 37ZM173 905L122 999H178L222 905H173ZM157 878L92 999H104L164 889H228L234 878H157Z"  />
<glyph unicode="&#xDA;" horiz-adv-x="384" d="M318 758V90Q318 61 305 45T267 29H145Q120 29 107 45T94 90V787H65V833H157V75H227V833H238V75H256V833H348V787H318V769H348V758H318ZM317 37Q310 20 295 10T258 0H147Q106 0 86 25T65 83V758H36V833H48V769H76V83Q76 54 95 33T152 12H258Q275 12 288 16T317 37ZM237 905H190L233 999H289L237 905ZM224 878H147L203 999H215L165 889H230L224 878Z"  />
<glyph unicode="&#xDB;" horiz-adv-x="384" d="M318 758V90Q318 61 305 45T267 29H145Q120 29 107 45T94 90V787H65V833H157V75H227V833H238V75H256V833H348V787H318V769H348V758H318ZM317 37Q310 20 295 10T258 0H147Q106 0 86 25T65 83V758H36V833H48V769H76V83Q76 54 95 33T152 12H258Q275 12 288 16T317 37ZM234 878L192 937L172 906H120L183 999H236L298 906H248L210 962L199 946L240 889H309L317 878H234ZM89 889H159L152 878H69L150 999H164L89 889Z"  />
<glyph unicode="&#xDC;" horiz-adv-x="384" d="M318 758V90Q318 61 305 45T267 29H145Q120 29 107 45T94 90V787H65V833H157V75H227V833H238V75H256V833H348V787H318V769H348V758H318ZM317 37Q310 20 295 10T258 0H147Q106 0 86 25T65 83V758H36V833H48V769H76V83Q76 54 95 33T152 12H258Q275 12 288 16T317 37ZM250 914V974H311V914H250ZM222 887V974H233V898H311V887H222ZM105 914V974H166V914H105ZM78 887V974H89V898H166V887H78Z"  />
<glyph unicode="&#xDD;" horiz-adv-x="384" d="M318 758V492Q318 463 305 447T267 430H238V413H258Q275 413 288 417T317 438Q310 421 295 411T258 401H238V75H269V29H146V401Q106 403 86 428T65 485V758H36V833H48V769H76V485Q76 456 95 435T152 413H157V75H175V430H145Q120 430 107 446T94 492V787H65V833H157V478H227V833H238V478H256V833H348V787H318V769H348V758H318ZM117 0V75H129V12H269V0H117ZM237 895H190L233 989H289L237 895ZM224 868H147L203 989H215L165 879H230L224 868Z"  />
<glyph unicode="&#xDE;" horiz-adv-x="355" d="M319 351Q319 322 305 306T267 289H156V272H258Q275 272 288 276T317 297Q310 280 295 270T258 260H156V75H189V29H65V758H36V833H48V769H76V75H94V787H65V833H189V787H156V769H189V758H156V659H267Q292 659 305 643T319 600V351ZM36 0V75H48V12H189V0H36ZM256 613H156V596H238V335H256V613ZM227 584H156V335H227V584Z"  />
<glyph unicode="&#xDF;" horiz-adv-x="643" d="M598 90Q598 61 585 45T547 29H424Q400 29 387 45T374 90V260H437V75H507V401H428Q408 401 393 408T367 427T351 454T345 485V599Q345 646 378 657Q356 637 356 599V485Q356 456 374 435T430 413H518V75H536V430H424Q400 430 387 446T374 492V599Q374 628 387 643T424 659H547Q571 659 584 643T598 598V548H536V613H437V596H518V531H598V519H507V584H437V478H547Q571 478 584 461T598 415V90ZM597 37Q590 20 575 10T538 0H427Q385 0 365 25T345 83V260H356V83Q356 54 375 33T431 12H538Q555 12 568 16T597 37ZM284 90Q284 61 271 45T233 29H111Q86 29 73 45T60 90V260H124V75H193V401H114Q94 401 79 408T53 427T37 454T31 485V599Q31 646 65 657Q43 637 43 599V485Q43 456 61 435T117 413H205V75H222V430H111Q86 430 73 446T60 492V599Q60 628 73 643T111 659H233Q258 659 271 643T284 598V548H222V613H124V596H205V531H284V519H193V584H124V478H233Q258 478 271 461T284 415V90ZM283 37Q276 20 261 10T224 0H113Q72 0 52 25T31 83V260H43V83Q43 54 61 33T118 12H224Q241 12 255 16T283 37Z"  />
<glyph unicode="&#xE0;" horiz-adv-x="377" d="M223 0V401H154V29H61V598Q61 645 95 656Q73 636 73 598V75H90V598Q90 627 103 643T141 659H264Q288 659 301 643T314 597V75H346V29H252V430H154V413H235V12H346V0H223ZM31 0V75H43V12H154V0H31ZM252 613H154V596H235V478H252V613ZM223 584H154V478H223V584ZM178 731L127 825H183L227 731H178ZM162 704L97 825H109L169 715H233L239 704H162Z"  />
<glyph unicode="&#xE1;" horiz-adv-x="377" d="M223 0V401H154V29H61V598Q61 645 95 656Q73 636 73 598V75H90V598Q90 627 103 643T141 659H264Q288 659 301 643T314 597V75H346V29H252V430H154V413H235V12H346V0H223ZM31 0V75H43V12H154V0H31ZM252 613H154V596H235V478H252V613ZM223 584H154V478H223V584ZM239 731H192L235 825H291L239 731ZM226 704H149L205 825H217L167 715H232L226 704Z"  />
<glyph unicode="&#xE2;" horiz-adv-x="377" d="M223 0V401H154V29H61V598Q61 645 95 656Q73 636 73 598V75H90V598Q90 627 103 643T141 659H264Q288 659 301 643T314 597V75H346V29H252V430H154V413H235V12H346V0H223ZM31 0V75H43V12H154V0H31ZM252 613H154V596H235V478H252V613ZM223 584H154V478H223V584ZM238 704L196 763L176 732H124L187 825H240L302 732H252L214 788L203 772L244 715H313L321 704H238ZM93 715H163L156 704H73L154 825H168L93 715Z"  />
<glyph unicode="&#xE3;" horiz-adv-x="377" d="M223 0V401H154V29H61V598Q61 645 95 656Q73 636 73 598V75H90V598Q90 627 103 643T141 659H264Q288 659 301 643T314 597V75H346V29H252V430H154V413H235V12H346V0H223ZM31 0V75H43V12H154V0H31ZM252 613H154V596H235V478H252V613ZM223 584H154V478H223V584ZM310 779Q310 765 309 756T299 739Q288 728 276 727T253 730L137 785V768L245 716Q266 706 280 711T303 723Q294 709 283 705T263 701Q251 701 241 706L137 754V712H96V767Q96 787 111 801T147 816Q159 816 167 812L241 776V814H252V771L270 762V814H310V779ZM100 813Q80 795 80 758V712H70V758Q70 779 78 793T100 813Z"  />
<glyph unicode="&#xE4;" horiz-adv-x="377" d="M223 0V401H154V29H61V598Q61 645 95 656Q73 636 73 598V75H90V598Q90 627 103 643T141 659H264Q288 659 301 643T314 597V75H346V29H252V430H154V413H235V12H346V0H223ZM31 0V75H43V12H154V0H31ZM252 613H154V596H235V478H252V613ZM223 584H154V478H223V584ZM241 740V800H302V740H241ZM213 713V800H224V724H302V713H213ZM96 740V800H157V740H96ZM69 713V800H80V724H157V713H69Z"  />
<glyph unicode="&#xE5;" horiz-adv-x="377" d="M223 0V401H154V29H61V598Q61 645 95 656Q73 636 73 598V75H90V598Q90 627 103 643T141 659H264Q288 659 301 643T314 597V75H346V29H252V430H154V413H235V12H346V0H223ZM31 0V75H43V12H154V0H31ZM252 613H154V596H235V478H252V613ZM223 584H154V478H223V584ZM258 791Q258 766 241 749T199 732Q174 732 157 749T139 791Q139 816 156 833T198 850Q223 850 240 833T258 791ZM258 745Q252 725 234 715T199 705Q181 705 166 712T138 730T119 757T112 791Q112 808 124 827T153 850Q139 839 131 824T123 791Q123 760 145 738T198 716Q216 716 231 724T258 745ZM224 791Q224 802 217 809T199 816Q187 816 180 808T173 791Q173 780 180 773T198 766Q209 766 216 773T223 791H224Z"  />
<glyph unicode="&#xE6;" horiz-adv-x="506" d="M223 29V401H154V29H61V598Q61 644 95 655Q73 636 73 598V75H90V598Q90 627 103 643T141 659H475V548H412V613H314V596H395V531H475V519H384V584H314V478H440V430H314V413H440V401H314V75H384V260H395V75H412V260H475V29H223ZM194 0V75H206V12H475V0H194ZM31 0V75H43V12H154V0H31ZM252 613H154V596H234V478H252V613ZM223 585H154V478H223V585ZM252 430H154V413H234V75H252V430Z"  />
<glyph unicode="&#xE7;" horiz-adv-x="329" d="M298 90Q298 61 285 45T247 29H125Q100 29 87 45T74 90V598Q74 627 87 643T125 659H247Q272 659 285 643T298 597V507H236V613H138V596H219V489H298V478H207V584H138V75H207V260H219V75H236V260H298V90ZM297 37Q290 20 275 10T238 0H127Q86 0 66 25T45 83V598Q45 645 79 656Q57 636 57 598V83Q57 54 75 33T132 12H238Q255 12 269 16T297 37ZM173 -103H124L156 -26H215L173 -103ZM160 -130H83L128 -26H139L100 -119H165L160 -130Z"  />
<glyph unicode="&#xE8;" horiz-adv-x="343" d="M60 29V584H31V659H43V596H71V75H89V613H60V659H312V548H250V613H151V596H232V531H312V519H221V584H151V478H277V430H151V413H277V401H151V75H221V260H232V75H250V260H312V29H60ZM31 0V75H43V12H312V0H31ZM160 731L109 825H165L209 731H160ZM144 704L79 825H91L151 715H215L221 704H144Z"  />
<glyph unicode="&#xE9;" horiz-adv-x="343" d="M60 29V584H31V659H43V596H71V75H89V613H60V659H312V548H250V613H151V596H232V531H312V519H221V584H151V478H277V430H151V413H277V401H151V75H221V260H232V75H250V260H312V29H60ZM31 0V75H43V12H312V0H31ZM219 731H172L215 825H271L219 731ZM206 704H129L185 825H197L147 715H212L206 704Z"  />
<glyph unicode="&#xEA;" horiz-adv-x="343" d="M60 29V584H31V659H43V596H71V75H89V613H60V659H312V548H250V613H151V596H232V531H312V519H221V584H151V478H277V430H151V413H277V401H151V75H221V260H232V75H250V260H312V29H60ZM31 0V75H43V12H312V0H31ZM217 704L175 763L155 732H103L166 825H219L281 732H231L193 788L182 772L223 715H292L300 704H217ZM72 715H142L135 704H52L133 825H147L72 715Z"  />
<glyph unicode="&#xEB;" horiz-adv-x="343" d="M60 29V584H31V659H43V596H71V75H89V613H60V659H312V548H250V613H151V596H232V531H312V519H221V584H151V478H277V430H151V413H277V401H151V75H221V260H232V75H250V260H312V29H60ZM31 0V75H43V12H312V0H31ZM236 740V800H297V740H236ZM208 713V800H219V724H297V713H208ZM91 740V800H152V740H91ZM64 713V800H75V724H152V713H64Z"  />
<glyph unicode="&#xEC;" horiz-adv-x="212" d="M151 596V613V596ZM181 0V12H43V75H31V0H181ZM181 29H60V584H31V659H43V596H71V75H89V613H60V659H181V613H151V596H181V584H151V75H181V29ZM99 731L48 825H104L148 731H99ZM83 704L18 825H30L90 715H154L160 704H83Z"  />
<glyph unicode="&#xED;" horiz-adv-x="212" d="M151 596V613V596ZM181 0V12H43V75H31V0H181ZM181 29H60V584H31V659H43V596H71V75H89V613H60V659H181V613H151V596H181V584H151V75H181V29ZM150 731H103L146 825H202L150 731ZM137 704H60L116 825H128L78 715H143L137 704Z"  />
<glyph unicode="&#xEE;" horiz-adv-x="212" d="M151 596V613V596ZM181 0V12H43V75H31V0H181ZM181 29H60V584H31V659H43V596H71V75H89V613H60V659H181V613H151V596H181V584H151V75H181V29ZM156 704L114 763L94 732H42L105 825H158L220 732H170L132 788L121 772L162 715H231L239 704H156ZM11 715H81L74 704H-9L72 825H86L11 715Z"  />
<glyph unicode="&#xEF;" horiz-adv-x="212" d="M151 596V613V596ZM181 0V12H43V75H31V0H181ZM181 29H60V584H31V659H43V596H71V75H89V613H60V659H181V613H151V596H181V584H151V75H181V29ZM162 740V800H223V740H162ZM134 713V800H145V724H223V713H134ZM17 740V800H78V740H17ZM-10 713V800H1V724H78V713H-10Z"  />
<glyph unicode="&#xF0;" horiz-adv-x="358" d="M313 89Q313 61 295 45T250 29H60V401H2V478H14V413H71V75H89V430H31V478H60V584H31V659H42V596H71V478H89V613H60V659H262Q287 659 300 643T313 600V89ZM309 37Q293 0 250 0H31V75H42V12H250Q267 12 282 18T309 37ZM251 613H151V596H233V75H251V613ZM222 584H151V478H208V430H151V413H208V401H151V75H222V584Z"  />
<glyph unicode="&#xF1;" horiz-adv-x="377" d="M223 0V584H154V75H185V29H61V584H31V659H43V596H73V75H90V613H60V659H264Q288 659 301 643T314 597V75H346V29H252V613H154V596H235V12H346V0H223ZM31 0V75H43V12H185V0H31ZM302 779Q302 765 301 756T291 739Q280 728 268 727T245 730L129 785V768L237 716Q258 706 272 711T295 723Q286 709 275 705T255 701Q243 701 233 706L129 754V712H88V767Q88 787 103 801T139 816Q151 816 159 812L233 776V814H244V771L262 762V814H302V779ZM92 813Q72 795 72 758V712H62V758Q62 779 70 793T92 813Z"  />
<glyph unicode="&#xF2;" horiz-adv-x="343" d="M298 90Q298 61 285 45T247 29H125Q100 29 87 45T74 90V598Q74 627 87 643T125 659H247Q272 659 285 643T298 597V90ZM297 37Q290 20 275 10T238 0H127Q86 0 66 25T45 83V598Q45 645 79 656Q57 636 57 598V83Q57 54 75 33T132 12H238Q255 12 269 16T297 37ZM236 613H138V596H219V75H236V613ZM207 584H138V75H207V584ZM167 731L116 825H172L216 731H167ZM151 704L86 825H98L158 715H222L228 704H151Z"  />
<glyph unicode="&#xF3;" horiz-adv-x="343" d="M298 90Q298 61 285 45T247 29H125Q100 29 87 45T74 90V598Q74 627 87 643T125 659H247Q272 659 285 643T298 597V90ZM297 37Q290 20 275 10T238 0H127Q86 0 66 25T45 83V598Q45 645 79 656Q57 636 57 598V83Q57 54 75 33T132 12H238Q255 12 269 16T297 37ZM236 613H138V596H219V75H236V613ZM207 584H138V75H207V584ZM219 731H172L215 825H271L219 731ZM206 704H129L185 825H197L147 715H212L206 704Z"  />
<glyph unicode="&#xF4;" horiz-adv-x="343" d="M298 90Q298 61 285 45T247 29H125Q100 29 87 45T74 90V598Q74 627 87 643T125 659H247Q272 659 285 643T298 597V90ZM297 37Q290 20 275 10T238 0H127Q86 0 66 25T45 83V598Q45 645 79 656Q57 636 57 598V83Q57 54 75 33T132 12H238Q255 12 269 16T297 37ZM236 613H138V596H219V75H236V613ZM207 584H138V75H207V584ZM213 704L171 763L151 732H99L162 825H215L277 732H227L189 788L178 772L219 715H288L296 704H213ZM68 715H138L131 704H48L129 825H143L68 715Z"  />
<glyph unicode="&#xF5;" horiz-adv-x="343" d="M298 90Q298 61 285 45T247 29H125Q100 29 87 45T74 90V598Q74 627 87 643T125 659H247Q272 659 285 643T298 597V90ZM297 37Q290 20 275 10T238 0H127Q86 0 66 25T45 83V598Q45 645 79 656Q57 636 57 598V83Q57 54 75 33T132 12H238Q255 12 269 16T297 37ZM236 613H138V596H219V75H236V613ZM207 584H138V75H207V584ZM291 779Q291 765 290 756T280 739Q269 728 257 727T234 730L118 785V768L226 716Q247 706 261 711T284 723Q275 709 264 705T244 701Q232 701 222 706L118 754V712H77V767Q77 787 92 801T128 816Q140 816 148 812L222 776V814H233V771L251 762V814H291V779ZM81 813Q61 795 61 758V712H51V758Q51 779 59 793T81 813Z"  />
<glyph unicode="&#xF6;" horiz-adv-x="343" d="M298 90Q298 61 285 45T247 29H125Q100 29 87 45T74 90V598Q74 627 87 643T125 659H247Q272 659 285 643T298 597V90ZM297 37Q290 20 275 10T238 0H127Q86 0 66 25T45 83V598Q45 645 79 656Q57 636 57 598V83Q57 54 75 33T132 12H238Q255 12 269 16T297 37ZM236 613H138V596H219V75H236V613ZM207 584H138V75H207V584ZM228 740V800H289V740H228ZM200 713V800H211V724H289V713H200ZM83 740V800H144V740H83ZM56 713V800H67V724H144V713H56Z"  />
<glyph unicode="&#xF7;" d="M217 461Q217 444 206 432T177 420Q160 420 148 432T136 461Q136 478 148 489T177 501Q194 501 205 490T217 461ZM30 269V316H322V269H30ZM217 124Q217 107 206 95T177 83Q160 83 148 95T136 124Q136 141 148 152T177 164Q194 164 205 153T217 124Z"  />
<glyph unicode="&#xF8;" horiz-adv-x="343" d="M298 571V102Q298 73 289 51T247 29H125Q111 29 102 33T89 44L83 28Q94 17 106 15T132 12H238Q255 12 269 16T297 37Q290 20 275 10T238 0H127Q111 0 99 3T78 16L72 2L45 13L74 85V598Q74 627 87 643T125 659H247Q252 659 258 659T271 654L280 676L292 672L281 646Q286 641 290 635Q292 632 293 629L307 666L332 656L298 571ZM79 656Q57 636 57 598V83L25 5L66 -11L62 -23L9 -2L45 86V598Q45 645 79 656ZM207 584H138V319L207 491V584ZM236 613H138V596H219V488L138 286V244L236 487V613ZM236 412L219 370V75H236V412ZM207 341L138 168V75H207V341Z"  />
<glyph unicode="&#xF9;" horiz-adv-x="374" d="M313 584V90Q313 61 300 45T262 29H140Q115 29 102 45T89 90V613H60V659H152V75H222V659H233V75H251V659H343V613H313V596H343V584H313ZM312 37Q305 20 290 10T253 0H142Q101 0 81 25T60 83V584H31V659H43V596H71V83Q71 54 90 33T147 12H253Q270 12 283 16T312 37ZM175 731L124 825H180L224 731H175ZM159 704L94 825H106L166 715H230L236 704H159Z"  />
<glyph unicode="&#xFA;" horiz-adv-x="374" d="M313 584V90Q313 61 300 45T262 29H140Q115 29 102 45T89 90V613H60V659H152V75H222V659H233V75H251V659H343V613H313V596H343V584H313ZM312 37Q305 20 290 10T253 0H142Q101 0 81 25T60 83V584H31V659H43V596H71V83Q71 54 90 33T147 12H253Q270 12 283 16T312 37ZM233 731H186L229 825H285L233 731ZM220 704H143L199 825H211L161 715H226L220 704Z"  />
<glyph unicode="&#xFB;" horiz-adv-x="374" d="M313 584V90Q313 61 300 45T262 29H140Q115 29 102 45T89 90V613H60V659H152V75H222V659H233V75H251V659H343V613H313V596H343V584H313ZM312 37Q305 20 290 10T253 0H142Q101 0 81 25T60 83V584H31V659H43V596H71V83Q71 54 90 33T147 12H253Q270 12 283 16T312 37ZM233 704L191 763L171 732H119L182 825H235L297 732H247L209 788L198 772L239 715H308L316 704H233ZM88 715H158L151 704H68L149 825H163L88 715Z"  />
<glyph unicode="&#xFC;" horiz-adv-x="374" d="M313 584V90Q313 61 300 45T262 29H140Q115 29 102 45T89 90V613H60V659H152V75H222V659H233V75H251V659H343V613H313V596H343V584H313ZM312 37Q305 20 290 10T253 0H142Q101 0 81 25T60 83V584H31V659H43V596H71V83Q71 54 90 33T147 12H253Q270 12 283 16T312 37ZM241 740V800H302V740H241ZM213 713V800H224V724H302V713H213ZM96 740V800H157V740H96ZM69 713V800H80V724H157V713H69Z"  />
<glyph unicode="&#xFD;" horiz-adv-x="374" d="M313 584V492Q313 463 300 447T262 430H233V413H253Q270 413 283 417T312 438Q305 421 290 411T253 401H233V75H264V29H141V401Q101 403 81 428T60 485V584H31V659H43V596H71V485Q71 456 90 435T147 413H152V75H170V430H140Q115 430 102 446T89 492V613H60V659H152V478H222V659H233V478H251V659H343V613H313V596H343V584H313ZM112 0V75H124V12H264V0H112ZM227 731H180L223 825H279L227 731ZM214 704H137L193 825H205L155 715H220L214 704Z"  />
<glyph unicode="&#xFE;" horiz-adv-x="345" d="M314 351Q314 322 300 306T262 289H151V272H253Q270 272 283 276T312 297Q305 280 290 270T253 260H151V75H184V29H60V584H31V659H43V596H71V75H89V613H60V659H184V613H151V596H184V584H151V518H262Q287 518 300 502T314 459V351ZM31 0V75H43V12H184V0H31ZM251 472H151V455H233V335H251V472ZM222 443H151V336H222V443Z"  />
<glyph unicode="&#xFF;" horiz-adv-x="374" d="M313 584V492Q313 463 300 447T262 430H233V413H253Q270 413 283 417T312 438Q305 421 290 411T253 401H233V75H264V29H141V401Q101 403 81 428T60 485V584H31V659H43V596H71V485Q71 456 90 435T147 413H152V75H170V430H140Q115 430 102 446T89 492V613H60V659H152V478H222V659H233V478H251V659H343V613H313V596H343V584H313ZM112 0V75H124V12H264V0H112ZM243 740V800H304V740H243ZM215 713V800H226V724H304V713H215ZM98 740V800H159V740H98ZM71 713V800H82V724H159V713H71Z"  />
<glyph unicode="&#x131;" horiz-adv-x="212" d="M151 596V613V596ZM181 0V12H43V75H31V0H181ZM181 29H60V584H31V659H43V596H71V75H89V613H60V659H181V613H151V596H181V584H151V75H181V29Z"  />
<glyph unicode="&#x152;" horiz-adv-x="500" d="M132 29Q108 29 94 45T79 90V772Q79 801 92 817T130 833H464V614H401V787H303V770H384V596H464V585H372V757H303V478H430V430H303V413H431V401L303 402V75H372V260H384V75H401V260H464V29H132ZM132 0Q91 0 71 25T50 83V772Q50 819 84 830Q62 810 62 772V83Q62 54 80 33T137 12H464V0H132ZM241 787H142V770H223V75H241V787ZM212 757H142V75H212V757Z"  />
<glyph unicode="&#x153;" horiz-adv-x="490" d="M127 29Q103 29 89 45T74 90V598Q74 627 87 643T125 659H459V548H396V613H298V596H379V531H459V520H367V584H298V478H424V430H298V413H424V402H298V75H367V260H379V75H396V260H459V29H127ZM127 0Q86 0 66 25T45 83V598Q45 645 79 656Q57 636 57 598V83Q57 54 75 33T132 12H459V0H127ZM236 613H137V596H218V75H236V613ZM207 584H137V75H207V584Z"  />
<glyph unicode="&#x160;" horiz-adv-x="325" d="M289 90Q289 61 276 45T238 29H116Q91 29 78 45T65 90V260H129V75H198V401H119Q99 401 84 408T58 427T42 454T36 485V772Q36 819 70 829Q48 810 48 772V485Q48 456 66 435T122 413H210V75H227V430H116Q91 430 78 446T65 492V772Q65 801 78 817T116 833H238Q263 833 276 816T289 770V613H227V787H129V769H210V596H289V584H198V758H129V478H238Q263 478 276 461T289 415V90ZM288 37Q281 20 266 10T229 0H118Q77 0 57 25T36 83V260H48V83Q48 54 66 33T123 12H229Q246 12 260 16T288 37ZM227 896H136L73 989H124L164 931L205 989H218L171 921L182 905L237 989H289L227 896ZM208 868H122L41 989H55L128 879H216L208 868Z"  />
<glyph unicode="&#x161;" horiz-adv-x="329" d="M284 90Q284 61 271 45T233 29H111Q86 29 73 45T60 90V260H124V75H193V401H114Q94 401 79 408T53 427T37 454T31 485V599Q31 646 65 657Q43 637 43 599V485Q43 456 61 435T117 413H205V75H222V430H111Q86 430 73 446T60 492V599Q60 628 73 643T111 659H233Q258 659 271 643T284 598V548H222V613H124V596H205V531H284V519H193V584H124V478H233Q258 478 271 461T284 415V90ZM283 37Q276 20 261 10T224 0H113Q72 0 52 25T31 83V260H43V83Q43 54 61 33T118 12H224Q241 12 255 16T283 37ZM224 732H133L70 825H121L161 767L202 825H215L168 757L179 741L234 825H286L224 732ZM205 704H119L38 825H52L125 715H213L205 704Z"  />
<glyph unicode="&#x178;" horiz-adv-x="384" d="M318 758V492Q318 463 305 447T267 430H238V413H258Q275 413 288 417T317 438Q310 421 295 411T258 401H238V75H269V29H146V401Q106 403 86 428T65 485V758H36V833H48V769H76V485Q76 456 95 435T152 413H157V75H175V430H145Q120 430 107 446T94 492V787H65V833H157V478H227V833H238V478H256V833H348V787H318V769H348V758H318ZM117 0V75H129V12H269V0H117ZM248 904V964H309V904H248ZM220 877V964H231V888H309V877H220ZM103 904V964H164V904H103ZM76 877V964H87V888H164V877H76Z"  />
<glyph unicode="&#x17D;" horiz-adv-x="359" d="M53 584V833H65V596H145V584H53ZM147 75H216V260H228V75H245V260H308V29H76L253 787H146V769H229L52 12H308V0H36L214 758H146V613H82V833H323L147 75ZM256 896H165L102 989H153L193 931L234 989H247L200 921L211 905L266 989H318L256 896ZM237 868H151L70 989H84L157 879H245L237 868Z"  />
<glyph unicode="&#x17E;" horiz-adv-x="335" d="M48 519V659H60V531H140V519H48ZM142 75H211V260H223V75H240V260H303V29H71L235 613H141V596H210L47 12H303V0H31L195 584H141V548H77V659H304L142 75ZM229 75H240H229ZM234 732H143L80 825H131L171 767L212 825H225L178 757L189 741L244 825H296L234 732ZM215 704H129L48 825H62L135 715H223L215 704Z"  />
<glyph unicode="&#x192;" horiz-adv-x="428" d="M407 787H312L309 770H403L401 757H307L257 478H352L344 431H249L245 413H341L339 402H243L166 -26Q161 -55 146 -71T106 -88H-8L0 -41H72L152 402H91L105 478H116L105 413H166L84 -41H101L185 430H126L134 478H165L218 773Q226 819 263 830Q237 809 230 772L178 478H194L247 773Q252 801 268 817T310 833H415L407 787ZM157 -80Q146 -97 129 -107T91 -117H-43L-29 -41H-18L-29 -105H93Q110 -105 125 -101T157 -80Z"  />
<glyph unicode="&#x2C6;" horiz-adv-x="280" d="M181 704L139 763L119 732H67L130 825H183L245 732H195L157 788L146 772L187 715H256L264 704H181ZM36 715H106L99 704H16L97 825H111L36 715Z"  />
<glyph unicode="&#x2C7;" horiz-adv-x="280" d="M202 732H111L48 825H99L139 767L180 825H193L146 757L157 741L212 825H264L202 732ZM183 704H97L16 825H30L103 715H191L183 704Z"  />
<glyph unicode="&#x2DA;" horiz-adv-x="280" d="M213 790Q213 765 196 748T154 731Q129 731 112 748T94 790Q94 815 111 832T153 849Q178 849 195 832T213 790ZM213 744Q207 724 189 714T154 704Q136 704 121 711T93 729T74 756T67 790Q67 807 79 826T108 849Q94 838 86 823T78 790Q78 759 100 737T153 715Q171 715 186 723T213 744ZM179 790Q179 801 172 808T154 815Q142 815 135 807T128 790Q128 779 135 772T153 765Q164 765 171 772T178 790H179Z"  />
<glyph unicode="&#x2DC;" horiz-adv-x="280" d="M260 779Q260 765 259 756T249 739Q238 728 226 727T203 730L87 785V768L195 716Q216 706 230 711T253 723Q244 709 233 705T213 701Q201 701 191 706L87 754V712H46V767Q46 787 61 801T97 816Q109 816 117 812L191 776V814H202V771L220 762V814H260V779ZM50 813Q30 795 30 758V712H20V758Q20 779 28 793T50 813Z"  />
<glyph unicode="&#x2013;" horiz-adv-x="315" d="M0 430V478H315V431L0 430ZM0 401V413H315V401H0Z"  />
<glyph unicode="&#x2014;" horiz-adv-x="453" d="M0 430V478H453V431L0 430ZM0 401V413H453V401H0Z"  />
<glyph unicode="&#x2018;" horiz-adv-x="174" d="M116 613H58L110 833H153L116 613ZM111 585H20L80 833H92L35 596H114L111 585Z"  />
<glyph unicode="&#x2019;" horiz-adv-x="174" d="M100 613H54L92 833H153L100 613ZM93 585H20L62 833H74L35 596H96L93 585Z"  />
<glyph unicode="&#x201A;" horiz-adv-x="174" d="M100 -117H55L92 103H153L100 -117ZM94 -146H20L62 103H74L34 -134H96L94 -146Z"  />
<glyph unicode="&#x201C;" horiz-adv-x="283" d="M227 613H169L221 833H264L227 613ZM222 585H131L191 833H203L146 596H224L222 585ZM115 613H57L110 833H152L115 613ZM111 585H19L80 833H91L34 596H113L111 585Z"  />
<glyph unicode="&#x201D;" horiz-adv-x="283" d="M210 613H165L202 833H264L210 613ZM204 585H131L172 833H185L146 596H206L204 585ZM99 613H54L91 833H152L99 613ZM92 585H19L61 833H74L34 596H94L92 585Z"  />
<glyph unicode="&#x201E;" horiz-adv-x="283" d="M216 -117H171L208 103H269L216 -117ZM210 -146H136L177 103H190L150 -134H212L210 -146ZM94 -117H49L86 103H147L94 -117ZM88 -146H15L56 103H69L28 -134H91L88 -146Z"  />
<glyph unicode="&#x2020;" horiz-adv-x="410" d="M251 584V29H188V613H73V659H159V833H171V659H188V833H251V659H366V613H251V596H366V584H251ZM159 0V584H44V659H55V596H171V12H251V0H159Z"  />
<glyph unicode="&#x2021;" horiz-adv-x="410" d="M251 174V29H188V203H73V249H159V585H44V659H55V596H171V249H188V613H73V659H159V833H171V659H188V833H251V659H366V613H251V596H366V585H251V249H366V203H251V185H366V174H251ZM159 0V174H44V249H55V185H171V12H251V0H159Z"  />
<glyph unicode="&#x2022;" horiz-adv-x="500" d="M407 436Q407 406 396 380T365 334T319 303T263 292Q233 292 207 303T162 333T131 379T120 436Q120 466 131 492T161 537T207 568T263 579Q293 579 319 568T364 538T395 492T407 436ZM377 322Q360 293 330 277T263 261Q227 261 196 274T141 312T104 367T90 435Q90 485 117 525T189 576Q150 555 127 518T103 435Q103 402 115 373T150 322T201 287T263 274Q297 274 326 287T377 322Z"  />
<glyph unicode="&#x2026;" horiz-adv-x="670" d="M536 29V103H610V29H536ZM507 0V103H518V12H610V0H507ZM312 29V103H386V29H312ZM283 0V103H295V12H386V0H283ZM89 29V103H163V29H89ZM60 0V103H72V12H163V0H60Z"  />
<glyph unicode="&#x2030;" horiz-adv-x="755" d="M713 59Q713 19 679 19H599Q566 19 566 59V392Q566 432 599 432H679Q696 432 704 421T713 391V59ZM712 24Q702 0 673 0H600Q574 0 561 17T547 55V392Q547 422 569 430Q554 415 554 392V55Q554 36 566 22T604 8H673Q684 8 693 10T712 24ZM208 460Q208 420 175 420H94Q61 420 61 460V793Q61 833 94 833H175Q191 833 199 822T208 792V460ZM207 425Q197 401 169 401H96Q69 401 56 418T42 456V793Q42 823 64 831Q50 817 50 793V456Q50 437 62 423T99 409H169Q180 409 188 411T207 425ZM164 19H120L410 833H454L164 19ZM106 8H161L158 0H93L390 833H398L106 8ZM506 60Q506 41 498 30T473 19H393Q376 19 368 30T359 60V392Q359 432 393 432H473Q489 432 497 421T506 391V60ZM506 25Q496 0 467 0H394Q368 0 354 17T340 55V392Q340 422 362 430Q348 418 348 392V55Q348 36 360 22T397 8H467Q478 8 487 11T506 25ZM672 402H607V390H660V49H672V402ZM653 383H607V49H653V383ZM167 803H102V791H156V450H167V803ZM148 784H102V450H148V784ZM465 402H400V391H454V50H465V402ZM446 383H400V50H446V383Z"  />
<glyph unicode="&#x2039;" horiz-adv-x="222" d="M121 328L192 127H143L61 328L154 556H201L121 328ZM124 98L30 328L122 556H135L43 328L132 110H198L202 98H124Z"  />
<glyph unicode="&#x203A;" horiz-adv-x="222" d="M110 127H62L132 328L52 556H100L192 328L110 127ZM36 110H103L99 98H20L101 328L21 556H33L112 328L36 110Z"  />
<glyph unicode="&#x20AC;" horiz-adv-x="428" d="M376 90Q376 61 363 45T325 29H203Q178 29 165 45T152 90V371H73L80 416H123V463H63L75 538H87L77 475H135V416H152V492H98L105 538H123V772Q123 819 157 829Q135 810 135 772V538H152V772Q152 801 165 817T203 833H325Q350 833 363 816T376 770V690H314V787H216V769H297V673H376V661H285V758H216V538H357L349 492H216V475H346L344 462H216V416H336L329 371H216V354H326L324 342H216V75H285V222H297V75H314V222H376V90ZM375 37Q368 20 353 10T316 0H205Q164 0 144 25T123 83V341H38L50 415H62L52 353H135V83Q135 54 153 33T210 12H316Q333 12 347 16T375 37Z"  />
<glyph unicode="&#x2122;" horiz-adv-x="575" d="M469 423V786H433V441H393V804H339V794H383V430H433V423H375V786H339V441H281V786H262V833H270V794H288V470H299V804H280V833H495Q509 833 517 823T526 794V470H545V441H488V804H433V794H477V430H545V423H469ZM30 746V833H37V753H87V746H30ZM180 746V786H162V470H181V441H105V786H87V764H48V833H237V764H198V804H162V794H187V753H237V746H180ZM262 423V470H270V430H339V423H262ZM87 423V470H94V430H181V423H87ZM123 804H87V794H112V470H123V804Z"  />

</font>
</defs>
</svg>
