<?xml  version="1.0" encoding="UTF-8"?>
<!DOCTYPE svg PUBLIC "-//W3C//DTD SVG 1.0//EN" "http://www.w3.org/TR/2001/REC-SVG-20010904/DTD/svg10.dtd" >
<svg xmlns="http://www.w3.org/2000/svg" >
<metadata>
<version>1.0</version>
<id><![CDATA[Marzo W00 Regular]]></id>
<vendor>Monotype Imaging Inc.</vendor>
<credits>
<name>Fonts.com WebFonts</name>
<URL>http://webfonts.fonts.com</URL>
<role>Home of the Web fonts</role>
</credits>
<license>
<URL>http://webfonts.fonts.com/Legal</URL>
</license>
<copyright><![CDATA[Copyright (c) 2009 by Designed by Ariel Di Lisio and digitized by Alejandro Paul. All rights reserved.]]></copyright>
<trademark><![CDATA[Santino is a trademark of Negroª & Sudtipos]]></trademark>
<licensee>
<name></name>
</licensee>
</metadata>
<defs >
<font horiz-adv-x="547" id="f4245069-28b7-43b7-8a10-708b9f3c398b">
<font-face font-family="" panose-1="2 0 5 6 0 0 0 2 0 4" ascent="848" descent="-152" units-per-em="1000" alphabetic="0">
</font-face>
<missing-glyph horiz-adv-x="350" />

<glyph unicode="&#xA;" />
<glyph unicode="&#xD;" horiz-adv-x="0" />
<glyph unicode=" " horiz-adv-x="350" />
<glyph unicode="!" horiz-adv-x="98" d="M58 86V0H40V86H58ZM58 705V166H40V705H58Z"  />
<glyph unicode="&quot;" horiz-adv-x="154" d="M58 705V576H40V705H58ZM114 705V576H96V705H114Z"  />
<glyph unicode="#" horiz-adv-x="494" d="M0 295H162L189 410H32V428H193L256 706H275L212 428H315L379 706H398L334 428H494V410H330L303 295H462V277H299L235 0H217L280 277H177L114 0H95L158 277H0V295ZM181 295H284L311 410H208L181 295Z"  />
<glyph unicode="$" horiz-adv-x="605" d="M311 742V-37H293V742H311ZM539 561Q527 591 509 615T464 658T398 686T307 696Q267 696 224 689T144 664T83 619T59 547Q59 520 68 500T100 464T157 435T244 410L373 379Q430 365 470 349T535 310T573 257T585 187V179Q585 122 558 86T490 28T400 -1T310 -9Q251 -9 202 0T115 29T53 83T20 164L38 168Q46 124 68 94T126 45T208 18T310 9Q349 9 394 16T477 42T541 94T567 179V187Q567 223 556 250T521 297T460 333T369 361L240 392Q136 417 89 451T41 547Q41 595 66 627T131 678T217 706T307 714Q363 714 404 703T474 673T522 626T555 567L539 561Z"  />
<glyph unicode="%" horiz-adv-x="510" d="M0 7L496 716L510 706L14 -3L0 7ZM459 109Q459 146 433 172T369 199Q331 199 305 173T279 109Q279 71 305 45T369 18Q407 18 433 44T459 109ZM477 109Q477 86 469 67T446 32T411 9T369 0Q346 0 327 8T293 32T270 66T261 109Q261 131 269 150T292 185T326 208T369 217Q391 217 411 209T445 185T468 151T477 109ZM43 598Q43 560 69 534T133 508Q171 508 197 534T223 598Q223 636 197 662T133 688Q95 688 69 662T43 598ZM25 598Q25 620 33 640T56 674T90 697T133 706Q155 706 175 698T209 675T232 640T241 598Q241 575 233 556T210 522T175 499T133 490Q110 490 91 498T57 521T34 555T25 598Z"  />
<glyph unicode="&amp;" horiz-adv-x="568" d="M427 534Q427 568 414 597T379 649T328 683T265 696Q231 696 202 684T150 649T115 598T102 534Q102 500 114 471T149 419L450 117Q465 142 473 170T482 231H500Q500 196 490 164T463 104L568 0H544L453 90Q420 45 370 19T260 -8Q210 -8 167 11T91 62T39 137T20 231Q20 291 47 342T120 426Q84 473 84 534Q84 571 98 604T137 661T194 700T265 714Q302 714 335 700T392 662T431 604T445 534H427ZM131 413Q89 383 64 336T38 231Q38 185 55 145T103 75T173 28T260 10Q316 10 363 35T441 103L131 413Z"  />
<glyph unicode="&apos;" horiz-adv-x="98" d="M58 705V576H40V705H58Z"  />
<glyph unicode="(" horiz-adv-x="181" d="M141 687Q107 687 83 663T58 604V101Q58 66 82 42T141 18V0Q120 0 102 8T70 29T48 61T40 101V604Q40 625 48 643T70 675T102 697T141 705V687Z"  />
<glyph unicode=")" horiz-adv-x="181" d="M40 705Q61 705 79 697T111 675T133 643T141 604V101Q141 80 133 62T112 30T80 8T40 0V18Q75 18 99 42T123 101V604Q123 638 99 662T40 687V705Z"  />
<glyph unicode="*" horiz-adv-x="366" d="M192 696V520L360 574L366 556L198 501L301 359L287 349L183 492L79 349L65 359L169 501L0 556L6 574L174 520V696H192Z"  />
<glyph unicode="+" horiz-adv-x="546" d="M20 262H264V506H282V262H526V244H282V0H264V244H20V262Z"  />
<glyph unicode="&#x2c;" horiz-adv-x="98" d="M58 86V-43H40V86H58Z"  />
<glyph unicode="-" horiz-adv-x="709" d="M20 362H689V344H20V362Z"  />
<glyph unicode="." horiz-adv-x="98" d="M58 86V0H40V86H58Z"  />
<glyph unicode="/" horiz-adv-x="473" d="M0 0L453 705H473L20 0H0Z"  />
<glyph unicode="0" horiz-adv-x="669" d="M334 9Q406 9 461 34T554 106T611 214T631 352Q631 431 611 494T552 603T459 672T334 696Q262 696 207 671T114 600T57 491T38 352Q38 271 58 208T116 100T209 32T334 9ZM334 -9Q260 -9 202 15T103 86T41 199T20 352Q20 431 40 497T100 612T198 687T334 714Q408 714 466 689T565 616T627 502T649 352Q649 274 629 208T568 93T469 18T334 -9Z"  />
<glyph unicode="1" horiz-adv-x="96" d="M38 0V669Q38 677 33 681T20 686V704Q35 704 45 694T56 669V0H38Z"  />
<glyph unicode="2" horiz-adv-x="542" d="M522 0H71Q56 0 46 10T35 36Q35 58 57 69L347 217Q378 233 404 256T450 307T481 369T492 441Q492 494 472 540T418 621T337 676T238 696Q175 696 122 669T34 594L20 604Q58 655 114 684T238 714Q294 714 343 693T430 634T488 548T510 441Q510 400 499 364T467 298T418 243T355 201L68 55Q53 48 53 36Q53 28 58 23T71 18H522V0Z"  />
<glyph unicode="3" horiz-adv-x="596" d="M43 493Q43 545 58 586T106 655T188 699T309 714Q373 714 418 701T491 664T531 610T544 546Q544 516 537 491T512 447T462 411T381 383Q380 383 379 382Q377 380 377 379Q377 376 379 374Q380 373 382 373Q480 348 528 306T576 184Q576 142 559 107T509 45T427 5T312 -10Q246 -10 193 3T102 44T43 115T20 217H38Q40 162 60 123T115 58T200 20T312 8Q372 8 418 21T495 57T542 113T558 184Q558 221 548 248T516 295T460 329T378 355Q372 356 368 360Q364 363 362 367T359 379Q359 391 368 396Q372 399 378 401Q421 412 449 426T495 458T519 498T526 546Q526 576 515 603T477 650T410 683T309 696Q243 696 196 682T119 642T75 579T61 493H43Z"  />
<glyph unicode="4" horiz-adv-x="595" d="M575 131H510V0H492V131H62Q45 131 33 143T20 173Q20 190 33 203L488 704H510V149H575V131ZM38 173Q38 163 45 156T62 149H492V681L45 191Q38 184 38 173Z"  />
<glyph unicode="5" horiz-adv-x="532" d="M34 111Q69 64 122 37T239 9Q292 9 338 29T419 83T474 164T494 264Q494 317 474 363T420 444T339 499T239 519Q198 519 161 507T92 474Q80 466 69 466Q52 466 44 477T35 503V705H463V687H53V503Q53 495 57 490T69 484Q75 484 82 488Q116 511 155 524T239 537Q296 537 345 516T432 457T490 371T512 264Q512 207 491 158T432 71T346 13T239 -9Q171 -9 115 20T20 101L34 111Z"  />
<glyph unicode="6" horiz-adv-x="599" d="M20 270Q20 334 46 389T117 482L340 707H364L184 524Q210 536 239 543T299 550Q357 550 408 528T497 468T557 379T579 270Q579 212 557 162T497 73T408 13T299 -9Q241 -9 191 13T102 73T42 161T20 270ZM38 270Q38 216 58 169T114 86T197 30T299 9Q353 9 400 29T484 85T540 168T561 270Q561 324 541 372T484 455T401 511T299 532Q245 532 198 512T115 456T59 372T38 270Z"  />
<glyph unicode="7" horiz-adv-x="556" d="M20 704H500Q515 704 525 694T536 668Q536 659 529 647L94 0H73L515 657Q518 661 518 668Q518 675 514 680T500 686H20V704Z"  />
<glyph unicode="8" horiz-adv-x="573" d="M286 696Q227 696 186 684T119 651T82 603T70 546Q70 520 77 499T101 460T146 428T217 402Q230 398 233 393T236 379Q236 372 233 368T226 361Q222 357 217 356Q123 333 81 295T38 185Q38 147 53 115T100 59T177 22T284 9Q346 9 393 22T471 58T519 114T535 185Q535 256 492 294T356 356Q354 356 346 360T337 379Q337 390 346 397Q350 401 356 402Q398 413 426 427T472 459T496 498T503 546Q503 576 492 603T454 650T387 683T286 696ZM286 714Q351 714 396 701T468 664T508 610T521 546Q521 516 514 492T489 448T440 412T360 384Q358 384 357 383Q355 381 355 379Q355 377 357 375Q358 374 359 374Q411 361 447 345T507 307T542 255T553 185Q553 143 536 108T485 46T401 6T284 -9Q219 -9 170 5T87 46T37 107T20 185Q20 225 30 255T64 307T124 345T213 374Q214 374 215 375Q218 378 218 379Q218 380 215 383Q214 384 213 384Q165 396 134 412T84 447T59 491T52 546Q52 579 64 609T104 663T176 700T286 714Z"  />
<glyph unicode="9" horiz-adv-x="599" d="M579 434Q579 371 554 318T486 226L261 0H237L417 181Q363 155 300 155Q242 155 191 177T102 237T42 325T20 434Q20 492 42 543T102 632T191 692T300 714Q358 714 408 692T497 632T557 543T579 434ZM561 434Q561 488 541 536T485 619T402 675T300 696Q246 696 198 676T115 620T59 536T38 434Q38 380 58 333T114 250T198 194T300 173Q354 173 401 193T484 249T540 332T561 434Z"  />
<glyph unicode=":" horiz-adv-x="98" d="M58 86V0H40V86H58ZM58 362V276H40V362H58Z"  />
<glyph unicode=";" horiz-adv-x="98" d="M58 86V-43H40V86H58ZM58 362V276H40V362H58Z"  />
<glyph unicode="=" horiz-adv-x="423" d="M20 342H403V324H20V342ZM20 182H403V164H20V182Z"  />
<glyph unicode="?" horiz-adv-x="546" d="M239 86V0H221V86H239ZM20 536Q31 592 57 626T121 680T202 707T292 714Q349 714 392 701T465 663T510 605T526 531Q526 483 511 451T469 396T408 360T336 336Q308 329 287 315Q269 303 254 282T239 228H221Q221 265 238 289T276 328Q301 345 332 354Q365 363 396 376T453 410T493 460T508 531Q508 567 494 597T453 649T385 683T292 696Q249 696 208 690T133 665T73 615T38 532L20 536Z"  />
<glyph unicode="@" horiz-adv-x="758" d="M601 507L550 273Q547 259 547 251Q547 223 563 208T605 192Q637 192 659 212T694 261T714 322T720 380Q720 449 692 507T617 607T509 672T382 696Q311 696 248 669T139 596T65 486T38 352Q38 281 65 219T138 110T248 36T382 9Q449 9 508 32T612 97L624 83Q576 40 515 16T382 -9Q307 -9 241 19T126 97T49 211T20 352Q20 427 48 493T126 608T241 685T382 714Q452 714 516 689T629 620T708 514T738 380Q738 353 732 318T709 250T668 196T605 174Q572 174 551 194T529 251Q529 258 529 264T531 276Q513 250 490 229T441 192T386 168T328 159Q293 159 265 170T217 201T185 248T174 308Q174 352 194 395T247 471T325 525T417 546Q476 546 515 515T567 435L583 511L601 507ZM417 528Q373 528 332 509T260 459T211 389T192 308Q192 279 201 255T229 214T272 187T328 177Q365 177 400 191T466 229T517 285T548 354Q551 365 552 375T553 396Q553 424 544 448T516 490T473 518T417 528Z"  />
<glyph unicode="A" horiz-adv-x="718" d="M698 0L577 252H140L20 0H0L327 684Q337 705 359 705Q381 705 391 684L718 0H698ZM149 270H569L375 676Q370 687 359 687Q348 687 343 676L149 270Z"  />
<glyph unicode="B" horiz-adv-x="622" d="M40 0V705H373Q436 705 479 692T550 656T590 604T602 541Q602 511 595 487T571 444T522 409T443 382Q440 382 438 380Q433 377 433 370Q433 364 438 362Q440 360 443 360Q491 347 522 330T570 291T595 243T602 183Q602 147 590 114T551 55T480 15T373 0H40ZM373 18Q431 18 471 31T536 68T572 120T584 183Q584 211 577 235T554 279T509 314T439 342Q439 342 435 343T427 348T419 356T415 370Q415 379 418 385T427 394Q432 398 439 400Q481 411 509 425T553 456T577 494T584 541Q584 570 573 596T536 643T471 675T373 687H58V18H373Z"  />
<glyph unicode="C" horiz-adv-x="710" d="M690 164Q667 125 634 94T562 39T476 4T381 -9Q306 -9 241 19T126 97T49 211T20 352Q20 427 48 493T126 608T240 685T381 714Q471 714 546 674T671 568L657 558Q610 621 538 658T381 696Q310 696 248 669T139 596T65 486T38 352Q38 281 65 219T138 110T247 36T381 9Q475 9 552 54T674 174L690 164Z"  />
<glyph unicode="D" horiz-adv-x="627" d="M58 19H255Q324 19 385 45T491 117T562 223T589 353Q589 422 563 483T491 589T385 661T255 687H76Q68 687 63 682T58 669V19ZM40 669Q40 684 50 694T76 705H255Q328 705 392 678T504 602T579 490T607 353Q607 280 580 216T504 104T392 29T255 1H40V669Z"  />
<glyph unicode="E" horiz-adv-x="593" d="M573 0H40V669Q40 684 50 694T75 705H566V687H75Q67 687 63 682T58 669V360H573V342H58V18H573V0Z"  />
<glyph unicode="F" horiz-adv-x="566" d="M40 0V669Q40 684 50 694T76 705H540V687H76Q68 687 63 682T58 669V360H546V342H58V0H40Z"  />
<glyph unicode="G" horiz-adv-x="763" d="M412 393H705Q743 393 743 352Q743 277 715 212T637 97T523 20T382 -9Q307 -9 241 19T126 97T49 211T20 352Q20 427 48 493T126 608T241 685T382 714Q471 714 546 674T671 568L657 558Q610 621 539 658T382 696Q311 696 248 669T139 596T65 486T38 352Q38 281 65 219T138 110T248 36T382 9Q453 9 515 36T624 109T698 218T725 352Q725 375 705 375H412V393Z"  />
<glyph unicode="H" horiz-adv-x="640" d="M600 705V0H582V342H58V0H40V705H58V360H582V705H600Z"  />
<glyph unicode="I" horiz-adv-x="118" d="M68 705V0H50V705H68Z"  />
<glyph unicode="J" horiz-adv-x="630" d="M38 276Q38 220 59 172T116 87T201 30T305 9Q360 9 408 30T493 87T551 171T572 276V705H590V276Q590 217 568 165T507 75T416 14T305 -9Q246 -9 194 13T104 74T43 165T20 276H38Z"  />
<glyph unicode="K" horiz-adv-x="572" d="M550 692L101 374Q90 367 90 355Q90 349 93 343T101 333L562 14L552 0L90 319Q72 332 72 355Q72 376 89 388L540 706L550 692ZM40 0V705H58V0H40Z"  />
<glyph unicode="L" horiz-adv-x="567" d="M58 705V36Q58 28 63 23T76 18H567V0H76Q61 0 51 10T40 36V705H58Z"  />
<glyph unicode="M" horiz-adv-x="787" d="M729 0V674L426 21Q422 13 413 7T394 0Q383 0 374 6T361 21L58 674V0H40V705H64L377 29Q382 18 394 18Q404 18 410 29L723 705H747V0H729Z"  />
<glyph unicode="N" horiz-adv-x="676" d="M58 679V0H40V705H60L581 30Q584 25 589 22T600 18Q608 18 613 23T618 37V705H636V37Q636 22 626 11T600 0Q589 0 581 6T567 20L58 679Z"  />
<glyph unicode="O" horiz-adv-x="763" d="M381 714Q456 714 522 686T637 608T714 493T743 352Q743 277 715 212T637 97T522 20T381 -9Q306 -9 241 19T126 97T49 211T20 352Q20 427 48 493T126 608T240 685T381 714ZM381 696Q310 696 248 669T139 596T65 486T38 352Q38 281 65 219T138 110T247 36T381 9Q452 9 515 36T624 109T698 218T725 352Q725 423 698 486T625 595T515 669T381 696Z"  />
<glyph unicode="P" horiz-adv-x="581" d="M40 0V669Q40 684 50 694T75 705H299Q353 705 401 685T484 628T540 545T561 443Q561 389 541 341T485 258T401 202T299 181H58V0H40ZM58 199H299Q350 199 394 218T472 270T524 347T543 443Q543 493 524 537T472 615T395 667T299 687H75Q68 687 63 682T58 669V199Z"  />
<glyph unicode="Q" horiz-adv-x="763" d="M719 3L630 90Q581 44 517 18T381 -9Q306 -9 240 19T126 97T49 211T20 352Q20 427 48 493T125 608T240 685T381 714Q456 714 522 686T637 608T714 493T743 352Q743 279 717 215T642 102L731 15L719 3ZM725 352Q725 423 698 486T625 595T515 669T381 696Q310 696 248 669T139 596T65 486T38 352Q38 281 65 219T138 110T247 36T381 9Q452 9 515 36T624 109T698 218T725 352Z"  />
<glyph unicode="R" horiz-adv-x="516" d="M40 0V669Q40 684 50 694T75 705H301Q346 705 385 688T453 642T499 573T516 489Q516 444 499 405T453 337T385 290T301 273H103Q98 273 98 268Q98 265 103 262L505 16L495 0L93 246Q88 250 84 255T80 268Q80 278 86 284T103 291H301Q342 291 378 306T440 349T482 412T498 489Q498 530 483 566T441 629T378 671T301 687H75Q68 687 63 682T58 669V0H40Z"  />
<glyph unicode="S" horiz-adv-x="605" d="M539 561Q527 591 509 615T464 658T398 686T307 696Q267 696 224 689T144 664T83 619T59 547Q59 520 68 500T100 464T157 435T244 410L373 379Q430 365 470 349T535 310T573 257T585 187V179Q585 122 558 86T490 28T400 -1T310 -9Q251 -9 202 0T115 29T53 83T20 164L38 168Q46 124 68 94T126 45T208 18T310 9Q349 9 394 16T477 42T541 94T567 179V187Q567 223 556 250T521 297T460 333T369 361L240 392Q136 417 89 451T41 547Q41 595 66 627T131 678T217 706T307 714Q363 714 404 703T474 673T522 626T555 567L539 561Z"  />
<glyph unicode="T" horiz-adv-x="610" d="M296 0V687H0V705H610V687H314V0H296Z"  />
<glyph unicode="U" horiz-adv-x="650" d="M610 705V276Q610 217 588 165T527 75T436 14T325 -9Q266 -9 214 13T124 74T63 165T40 276V705H58V276Q58 220 79 172T136 87T221 30T325 9Q380 9 429 30T514 87T571 171T592 276V705H610Z"  />
<glyph unicode="V" horiz-adv-x="702" d="M351 18Q361 18 367 29L682 705H702L383 21Q379 13 371 7T351 0Q340 0 332 6T319 21Q281 101 241 187T159 362T78 538T0 705H19L335 29Q340 18 351 18Z"  />
<glyph unicode="W" horiz-adv-x="1042" d="M5 705H23L294 28Q299 17 307 17Q315 17 320 28L492 450Q496 460 504 466T520 472Q528 472 536 467T549 450L722 28Q727 17 736 17Q743 17 748 28L1018 705H1037L764 22Q760 12 752 6T736 -1Q728 -1 720 4T706 21L533 444Q529 454 520 454Q512 454 508 444L336 21Q327 -1 307 -1Q299 -1 291 5T278 22L5 705Z"  />
<glyph unicode="X" horiz-adv-x="601" d="M300 367L577 705H601L312 352L601 0H577L300 338L23 0H0L288 352L0 705H23L300 367Z"  />
<glyph unicode="Y" horiz-adv-x="608" d="M276 323Q284 312 304 312Q313 312 321 314T333 323L587 705H608L347 313Q336 297 313 294V0H295V294Q272 297 262 313L0 705H21L276 323Z"  />
<glyph unicode="Z" horiz-adv-x="671" d="M651 0H28V20L600 648Q606 654 606 663Q606 673 600 680T583 687H20V705H583Q600 705 612 693T624 663Q624 648 614 636L51 18H651V0Z"  />
<glyph unicode="[" horiz-adv-x="177" d="M137 0H40V705H137V687H58V18H137V0Z"  />
<glyph unicode="\" horiz-adv-x="473" d="M453 0L0 705H20L473 0H453Z"  />
<glyph unicode="]" horiz-adv-x="176" d="M40 705H136V0H40V18H118V687H40V705Z"  />
<glyph unicode="^" horiz-adv-x="357" d="M20 353H0L151 687Q155 696 162 700T177 704Q196 704 205 686L357 353H337L190 677Q185 685 177 685Q170 685 167 679L20 353Z"  />
<glyph unicode="_" horiz-adv-x="817" d="M40 18H777V0H40V18Z"  />
<glyph unicode="`" horiz-adv-x="833" d="M407 778L303 881L315 893L419 790L407 778Z"  />
<glyph unicode="a" horiz-adv-x="718" d="M698 0L577 252H140L20 0H0L327 684Q337 705 359 705Q381 705 391 684L718 0H698ZM149 270H569L375 676Q370 687 359 687Q348 687 343 676L149 270Z"  />
<glyph unicode="b" horiz-adv-x="622" d="M40 0V705H373Q436 705 479 692T550 656T590 604T602 541Q602 511 595 487T571 444T522 409T443 382Q440 382 438 380Q433 377 433 370Q433 364 438 362Q440 360 443 360Q491 347 522 330T570 291T595 243T602 183Q602 147 590 114T551 55T480 15T373 0H40ZM373 18Q431 18 471 31T536 68T572 120T584 183Q584 211 577 235T554 279T509 314T439 342Q439 342 435 343T427 348T419 356T415 370Q415 379 418 385T427 394Q432 398 439 400Q481 411 509 425T553 456T577 494T584 541Q584 570 573 596T536 643T471 675T373 687H58V18H373Z"  />
<glyph unicode="c" horiz-adv-x="710" d="M690 164Q667 125 634 94T562 39T476 4T381 -9Q306 -9 241 19T126 97T49 211T20 352Q20 427 48 493T126 608T240 685T381 714Q471 714 546 674T671 568L657 558Q610 621 538 658T381 696Q310 696 248 669T139 596T65 486T38 352Q38 281 65 219T138 110T247 36T381 9Q475 9 552 54T674 174L690 164Z"  />
<glyph unicode="d" horiz-adv-x="627" d="M58 19H255Q324 19 385 45T491 117T562 223T589 353Q589 422 563 483T491 589T385 661T255 687H76Q68 687 63 682T58 669V19ZM40 669Q40 684 50 694T76 705H255Q328 705 392 678T504 602T579 490T607 353Q607 280 580 216T504 104T392 29T255 1H40V669Z"  />
<glyph unicode="e" horiz-adv-x="593" d="M573 0H40V669Q40 684 50 694T75 705H566V687H75Q67 687 63 682T58 669V360H573V342H58V18H573V0Z"  />
<glyph unicode="f" horiz-adv-x="566" d="M40 0V669Q40 684 50 694T76 705H540V687H76Q68 687 63 682T58 669V360H546V342H58V0H40Z"  />
<glyph unicode="g" horiz-adv-x="763" d="M412 393H705Q743 393 743 352Q743 277 715 212T637 97T523 20T382 -9Q307 -9 241 19T126 97T49 211T20 352Q20 427 48 493T126 608T241 685T382 714Q471 714 546 674T671 568L657 558Q610 621 539 658T382 696Q311 696 248 669T139 596T65 486T38 352Q38 281 65 219T138 110T248 36T382 9Q453 9 515 36T624 109T698 218T725 352Q725 375 705 375H412V393Z"  />
<glyph unicode="h" horiz-adv-x="640" d="M600 705V0H582V342H58V0H40V705H58V360H582V705H600Z"  />
<glyph unicode="i" horiz-adv-x="118" d="M68 705V0H50V705H68Z"  />
<glyph unicode="j" horiz-adv-x="630" d="M38 276Q38 220 59 172T116 87T201 30T305 9Q360 9 408 30T493 87T551 171T572 276V705H590V276Q590 217 568 165T507 75T416 14T305 -9Q246 -9 194 13T104 74T43 165T20 276H38Z"  />
<glyph unicode="k" horiz-adv-x="572" d="M550 692L101 374Q90 367 90 355Q90 349 93 343T101 333L562 14L552 0L90 319Q72 332 72 355Q72 376 89 388L540 706L550 692ZM40 0V705H58V0H40Z"  />
<glyph unicode="l" horiz-adv-x="567" d="M58 705V36Q58 28 63 23T76 18H567V0H76Q61 0 51 10T40 36V705H58Z"  />
<glyph unicode="m" horiz-adv-x="787" d="M729 0V674L426 21Q422 13 413 7T394 0Q383 0 374 6T361 21L58 674V0H40V705H64L377 29Q382 18 394 18Q404 18 410 29L723 705H747V0H729Z"  />
<glyph unicode="n" horiz-adv-x="676" d="M58 679V0H40V705H60L581 30Q584 25 589 22T600 18Q608 18 613 23T618 37V705H636V37Q636 22 626 11T600 0Q589 0 581 6T567 20L58 679Z"  />
<glyph unicode="o" horiz-adv-x="763" d="M381 714Q456 714 522 686T637 608T714 493T743 352Q743 277 715 212T637 97T522 20T381 -9Q306 -9 241 19T126 97T49 211T20 352Q20 427 48 493T126 608T240 685T381 714ZM381 696Q310 696 248 669T139 596T65 486T38 352Q38 281 65 219T138 110T247 36T381 9Q452 9 515 36T624 109T698 218T725 352Q725 423 698 486T625 595T515 669T381 696Z"  />
<glyph unicode="p" horiz-adv-x="581" d="M40 0V669Q40 684 50 694T75 705H299Q353 705 401 685T484 628T540 545T561 443Q561 389 541 341T485 258T401 202T299 181H58V0H40ZM58 199H299Q350 199 394 218T472 270T524 347T543 443Q543 493 524 537T472 615T395 667T299 687H75Q68 687 63 682T58 669V199Z"  />
<glyph unicode="q" horiz-adv-x="763" d="M719 3L630 90Q581 44 517 18T381 -9Q306 -9 240 19T126 97T49 211T20 352Q20 427 48 493T125 608T240 685T381 714Q456 714 522 686T637 608T714 493T743 352Q743 279 717 215T642 102L731 15L719 3ZM725 352Q725 423 698 486T625 595T515 669T381 696Q310 696 248 669T139 596T65 486T38 352Q38 281 65 219T138 110T247 36T381 9Q452 9 515 36T624 109T698 218T725 352Z"  />
<glyph unicode="r" horiz-adv-x="516" d="M40 0V669Q40 684 50 694T75 705H301Q346 705 385 688T453 642T499 573T516 489Q516 444 499 405T453 337T385 290T301 273H103Q98 273 98 268Q98 265 103 262L505 16L495 0L93 246Q88 250 84 255T80 268Q80 278 86 284T103 291H301Q342 291 378 306T440 349T482 412T498 489Q498 530 483 566T441 629T378 671T301 687H75Q68 687 63 682T58 669V0H40Z"  />
<glyph unicode="s" horiz-adv-x="605" d="M539 561Q527 591 509 615T464 658T398 686T307 696Q267 696 224 689T144 664T83 619T59 547Q59 520 68 500T100 464T157 435T244 410L373 379Q430 365 470 349T535 310T573 257T585 187V179Q585 122 558 86T490 28T400 -1T310 -9Q251 -9 202 0T115 29T53 83T20 164L38 168Q46 124 68 94T126 45T208 18T310 9Q349 9 394 16T477 42T541 94T567 179V187Q567 223 556 250T521 297T460 333T369 361L240 392Q136 417 89 451T41 547Q41 595 66 627T131 678T217 706T307 714Q363 714 404 703T474 673T522 626T555 567L539 561Z"  />
<glyph unicode="t" horiz-adv-x="610" d="M296 0V687H0V705H610V687H314V0H296Z"  />
<glyph unicode="u" horiz-adv-x="650" d="M610 705V276Q610 217 588 165T527 75T436 14T325 -9Q266 -9 214 13T124 74T63 165T40 276V705H58V276Q58 220 79 172T136 87T221 30T325 9Q380 9 429 30T514 87T571 171T592 276V705H610Z"  />
<glyph unicode="v" horiz-adv-x="702" d="M351 18Q361 18 367 29L682 705H702L383 21Q379 13 371 7T351 0Q340 0 332 6T319 21Q281 101 241 187T159 362T78 538T0 705H19L335 29Q340 18 351 18Z"  />
<glyph unicode="w" horiz-adv-x="1042" d="M5 705H23L294 28Q299 17 307 17Q315 17 320 28L492 450Q496 460 504 466T520 472Q528 472 536 467T549 450L722 28Q727 17 736 17Q743 17 748 28L1018 705H1037L764 22Q760 12 752 6T736 -1Q728 -1 720 4T706 21L533 444Q529 454 520 454Q512 454 508 444L336 21Q327 -1 307 -1Q299 -1 291 5T278 22L5 705Z"  />
<glyph unicode="x" horiz-adv-x="601" d="M300 367L577 705H601L312 352L601 0H577L300 338L23 0H0L288 352L0 705H23L300 367Z"  />
<glyph unicode="y" horiz-adv-x="608" d="M276 323Q284 312 304 312Q313 312 321 314T333 323L587 705H608L347 313Q336 297 313 294V0H295V294Q272 297 262 313L0 705H21L276 323Z"  />
<glyph unicode="z" horiz-adv-x="671" d="M651 0H28V20L600 648Q606 654 606 663Q606 673 600 680T583 687H20V705H583Q600 705 612 693T624 663Q624 648 614 636L51 18H651V0Z"  />
<glyph unicode="{" horiz-adv-x="238" d="M198 0Q177 0 159 8T127 29T105 61T97 101V294Q97 305 85 313T55 329Q48 332 44 339T40 353Q40 370 55 375Q73 382 85 390T97 411V604Q97 625 105 643T126 675T158 697T198 705V687Q163 687 139 663T115 604V411Q115 391 100 380T61 358Q58 356 58 353Q58 347 63 345Q85 335 100 325T115 294V101Q115 66 139 42T198 18V0Z"  />
<glyph unicode="|" horiz-adv-x="138" d="M78 745V-53H60V745H78Z"  />
<glyph unicode="}" horiz-adv-x="238" d="M40 18Q75 18 99 42T123 101V294Q123 314 138 324T175 345Q180 347 180 353Q180 356 177 358Q154 369 139 380T123 411V604Q123 638 99 662T40 687V705Q61 705 79 697T111 675T133 643T141 604V411Q141 399 153 391T183 375Q198 370 198 353Q198 346 194 339T183 329Q165 321 153 313T141 294V101Q141 80 133 62T112 30T80 8T40 0V18Z"  />
<glyph unicode="&#xA0;" horiz-adv-x="350" />
<glyph unicode="&#xA1;" horiz-adv-x="98" d="M40 619V705H58V619H40ZM40 0V539H58V0H40Z"  />
<glyph unicode="&#xA2;" horiz-adv-x="375" d="M186 100V172Q151 175 121 190T69 229T33 284T20 352Q20 388 33 419T68 475T121 514T186 532V617H204V533Q248 532 284 512T345 460L331 450Q309 479 276 496T204 515V190Q246 191 281 212T339 268L355 258Q331 220 292 197T204 172V100H186ZM38 352Q38 320 49 292T81 242T128 207T186 190V514Q155 511 128 498T81 462T50 412T38 352Z"  />
<glyph unicode="&#xA3;" horiz-adv-x="469" d="M20 361H48Q42 407 42 462Q42 511 53 556T88 637T151 693T246 714Q288 714 325 698T389 655T433 590T449 511H431Q431 549 417 583T377 642T318 681T246 696Q195 696 160 677T102 624T70 549T60 462Q60 407 66 361H305V343H69Q73 309 81 275Q89 235 95 195T101 107Q101 64 95 18H425V0H74Q83 60 83 107Q83 149 77 191T63 271Q59 288 56 305T50 343H20V361Z"  />
<glyph unicode="&#xA4;" horiz-adv-x="506" d="M19 168L88 239Q50 294 50 365Q50 436 88 489L19 560L64 603L131 534Q155 552 185 563T253 574Q289 574 320 563T375 534L442 603L487 560L418 489Q455 435 455 365Q455 330 445 298T417 240L487 168L442 125L374 194Q325 157 253 157Q181 157 132 194L64 125L19 168ZM253 222Q310 222 341 262T372 365Q372 395 364 421T341 467T304 498T253 509Q224 509 202 498T165 468T141 422T133 365Q133 334 141 308T164 263T202 233T253 222Z"  />
<glyph unicode="&#xA5;" horiz-adv-x="537" d="M472 338H278V242H472V224H278V0H260V224H59V242H260V338H59V356H235Q230 359 227 365L0 704H21L241 375Q249 364 269 364Q278 364 286 366T298 375L517 704H537L312 365Q307 359 303 356H472V338Z"  />
<glyph unicode="&#xA6;" horiz-adv-x="138" d="M60 745H78V419H60V745ZM60 326H78V0H60V326Z"  />
<glyph unicode="&#xA7;" horiz-adv-x="435" d="M375 606Q367 626 354 642T322 671T277 689T214 696Q187 696 158 691T106 674T67 643T52 596Q52 572 64 556T95 528T136 510T178 498L266 476Q347 456 381 425T415 334Q415 302 403 276T367 232Q393 215 404 191T415 131Q415 91 396 64T349 21T287 -2T223 -9Q140 -9 86 19T20 117L38 121Q49 59 98 34T223 9Q250 9 280 15T337 35T380 72T397 131Q397 181 363 209T262 255L174 277Q152 282 128 289T83 310T49 343T35 393Q35 426 54 453T115 497Q83 509 59 531T34 596Q34 629 50 652T93 688T152 708T214 714Q293 714 333 687T391 612L375 606ZM266 273Q292 266 313 259T350 243Q372 259 384 282T397 334Q397 384 363 412T262 458L146 487Q98 476 76 451T53 393Q53 367 65 351T95 324T136 307T178 295L266 273Z"  />
<glyph unicode="&#xA8;" horiz-adv-x="650" d="M261 841Q261 827 251 818T227 808Q213 808 204 817T194 841Q194 855 203 865T227 875Q241 875 251 865T261 841ZM454 841Q454 827 444 818T420 808Q406 808 397 817T387 841Q387 855 396 865T420 875Q434 875 444 865T454 841Z"  />
<glyph unicode="&#xA9;" horiz-adv-x="745" d="M527 258Q504 219 463 195T372 171Q335 171 302 185T245 224T206 281T192 352Q192 389 206 422T244 480T302 519T372 533Q417 533 454 513T517 460L503 450Q481 480 447 497T372 515Q339 515 310 502T258 467T223 416T210 352Q210 318 223 289T258 237T309 202T372 189Q417 189 453 210T511 268L527 258ZM372 714Q447 714 513 686T627 608T704 493T733 352Q733 277 705 212T628 97T513 20T372 -9Q297 -9 231 19T117 97T40 211T11 352Q11 427 39 493T116 608T231 685T372 714ZM372 696Q301 696 239 669T130 596T56 486T29 352Q29 281 56 219T129 110T238 36T372 9Q443 9 505 36T614 109T688 218T715 352Q715 423 688 486T615 595T506 669T372 696Z"  />
<glyph unicode="&#xAA;" horiz-adv-x="428" d="M391 705V388Q391 380 396 375T408 370V352Q394 352 384 362T373 388V448Q350 401 306 372T206 343Q167 343 134 357T75 397T35 456T20 528Q20 567 34 600T74 659T133 699T206 714Q261 714 305 685T373 608V705H391ZM206 696Q171 696 141 683T87 647T51 594T38 528Q38 493 51 463T87 410T140 374T206 361Q239 361 269 373T323 407T359 458T373 521Q373 558 360 590T324 646T271 682T206 696Z"  />
<glyph unicode="&#xAB;" horiz-adv-x="241" d="M131 450L41 359Q37 355 37 352Q37 348 41 345L131 255L119 243L28 333Q20 341 20 351Q20 362 29 371L119 462L131 450ZM221 450L131 359Q127 355 127 352Q127 348 131 345L221 255L209 243L118 333Q110 341 110 351Q110 362 119 371L209 462L221 450Z"  />
<glyph unicode="&#xAC;" horiz-adv-x="557" d="M20 361H517V140H499V343H20V361Z"  />
<glyph unicode="&#xAD;" horiz-adv-x="709" d="M20 362H689V344H20V362Z"  />
<glyph unicode="&#xAE;" horiz-adv-x="744" d="M262 168V503Q262 512 268 518T284 525H415Q438 525 458 516T494 492T518 457T527 413Q527 390 518 370T494 334T459 309T415 300H322L501 179L491 165L309 288Q300 295 300 303Q300 308 304 313T316 318H415Q434 318 451 325T481 346T501 376T509 413Q509 432 502 449T482 479T452 499T415 507H284Q280 507 280 503V168H262ZM372 714Q447 714 513 686T627 608T704 493T733 352Q733 277 705 212T628 97T513 20T372 -9Q297 -9 231 19T117 97T40 211T11 352Q11 427 39 493T116 608T231 685T372 714ZM372 696Q301 696 239 669T130 596T56 486T29 352Q29 281 56 219T129 110T238 36T372 9Q443 9 505 36T614 109T688 218T715 352Q715 423 688 486T615 595T506 669T372 696Z"  />
<glyph unicode="&#xAF;" horiz-adv-x="650" d="M194 853H451V835H194V853Z"  />
<glyph unicode="&#xB0;" horiz-adv-x="143" d="M123 591Q123 570 108 555T71 540Q50 540 35 555T20 591Q20 613 35 628T71 643Q93 643 108 628T123 591ZM105 591Q105 605 95 615T71 625Q57 625 48 615T38 591Q38 577 47 568T71 558Q85 558 95 567T105 591Z"  />
<glyph unicode="&#xB4;" horiz-adv-x="593" d="M260 790L364 893L376 881L272 778L260 790Z"  />
<glyph unicode="&#xB5;" horiz-adv-x="650" d="M610 705V0H592V175Q577 134 551 101T489 43T413 5T325 -9Q279 -9 238 4T161 43T100 101T58 176V-83H40V705H58V276Q58 220 79 172T136 87T221 30T325 9Q380 9 429 30T514 87T571 171T592 276V705H610Z"  />
<glyph unicode="&#xB6;" horiz-adv-x="346" d="M184 0V319Q145 320 112 336T54 378T15 438T0 512Q0 551 15 586T56 647T117 689T193 705H306V0H288V687H202V0H184ZM18 512Q18 477 31 446T66 391T119 353T184 337V687Q149 685 119 671T67 634T31 579T18 512Z"  />
<glyph unicode="&#xB8;" horiz-adv-x="710" d="M270 -64H438Q423 -25 408 12T377 89L393 95L463 -82H270V-64Z"  />
<glyph unicode="&#xBA;" horiz-adv-x="410" d="M205 714Q243 714 277 700T336 660T375 601T390 528Q390 490 376 456T336 397T277 358T205 343Q167 343 133 357T74 397T35 456T20 528Q20 567 34 600T74 659T133 699T205 714ZM205 696Q170 696 140 683T87 647T51 594T38 528Q38 493 51 463T87 410T140 374T205 361Q239 361 269 374T323 410T359 463T372 528Q372 563 359 593T323 647T270 683T205 696Z"  />
<glyph unicode="&#xBB;" horiz-adv-x="241" d="M122 462L212 371Q221 362 221 351Q221 341 213 333L122 243L110 255L200 345Q204 348 204 352Q204 355 200 359L110 450L122 462ZM32 462L122 371Q131 362 131 351Q131 341 123 333L32 243L20 255L110 345Q114 348 114 352Q114 355 110 359L20 450L32 462Z"  />
<glyph unicode="&#xBF;" horiz-adv-x="546" d="M307 620V706H325V620H307ZM526 170Q515 114 489 80T425 26T344 -1T254 -8Q197 -8 154 5T81 43T36 101T20 175Q20 223 35 255T77 310T138 346T210 370Q237 377 258 391Q276 403 291 424T307 478H325Q325 440 308 416T269 378Q244 361 214 352Q181 343 150 330T93 296T53 246T38 175Q38 139 52 109T93 57T161 23T254 10Q297 10 338 16T413 41T472 91T508 174L526 170Z"  />
<glyph unicode="&#xC0;" horiz-adv-x="718" d="M407 778L303 881L315 893L419 790L407 778ZM698 0L577 252H140L20 0H0L327 684Q337 705 359 705Q381 705 391 684L718 0H698ZM149 270H569L375 676Q370 687 359 687Q348 687 343 676L149 270Z"  />
<glyph unicode="&#xC1;" horiz-adv-x="718" d="M290 790L394 893L406 881L302 778L290 790ZM698 0L577 252H140L20 0H0L327 684Q337 705 359 705Q381 705 391 684L718 0H698ZM149 270H569L375 676Q370 687 359 687Q348 687 343 676L149 270Z"  />
<glyph unicode="&#xC2;" horiz-adv-x="718" d="M458 778L367 868Q364 871 360 871Q356 871 353 868L263 778L251 790L341 880Q348 887 360 887Q372 887 379 880L470 790L458 778ZM698 0L577 252H140L20 0H0L327 684Q337 705 359 705Q381 705 391 684L718 0H698ZM149 270H569L375 676Q370 687 359 687Q348 687 343 676L149 270Z"  />
<glyph unicode="&#xC3;" horiz-adv-x="718" d="M481 850Q481 841 477 831T465 813T445 799T415 793Q394 793 382 800T359 815Q350 822 340 828T313 834Q292 834 280 821T267 794H249Q249 813 266 832T313 852Q333 852 345 845T369 829Q377 822 387 817T415 811Q440 811 451 825T463 850H481ZM698 0L577 252H140L20 0H0L327 684Q337 705 359 705Q381 705 391 684L718 0H698ZM149 270H569L375 676Q370 687 359 687Q348 687 343 676L149 270Z"  />
<glyph unicode="&#xC4;" horiz-adv-x="718" d="M292 841Q292 827 282 818T258 808Q244 808 235 817T225 841Q225 855 234 865T258 875Q272 875 282 865T292 841ZM485 841Q485 827 475 818T451 808Q437 808 428 817T418 841Q418 855 427 865T451 875Q465 875 475 865T485 841ZM698 0L577 252H140L20 0H0L327 684Q337 705 359 705Q381 705 391 684L718 0H698ZM149 270H569L375 676Q370 687 359 687Q348 687 343 676L149 270Z"  />
<glyph unicode="&#xC5;" horiz-adv-x="718" d="M385 841Q385 852 378 859T360 866Q350 866 343 859T336 841Q336 831 343 824T360 817Q371 817 378 824T385 841ZM403 841Q403 824 391 812T360 799Q343 799 331 811T318 841Q318 859 330 871T360 884Q378 884 390 872T403 841ZM698 0L577 252H140L20 0H0L327 684Q337 705 359 705Q381 705 391 684L718 0H698ZM149 270H569L375 676Q370 687 359 687Q348 687 343 676L149 270Z"  />
<glyph unicode="&#xC6;" horiz-adv-x="1254" d="M698 0L577 252H140L20 0H0L327 684Q337 705 359 705Q381 705 391 684L718 0H698ZM149 270H569L375 676Q370 687 359 687Q348 687 343 676L149 270ZM1234 0H701V669Q701 684 711 694T736 705H1227V687H736Q728 687 724 682T719 669V360H1234V342H719V18H1234V0Z"  />
<glyph unicode="&#xC7;" horiz-adv-x="710" d="M270 -64H438Q423 -25 408 12T377 89L393 95L463 -82H270V-64ZM690 164Q667 125 634 94T562 39T476 4T381 -9Q306 -9 241 19T126 97T49 211T20 352Q20 427 48 493T126 608T240 685T381 714Q471 714 546 674T671 568L657 558Q610 621 538 658T381 696Q310 696 248 669T139 596T65 486T38 352Q38 281 65 219T138 110T247 36T381 9Q475 9 552 54T674 174L690 164Z"  />
<glyph unicode="&#xC8;" horiz-adv-x="593" d="M367 778L263 881L275 893L379 790L367 778ZM573 0H40V669Q40 684 50 694T75 705H566V687H75Q67 687 63 682T58 669V360H573V342H58V18H573V0Z"  />
<glyph unicode="&#xC9;" horiz-adv-x="593" d="M260 790L364 893L376 881L272 778L260 790ZM573 0H40V669Q40 684 50 694T75 705H566V687H75Q67 687 63 682T58 669V360H573V342H58V18H573V0Z"  />
<glyph unicode="&#xCA;" horiz-adv-x="593" d="M573 0H40V669Q40 684 50 694T75 705H566V687H75Q67 687 63 682T58 669V360H573V342H58V18H573V0ZM412 778L321 868Q318 871 314 871Q310 871 307 868L217 778L205 790L295 880Q302 887 314 887Q326 887 333 880L424 790L412 778Z"  />
<glyph unicode="&#xCB;" horiz-adv-x="593" d="M241 841Q241 827 231 818T207 808Q193 808 184 817T174 841Q174 855 183 865T207 875Q221 875 231 865T241 841ZM434 841Q434 827 424 818T400 808Q386 808 377 817T367 841Q367 855 376 865T400 875Q414 875 424 865T434 841ZM573 0H40V669Q40 684 50 694T75 705H566V687H75Q67 687 63 682T58 669V360H573V342H58V18H573V0Z"  />
<glyph unicode="&#xCC;" horiz-adv-x="118" d="M101 778L-3 881L9 893L113 790L101 778ZM68 705V0H50V705H68Z"  />
<glyph unicode="&#xCD;" horiz-adv-x="118" d="M68 705V0H50V705H68ZM1 785L105 888L117 876L13 773L1 785Z"  />
<glyph unicode="&#xCE;" horiz-adv-x="118" d="M157 778L66 868Q63 871 59 871Q55 871 52 868L-38 778L-50 790L40 880Q47 887 59 887Q71 887 78 880L169 790L157 778ZM68 705V0H50V705H68Z"  />
<glyph unicode="&#xCF;" horiz-adv-x="118" d="M-6 841Q-6 827 -16 818T-40 808Q-54 808 -63 817T-73 841Q-73 855 -64 865T-40 875Q-26 875 -16 865T-6 841ZM187 841Q187 827 177 818T153 808Q139 808 130 817T120 841Q120 855 129 865T153 875Q167 875 177 865T187 841ZM68 705V0H50V705H68Z"  />
<glyph unicode="&#xD0;" horiz-adv-x="627" d="M-39 362H140V344H-39V362ZM58 19H255Q324 19 385 45T491 117T562 223T589 353Q589 422 563 483T491 589T385 661T255 687H76Q68 687 63 682T58 669V19ZM40 669Q40 684 50 694T76 705H255Q328 705 392 678T504 602T579 490T607 353Q607 280 580 216T504 104T392 29T255 1H40V669Z"  />
<glyph unicode="&#xD1;" horiz-adv-x="676" d="M58 679V0H40V705H60L581 30Q584 25 589 22T600 18Q608 18 613 23T618 37V705H636V37Q636 22 626 11T600 0Q589 0 581 6T567 20L58 679ZM459 850Q459 841 455 831T443 813T423 799T393 793Q372 793 360 800T337 815Q328 822 318 828T291 834Q270 834 258 821T245 794H227Q227 813 244 832T291 852Q311 852 323 845T347 829Q355 822 365 817T393 811Q418 811 429 825T441 850H459Z"  />
<glyph unicode="&#xD2;" horiz-adv-x="763" d="M381 714Q456 714 522 686T637 608T714 493T743 352Q743 277 715 212T637 97T522 20T381 -9Q306 -9 241 19T126 97T49 211T20 352Q20 427 48 493T126 608T240 685T381 714ZM381 696Q310 696 248 669T139 596T65 486T38 352Q38 281 65 219T138 110T247 36T381 9Q452 9 515 36T624 109T698 218T725 352Q725 423 698 486T625 595T515 669T381 696ZM416 778L312 881L324 893L428 790L416 778Z"  />
<glyph unicode="&#xD3;" horiz-adv-x="763" d="M381 714Q456 714 522 686T637 608T714 493T743 352Q743 277 715 212T637 97T522 20T381 -9Q306 -9 241 19T126 97T49 211T20 352Q20 427 48 493T126 608T240 685T381 714ZM381 696Q310 696 248 669T139 596T65 486T38 352Q38 281 65 219T138 110T247 36T381 9Q452 9 515 36T624 109T698 218T725 352Q725 423 698 486T625 595T515 669T381 696ZM343 785L447 888L459 876L355 773L343 785Z"  />
<glyph unicode="&#xD4;" horiz-adv-x="763" d="M477 778L386 868Q383 871 379 871Q375 871 372 868L282 778L270 790L360 880Q367 887 379 887Q391 887 398 880L489 790L477 778ZM381 714Q456 714 522 686T637 608T714 493T743 352Q743 277 715 212T637 97T522 20T381 -9Q306 -9 241 19T126 97T49 211T20 352Q20 427 48 493T126 608T240 685T381 714ZM381 696Q310 696 248 669T139 596T65 486T38 352Q38 281 65 219T138 110T247 36T381 9Q452 9 515 36T624 109T698 218T725 352Q725 423 698 486T625 595T515 669T381 696Z"  />
<glyph unicode="&#xD5;" horiz-adv-x="763" d="M496 850Q496 841 492 831T480 813T460 799T430 793Q409 793 397 800T374 815Q365 822 355 828T328 834Q307 834 295 821T282 794H264Q264 813 281 832T328 852Q348 852 360 845T384 829Q392 822 402 817T430 811Q455 811 466 825T478 850H496ZM381 714Q456 714 522 686T637 608T714 493T743 352Q743 277 715 212T637 97T522 20T381 -9Q306 -9 241 19T126 97T49 211T20 352Q20 427 48 493T126 608T240 685T381 714ZM381 696Q310 696 248 669T139 596T65 486T38 352Q38 281 65 219T138 110T247 36T381 9Q452 9 515 36T624 109T698 218T725 352Q725 423 698 486T625 595T515 669T381 696Z"  />
<glyph unicode="&#xD6;" horiz-adv-x="763" d="M316 841Q316 827 306 818T282 808Q268 808 259 817T249 841Q249 855 258 865T282 875Q296 875 306 865T316 841ZM509 841Q509 827 499 818T475 808Q461 808 452 817T442 841Q442 855 451 865T475 875Q489 875 499 865T509 841ZM381 714Q456 714 522 686T637 608T714 493T743 352Q743 277 715 212T637 97T522 20T381 -9Q306 -9 241 19T126 97T49 211T20 352Q20 427 48 493T126 608T240 685T381 714ZM381 696Q310 696 248 669T139 596T65 486T38 352Q38 281 65 219T138 110T247 36T381 9Q452 9 515 36T624 109T698 218T725 352Q725 423 698 486T625 595T515 669T381 696Z"  />
<glyph unicode="&#xD7;" horiz-adv-x="410" d="M20 80L193 253L20 426L32 438L205 265L378 438L390 426L217 253L390 80L378 68L205 241L32 68L20 80Z"  />
<glyph unicode="&#xD8;" horiz-adv-x="763" d="M92 77L655 639L667 627L104 65L92 77ZM381 714Q456 714 522 686T637 608T714 493T743 352Q743 277 715 212T637 97T522 20T381 -9Q306 -9 241 19T126 97T49 211T20 352Q20 427 48 493T126 608T240 685T381 714ZM381 696Q310 696 248 669T139 596T65 486T38 352Q38 281 65 219T138 110T247 36T381 9Q452 9 515 36T624 109T698 218T725 352Q725 423 698 486T625 595T515 669T381 696Z"  />
<glyph unicode="&#xD9;" horiz-adv-x="650" d="M367 778L263 881L275 893L379 790L367 778ZM610 705V276Q610 217 588 165T527 75T436 14T325 -9Q266 -9 214 13T124 74T63 165T40 276V705H58V276Q58 220 79 172T136 87T221 30T325 9Q380 9 429 30T514 87T571 171T592 276V705H610Z"  />
<glyph unicode="&#xDA;" horiz-adv-x="650" d="M610 705V276Q610 217 588 165T527 75T436 14T325 -9Q266 -9 214 13T124 74T63 165T40 276V705H58V276Q58 220 79 172T136 87T221 30T325 9Q380 9 429 30T514 87T571 171T592 276V705H610ZM280 785L384 888L396 876L292 773L280 785Z"  />
<glyph unicode="&#xDB;" horiz-adv-x="650" d="M610 705V276Q610 217 588 165T527 75T436 14T325 -9Q266 -9 214 13T124 74T63 165T40 276V705H58V276Q58 220 79 172T136 87T221 30T325 9Q380 9 429 30T514 87T571 171T592 276V705H610ZM423 778L332 868Q329 871 325 871Q321 871 318 868L228 778L216 790L306 880Q313 887 325 887Q337 887 344 880L435 790L423 778Z"  />
<glyph unicode="&#xDC;" horiz-adv-x="650" d="M261 841Q261 827 251 818T227 808Q213 808 204 817T194 841Q194 855 203 865T227 875Q241 875 251 865T261 841ZM454 841Q454 827 444 818T420 808Q406 808 397 817T387 841Q387 855 396 865T420 875Q434 875 444 865T454 841ZM610 705V276Q610 217 588 165T527 75T436 14T325 -9Q266 -9 214 13T124 74T63 165T40 276V705H58V276Q58 220 79 172T136 87T221 30T325 9Q380 9 429 30T514 87T571 171T592 276V705H610Z"  />
<glyph unicode="&#xDD;" horiz-adv-x="608" d="M276 323Q284 312 304 312Q313 312 321 314T333 323L587 705H608L347 313Q336 297 313 294V0H295V294Q272 297 262 313L0 705H21L276 323ZM252 785L356 888L368 876L264 773L252 785Z"  />
<glyph unicode="&#xDE;" horiz-adv-x="581" d="M58 625H299Q353 625 401 605T484 548T540 465T561 363Q561 309 541 261T485 178T401 122T299 101H58V0H40V705H58V625ZM58 607V119H299Q350 119 394 138T472 190T524 267T543 363Q543 413 524 457T472 535T395 587T299 607H58Z"  />
<glyph unicode="&#xDF;" horiz-adv-x="418" d="M110 18H232Q262 18 289 29T336 61T368 108T380 166Q380 197 369 224T337 271T289 302T232 314Q209 314 198 326T187 356Q187 377 199 387T227 401Q252 407 275 420T315 452T343 496T353 547Q353 578 341 605T309 652T262 684T204 696Q174 696 148 685T101 653T70 607T58 550V0H40V550Q40 584 53 613T88 665T140 701T204 714Q238 714 268 701T321 665T357 612T371 547Q371 516 360 489T331 440T287 404T231 383Q221 381 213 375T205 356Q205 346 211 339T232 332Q266 332 296 319T349 284T385 231T398 166Q398 131 385 101T350 49T297 13T232 0H110V18Z"  />
<glyph unicode="&#xE0;" horiz-adv-x="718" d="M407 778L303 881L315 893L419 790L407 778ZM698 0L577 252H140L20 0H0L327 684Q337 705 359 705Q381 705 391 684L718 0H698ZM149 270H569L375 676Q370 687 359 687Q348 687 343 676L149 270Z"  />
<glyph unicode="&#xE1;" horiz-adv-x="718" d="M290 790L394 893L406 881L302 778L290 790ZM698 0L577 252H140L20 0H0L327 684Q337 705 359 705Q381 705 391 684L718 0H698ZM149 270H569L375 676Q370 687 359 687Q348 687 343 676L149 270Z"  />
<glyph unicode="&#xE2;" horiz-adv-x="718" d="M458 778L367 868Q364 871 360 871Q356 871 353 868L263 778L251 790L341 880Q348 887 360 887Q372 887 379 880L470 790L458 778ZM698 0L577 252H140L20 0H0L327 684Q337 705 359 705Q381 705 391 684L718 0H698ZM149 270H569L375 676Q370 687 359 687Q348 687 343 676L149 270Z"  />
<glyph unicode="&#xE3;" horiz-adv-x="718" d="M481 850Q481 841 477 831T465 813T445 799T415 793Q394 793 382 800T359 815Q350 822 340 828T313 834Q292 834 280 821T267 794H249Q249 813 266 832T313 852Q333 852 345 845T369 829Q377 822 387 817T415 811Q440 811 451 825T463 850H481ZM698 0L577 252H140L20 0H0L327 684Q337 705 359 705Q381 705 391 684L718 0H698ZM149 270H569L375 676Q370 687 359 687Q348 687 343 676L149 270Z"  />
<glyph unicode="&#xE4;" horiz-adv-x="718" d="M292 841Q292 827 282 818T258 808Q244 808 235 817T225 841Q225 855 234 865T258 875Q272 875 282 865T292 841ZM485 841Q485 827 475 818T451 808Q437 808 428 817T418 841Q418 855 427 865T451 875Q465 875 475 865T485 841ZM698 0L577 252H140L20 0H0L327 684Q337 705 359 705Q381 705 391 684L718 0H698ZM149 270H569L375 676Q370 687 359 687Q348 687 343 676L149 270Z"  />
<glyph unicode="&#xE5;" horiz-adv-x="718" d="M385 841Q385 852 378 859T360 866Q350 866 343 859T336 841Q336 831 343 824T360 817Q371 817 378 824T385 841ZM403 841Q403 824 391 812T360 799Q343 799 331 811T318 841Q318 859 330 871T360 884Q378 884 390 872T403 841ZM698 0L577 252H140L20 0H0L327 684Q337 705 359 705Q381 705 391 684L718 0H698ZM149 270H569L375 676Q370 687 359 687Q348 687 343 676L149 270Z"  />
<glyph unicode="&#xE6;" horiz-adv-x="1254" d="M698 0L577 252H140L20 0H0L327 684Q337 705 359 705Q381 705 391 684L718 0H698ZM149 270H569L375 676Q370 687 359 687Q348 687 343 676L149 270ZM1234 0H701V669Q701 684 711 694T736 705H1227V687H736Q728 687 724 682T719 669V360H1234V342H719V18H1234V0Z"  />
<glyph unicode="&#xE7;" horiz-adv-x="710" d="M270 -64H438Q423 -25 408 12T377 89L393 95L463 -82H270V-64ZM690 164Q667 125 634 94T562 39T476 4T381 -9Q306 -9 241 19T126 97T49 211T20 352Q20 427 48 493T126 608T240 685T381 714Q471 714 546 674T671 568L657 558Q610 621 538 658T381 696Q310 696 248 669T139 596T65 486T38 352Q38 281 65 219T138 110T247 36T381 9Q475 9 552 54T674 174L690 164Z"  />
<glyph unicode="&#xE8;" horiz-adv-x="593" d="M367 778L263 881L275 893L379 790L367 778ZM573 0H40V669Q40 684 50 694T75 705H566V687H75Q67 687 63 682T58 669V360H573V342H58V18H573V0Z"  />
<glyph unicode="&#xE9;" horiz-adv-x="593" d="M260 790L364 893L376 881L272 778L260 790ZM573 0H40V669Q40 684 50 694T75 705H566V687H75Q67 687 63 682T58 669V360H573V342H58V18H573V0Z"  />
<glyph unicode="&#xEA;" horiz-adv-x="593" d="M573 0H40V669Q40 684 50 694T75 705H566V687H75Q67 687 63 682T58 669V360H573V342H58V18H573V0ZM412 778L321 868Q318 871 314 871Q310 871 307 868L217 778L205 790L295 880Q302 887 314 887Q326 887 333 880L424 790L412 778Z"  />
<glyph unicode="&#xEB;" horiz-adv-x="593" d="M241 841Q241 827 231 818T207 808Q193 808 184 817T174 841Q174 855 183 865T207 875Q221 875 231 865T241 841ZM434 841Q434 827 424 818T400 808Q386 808 377 817T367 841Q367 855 376 865T400 875Q414 875 424 865T434 841ZM573 0H40V669Q40 684 50 694T75 705H566V687H75Q67 687 63 682T58 669V360H573V342H58V18H573V0Z"  />
<glyph unicode="&#xEC;" horiz-adv-x="118" d="M101 778L-3 881L9 893L113 790L101 778ZM68 705V0H50V705H68Z"  />
<glyph unicode="&#xED;" horiz-adv-x="118" d="M68 705V0H50V705H68ZM1 785L105 888L117 876L13 773L1 785Z"  />
<glyph unicode="&#xEE;" horiz-adv-x="118" d="M157 778L66 868Q63 871 59 871Q55 871 52 868L-38 778L-50 790L40 880Q47 887 59 887Q71 887 78 880L169 790L157 778ZM68 705V0H50V705H68Z"  />
<glyph unicode="&#xEF;" horiz-adv-x="118" d="M-6 841Q-6 827 -16 818T-40 808Q-54 808 -63 817T-73 841Q-73 855 -64 865T-40 875Q-26 875 -16 865T-6 841ZM187 841Q187 827 177 818T153 808Q139 808 130 817T120 841Q120 855 129 865T153 875Q167 875 177 865T187 841ZM68 705V0H50V705H68Z"  />
<glyph unicode="&#xF0;" horiz-adv-x="627" d="M-39 362H140V344H-39V362ZM58 19H255Q324 19 385 45T491 117T562 223T589 353Q589 422 563 483T491 589T385 661T255 687H76Q68 687 63 682T58 669V19ZM40 669Q40 684 50 694T76 705H255Q328 705 392 678T504 602T579 490T607 353Q607 280 580 216T504 104T392 29T255 1H40V669Z"  />
<glyph unicode="&#xF1;" horiz-adv-x="676" d="M58 679V0H40V705H60L581 30Q584 25 589 22T600 18Q608 18 613 23T618 37V705H636V37Q636 22 626 11T600 0Q589 0 581 6T567 20L58 679ZM459 850Q459 841 455 831T443 813T423 799T393 793Q372 793 360 800T337 815Q328 822 318 828T291 834Q270 834 258 821T245 794H227Q227 813 244 832T291 852Q311 852 323 845T347 829Q355 822 365 817T393 811Q418 811 429 825T441 850H459Z"  />
<glyph unicode="&#xF2;" horiz-adv-x="763" d="M381 714Q456 714 522 686T637 608T714 493T743 352Q743 277 715 212T637 97T522 20T381 -9Q306 -9 241 19T126 97T49 211T20 352Q20 427 48 493T126 608T240 685T381 714ZM381 696Q310 696 248 669T139 596T65 486T38 352Q38 281 65 219T138 110T247 36T381 9Q452 9 515 36T624 109T698 218T725 352Q725 423 698 486T625 595T515 669T381 696ZM416 778L312 881L324 893L428 790L416 778Z"  />
<glyph unicode="&#xF3;" horiz-adv-x="763" d="M381 714Q456 714 522 686T637 608T714 493T743 352Q743 277 715 212T637 97T522 20T381 -9Q306 -9 241 19T126 97T49 211T20 352Q20 427 48 493T126 608T240 685T381 714ZM381 696Q310 696 248 669T139 596T65 486T38 352Q38 281 65 219T138 110T247 36T381 9Q452 9 515 36T624 109T698 218T725 352Q725 423 698 486T625 595T515 669T381 696ZM343 785L447 888L459 876L355 773L343 785Z"  />
<glyph unicode="&#xF4;" horiz-adv-x="763" d="M477 778L386 868Q383 871 379 871Q375 871 372 868L282 778L270 790L360 880Q367 887 379 887Q391 887 398 880L489 790L477 778ZM381 714Q456 714 522 686T637 608T714 493T743 352Q743 277 715 212T637 97T522 20T381 -9Q306 -9 241 19T126 97T49 211T20 352Q20 427 48 493T126 608T240 685T381 714ZM381 696Q310 696 248 669T139 596T65 486T38 352Q38 281 65 219T138 110T247 36T381 9Q452 9 515 36T624 109T698 218T725 352Q725 423 698 486T625 595T515 669T381 696Z"  />
<glyph unicode="&#xF5;" horiz-adv-x="763" d="M496 850Q496 841 492 831T480 813T460 799T430 793Q409 793 397 800T374 815Q365 822 355 828T328 834Q307 834 295 821T282 794H264Q264 813 281 832T328 852Q348 852 360 845T384 829Q392 822 402 817T430 811Q455 811 466 825T478 850H496ZM381 714Q456 714 522 686T637 608T714 493T743 352Q743 277 715 212T637 97T522 20T381 -9Q306 -9 241 19T126 97T49 211T20 352Q20 427 48 493T126 608T240 685T381 714ZM381 696Q310 696 248 669T139 596T65 486T38 352Q38 281 65 219T138 110T247 36T381 9Q452 9 515 36T624 109T698 218T725 352Q725 423 698 486T625 595T515 669T381 696Z"  />
<glyph unicode="&#xF6;" horiz-adv-x="763" d="M316 841Q316 827 306 818T282 808Q268 808 259 817T249 841Q249 855 258 865T282 875Q296 875 306 865T316 841ZM509 841Q509 827 499 818T475 808Q461 808 452 817T442 841Q442 855 451 865T475 875Q489 875 499 865T509 841ZM381 714Q456 714 522 686T637 608T714 493T743 352Q743 277 715 212T637 97T522 20T381 -9Q306 -9 241 19T126 97T49 211T20 352Q20 427 48 493T126 608T240 685T381 714ZM381 696Q310 696 248 669T139 596T65 486T38 352Q38 281 65 219T138 110T247 36T381 9Q452 9 515 36T624 109T698 218T725 352Q725 423 698 486T625 595T515 669T381 696Z"  />
<glyph unicode="&#xF7;" horiz-adv-x="546" d="M340 77Q340 48 321 29T273 9Q245 9 225 28T205 77Q205 105 225 124T273 144Q301 144 320 125T340 77ZM205 429Q205 458 224 477T273 497Q301 497 320 478T340 429Q340 401 321 382T273 362Q244 362 225 381T205 429ZM20 262H526V244H20V262Z"  />
<glyph unicode="&#xF8;" horiz-adv-x="763" d="M92 77L655 639L667 627L104 65L92 77ZM381 714Q456 714 522 686T637 608T714 493T743 352Q743 277 715 212T637 97T522 20T381 -9Q306 -9 241 19T126 97T49 211T20 352Q20 427 48 493T126 608T240 685T381 714ZM381 696Q310 696 248 669T139 596T65 486T38 352Q38 281 65 219T138 110T247 36T381 9Q452 9 515 36T624 109T698 218T725 352Q725 423 698 486T625 595T515 669T381 696Z"  />
<glyph unicode="&#xF9;" horiz-adv-x="650" d="M367 778L263 881L275 893L379 790L367 778ZM610 705V276Q610 217 588 165T527 75T436 14T325 -9Q266 -9 214 13T124 74T63 165T40 276V705H58V276Q58 220 79 172T136 87T221 30T325 9Q380 9 429 30T514 87T571 171T592 276V705H610Z"  />
<glyph unicode="&#xFA;" horiz-adv-x="650" d="M610 705V276Q610 217 588 165T527 75T436 14T325 -9Q266 -9 214 13T124 74T63 165T40 276V705H58V276Q58 220 79 172T136 87T221 30T325 9Q380 9 429 30T514 87T571 171T592 276V705H610ZM280 785L384 888L396 876L292 773L280 785Z"  />
<glyph unicode="&#xFB;" horiz-adv-x="650" d="M610 705V276Q610 217 588 165T527 75T436 14T325 -9Q266 -9 214 13T124 74T63 165T40 276V705H58V276Q58 220 79 172T136 87T221 30T325 9Q380 9 429 30T514 87T571 171T592 276V705H610ZM423 778L332 868Q329 871 325 871Q321 871 318 868L228 778L216 790L306 880Q313 887 325 887Q337 887 344 880L435 790L423 778Z"  />
<glyph unicode="&#xFC;" horiz-adv-x="650" d="M261 841Q261 827 251 818T227 808Q213 808 204 817T194 841Q194 855 203 865T227 875Q241 875 251 865T261 841ZM454 841Q454 827 444 818T420 808Q406 808 397 817T387 841Q387 855 396 865T420 875Q434 875 444 865T454 841ZM610 705V276Q610 217 588 165T527 75T436 14T325 -9Q266 -9 214 13T124 74T63 165T40 276V705H58V276Q58 220 79 172T136 87T221 30T325 9Q380 9 429 30T514 87T571 171T592 276V705H610Z"  />
<glyph unicode="&#xFD;" horiz-adv-x="608" d="M276 323Q284 312 304 312Q313 312 321 314T333 323L587 705H608L347 313Q336 297 313 294V0H295V294Q272 297 262 313L0 705H21L276 323ZM252 785L356 888L368 876L264 773L252 785Z"  />
<glyph unicode="&#xFE;" horiz-adv-x="581" d="M58 625H299Q353 625 401 605T484 548T540 465T561 363Q561 309 541 261T485 178T401 122T299 101H58V0H40V705H58V625ZM58 607V119H299Q350 119 394 138T472 190T524 267T543 363Q543 413 524 457T472 535T395 587T299 607H58Z"  />
<glyph unicode="&#xFF;" horiz-adv-x="608" d="M243 841Q243 827 233 818T209 808Q195 808 186 817T176 841Q176 855 185 865T209 875Q223 875 233 865T243 841ZM436 841Q436 827 426 818T402 808Q388 808 379 817T369 841Q369 855 378 865T402 875Q416 875 426 865T436 841ZM276 323Q284 312 304 312Q313 312 321 314T333 323L587 705H608L347 313Q336 297 313 294V0H295V294Q272 297 262 313L0 705H21L276 323Z"  />
<glyph unicode="&#x131;" horiz-adv-x="118" d="M68 705V0H50V705H68Z"  />
<glyph unicode="&#x141;" horiz-adv-x="567" d="M0 349H232V331H0V349ZM58 705V36Q58 28 63 23T76 18H567V0H76Q61 0 51 10T40 36V705H58Z"  />
<glyph unicode="&#x142;" horiz-adv-x="567" d="M0 349H232V331H0V349ZM58 705V36Q58 28 63 23T76 18H567V0H76Q61 0 51 10T40 36V705H58Z"  />
<glyph unicode="&#x152;" horiz-adv-x="1278" d="M381 714Q456 714 522 686T637 608T714 493T743 352Q743 277 715 212T637 97T522 20T381 -9Q306 -9 241 19T126 97T49 211T20 352Q20 427 48 493T126 608T240 685T381 714ZM381 696Q310 696 248 669T139 596T65 486T38 352Q38 281 65 219T138 110T247 36T381 9Q452 9 515 36T624 109T698 218T725 352Q725 423 698 486T625 595T515 669T381 696ZM1258 0H725V669Q725 684 735 694T760 705H1251V687H760Q752 687 748 682T743 669V360H1258V342H743V18H1258V0Z"  />
<glyph unicode="&#x153;" horiz-adv-x="1278" d="M381 714Q456 714 522 686T637 608T714 493T743 352Q743 277 715 212T637 97T522 20T381 -9Q306 -9 241 19T126 97T49 211T20 352Q20 427 48 493T126 608T240 685T381 714ZM381 696Q310 696 248 669T139 596T65 486T38 352Q38 281 65 219T138 110T247 36T381 9Q452 9 515 36T624 109T698 218T725 352Q725 423 698 486T625 595T515 669T381 696ZM1258 0H725V669Q725 684 735 694T760 705H1251V687H760Q752 687 748 682T743 669V360H1258V342H743V18H1258V0Z"  />
<glyph unicode="&#x160;" horiz-adv-x="605" d="M204 887L295 797Q298 794 302 794Q306 794 309 797L399 887L411 875L321 785Q314 778 302 778Q290 778 283 785L192 875L204 887ZM539 559Q527 589 509 613T464 656T398 684T307 694Q267 694 224 687T144 662T83 617T59 545Q59 518 68 498T100 462T157 433T244 408L373 377Q430 363 470 347T535 308T573 255T585 185V177Q585 120 558 84T490 26T400 -3T310 -11Q251 -11 202 -2T115 27T53 81T20 162L38 166Q46 122 68 92T126 43T208 16T310 7Q349 7 394 14T477 40T541 92T567 177V185Q567 221 556 248T521 295T460 331T369 359L240 390Q136 415 89 449T41 545Q41 593 66 625T131 676T217 704T307 712Q363 712 404 701T474 671T522 624T555 565L539 559Z"  />
<glyph unicode="&#x161;" horiz-adv-x="605" d="M204 887L295 797Q298 794 302 794Q306 794 309 797L399 887L411 875L321 785Q314 778 302 778Q290 778 283 785L192 875L204 887ZM539 559Q527 589 509 613T464 656T398 684T307 694Q267 694 224 687T144 662T83 617T59 545Q59 518 68 498T100 462T157 433T244 408L373 377Q430 363 470 347T535 308T573 255T585 185V177Q585 120 558 84T490 26T400 -3T310 -11Q251 -11 202 -2T115 27T53 81T20 162L38 166Q46 122 68 92T126 43T208 16T310 7Q349 7 394 14T477 40T541 92T567 177V185Q567 221 556 248T521 295T460 331T369 359L240 390Q136 415 89 449T41 545Q41 593 66 625T131 676T217 704T307 712Q363 712 404 701T474 671T522 624T555 565L539 559Z"  />
<glyph unicode="&#x178;" horiz-adv-x="608" d="M243 841Q243 827 233 818T209 808Q195 808 186 817T176 841Q176 855 185 865T209 875Q223 875 233 865T243 841ZM436 841Q436 827 426 818T402 808Q388 808 379 817T369 841Q369 855 378 865T402 875Q416 875 426 865T436 841ZM276 323Q284 312 304 312Q313 312 321 314T333 323L587 705H608L347 313Q336 297 313 294V0H295V294Q272 297 262 313L0 705H21L276 323Z"  />
<glyph unicode="&#x17D;" horiz-adv-x="671" d="M234 887L325 797Q328 794 332 794Q336 794 339 797L429 887L441 875L351 785Q344 778 332 778Q320 778 313 785L222 875L234 887ZM651 0H28V20L600 648Q606 654 606 663Q606 673 600 680T583 687H20V705H583Q600 705 612 693T624 663Q624 648 614 636L51 18H651V0Z"  />
<glyph unicode="&#x17E;" horiz-adv-x="671" d="M234 887L325 797Q328 794 332 794Q336 794 339 797L429 887L441 875L351 785Q344 778 332 778Q320 778 313 785L222 875L234 887ZM651 0H28V20L600 648Q606 654 606 663Q606 673 600 680T583 687H20V705H583Q600 705 612 693T624 663Q624 648 614 636L51 18H651V0Z"  />
<glyph unicode="&#x192;" horiz-adv-x="345" d="M57 424H153Q155 459 159 494T173 564Q181 593 198 619T238 664T288 694T345 705V687Q319 687 294 677T249 650T213 609T191 560Q182 526 178 493T171 424H283V406H170Q167 363 167 317T166 226T160 137T142 57Q131 28 114 3T74 -41T25 -71T-30 -82V-64Q23 -64 64 -28T124 63Q138 102 142 142T148 225T149 313T152 406H57V424Z"  />
<glyph unicode="&#x2C6;" horiz-adv-x="98" d="M147 778L56 868Q53 871 49 871Q45 871 42 868L-48 778L-60 790L30 880Q37 887 49 887Q61 887 68 880L159 790L147 778Z"  />
<glyph unicode="&#x2C7;" horiz-adv-x="98" d="M-48 887L43 797Q46 794 50 794Q54 794 57 797L147 887L159 875L69 785Q62 778 50 778Q38 778 31 785L-60 875L-48 887Z"  />
<glyph unicode="&#x2DA;" horiz-adv-x="718" d="M385 841Q385 852 378 859T360 866Q350 866 343 859T336 841Q336 831 343 824T360 817Q371 817 378 824T385 841ZM403 841Q403 824 391 812T360 799Q343 799 331 811T318 841Q318 859 330 871T360 884Q378 884 390 872T403 841Z"  />
<glyph unicode="&#x2DC;" horiz-adv-x="676" d="M459 850Q459 841 455 831T443 813T423 799T393 793Q372 793 360 800T337 815Q328 822 318 828T291 834Q270 834 258 821T245 794H227Q227 813 244 832T291 852Q311 852 323 845T347 829Q355 822 365 817T393 811Q418 811 429 825T441 850H459Z"  />
<glyph unicode="&#x2DD;" horiz-adv-x="780" d="M280 790L384 893L396 881L292 778L280 790ZM384 790L488 893L500 881L396 778L384 790Z"  />
<glyph unicode="&#x3BC;" horiz-adv-x="650" d="M610 705V0H592V175Q577 134 551 101T489 43T413 5T325 -9Q279 -9 238 4T161 43T100 101T58 176V-83H40V705H58V276Q58 220 79 172T136 87T221 30T325 9Q380 9 429 30T514 87T571 171T592 276V705H610Z"  />
<glyph unicode="&#x2013;" horiz-adv-x="433" d="M40 262H393V244H40V262Z"  />
<glyph unicode="&#x2014;" horiz-adv-x="787" d="M40 262H747V244H40V262Z"  />
<glyph unicode="&#x2018;" horiz-adv-x="101" d="M69 540Q34 575 17 617T0 705H18Q18 663 33 624T81 552L69 540Z"  />
<glyph unicode="&#x2019;" horiz-adv-x="101" d="M20 552Q51 584 67 623T83 705H101Q101 660 84 618T32 540L20 552Z"  />
<glyph unicode="&#x201A;" horiz-adv-x="98" d="M58 86V-43H40V86H58Z"  />
<glyph unicode="&#x201C;" horiz-adv-x="164" d="M132 540Q97 575 80 617T63 705H81Q81 663 96 624T144 552L132 540ZM70 540Q35 575 18 617T0 705H18Q19 663 34 624T82 552L70 540Z"  />
<glyph unicode="&#x201D;" horiz-adv-x="164" d="M20 552Q51 584 67 623T83 705H101Q101 660 84 618T32 540L20 552ZM82 552Q114 584 129 623T146 705H164Q163 660 146 618T94 540L82 552Z"  />
<glyph unicode="&#x201E;" horiz-adv-x="159" d="M58 86V-43H40V86H58ZM119 86V-43H101V86H119Z"  />
<glyph unicode="&#x2020;" horiz-adv-x="427" d="M20 472H204V705H222V472H407V454H222V-92H204V454H20V472Z"  />
<glyph unicode="&#x2022;" horiz-adv-x="279" d="M239 353Q239 332 231 314T210 283T178 262T140 254Q98 254 69 282T40 353Q40 395 69 423T140 452Q160 452 178 445T209 424T231 392T239 353Z"  />
<glyph unicode="&#x2026;" horiz-adv-x="447" d="M58 86V0H40V86H58ZM233 86V0H215V86H233ZM407 86V0H389V86H407Z"  />
<glyph unicode="&#x2030;" horiz-adv-x="752" d="M43 598Q43 560 69 534T133 508Q171 508 197 534T223 598Q223 636 197 662T133 688Q95 688 69 662T43 598ZM25 598Q25 620 33 640T56 674T90 697T133 706Q155 706 175 698T209 675T232 640T241 598Q241 575 233 556T210 522T175 499T133 490Q110 490 91 498T57 521T34 555T25 598ZM459 109Q459 146 433 172T369 199Q331 199 305 173T279 109Q279 71 305 45T369 18Q407 18 433 44T459 109ZM477 109Q477 86 469 67T446 32T411 9T369 0Q346 0 327 8T293 32T270 66T261 109Q261 131 269 150T292 185T326 208T369 217Q391 217 411 209T445 185T468 151T477 109ZM0 7L496 716L510 706L14 -3L0 7ZM734 107Q734 144 708 170T644 197Q606 197 580 171T554 107Q554 69 580 43T644 16Q682 16 708 42T734 107ZM752 107Q752 84 744 65T721 30T686 7T644 -2Q621 -2 602 6T568 30T545 64T536 107Q536 129 544 148T567 183T601 206T644 215Q666 215 686 207T720 183T743 149T752 107Z"  />
<glyph unicode="&#x2039;" horiz-adv-x="321" d="M41 359Q36 357 36 352Q36 347 41 345L301 227V208L33 329Q20 336 20 352Q20 359 23 365T34 375H33L301 497V477L41 359Z"  />
<glyph unicode="&#x203A;" horiz-adv-x="321" d="M20 477V497L288 375H287Q294 372 297 366T301 352Q301 336 288 329L20 208V227L280 345Q285 347 285 352Q285 357 280 359L20 477Z"  />
<glyph unicode="&#x2044;" horiz-adv-x="470" d="M-20 7L476 716L490 706L-6 -3L-20 7Z"  />
<glyph unicode="&#x20AC;" horiz-adv-x="765" d="M1 421H89Q101 484 133 537T212 630T319 691T445 714Q535 714 609 675T735 568L721 558Q673 621 602 658T445 696Q382 696 326 675T226 618T151 531T108 421H384V403H105Q101 380 101 352Q101 338 102 326T105 301H384V283H108Q120 224 150 174T225 88T326 30T445 9Q539 9 616 54T738 174L754 164Q730 125 698 94T625 39T540 4T445 -9Q379 -9 320 13T213 75T134 167T89 283H1V301H86Q83 325 83 352Q83 377 86 403H1V421Z"  />
<glyph unicode="&#x2122;" horiz-adv-x="757" d="M355 348V705H374L532 364Q533 363 537 363Q540 363 540 364L698 705H717V348H699V664L556 356Q550 344 536 344Q522 344 516 356L373 664V348H355ZM154 348V687H10V705H315V687H172V348H154Z"  />
<glyph unicode="&#x2212;" horiz-adv-x="423" d="M20 262H403V244H20V262Z"  />
<glyph unicode="&#xFB01;" horiz-adv-x="684" d="M40 0V669Q40 684 50 694T76 705H540V687H76Q68 687 63 682T58 669V360H546V342H58V0H40ZM634 705V0H616V705H634Z"  />
<glyph unicode="&#xFB02;" horiz-adv-x="1133" d="M40 0V669Q40 684 50 694T76 705H540V687H76Q68 687 63 682T58 669V360H546V342H58V0H40ZM624 705V36Q624 28 629 23T642 18H1133V0H642Q627 0 617 10T606 36V705H624Z"  />

</font>
</defs>
</svg>
