<?xml  version="1.0" encoding="UTF-8"?>
<!DOCTYPE svg PUBLIC "-//W3C//DTD SVG 1.0//EN" "http://www.w3.org/TR/2001/REC-SVG-20010904/DTD/svg10.dtd" >
<svg xmlns="http://www.w3.org/2000/svg" >
<metadata>
<version>1.0</version>
<id><![CDATA[Nimbus Sans TW01Con]]></id>
<vendor>Monotype Imaging Inc.</vendor>
<credits>
<name>Fonts.com WebFonts</name>
<URL>http://webfonts.fonts.com</URL>
<role>Home of the Web fonts</role>
</credits>
<license>
<URL>http://webfonts.fonts.com/Legal</URL>
</license>
<copyright><![CDATA[(URW)++,Copyright 2003 by (URW)++ Design & Development]]></copyright>
<trademark><![CDATA[Please refer to the Copyright section for the font trademark attribution notices.]]></trademark>
<licensee>
<name></name>
</licensee>
</metadata>
<defs >
<font horiz-adv-x="423" id="24512b2a-e22d-4ebb-887c-a334d039433c">
<font-face font-family="" panose-1="4 0 5 6 0 0 0 0 0 0" ascent="754" descent="-246" units-per-em="1000" alphabetic="0">
</font-face>
<missing-glyph horiz-adv-x="0" />

<glyph unicode="&#xA;" />
<glyph unicode="&#xD;" horiz-adv-x="0" />
<glyph unicode=" " horiz-adv-x="187" />
<glyph unicode="!" horiz-adv-x="193" d="M140 0H53V93H140V0ZM77 160L56 462V660H137V462L116 160H77Z"  />
<glyph unicode="&quot;" horiz-adv-x="283" d="M174 427L163 667H241L230 427H174ZM53 427L42 667H121L109 427H53Z"  />
<glyph unicode="#" horiz-adv-x="447" d="M190 408L168 258H259L281 408H190ZM373 208H309L278 0H217L250 208H159L127 0H70L102 208H37L44 258H109L133 408H68L75 458H139L169 653H228L197 458H289L319 653H378L347 458H410L403 408H341L317 258H380L373 208Z"  />
<glyph unicode="$" horiz-adv-x="447" d="M244 53Q296 59 320 87T345 171Q345 195 341 212T326 242T296 265T249 286L244 287V53ZM201 601Q107 588 107 496Q107 453 128 427T197 386L201 385V601ZM244 369L290 353Q330 339 353 324T391 287Q422 244 422 177Q422 93 377 46T244 -9V-93H201V-9Q23 6 23 193V206H103Q102 200 102 194T102 186Q102 123 125 92T201 53V303L177 312Q138 326 111 342T68 378T44 424T36 484Q36 562 80 609T201 663V747H244V663Q404 647 405 478H329Q328 587 244 600V369Z"  />
<glyph unicode="%" horiz-adv-x="713" d="M562 370Q529 370 516 333T502 205Q502 157 505 125T515 76Q531 39 562 39Q595 39 608 76T622 203Q622 301 609 333Q593 370 562 370ZM562 419Q594 419 619 403T659 355Q680 310 680 202Q680 91 654 44Q623 -10 562 -10Q529 -10 504 6T464 54Q443 98 443 205Q443 320 469 365Q500 419 562 419ZM203 0H151L510 660H561L203 0ZM152 626Q119 626 106 589T92 460Q92 369 105 332T152 294Q185 294 198 331T212 458Q212 557 199 589Q192 606 180 616T152 626ZM152 674Q184 674 209 658T249 610Q270 565 270 458Q270 345 244 300Q213 246 152 246Q119 246 94 262T54 310Q43 332 38 370T33 460Q33 577 59 620Q90 674 152 674Z"  />
<glyph unicode="&amp;" horiz-adv-x="537" d="M208 326Q182 307 165 291T136 259T121 225T116 187Q116 158 125 134T152 91T193 63T243 52Q278 52 304 67T357 117L208 326ZM230 415Q272 447 288 472T304 528Q304 560 287 579T241 599Q214 599 196 581T178 533Q178 521 180 510T188 486T204 456T230 415ZM483 305Q482 256 469 207T435 123L521 0H440L393 65Q355 24 318 7T234 -10Q193 -10 159 4T99 44T59 104T44 180Q44 263 106 322Q119 335 132 346T172 378Q154 403 142 423T123 461T112 495T109 529Q109 558 119 582T147 623T190 650T245 660Q302 660 337 625T373 531Q373 507 368 487T351 448T318 408T266 363L393 181Q402 200 408 233T415 305H483Z"  />
<glyph unicode="&apos;" horiz-adv-x="163" d="M53 427L42 667H121L109 427H53Z"  />
<glyph unicode="(" horiz-adv-x="274" d="M189 -160Q150 -100 123 -49T80 52T57 151T50 261Q50 315 57 365T79 465T118 564T175 667H229Q177 585 152 487T127 264Q127 198 133 142T153 35T189 -63T242 -160H189Z"  />
<glyph unicode=")" horiz-adv-x="274" d="M85 667Q124 607 151 556T194 455T217 356T224 246Q224 192 217 142T195 42T156 -58T99 -160H45Q97 -78 122 20T147 243Q147 309 141 365T121 472T85 570T32 667H85Z"  />
<glyph unicode="*" horiz-adv-x="365" d="M205 560L306 596L321 548L218 518L284 433L243 403L183 492L122 403L81 433L147 518L44 548L60 596L161 560L157 667H208L205 560Z"  />
<glyph unicode="+" horiz-adv-x="447" d="M406 308H251V147H196V308H41V361H196V519H251V361H406V308Z"  />
<glyph unicode="&#x2c;" horiz-adv-x="192" d="M142 97V7Q142 -53 120 -88T50 -138V-89Q73 -78 82 -57T91 0H50V97H142Z"  />
<glyph unicode="-" horiz-adv-x="187" d="M187 225H0V295H187V225Z"  />
<glyph unicode="." horiz-adv-x="192" d="M142 0H50V97H142V0Z"  />
<glyph unicode="/" horiz-adv-x="302" d="M48 -160H-11L211 667H270L48 -160Z"  />
<glyph unicode="0" horiz-adv-x="447" d="M224 602Q161 602 137 529Q128 503 123 450T118 327Q118 169 141 114Q168 52 224 52Q286 52 310 125Q319 151 324 203T329 324Q329 485 306 540Q280 602 224 602ZM224 664Q275 664 313 639T374 564Q406 494 406 323Q406 146 366 75Q343 33 307 12T224 -10Q119 -10 73 90Q41 162 41 327Q41 419 51 480T81 579Q127 664 224 664Z"  />
<glyph unicode="1" horiz-adv-x="447" d="M86 483V540Q94 539 101 539T113 539Q175 539 204 568T235 660H301V0H224V483H86Z"  />
<glyph unicode="2" horiz-adv-x="447" d="M401 0H44V1V9Q45 57 53 93T79 162T127 226T203 293Q238 321 260 343T295 385T312 428T317 478Q317 535 291 566T217 597Q144 597 122 526Q120 520 119 514T117 497T116 473T115 437H44V460Q44 559 89 611T221 664Q302 664 348 614T394 475Q394 441 388 414T367 361T325 308T258 248Q221 219 196 196T155 151T131 110T120 67H401V0Z"  />
<glyph unicode="3" horiz-adv-x="447" d="M175 375Q182 374 190 374T200 374Q259 374 285 401T311 490Q311 602 218 602Q168 602 147 572T124 467H52Q54 512 59 539T76 588Q96 625 133 644T221 664Q299 664 343 620T388 496Q388 439 365 403T291 348Q354 336 383 299T412 192Q412 98 362 44T224 -10Q134 -10 88 42T41 195H115Q114 190 114 186T114 179Q114 120 143 86T223 52Q274 52 304 89T335 189Q335 222 325 249T295 293Q280 305 260 310T205 315Q202 315 193 315T175 314V375Z"  />
<glyph unicode="4" horiz-adv-x="447" d="M282 545L107 234H282V545ZM40 167V234L279 660H354V234H418V167H354V0H282V167H40Z"  />
<glyph unicode="5" horiz-adv-x="447" d="M132 397Q157 417 181 425T234 434Q313 434 358 378T404 223Q404 115 354 53T215 -10Q165 -10 127 11T65 71Q42 109 41 177H115Q116 116 141 84T214 52Q268 52 297 96T327 222Q327 295 299 333T214 372Q143 372 125 309L55 316L94 653H381V586H156L132 397Z"  />
<glyph unicode="6" horiz-adv-x="447" d="M228 365Q178 365 149 323T120 208Q120 133 148 91T226 48Q274 48 303 90T332 204Q332 279 304 322T228 365ZM319 505Q314 557 295 579T235 602Q174 602 145 542T112 347Q141 388 171 405T243 423Q281 423 311 409T364 367T397 302T409 215Q409 164 396 123T360 52T303 6T228 -10Q118 -10 72 95Q56 131 49 186T41 320Q41 420 54 485T96 592Q145 664 235 664Q306 664 345 624T390 505H319Z"  />
<glyph unicode="7" horiz-adv-x="447" d="M408 586Q359 516 320 441T253 290T209 141T192 0H108Q121 148 175 291T331 586H39V653H408V586Z"  />
<glyph unicode="8" horiz-adv-x="447" d="M223 325Q173 325 147 290T120 189Q120 123 146 88T224 52Q273 52 300 87T327 186Q327 254 301 289T223 325ZM223 602Q181 602 157 574T133 494Q133 443 157 415T224 386Q266 386 290 414T314 493Q314 544 290 573T223 602ZM301 360Q404 317 404 187Q404 95 356 43T224 -10Q139 -10 91 42T43 187Q43 317 146 360Q102 380 82 413T62 499Q62 575 105 619T224 664Q299 664 342 620T385 498Q385 446 365 413T301 360Z"  />
<glyph unicode="9" horiz-adv-x="447" d="M219 606Q171 606 142 564T113 450Q113 375 141 332T217 289Q267 289 296 331T325 446Q325 521 297 563T219 606ZM126 148Q131 97 150 75T209 52Q245 52 271 74T311 139Q316 155 320 172T326 208T330 252T333 307Q304 265 275 248T203 231Q126 231 81 287T36 438Q36 489 49 531T85 602T142 648T218 664Q327 664 374 559Q389 524 396 469T404 333Q404 233 391 168T349 62Q299 -10 210 -10Q139 -10 100 30T55 148H126Z"  />
<glyph unicode=":" horiz-adv-x="192" d="M142 0H50V97H142V0ZM142 396H50V493H142V396Z"  />
<glyph unicode=";" horiz-adv-x="192" d="M142 396H50V493H142V396ZM142 97V7Q142 -53 120 -88T50 -138V-89Q73 -78 82 -57T91 0H50V97H142Z"  />
<glyph unicode="&lt;" horiz-adv-x="500" d="M466 499L110 337L466 174V103L33 306V368L466 570V499Z"  />
<glyph unicode="=" horiz-adv-x="447" d="M406 224H41V277H406V224ZM406 390H41V443H406V390Z"  />
<glyph unicode="&gt;" horiz-adv-x="500" d="M34 174L390 337L34 499V570L467 367V305L34 103V174Z"  />
<glyph unicode="?" horiz-adv-x="403" d="M239 0H152V93H239V0ZM159 163Q158 174 158 179T158 191Q158 218 161 238T172 277T195 318T236 370Q254 391 265 407T282 437T291 465T294 496Q294 547 270 577T202 607Q139 607 116 547Q111 532 109 514T107 465H32Q33 511 38 540T57 594Q102 674 203 674Q280 674 325 627T371 499Q371 476 368 457T355 419T330 378T289 327Q269 304 258 289T240 262T233 236T231 204Q231 195 231 186T232 163H159Z"  />
<glyph unicode="@" horiz-adv-x="645" d="M333 444Q316 445 300 434T272 403T252 357T244 303Q244 257 260 229T304 200Q321 200 336 212T362 244T380 291T387 351Q387 394 373 418T333 444ZM480 496L439 282Q436 268 435 256T433 236Q433 218 438 207T454 196Q472 196 488 211T517 253T538 312T546 381Q546 433 530 477T486 554T418 605T333 623Q284 623 242 601T169 539T120 447T102 332Q102 214 165 128Q226 45 338 45Q386 45 426 56T512 93L529 37Q483 12 437 0T338 -12Q272 -12 218 13T125 86Q85 136 64 199T42 332Q42 405 64 468T126 579T218 652T332 679Q390 679 439 657T525 594T582 500T603 383Q603 335 591 292T557 215T508 163T450 143Q403 143 388 199Q370 170 345 155T293 139Q268 139 247 151T210 185T186 237T177 302Q177 344 189 381T221 447T269 491T327 508Q356 508 375 494T410 446L419 496H480Z"  />
<glyph unicode="A" horiz-adv-x="502" d="M280 464Q274 485 271 499T264 526T257 554T247 592Q239 560 232 531T214 464L157 258H338L280 464ZM138 191L86 0H5L197 667H298L496 0H411L356 191H138Z"  />
<glyph unicode="B" horiz-adv-x="493" d="M244 63Q311 63 342 94T374 191Q374 257 343 288T244 319H141V63H244ZM242 379Q272 379 291 384T324 404Q354 434 354 492Q354 519 346 542T324 579Q310 593 291 598T240 604H141V379H242ZM62 667H242Q297 667 327 660T380 633Q406 611 419 576T433 497Q433 442 414 410T351 357Q404 340 428 301T453 194Q453 97 399 46Q373 20 337 10T238 0H62V667Z"  />
<glyph unicode="C" horiz-adv-x="481" d="M368 471Q360 616 254 616Q185 616 154 554T122 358Q122 275 129 217T153 122T194 68T254 51Q372 51 375 242H452Q442 -12 253 -12Q144 -12 94 72T43 340Q43 440 57 505T104 610Q159 679 257 679Q342 679 391 625T445 471H368Z"  />
<glyph unicode="D" horiz-adv-x="513" d="M210 63Q241 63 263 65T302 74T330 90T351 115Q360 130 367 153T380 206T388 268T391 335Q391 413 378 475T344 565Q327 587 303 595T233 604H141V63H210ZM62 667H228Q268 667 297 664T349 652T386 631T416 598Q442 559 456 492T470 337Q470 235 451 162T393 50Q366 23 329 12T230 0H62V667Z"  />
<glyph unicode="E" horiz-adv-x="468" d="M419 597H141V383H408V316H141V70H429V0H62V667H419V597Z"  />
<glyph unicode="F" horiz-adv-x="424" d="M403 597H131V370H383V300H131V0H52V667H403V597Z"  />
<glyph unicode="G" horiz-adv-x="507" d="M459 345V0H400Q399 11 398 18T397 32T395 44T391 62Q361 21 330 5T253 -12Q199 -12 157 12T88 85Q44 165 44 341Q44 435 57 498T97 600Q153 679 264 679Q447 679 455 469H377Q372 615 261 615Q181 615 148 535Q123 478 123 337Q123 189 156 122T261 55Q343 55 372 144Q379 167 382 198T386 278H245V345H459Z"  />
<glyph unicode="H" horiz-adv-x="519" d="M141 324V0H62V667H141V391H378V667H457V0H378V324H141Z"  />
<glyph unicode="I" horiz-adv-x="203" d="M141 0H62V667H141V0Z"  />
<glyph unicode="J" horiz-adv-x="379" d="M318 667V200Q318 165 317 141T313 100T305 70T291 45Q273 19 238 4T161 -12Q83 -12 45 34T7 177Q7 182 7 192T8 213H83Q83 183 83 166T84 139T86 123T90 110Q105 55 162 55Q182 55 199 63T224 86Q232 101 235 122T239 180V667H318Z"  />
<glyph unicode="K" horiz-adv-x="504" d="M492 0H400L215 324L141 228V0H62V667H141V333L384 667H479L265 389L492 0Z"  />
<glyph unicode="L" horiz-adv-x="434" d="M141 70H415V0H62V667H141V70Z"  />
<glyph unicode="M" horiz-adv-x="655" d="M295 0L169 444Q158 482 149 515T131 582Q132 553 133 532T134 493T135 462T135 434V0H62V667H183L295 252L308 205L323 144Q325 137 327 128T331 107Q336 136 343 167T363 247L473 667H593V0H520V434Q520 451 520 472T521 513T522 552T524 582Q522 574 521 568T518 560Q516 551 514 542T509 522Q507 516 500 489T485 434L363 0H295Z"  />
<glyph unicode="N" horiz-adv-x="519" d="M357 0L173 454Q159 489 148 519T128 575Q131 543 133 506T135 441V0H62V667H165L339 229Q350 202 357 183T370 149T380 122T388 97Q386 140 385 174T384 245V667H457V0H357Z"  />
<glyph unicode="O" horiz-adv-x="510" d="M255 612Q184 612 153 547T122 334Q122 185 153 120T255 55Q325 55 356 119T387 331Q387 407 380 460T357 547T316 596T255 612ZM255 679Q317 679 361 652T431 570Q448 532 457 471T466 330Q466 246 455 183T423 82Q370 -12 255 -12Q193 -12 148 16T78 98Q61 134 52 195T43 334Q43 419 54 483T86 585Q139 679 255 679Z"  />
<glyph unicode="P" horiz-adv-x="455" d="M233 347Q292 347 319 377T347 472Q347 537 320 567T233 597H141V347H233ZM141 0H62V667H235Q280 667 310 659T362 634Q393 610 409 569T426 474Q426 380 380 330T246 280H141V0Z"  />
<glyph unicode="Q" horiz-adv-x="510" d="M363 131Q374 163 380 214T387 332Q387 407 380 460T356 547T315 596T255 612Q184 612 153 547T122 333Q122 259 129 206T153 120T194 71T254 55Q276 55 292 60T326 77L260 131L301 181L363 131ZM494 25L453 -26L382 31Q355 9 324 -1T254 -12Q193 -12 148 15T78 97Q61 134 52 195T43 334Q43 420 54 483T86 585Q139 679 255 679Q379 679 431 570Q448 533 457 472T466 333Q466 162 423 82L494 25Z"  />
<glyph unicode="R" horiz-adv-x="500" d="M244 365Q355 365 355 485Q355 604 244 604H141V365H244ZM141 0H62V667H249Q301 667 333 658T388 625Q434 579 434 494Q434 430 409 392T328 335Q356 329 376 319T408 291T425 247T432 185L433 111Q434 89 436 73T441 44T451 21T467 0H374Q364 26 360 51T355 111L354 173Q354 211 348 236T328 275T289 296T229 302H141V0Z"  />
<glyph unicode="S" horiz-adv-x="479" d="M346 488Q344 555 318 585T234 616Q180 616 150 587T120 507Q120 462 141 437T213 393L306 360Q348 345 371 330T411 292Q426 269 434 242T442 179Q442 88 388 38T237 -12Q132 -12 83 42T33 209H114V184Q114 51 238 51Q363 51 363 173Q363 198 359 215T343 246T313 269T265 291L190 317Q150 331 123 347T79 385T55 432T47 494Q47 580 98 629T238 679Q295 679 337 657T402 594Q413 573 418 549T424 488H346Z"  />
<glyph unicode="T" horiz-adv-x="425" d="M253 0H174V600H7V667H419V600H253V0Z"  />
<glyph unicode="U" horiz-adv-x="508" d="M446 667V220Q446 160 438 124T409 59Q385 25 345 7T254 -12Q204 -12 164 6T99 59Q79 87 71 123T62 220V667H141V213Q141 162 147 135T169 90Q183 73 205 64T254 55Q280 55 302 64T339 90Q355 108 361 134T367 213V667H446Z"  />
<glyph unicode="V" horiz-adv-x="488" d="M194 0L7 667H95L212 223Q216 208 220 190T229 152T237 115T243 85Q250 114 260 153T278 223L396 667H482L291 0H194Z"  />
<glyph unicode="W" horiz-adv-x="708" d="M152 0L10 667H91L175 237Q180 211 184 191T190 153T195 118T199 80Q203 115 208 150T225 239L309 667H400L489 251Q497 214 503 173T516 80Q522 134 527 173T539 251L617 667H698L557 0H471L385 395Q380 419 376 437T369 474T362 513T354 563Q351 537 343 491T325 394L247 0H152Z"  />
<glyph unicode="X" horiz-adv-x="484" d="M478 0H384L242 273L98 0H7L196 341L16 667H107L242 413L376 667H466L286 341L478 0Z"  />
<glyph unicode="Y" horiz-adv-x="449" d="M260 0H181V267L0 667H88L182 447Q190 429 194 419T201 402T204 393T208 384L224 345Q232 365 244 395T266 447L362 667H449L260 267V0Z"  />
<glyph unicode="Z" horiz-adv-x="463" d="M426 599L113 70H434V0H19V56L335 597H52V667H426V599Z"  />
<glyph unicode="[" horiz-adv-x="261" d="M132 614V-107H219V-160H60V667H219V614H132Z"  />
<glyph unicode="\" horiz-adv-x="302" d="M91 667L313 -160H254L32 667H91Z"  />
<glyph unicode="]" horiz-adv-x="261" d="M201 667V-160H42V-107H130V614H42V667H201Z"  />
<glyph unicode="^" horiz-adv-x="500" d="M26 366L203 669H298L475 366H397L250 612L104 366H26Z"  />
<glyph unicode="_" horiz-adv-x="500" d="M500 -66V-132H0V-66H500Z"  />
<glyph unicode="`" horiz-adv-x="500" d="M280 540H222L113 667H222L280 540Z"  />
<glyph unicode="a" horiz-adv-x="420" d="M286 255Q278 251 271 248T257 243T240 237T216 230Q196 224 183 220T161 213T147 207T136 200Q107 178 107 132Q107 92 125 71T179 49Q204 49 226 60T262 92Q276 111 281 133T286 200V255ZM49 357Q49 432 86 467T203 503Q278 503 318 468Q337 451 345 426T353 357V126Q353 106 353 94T354 75T356 64T361 57Q368 48 385 48Q387 48 389 48T397 49V0Q386 -2 381 -2T367 -3Q300 -3 286 62Q240 -10 162 -10Q105 -10 70 27T34 127Q34 162 47 190T83 235Q92 241 101 246T122 256T153 266T197 277Q227 284 244 290T271 304T284 325T287 355Q287 402 267 423T201 444Q169 444 149 433T121 401Q118 392 117 384T116 357H49Z"  />
<glyph unicode="b" horiz-adv-x="422" d="M217 444Q167 444 144 397T121 248Q121 147 144 100T217 52Q267 52 290 99T314 245Q314 348 291 396T217 444ZM126 667V449Q151 478 176 490T234 503Q309 503 348 439T387 249Q387 125 347 59T232 -7Q197 -7 173 6T121 55V0H54V667H126Z"  />
<glyph unicode="c" horiz-adv-x="385" d="M294 339Q291 445 208 445Q154 445 131 400T108 251Q108 142 131 96T208 49Q253 49 274 79T296 177L366 176Q365 85 325 38T207 -10Q119 -10 77 54T35 253Q35 381 77 442T209 503Q281 503 320 462T362 339H294Z"  />
<glyph unicode="d" horiz-adv-x="421" d="M204 444Q154 444 131 397T108 248Q108 146 131 99T204 52Q254 52 277 98T300 245Q300 350 278 397T204 444ZM367 0H300V58Q279 24 253 9T191 -7Q114 -7 75 58T35 251Q35 376 74 439T191 503Q223 503 247 491T295 449V667H367V0Z"  />
<glyph unicode="e" horiz-adv-x="395" d="M286 298Q286 444 199 444Q155 444 133 407T108 298H286ZM107 243Q107 141 130 95T204 49Q284 49 290 165H356Q353 82 313 36T202 -10Q116 -10 76 54T35 254Q35 317 43 359T72 434Q92 467 125 485T199 503Q276 503 317 444T359 275Q359 270 359 262T358 243H107Z"  />
<glyph unicode="f" horiz-adv-x="231" d="M15 438V493H81V549Q81 614 107 640T200 667H225V605H209Q176 605 165 593T153 546V493H225V438H153V0H81V438H15Z"  />
<glyph unicode="g" horiz-adv-x="420" d="M203 444Q180 444 161 432T131 399Q119 375 114 339T108 248Q108 193 113 158T131 97Q141 77 161 65T204 52Q227 52 246 64T276 97Q288 122 293 157T299 245Q299 303 294 339T276 399Q266 419 246 431T203 444ZM366 493V47Q366 16 365 -6T360 -44T352 -73T339 -98Q319 -128 283 -144T197 -160Q127 -160 92 -133T48 -46H117Q127 -107 198 -107Q254 -107 276 -78T299 23V47Q275 18 250 6T191 -7Q158 -7 129 6T81 44Q57 75 46 122T35 244Q35 503 188 503Q226 503 251 488T299 438V493H366Z"  />
<glyph unicode="h" horiz-adv-x="418" d="M126 667V437Q151 471 177 485T242 500Q301 500 335 460Q352 440 358 414T364 334V0H292V319Q292 343 292 358T289 384T284 402T275 417Q257 441 221 441Q198 441 179 431T147 404Q135 387 131 365T126 305V0H54V667H126Z"  />
<glyph unicode="i" horiz-adv-x="180" d="M126 577H54V667H126V577ZM126 0H54V493H126V0Z"  />
<glyph unicode="j" horiz-adv-x="190" d="M136 577H64V667H136V577ZM136 493V-7Q136 -52 131 -82T111 -129T72 -153T11 -160H-15V-100H9Q25 -100 36 -96T53 -82T61 -55T64 -10V493H136Z"  />
<glyph unicode="k" horiz-adv-x="418" d="M415 0H329L191 251L126 176V0H54V667H126V265L315 493H400L237 305L415 0Z"  />
<glyph unicode="l" horiz-adv-x="180" d="M126 0H54V667H126V0Z"  />
<glyph unicode="m" horiz-adv-x="654" d="M121 493V438Q151 473 178 486T244 500Q286 500 312 484T356 431Q385 469 413 484T480 500Q541 500 572 460Q580 449 585 438T594 413T598 380T600 334V0H528V328Q528 368 525 386T514 416Q506 427 492 434T459 441Q418 441 390 411Q375 395 370 378T365 328V0H293V328Q293 363 291 381T280 411Q272 425 256 433T220 441Q179 441 152 414Q136 398 131 381T126 328V0H54V493H121Z"  />
<glyph unicode="n" horiz-adv-x="418" d="M121 493V437Q147 471 175 485T241 500Q270 500 294 490T335 460Q344 449 349 438T358 413T362 380T364 334V0H292V319Q292 343 292 358T289 384T284 402T275 417Q257 441 221 441Q198 441 179 431T147 404Q135 387 131 365T126 305V0H54V493H121Z"  />
<glyph unicode="o" horiz-adv-x="407" d="M203 444Q152 444 130 398T108 247Q108 142 130 96T203 49Q253 49 275 95T298 244Q298 351 276 397T203 444ZM203 503Q371 503 371 242Q371 118 329 54T203 -10Q119 -10 77 54T35 247Q35 374 77 438T203 503Z"  />
<glyph unicode="p" horiz-adv-x="421" d="M216 444Q167 444 144 397T121 248Q121 147 144 100T217 52Q265 52 288 99T312 245Q312 348 289 396T216 444ZM121 493V441Q144 474 170 488T231 503Q307 503 346 439T385 248Q385 123 345 58T229 -7Q197 -7 173 5T126 46V-160H54V493H121Z"  />
<glyph unicode="q" horiz-adv-x="425" d="M206 444Q155 444 132 396T108 248Q108 148 131 100T206 52Q256 52 280 99T304 246Q304 349 281 396T206 444ZM371 493V-160H299V46Q274 17 249 5T191 -7Q115 -7 75 57T35 246Q35 374 75 438T193 503Q229 503 254 489T304 439V493H371Z"  />
<glyph unicode="r" horiz-adv-x="265" d="M126 493V433Q139 452 152 465T180 487T213 498T255 500V424Q247 426 242 426T229 426Q173 426 150 395T126 291V0H54V493H126Z"  />
<glyph unicode="s" horiz-adv-x="368" d="M265 361Q265 406 248 425T188 444Q108 444 108 370Q108 355 111 345T122 327T143 313T179 298L244 275Q298 256 321 225T345 142Q345 68 304 29T187 -10Q127 -10 87 14T36 80Q32 96 31 111T29 150H99Q98 96 119 73T187 49Q230 49 254 71T278 132Q278 148 274 162T261 184Q253 192 243 197T205 213L147 234Q88 255 65 284T41 363Q41 430 80 466T190 503Q284 503 318 441Q326 427 329 410T335 361H265Z"  />
<glyph unicode="t" horiz-adv-x="237" d="M225 438H147V144Q147 108 149 94T160 71Q171 58 198 58Q203 58 209 58T229 60V0Q214 -2 205 -2T185 -2Q152 -2 132 3T99 22Q92 29 88 38T80 61T76 92T75 137V438H9V493H75V623H147V493H225V438Z"  />
<glyph unicode="u" horiz-adv-x="418" d="M364 0H297V56Q271 22 243 8T177 -7Q148 -7 124 3T83 33Q74 43 69 54T60 80T56 113T54 159V493H126V174Q126 150 126 135T129 109T134 91T143 76Q161 52 197 52Q220 52 239 62T271 89Q283 106 287 128T292 188V493H364V0Z"  />
<glyph unicode="v" horiz-adv-x="366" d="M144 0L-3 493H77L152 216Q159 190 163 172T171 140T178 112T184 82Q187 98 190 111T196 138T205 171T217 216L297 493H370L218 0H144Z"  />
<glyph unicode="w" horiz-adv-x="570" d="M122 0L0 493H78L137 222Q142 195 145 178T152 147T157 119T163 82Q165 90 165 96T166 106Q168 115 169 124T171 143Q174 163 177 180T185 222L238 493H322L377 222Q381 201 383 188T388 161T393 130T399 82Q405 113 412 145T430 220L496 493H570L437 0H362L302 280Q298 299 295 315T290 345T285 375T280 409Q277 388 274 372T269 342T264 313T258 280L201 0H122Z"  />
<glyph unicode="x" horiz-adv-x="389" d="M393 0H308L191 197L81 0H-3L152 256L5 493H90L194 319L291 493H374L232 258L393 0Z"  />
<glyph unicode="y" horiz-adv-x="386" d="M390 493L223 -29Q211 -67 198 -92T170 -133T134 -154T85 -160Q54 -160 33 -154V-94Q57 -101 78 -101Q134 -101 152 -23L157 0L-3 493H78L157 224Q168 186 177 150T196 79Q209 132 218 167T233 225L312 493H390Z"  />
<glyph unicode="z" horiz-adv-x="333" d="M309 425L96 63H322V0H11V58L230 430H34V493H309V425Z"  />
<glyph unicode="{" horiz-adv-x="326" d="M165 369Q165 322 153 297T108 254Q140 235 152 209T165 135V-8Q165 -41 170 -59T187 -90Q195 -98 211 -102T248 -107H259V-160H242Q201 -160 173 -152T127 -127T101 -82T93 -13V133Q93 176 81 197T36 227V280Q67 289 80 310T93 373V530Q93 604 127 635T243 667H259V614H248Q228 614 210 608T184 593Q173 582 169 565T165 518V369Z"  />
<glyph unicode="|" horiz-adv-x="500" d="M286 667V-167H214V667H286Z"  />
<glyph unicode="}" horiz-adv-x="326" d="M161 138Q161 185 173 210T218 254Q186 272 174 298T161 372V515Q161 548 156 566T139 597Q131 605 115 609T78 614H67V667H84Q125 667 153 659T199 634T225 589T233 520V374Q233 331 245 310T290 280V227Q259 218 246 197T233 134V-23Q233 -97 199 -128T83 -160H67V-107H78Q98 -107 116 -101T142 -86Q153 -75 157 -58T161 -11V138Z"  />
<glyph unicode="~" horiz-adv-x="667" d="M93 611Q125 675 155 700T230 725Q250 725 276 717T342 691Q363 681 377 675T402 665T421 660T439 659Q468 659 487 674T530 727L574 701Q559 672 547 655T519 624Q500 608 477 599T430 590Q419 590 409 592T383 599T346 613T290 638Q249 656 224 656Q198 656 178 639T136 583L93 611Z"  />
<glyph unicode="&#xA0;" horiz-adv-x="187" />
<glyph unicode="&#xA1;" horiz-adv-x="193" d="M53 493H140V400H53V493ZM116 333L137 31V-167H56V31L77 333H116Z"  />
<glyph unicode="&#xA2;" horiz-adv-x="447" d="M209 536Q167 527 149 483T131 344Q131 245 148 200T209 144V536ZM252 144Q287 152 303 181T320 270L389 269Q390 187 355 140T252 84V-20H209V84Q131 92 95 155T58 346Q58 466 94 526T209 596V687H252V596Q315 590 349 548T385 432H317Q317 524 252 537V144Z"  />
<glyph unicode="&#xA3;" horiz-adv-x="447" d="M309 298H180Q192 262 192 233Q192 193 175 158T117 80Q144 88 161 90T195 93Q205 93 213 92T232 89T256 82T291 70Q312 62 327 62Q342 62 358 68T400 91L429 37Q368 0 319 0Q302 0 285 3T239 17Q212 25 198 28T166 31Q135 31 111 22T58 -10L18 47Q73 91 97 130T121 215Q121 238 116 257T99 298H18V340H77Q54 380 45 410T36 475Q36 516 49 551T87 611T146 650T220 664Q276 664 318 641T383 576Q395 553 400 529T406 461H334Q335 465 335 468T335 472Q335 534 306 568T222 602Q168 602 138 568T107 473Q107 446 119 417T162 340H309V298Z"  />
<glyph unicode="&#xA4;" horiz-adv-x="447" d="M224 435Q201 435 181 427T147 404T124 369T115 326Q115 304 123 285T147 250T181 227T223 218Q245 218 264 226T299 250T322 284T331 326Q331 348 323 368T300 403T266 426T224 435ZM93 232Q61 276 61 326Q61 375 94 421L29 485L63 518L127 455Q150 472 173 480T223 488Q249 488 272 480T318 455L382 518L416 485L352 421Q385 375 385 326Q385 277 353 232L417 168L384 134L320 198Q276 165 224 165Q174 165 128 198L64 134L31 168L93 232Z"  />
<glyph unicode="&#xA5;" horiz-adv-x="447" d="M255 0H183V232H32V274H174L132 366H22V408H113L2 653H87L180 433Q189 413 194 402T203 380T211 360T222 332Q231 355 242 382T264 433L360 653H445L328 408H425V366H308L265 274H415V232H255V0Z"  />
<glyph unicode="&#xA6;" horiz-adv-x="500" d="M286 153V-167H214V153H286ZM286 667V334H214V667H286Z"  />
<glyph unicode="&#xA7;" horiz-adv-x="468" d="M180 387Q114 347 114 295Q114 281 119 269T135 244T166 216T216 180L290 130Q355 176 355 224Q355 238 351 250T337 274T309 300T264 332L180 387ZM307 520Q306 617 226 617Q189 617 167 597T145 541Q145 526 148 516T160 494T185 471T228 440L305 389Q329 373 343 363T366 347T381 334T394 321Q426 286 426 236Q426 195 403 161T331 96Q366 69 381 42T396 -21Q396 -54 384 -81T351 -128T299 -159T233 -170Q198 -170 168 -159T116 -128T82 -81T70 -20V-6H142V-15Q142 -59 167 -84T235 -110Q276 -110 300 -87T324 -24Q324 -9 322 1T311 22T286 45T244 75L153 136Q122 157 101 175T66 211T48 246T42 285Q42 327 64 359T136 419Q102 447 88 474T73 536Q73 600 115 638T228 677Q272 677 305 661T358 614Q369 596 373 575T379 520H307Z"  />
<glyph unicode="&#xA8;" horiz-adv-x="500" d="M366 577H295V667H366V577ZM207 577H135V667H207V577Z"  />
<glyph unicode="&#xA9;" horiz-adv-x="706" d="M357 640Q300 640 251 616T164 551T106 454T85 333Q85 270 106 215T164 117T249 51T354 27Q409 27 457 51T542 117T600 215T621 334Q621 397 600 452T543 549T459 615T357 640ZM358 679Q421 679 476 652T573 577T639 467T664 333Q664 262 640 199T573 89T475 15T354 -12Q289 -12 233 15T134 89T67 199T42 333Q42 405 66 468T133 578T234 652T358 679ZM418 410Q414 491 354 491Q316 491 298 457T280 350Q280 260 297 221T354 182Q421 182 421 289H473Q466 140 353 140Q288 140 258 188T228 341Q228 440 258 486T355 533Q408 533 437 502T468 410H418Z"  />
<glyph unicode="&#xAA;" horiz-adv-x="293" d="M250 315H43V362H250V315ZM181 541Q171 537 167 536T151 532Q134 527 124 523T108 515T100 504T98 489Q98 453 131 453Q156 453 170 472Q177 480 179 490T181 522V541ZM57 594Q56 596 56 599Q54 637 76 657T143 677Q188 677 207 659T227 599V486Q227 462 228 458T238 453Q240 453 242 453T250 455V419Q242 418 238 418T229 417Q198 417 185 443Q169 426 155 420T121 413Q89 413 69 433T49 486Q49 525 77 544Q87 551 98 554T139 565Q168 572 175 577T182 598Q182 619 173 628T142 637Q120 637 111 629T102 602Q102 598 103 594H57Z"  />
<glyph unicode="&#xAB;" horiz-adv-x="377" d="M170 350L82 261L170 171V88L35 224V293L170 432V350ZM330 350L242 261L330 171V88L195 224V293L330 432V350Z"  />
<glyph unicode="&#xAC;" horiz-adv-x="500" d="M394 200H33V267H466V0H394V200Z"  />
<glyph unicode="&#xAD;" horiz-adv-x="187" d="M187 225H0V295H187V225Z"  />
<glyph unicode="&#xAE;" horiz-adv-x="706" d="M357 640Q300 640 251 616T164 551T106 454T85 333Q85 270 106 215T164 117T249 51T354 27Q409 27 457 51T542 117T600 215T621 334Q621 397 600 452T543 549T459 615T357 640ZM358 679Q421 679 476 652T573 577T639 467T664 333Q664 262 640 199T573 89T475 15T354 -12Q289 -12 233 15T134 89T67 199T42 333Q42 405 66 468T133 578T234 652T358 679ZM352 358Q414 358 414 421Q414 485 352 485H296V358H352ZM296 147H244V527H355Q466 527 466 427Q466 360 413 338Q440 330 452 311T465 254V212Q467 186 471 174T489 147H425Q413 180 413 212V247Q413 287 399 301T344 316H296V147Z"  />
<glyph unicode="&#xAF;" horiz-adv-x="500" d="M391 577H108V630H391V577Z"  />
<glyph unicode="&#xB0;" horiz-adv-x="364" d="M182 632Q163 632 146 625T117 605T97 576T89 540Q89 501 116 474T182 446Q201 446 218 453T247 473T267 503T275 539Q275 558 268 575T248 604T218 624T182 632ZM182 677Q211 677 236 666T281 637T311 593T322 539Q322 510 311 485T281 442T237 412T182 401Q153 401 128 412T83 442T53 486T42 541Q42 569 53 593T83 636T128 666T182 677Z"  />
<glyph unicode="&#xB1;" horiz-adv-x="447" d="M406 87H41V140H406V87ZM406 308H251V167H196V308H41V361H196V499H251V361H406V308Z"  />
<glyph unicode="&#xB2;" horiz-adv-x="300" d="M266 267H34V274Q34 302 38 324T54 365T85 404T135 446Q157 462 170 474T192 499T203 523T206 552Q206 619 146 619Q85 619 85 541V525H34V543Q34 601 64 633T149 665Q201 665 231 635T261 550Q261 530 257 514T243 482T216 450T174 414Q152 397 137 384T112 360T97 337T89 313H266V267Z"  />
<glyph unicode="&#xB3;" horiz-adv-x="300" d="M115 494Q148 494 159 495T178 504Q201 519 201 559Q201 622 145 622Q115 622 103 605T90 542H38Q39 571 42 588T53 619Q66 642 90 653T148 665Q199 665 227 638T256 563Q256 531 245 512T204 476Q241 464 256 443T271 384Q271 327 239 295T149 262Q90 262 60 294T31 389H84Q83 305 149 305Q180 305 198 326T216 382Q216 419 198 436T138 453Q136 453 130 453T115 452V494Z"  />
<glyph unicode="&#xB4;" horiz-adv-x="500" d="M387 667L278 540H220L278 667H387Z"  />
<glyph unicode="&#xB5;" horiz-adv-x="418" d="M126 493V188Q126 146 130 123T147 82Q158 65 175 55T209 45Q226 45 243 55T271 82Q283 100 287 123T292 188V493H364V0H297V50Q277 20 256 7T209 -7Q183 -7 162 6T121 50V-160H54V493H126Z"  />
<glyph unicode="&#xB6;" horiz-adv-x="447" d="M385 -160H326V607H260V-160H201V281H196Q115 281 72 330T29 474Q29 527 44 568T88 634Q108 651 136 659T207 667H385V-160Z"  />
<glyph unicode="&#xB7;" horiz-adv-x="192" d="M142 212H50V309H142V212Z"  />
<glyph unicode="&#xB8;" horiz-adv-x="500" d="M259 -56Q272 -52 282 -52Q309 -52 326 -69T343 -114Q343 -147 320 -168T262 -190Q242 -190 225 -185T188 -169L198 -139Q228 -158 254 -158Q270 -158 280 -147T290 -119Q290 -102 281 -92T256 -82Q244 -82 229 -89L216 -75L251 0H286L259 -56Z"  />
<glyph unicode="&#xB9;" horiz-adv-x="300" d="M60 552V592H77Q119 592 136 608T155 663H203V267H148V552H60Z"  />
<glyph unicode="&#xBA;" horiz-adv-x="250" d="M218 315H31V362H218V315ZM125 637Q101 637 91 616T80 546Q80 497 90 476T124 454Q148 454 158 475T169 544Q169 594 159 615T125 637ZM124 677Q218 677 218 543Q218 480 194 447T125 414Q79 414 55 447T31 545Q31 610 55 643T124 677Z"  />
<glyph unicode="&#xBB;" horiz-adv-x="377" d="M342 293V224L207 88V171L295 261L207 350V432L342 293ZM182 293V224L47 88V171L135 261L47 350V432L182 293Z"  />
<glyph unicode="&#xBC;" horiz-adv-x="728" d="M612 313L511 145H612V313ZM459 99V143L612 396H664V145H704V99H664V0H612V99H459ZM176 0H126L552 660H601L176 0ZM60 552V592H76Q118 592 135 608T154 663H202V267H147V552H60Z"  />
<glyph unicode="&#xBD;" horiz-adv-x="728" d="M694 0H462V7Q462 35 466 57T482 98T513 137T563 179Q585 195 598 207T620 232T631 256T634 285Q634 352 574 352Q513 352 513 274V258H462V276Q462 334 492 366T577 398Q629 398 659 368T689 283Q689 263 685 247T671 215T644 183T602 147Q580 130 565 117T540 93T525 70T517 46H694V0ZM176 0H126L552 660H601L176 0ZM60 552V592H76Q118 592 135 608T154 663H202V267H147V552H60Z"  />
<glyph unicode="&#xBE;" horiz-adv-x="728" d="M612 313L511 145H612V313ZM459 99V143L612 396H664V145H704V99H664V0H612V99H459ZM176 0H126L551 660H601L176 0ZM115 494Q148 494 159 495T178 504Q201 519 201 559Q201 622 145 622Q115 622 103 605T90 542H38Q39 571 42 588T53 619Q66 642 90 653T148 665Q199 665 227 638T256 563Q256 531 245 512T204 476Q241 464 256 443T271 384Q271 327 239 295T149 262Q90 262 60 294T31 389H84Q83 305 149 305Q180 305 198 326T216 382Q216 419 198 436T138 453Q136 453 130 453T115 452V494Z"  />
<glyph unicode="&#xBF;" horiz-adv-x="402" d="M164 493H251V400H164V493ZM244 330V302Q244 275 241 255T230 216T207 176T166 124Q149 103 138 87T121 57T112 29T109 -2Q109 -54 133 -83T201 -113Q264 -113 286 -53Q291 -39 293 -21T296 28H370Q369 -18 364 -47T345 -100Q301 -180 199 -180Q123 -180 78 -133T32 -6Q32 17 35 36T48 74T72 115T113 166Q133 189 144 204T162 232T169 258T171 291Q171 300 171 308T170 330H244Z"  />
<glyph unicode="&#xC0;" horiz-adv-x="502" d="M218 837L297 753H218L71 837H218ZM280 464Q274 485 271 499T264 526T257 554T247 592Q239 560 232 531T214 464L157 258H338L280 464ZM138 191L86 0H5L197 667H298L496 0H411L356 191H138Z"  />
<glyph unicode="&#xC1;" horiz-adv-x="502" d="M283 753H204L283 837H430L283 753ZM280 464Q274 485 271 499T264 526T257 554T247 592Q239 560 232 531T214 464L157 258H338L280 464ZM138 191L86 0H5L197 667H298L496 0H411L356 191H138Z"  />
<glyph unicode="&#xC2;" horiz-adv-x="502" d="M379 753H299L250 809L200 753H123L204 837H297L379 753ZM280 464Q274 485 271 499T264 526T257 554T247 592Q239 560 232 531T214 464L157 258H338L280 464ZM138 191L86 0H5L197 667H298L496 0H411L356 191H138Z"  />
<glyph unicode="&#xC3;" horiz-adv-x="502" d="M395 838Q391 795 370 772T312 749Q304 749 297 750T280 753T259 759T227 772Q204 781 192 781Q165 781 157 749H107Q120 839 191 839Q199 839 206 838T223 835T246 827T279 815Q301 807 314 807Q341 807 347 838H395ZM280 464Q274 485 271 499T264 526T257 554T247 592Q239 560 232 531T214 464L157 258H338L280 464ZM138 191L86 0H5L197 667H298L496 0H411L356 191H138Z"  />
<glyph unicode="&#xC4;" horiz-adv-x="502" d="M366 750H293V837H366V750ZM209 750H136V837H209V750ZM280 464Q274 485 271 499T264 526T257 554T247 592Q239 560 232 531T214 464L157 258H338L280 464ZM138 191L86 0H5L197 667H298L496 0H411L356 191H138Z"  />
<glyph unicode="&#xC5;" horiz-adv-x="502" d="M251 835Q235 835 224 824T213 797Q213 781 224 770T251 759Q267 759 278 770T289 797Q289 813 278 824T251 835ZM250 873Q282 873 304 851T327 796Q327 765 305 743T251 720Q219 720 197 742T174 797Q174 829 196 851T250 873ZM280 464Q274 485 271 499T264 526T257 554T247 592Q239 560 232 531T214 464L157 258H338L280 464ZM138 191L86 0H5L197 667H298L496 0H411L356 191H138Z"  />
<glyph unicode="&#xC6;" horiz-adv-x="736" d="M346 597H296L180 262H346V597ZM155 192L87 0H6L246 667H691V597H425V383H684V316H425V70H698V0H346V192H155Z"  />
<glyph unicode="&#xC7;" horiz-adv-x="481" d="M249 -56Q262 -52 272 -52Q299 -52 316 -69T333 -114Q333 -147 310 -168T252 -190Q232 -190 215 -185T178 -169L188 -139Q218 -158 244 -158Q260 -158 270 -147T280 -119Q280 -102 271 -92T246 -82Q234 -82 219 -89L206 -75L235 -11Q134 -2 89 81T43 340Q43 440 57 505T104 610Q159 679 257 679Q342 679 391 625T445 471H368Q360 616 254 616Q185 616 154 554T122 358Q122 275 129 217T153 122T194 68T254 51Q372 51 375 242H452Q443 0 271 -11L249 -56Z"  />
<glyph unicode="&#xC8;" horiz-adv-x="468" d="M201 837L280 753H201L54 837H201ZM419 597H141V383H408V316H141V70H429V0H62V667H419V597Z"  />
<glyph unicode="&#xC9;" horiz-adv-x="468" d="M266 753H187L266 837H414L266 753ZM419 597H141V383H408V316H141V70H429V0H62V667H419V597Z"  />
<glyph unicode="&#xCA;" horiz-adv-x="468" d="M362 753H282L233 809L184 753H106L187 837H280L362 753ZM419 597H141V383H408V316H141V70H429V0H62V667H419V597Z"  />
<glyph unicode="&#xCB;" horiz-adv-x="468" d="M349 750H276V837H349V750ZM192 750H119V837H192V750ZM419 597H141V383H408V316H141V70H429V0H62V667H419V597Z"  />
<glyph unicode="&#xCC;" horiz-adv-x="203" d="M68 837L147 753H68L-79 837H68ZM140 0H61V667H140V0Z"  />
<glyph unicode="&#xCD;" horiz-adv-x="203" d="M134 753H55L134 837H281L134 753ZM141 0H62V667H141V0Z"  />
<glyph unicode="&#xCE;" horiz-adv-x="203" d="M229 753H149L100 809L51 753H-27L54 837H147L229 753ZM141 0H62V667H141V0Z"  />
<glyph unicode="&#xCF;" horiz-adv-x="203" d="M194 750H121V837H194V750ZM82 750H9V837H82V750ZM141 0H62V667H141V0Z"  />
<glyph unicode="&#xD0;" horiz-adv-x="513" d="M141 63H210Q242 63 264 65T303 74T331 90T351 115Q360 130 368 153T381 206T389 268T392 335Q392 412 379 474T345 565Q328 587 304 595T234 604H141V379H281V316H141V63ZM26 316V379H63V667H228Q268 667 297 664T349 652T386 631T416 598Q442 559 456 492T470 336Q470 235 451 162T393 50Q366 23 329 12T230 0H63V316H26Z"  />
<glyph unicode="&#xD1;" horiz-adv-x="519" d="M404 838Q400 795 379 772T321 749Q313 749 306 750T289 753T268 759T236 772Q213 781 202 781Q174 781 166 749H116Q129 839 201 839Q216 839 232 835T288 815Q310 807 323 807Q350 807 356 838H404ZM357 0L173 454Q159 489 148 519T128 575Q131 543 133 506T135 441V0H62V667H165L339 229Q350 202 357 183T370 149T380 122T388 97Q386 140 385 174T384 245V667H457V0H357Z"  />
<glyph unicode="&#xD2;" horiz-adv-x="510" d="M222 837L301 753H222L75 837H222ZM255 612Q184 612 153 547T122 334Q122 185 153 120T255 55Q325 55 356 119T387 331Q387 407 380 460T357 547T316 596T255 612ZM255 679Q317 679 361 652T431 570Q448 532 457 471T466 330Q466 246 455 183T423 82Q370 -12 255 -12Q193 -12 148 16T78 98Q61 134 52 195T43 334Q43 419 54 483T86 585Q139 679 255 679Z"  />
<glyph unicode="&#xD3;" horiz-adv-x="510" d="M287 753H208L287 837H435L287 753ZM255 612Q184 612 153 547T122 334Q122 185 153 120T255 55Q325 55 356 119T387 331Q387 407 380 460T357 547T316 596T255 612ZM255 679Q317 679 361 652T431 570Q448 532 457 471T466 330Q466 246 455 183T423 82Q370 -12 255 -12Q193 -12 148 16T78 98Q61 134 52 195T43 334Q43 419 54 483T86 585Q139 679 255 679Z"  />
<glyph unicode="&#xD4;" horiz-adv-x="510" d="M383 753H303L254 809L204 753H127L208 837H301L383 753ZM255 612Q184 612 153 547T122 334Q122 185 153 120T255 55Q325 55 356 119T387 331Q387 407 380 460T357 547T316 596T255 612ZM255 679Q317 679 361 652T431 570Q448 532 457 471T466 330Q466 246 455 183T423 82Q370 -12 255 -12Q193 -12 148 16T78 98Q61 134 52 195T43 334Q43 419 54 483T86 585Q139 679 255 679Z"  />
<glyph unicode="&#xD5;" horiz-adv-x="510" d="M399 838Q395 795 374 772T316 749Q308 749 301 750T284 753T263 759T231 772Q208 781 196 781Q169 781 161 749H111Q124 839 196 839Q211 839 227 835T283 815Q305 807 318 807Q345 807 351 838H399ZM255 612Q184 612 153 547T122 334Q122 185 153 120T255 55Q325 55 356 119T387 331Q387 407 380 460T357 547T316 596T255 612ZM255 679Q317 679 361 652T431 570Q448 532 457 471T466 330Q466 246 455 183T423 82Q370 -12 255 -12Q193 -12 148 16T78 98Q61 134 52 195T43 334Q43 419 54 483T86 585Q139 679 255 679Z"  />
<glyph unicode="&#xD6;" horiz-adv-x="510" d="M370 750H297V837H370V750ZM213 750H140V837H213V750ZM255 612Q184 612 153 547T122 334Q122 185 153 120T255 55Q325 55 356 119T387 331Q387 407 380 460T357 547T316 596T255 612ZM255 679Q317 679 361 652T431 570Q448 532 457 471T466 330Q466 246 455 183T423 82Q370 -12 255 -12Q193 -12 148 16T78 98Q61 134 52 195T43 334Q43 419 54 483T86 585Q139 679 255 679Z"  />
<glyph unicode="&#xD7;" horiz-adv-x="447" d="M379 451L261 333L379 215L341 177L224 295L106 177L68 215L186 333L68 451L106 489L224 371L341 489L379 451Z"  />
<glyph unicode="&#xD8;" horiz-adv-x="510" d="M355 552Q324 612 255 612Q184 612 153 547T122 333Q122 288 125 251T133 182L355 552ZM154 115Q172 83 195 69T254 55Q290 55 315 70T356 119T379 205T387 332Q387 377 385 418T377 484L154 115ZM74 -18L29 9L80 94Q62 132 53 192T43 333Q43 508 86 585Q139 679 254 679Q299 679 333 665T397 622L435 685L480 656L430 572Q447 534 456 474T466 334Q466 159 423 82Q397 36 355 12T255 -12Q166 -12 112 45L74 -18Z"  />
<glyph unicode="&#xD9;" horiz-adv-x="508" d="M222 837L301 753H222L74 837H222ZM446 667V220Q446 160 438 124T409 59Q385 25 345 7T254 -12Q204 -12 164 6T99 59Q79 87 71 123T62 220V667H141V213Q141 162 147 135T169 90Q183 73 205 64T254 55Q280 55 302 64T339 90Q355 108 361 134T367 213V667H446Z"  />
<glyph unicode="&#xDA;" horiz-adv-x="508" d="M287 753H208L287 837H434L287 753ZM446 667V220Q446 160 438 124T409 59Q385 25 345 7T254 -12Q204 -12 164 6T99 59Q79 87 71 123T62 220V667H141V213Q141 162 147 135T169 90Q183 73 205 64T254 55Q280 55 302 64T339 90Q355 108 361 134T367 213V667H446Z"  />
<glyph unicode="&#xDB;" horiz-adv-x="508" d="M382 753H303L253 809L204 753H126L207 837H300L382 753ZM446 667V220Q446 160 438 124T409 59Q385 25 345 7T254 -12Q204 -12 164 6T99 59Q79 87 71 123T62 220V667H141V213Q141 162 147 135T169 90Q183 73 205 64T254 55Q280 55 302 64T339 90Q355 108 361 134T367 213V667H446Z"  />
<glyph unicode="&#xDC;" horiz-adv-x="508" d="M369 750H296V837H369V750ZM212 750H139V837H212V750ZM446 667V220Q446 160 438 124T409 59Q385 25 345 7T254 -12Q204 -12 164 6T99 59Q79 87 71 123T62 220V667H141V213Q141 162 147 135T169 90Q183 73 205 64T254 55Q280 55 302 64T339 90Q355 108 361 134T367 213V667H446Z"  />
<glyph unicode="&#xDD;" horiz-adv-x="449" d="M257 753H178L257 837H405L257 753ZM260 0H181V267L0 667H88L182 447Q190 429 194 419T201 402T204 393T208 384L224 345Q232 365 244 395T266 447L362 667H449L260 267V0Z"  />
<glyph unicode="&#xDE;" horiz-adv-x="455" d="M233 228Q292 228 319 258T347 353Q347 417 320 447T233 477H141V228H233ZM141 0H62V667H141V547H235Q280 547 310 539T362 514Q393 490 409 449T426 354Q426 260 380 211T246 161H141V0Z"  />
<glyph unicode="&#xDF;" horiz-adv-x="429" d="M182 398H193Q294 398 294 507Q294 555 271 583T209 611Q162 611 144 579Q139 571 136 560T130 531T127 489T126 429V0H54V431Q54 470 55 498T60 547T68 583T83 612Q101 641 134 657T209 674Q281 674 321 630T361 508Q361 458 344 427T290 377Q344 354 367 314T391 204Q391 157 379 119T346 54T293 12T224 -3Q215 -3 206 -3T182 0V59Q192 58 197 58T209 57Q261 57 289 96T318 208Q318 274 288 309T201 345Q198 345 193 345T182 344V398Z"  />
<glyph unicode="&#xE0;" horiz-adv-x="420" d="M286 255Q278 251 271 248T257 243T240 237T216 230Q196 224 183 220T161 213T147 207T136 200Q107 178 107 132Q107 92 125 71T179 49Q204 49 226 60T262 92Q276 111 281 133T286 200V255ZM49 357Q49 432 86 467T203 503Q278 503 318 468Q337 451 345 426T353 357V126Q353 106 353 94T354 75T356 64T361 57Q368 48 385 48Q387 48 389 48T397 49V0Q386 -2 381 -2T367 -3Q300 -3 286 62Q240 -10 162 -10Q105 -10 70 27T34 127Q34 162 47 190T83 235Q92 241 101 246T122 256T153 266T197 277Q227 284 244 290T271 304T284 325T287 355Q287 402 267 423T201 444Q169 444 149 433T121 401Q118 392 117 384T116 357H49ZM254 540H196L87 667H196L254 540Z"  />
<glyph unicode="&#xE1;" horiz-adv-x="420" d="M286 255Q278 251 271 248T257 243T240 237T216 230Q196 224 183 220T161 213T147 207T136 200Q107 178 107 132Q107 92 125 71T179 49Q204 49 226 60T262 92Q276 111 281 133T286 200V255ZM49 357Q49 432 86 467T203 503Q278 503 318 468Q337 451 345 426T353 357V126Q353 106 353 94T354 75T356 64T361 57Q368 48 385 48Q387 48 389 48T397 49V0Q386 -2 381 -2T367 -3Q300 -3 286 62Q240 -10 162 -10Q105 -10 70 27T34 127Q34 162 47 190T83 235Q92 241 101 246T122 256T153 266T197 277Q227 284 244 290T271 304T284 325T287 355Q287 402 267 423T201 444Q169 444 149 433T121 401Q118 392 117 384T116 357H49ZM334 667L225 540H167L225 667H334Z"  />
<glyph unicode="&#xE2;" horiz-adv-x="420" d="M286 255Q278 251 271 248T257 243T240 237T216 230Q196 224 183 220T161 213T147 207T136 200Q107 178 107 132Q107 92 125 71T179 49Q204 49 226 60T262 92Q276 111 281 133T286 200V255ZM49 357Q49 432 86 467T203 503Q278 503 318 468Q337 451 345 426T353 357V126Q353 106 353 94T354 75T356 64T361 57Q368 48 385 48Q387 48 389 48T397 49V0Q386 -2 381 -2T367 -3Q300 -3 286 62Q240 -10 162 -10Q105 -10 70 27T34 127Q34 162 47 190T83 235Q92 241 101 246T122 256T153 266T197 277Q227 284 244 290T271 304T284 325T287 355Q287 402 267 423T201 444Q169 444 149 433T121 401Q118 392 117 384T116 357H49ZM338 540H265L209 625L157 540H82L173 667H246L338 540Z"  />
<glyph unicode="&#xE3;" horiz-adv-x="420" d="M286 255Q278 251 271 248T257 243T240 237T216 230Q196 224 183 220T161 213T147 207T136 200Q107 178 107 132Q107 92 125 71T179 49Q204 49 226 60T262 92Q276 111 281 133T286 200V255ZM49 357Q49 432 86 467T203 503Q278 503 318 468Q337 451 345 426T353 357V126Q353 106 353 94T354 75T356 64T361 57Q368 48 385 48Q387 48 389 48T397 49V0Q386 -2 381 -2T367 -3Q300 -3 286 62Q240 -10 162 -10Q105 -10 70 27T34 127Q34 162 47 190T83 235Q92 241 101 246T122 256T153 266T197 277Q227 284 244 290T271 304T284 325T287 355Q287 402 267 423T201 444Q169 444 149 433T121 401Q118 392 117 384T116 357H49ZM354 648Q350 605 329 582T271 559Q263 559 256 560T239 563T218 569T186 582Q163 591 152 591Q124 591 116 559H66Q81 649 151 649Q159 649 166 648T182 645T205 637T238 625Q249 621 257 619T274 617Q300 617 306 648H354Z"  />
<glyph unicode="&#xE4;" horiz-adv-x="420" d="M286 255Q278 251 271 248T257 243T240 237T216 230Q196 224 183 220T161 213T147 207T136 200Q107 178 107 132Q107 92 125 71T179 49Q204 49 226 60T262 92Q276 111 281 133T286 200V255ZM49 357Q49 432 86 467T203 503Q278 503 318 468Q337 451 345 426T353 357V126Q353 106 353 94T354 75T356 64T361 57Q368 48 385 48Q387 48 389 48T397 49V0Q386 -2 381 -2T367 -3Q300 -3 286 62Q240 -10 162 -10Q105 -10 70 27T34 127Q34 162 47 190T83 235Q92 241 101 246T122 256T153 266T197 277Q227 284 244 290T271 304T284 325T287 355Q287 402 267 423T201 444Q169 444 149 433T121 401Q118 392 117 384T116 357H49ZM325 577H254V667H325V577ZM167 577H95V667H167V577Z"  />
<glyph unicode="&#xE5;" horiz-adv-x="420" d="M286 255Q278 251 271 248T257 243T240 237T216 230Q196 224 183 220T161 213T147 207T136 200Q107 178 107 132Q107 92 125 71T179 49Q204 49 226 60T262 92Q276 111 281 133T286 200V255ZM49 357Q49 432 86 467T203 503Q278 503 318 468Q337 451 345 426T353 357V126Q353 106 353 94T354 75T356 64T361 57Q368 48 385 48Q387 48 389 48T397 49V0Q386 -2 381 -2T367 -3Q300 -3 286 62Q240 -10 162 -10Q105 -10 70 27T34 127Q34 162 47 190T83 235Q92 241 101 246T122 256T153 266T197 277Q227 284 244 290T271 304T284 325T287 355Q287 402 267 423T201 444Q169 444 149 433T121 401Q118 392 117 384T116 357H49ZM211 659Q195 659 184 648T172 621Q172 605 183 594T211 583Q226 583 237 594T249 621Q249 637 238 648T211 659ZM210 697Q242 697 264 675T287 620Q287 589 265 567T210 544Q178 544 156 566T133 621Q133 653 155 675T210 697Z"  />
<glyph unicode="&#xE6;" horiz-adv-x="607" d="M261 247Q255 245 252 244T241 240Q230 237 219 234T192 226Q163 218 150 211T125 193Q101 167 101 129Q101 93 119 71T170 49Q208 49 231 74T260 148Q260 154 260 158T261 172T261 199T261 247ZM499 306V323Q497 445 415 445Q371 445 350 408Q346 400 344 393T340 377T337 355T335 324Q335 322 335 316T334 302H499V306ZM334 247Q334 206 334 184T335 150T337 130T341 113Q348 84 370 67T420 49Q494 49 500 165H571Q566 122 558 98T536 53Q515 23 483 7T412 -10Q367 -10 337 11T284 79Q273 53 264 41T239 17Q221 4 199 -3T156 -10Q101 -10 68 28T34 130Q34 172 51 205T100 258Q107 262 112 265T129 271T159 279T213 293Q242 300 251 310T261 348Q261 398 244 421T188 444Q153 444 132 423T108 362H41Q43 397 49 416T71 452Q113 503 190 503Q231 503 259 491T308 452Q352 503 417 503Q451 503 484 486T535 442Q572 389 572 286Q572 281 572 271T571 247H334Z"  />
<glyph unicode="&#xE7;" horiz-adv-x="385" d="M201 -56Q214 -52 224 -52Q250 -52 267 -69T284 -114Q284 -147 261 -168T203 -190Q184 -190 167 -185T130 -169L140 -139Q169 -158 195 -158Q211 -158 221 -147T231 -119Q231 -102 222 -92T198 -82Q186 -82 171 -89L158 -74L188 -9Q107 1 71 63T35 253Q35 381 77 442T209 503Q281 503 320 462T362 339H294Q291 445 208 445Q154 445 131 400T108 251Q108 142 131 96T208 49Q253 49 274 79T296 177L366 176Q366 92 330 45T224 -9L201 -56Z"  />
<glyph unicode="&#xE8;" horiz-adv-x="395" d="M227 540H169L60 667H169L227 540ZM286 298Q286 444 199 444Q155 444 133 407T108 298H286ZM107 243Q107 141 130 95T204 49Q284 49 290 165H356Q353 82 313 36T202 -10Q116 -10 76 54T35 254Q35 317 43 359T72 434Q92 467 125 485T199 503Q276 503 317 444T359 275Q359 270 359 262T358 243H107Z"  />
<glyph unicode="&#xE9;" horiz-adv-x="395" d="M334 667L225 540H167L225 667H334ZM286 298Q286 444 199 444Q155 444 133 407T108 298H286ZM107 243Q107 141 130 95T204 49Q284 49 290 165H356Q353 82 313 36T202 -10Q116 -10 76 54T35 254Q35 317 43 359T72 434Q92 467 125 485T199 503Q276 503 317 444T359 275Q359 270 359 262T358 243H107Z"  />
<glyph unicode="&#xEA;" horiz-adv-x="395" d="M325 540H252L196 625L143 540H69L160 667H233L325 540ZM286 298Q286 444 199 444Q155 444 133 407T108 298H286ZM107 243Q107 141 130 95T204 49Q284 49 290 165H356Q353 82 313 36T202 -10Q116 -10 76 54T35 254Q35 317 43 359T72 434Q92 467 125 485T199 503Q276 503 317 444T359 275Q359 270 359 262T358 243H107Z"  />
<glyph unicode="&#xEB;" horiz-adv-x="395" d="M312 577H241V667H312V577ZM154 577H82V667H154V577ZM286 298Q286 444 199 444Q155 444 133 407T108 298H286ZM107 243Q107 141 130 95T204 49Q284 49 290 165H356Q353 82 313 36T202 -10Q116 -10 76 54T35 254Q35 317 43 359T72 434Q92 467 125 485T199 503Q276 503 317 444T359 275Q359 270 359 262T358 243H107Z"  />
<glyph unicode="&#xEC;" horiz-adv-x="180" d="M120 540H62L-47 667H62L120 540ZM126 0H54V493H126V0Z"  />
<glyph unicode="&#xED;" horiz-adv-x="180" d="M227 667L118 540H60L118 667H227ZM126 0H54V493H126V0Z"  />
<glyph unicode="&#xEE;" horiz-adv-x="180" d="M218 540H145L89 625L37 540H-38L53 667H126L218 540ZM126 0H54V493H126V0Z"  />
<glyph unicode="&#xEF;" horiz-adv-x="180" d="M176 577H108V667H176V577ZM74 577H5V667H74V577ZM126 0H54V493H126V0Z"  />
<glyph unicode="&#xF0;" horiz-adv-x="407" d="M203 445Q152 445 130 399T108 247Q108 142 130 96T203 49Q253 49 275 95T298 244Q298 351 276 398T203 445ZM263 699L295 663L238 613Q308 527 339 441T371 248Q371 -10 203 -10Q119 -10 77 54T35 247Q35 374 77 438T202 503Q219 503 239 499Q225 522 214 538T190 572L129 519L97 555L159 609Q148 620 141 628T120 647L166 692Q180 678 189 669T206 650L263 699Z"  />
<glyph unicode="&#xF1;" horiz-adv-x="418" d="M353 648Q349 605 328 582T270 559Q262 559 255 560T238 563T217 569T185 582Q162 591 151 591Q123 591 115 559H65Q80 649 150 649Q157 649 164 648T181 645T204 637T237 625Q248 621 256 619T273 617Q299 617 305 648H353ZM121 493V437Q147 471 175 485T241 500Q270 500 294 490T335 460Q344 449 349 438T358 413T362 380T364 334V0H292V319Q292 343 292 358T289 384T284 402T275 417Q257 441 221 441Q198 441 179 431T147 404Q135 387 131 365T126 305V0H54V493H121Z"  />
<glyph unicode="&#xF2;" horiz-adv-x="407" d="M233 540H175L66 667H175L233 540ZM203 444Q152 444 130 398T108 247Q108 142 130 96T203 49Q253 49 275 95T298 244Q298 351 276 397T203 444ZM203 503Q371 503 371 242Q371 118 329 54T203 -10Q119 -10 77 54T35 247Q35 374 77 438T203 503Z"  />
<glyph unicode="&#xF3;" horiz-adv-x="407" d="M340 667L231 540H173L231 667H340ZM203 444Q152 444 130 398T108 247Q108 142 130 96T203 49Q253 49 275 95T298 244Q298 351 276 397T203 444ZM203 503Q371 503 371 242Q371 118 329 54T203 -10Q119 -10 77 54T35 247Q35 374 77 438T203 503Z"  />
<glyph unicode="&#xF4;" horiz-adv-x="407" d="M331 540H258L202 625L149 540H75L166 667H239L331 540ZM203 444Q152 444 130 398T108 247Q108 142 130 96T203 49Q253 49 275 95T298 244Q298 351 276 397T203 444ZM203 503Q371 503 371 242Q371 118 329 54T203 -10Q119 -10 77 54T35 247Q35 374 77 438T203 503Z"  />
<glyph unicode="&#xF5;" horiz-adv-x="407" d="M347 648Q343 605 322 582T264 559Q256 559 249 560T232 563T211 569T179 582Q156 591 145 591Q117 591 109 559H59Q74 649 144 649Q151 649 158 648T175 645T198 637T231 625Q242 621 250 619T267 617Q293 617 299 648H347ZM203 444Q152 444 130 398T108 247Q108 142 130 96T203 49Q253 49 275 95T298 244Q298 351 276 397T203 444ZM203 503Q371 503 371 242Q371 118 329 54T203 -10Q119 -10 77 54T35 247Q35 374 77 438T203 503Z"  />
<glyph unicode="&#xF6;" horiz-adv-x="407" d="M318 577H247V667H318V577ZM160 577H88V667H160V577ZM203 444Q152 444 130 398T108 247Q108 142 130 96T203 49Q253 49 275 95T298 244Q298 351 276 397T203 444ZM203 503Q371 503 371 242Q371 118 329 54T203 -10Q119 -10 77 54T35 247Q35 374 77 438T203 503Z"  />
<glyph unicode="&#xF7;" horiz-adv-x="447" d="M181 513H266V423H181V513ZM266 157H181V247H266V157ZM406 308H41V361H406V308Z"  />
<glyph unicode="&#xF8;" horiz-adv-x="406" d="M274 401Q250 444 203 444Q152 444 130 398T108 247Q108 221 109 200T114 155L274 401ZM131 94Q155 49 203 49Q254 49 276 96T298 249Q298 278 297 299T292 342L131 94ZM56 -22L16 5L64 79Q49 111 42 151T35 247Q35 374 77 438T203 503Q268 503 312 460L351 520L391 494L341 417Q357 383 364 343T371 246Q371 119 329 55T204 -10Q135 -10 93 35L56 -22Z"  />
<glyph unicode="&#xF9;" horiz-adv-x="418" d="M239 540H181L72 667H181L239 540ZM364 0H297V56Q271 22 243 8T177 -7Q148 -7 124 3T83 33Q74 43 69 54T60 80T56 113T54 159V493H126V174Q126 150 126 135T129 109T134 91T143 76Q161 52 197 52Q220 52 239 62T271 89Q283 106 287 128T292 188V493H364V0Z"  />
<glyph unicode="&#xFA;" horiz-adv-x="418" d="M346 667L237 540H179L237 667H346ZM364 0H297V56Q271 22 243 8T177 -7Q148 -7 124 3T83 33Q74 43 69 54T60 80T56 113T54 159V493H126V174Q126 150 126 135T129 109T134 91T143 76Q161 52 197 52Q220 52 239 62T271 89Q283 106 287 128T292 188V493H364V0Z"  />
<glyph unicode="&#xFB;" horiz-adv-x="418" d="M337 540H264L208 625L155 540H81L172 667H245L337 540ZM364 0H297V56Q271 22 243 8T177 -7Q148 -7 124 3T83 33Q74 43 69 54T60 80T56 113T54 159V493H126V174Q126 150 126 135T129 109T134 91T143 76Q161 52 197 52Q220 52 239 62T271 89Q283 106 287 128T292 188V493H364V0Z"  />
<glyph unicode="&#xFC;" horiz-adv-x="418" d="M324 577H253V667H324V577ZM166 577H94V667H166V577ZM364 0H297V56Q271 22 243 8T177 -7Q148 -7 124 3T83 33Q74 43 69 54T60 80T56 113T54 159V493H126V174Q126 150 126 135T129 109T134 91T143 76Q161 52 197 52Q220 52 239 62T271 89Q283 106 287 128T292 188V493H364V0Z"  />
<glyph unicode="&#xFD;" horiz-adv-x="386" d="M330 667L221 540H163L221 667H330ZM390 493L223 -29Q211 -67 198 -92T170 -133T134 -154T85 -160Q54 -160 33 -154V-94Q57 -101 78 -101Q134 -101 152 -23L157 0L-3 493H78L157 224Q168 186 177 150T196 79Q209 132 218 167T233 225L312 493H390Z"  />
<glyph unicode="&#xFE;" horiz-adv-x="421" d="M216 445Q167 445 144 398T121 249Q121 147 144 100T217 52Q265 52 288 99T312 246Q312 349 289 397T216 445ZM126 667V448Q149 477 173 490T231 503Q307 503 346 439T385 248Q385 123 345 58T229 -7Q197 -7 173 5T126 46V-160H54V667H126Z"  />
<glyph unicode="&#xFF;" horiz-adv-x="386" d="M309 577H238V667H309V577ZM150 577H78V667H150V577ZM390 493L223 -29Q211 -67 198 -92T170 -133T134 -154T85 -160Q54 -160 33 -154V-94Q57 -101 78 -101Q134 -101 152 -23L157 0L-3 493H78L157 224Q168 186 177 150T196 79Q209 132 218 167T233 225L312 493H390Z"  />
<glyph unicode="&#x152;" horiz-adv-x="765" d="M255 612Q186 612 154 546T122 338Q122 261 130 210T155 122Q170 91 198 73T258 55Q291 55 318 72T360 120Q367 135 372 152T380 191T384 244T385 315Q385 367 384 403T380 466T372 512T360 547Q346 577 318 594T255 612ZM463 70H726V0H385V70Q346 -12 247 -12Q145 -12 94 75T43 336Q43 504 93 591T238 679Q265 679 292 670T340 644Q349 637 358 627T385 597V667H710V597H463V383H710V316H463V70Z"  />
<glyph unicode="&#x153;" horiz-adv-x="659" d="M550 298Q550 444 463 444Q419 444 397 407T372 298H550ZM203 444Q152 444 130 398T108 247Q108 142 130 96T203 49Q253 49 275 95T298 244Q298 351 276 397T203 444ZM620 165Q617 82 577 36T467 -10Q375 -10 334 64Q290 -10 203 -10Q119 -10 77 54T35 247Q35 503 203 503Q248 503 279 486T334 430Q377 503 463 503Q540 503 581 444T623 274Q623 269 623 262T622 243H371Q371 141 394 95T468 49Q548 49 554 165H620Z"  />
<glyph unicode="&#x160;" horiz-adv-x="479" d="M111 837H191L240 781L290 837H367L286 753H193L111 837ZM346 488Q344 555 318 585T234 616Q180 616 150 587T120 507Q120 462 141 437T213 393L306 360Q348 345 371 330T411 292Q426 269 434 242T442 179Q442 88 388 38T237 -12Q132 -12 83 42T33 209H114V184Q114 51 238 51Q363 51 363 173Q363 198 359 215T343 246T313 269T265 291L190 317Q150 331 123 347T79 385T55 432T47 494Q47 580 98 629T238 679Q295 679 337 657T402 594Q413 573 418 549T424 488H346Z"  />
<glyph unicode="&#x161;" horiz-adv-x="368" d="M56 667H129L185 582L238 667H312L221 540H148L56 667ZM265 361Q265 406 248 425T188 444Q108 444 108 370Q108 355 111 345T122 327T143 313T179 298L244 275Q298 256 321 225T345 142Q345 68 304 29T187 -10Q127 -10 87 14T36 80Q32 96 31 111T29 150H99Q98 96 119 73T187 49Q230 49 254 71T278 132Q278 148 274 162T261 184Q253 192 243 197T205 213L147 234Q88 255 65 284T41 363Q41 430 80 466T190 503Q284 503 318 441Q326 427 329 410T335 361H265Z"  />
<glyph unicode="&#x178;" horiz-adv-x="449" d="M340 750H267V837H340V750ZM183 750H110V837H183V750ZM260 0H181V267L0 667H88L182 447Q190 429 194 419T201 402T204 393T208 384L224 345Q232 365 244 395T266 447L362 667H449L260 267V0Z"  />
<glyph unicode="&#x17D;" horiz-adv-x="463" d="M103 837H183L232 781L281 837H359L278 753H185L103 837ZM426 599L113 70H434V0H19V56L335 597H52V667H426V599Z"  />
<glyph unicode="&#x17E;" horiz-adv-x="333" d="M38 667H111L167 582L220 667H294L203 540H130L38 667ZM309 425L96 63H322V0H11V58L230 430H34V493H309V425Z"  />
<glyph unicode="&#x192;" horiz-adv-x="447" d="M326 419H254L142 -160H70L182 419H116L125 461H191L220 610Q232 674 263 700T361 727H386L374 665H358Q325 665 312 653T291 607L262 461H334L326 419Z"  />
<glyph unicode="&#x2C6;" horiz-adv-x="500" d="M378 540H305L249 625L197 540H122L213 667H286L378 540Z"  />
<glyph unicode="&#x2DC;" horiz-adv-x="500" d="M394 648Q390 605 369 582T311 559Q303 559 296 560T279 563T258 569T226 582Q203 591 192 591Q164 591 156 559H106Q121 649 191 649Q199 649 206 648T222 645T245 637T278 625Q289 621 297 619T314 617Q340 617 346 648H394Z"  />
<glyph unicode="&#x2013;" horiz-adv-x="447" d="M404 225H43V295H404V225Z"  />
<glyph unicode="&#x2014;" horiz-adv-x="547" d="M547 225H0V295H547V225Z"  />
<glyph unicode="&#x2018;" horiz-adv-x="199" d="M53 444V534Q53 653 145 679V630Q122 620 113 599T104 541H145V444H53Z"  />
<glyph unicode="&#x2019;" horiz-adv-x="199" d="M145 667V577Q145 517 123 482T53 432V481Q76 492 85 513T94 570H53V667H145Z"  />
<glyph unicode="&#x201A;" horiz-adv-x="199" d="M145 97V7Q145 -53 123 -88T53 -138V-89Q76 -78 85 -57T94 0H53V97H145Z"  />
<glyph unicode="&#x201C;" horiz-adv-x="355" d="M53 444V534Q53 653 145 679V630Q122 620 113 599T104 541H145V444H53ZM210 444V534Q210 653 302 679V630Q279 620 270 599T261 541H302V444H210Z"  />
<glyph unicode="&#x201D;" horiz-adv-x="355" d="M302 667V577Q302 517 280 482T210 432V481Q233 492 242 513T251 570H210V667H302ZM145 667V577Q145 517 123 482T53 432V481Q76 492 85 513T94 570H53V667H145Z"  />
<glyph unicode="&#x201E;" horiz-adv-x="355" d="M302 97V7Q302 -53 280 -88T210 -138V-89Q233 -78 242 -57T251 0H210V97H302ZM145 97V7Q145 -53 123 -88T53 -138V-89Q76 -78 85 -57T94 0H53V97H145Z"  />
<glyph unicode="&#x2020;" horiz-adv-x="412" d="M388 379H242V-160H170V379H23V434H170V667H242V434H388V379Z"  />
<glyph unicode="&#x2021;" horiz-adv-x="412" d="M388 379H242V128H388V73H242V-160H170V73H23V128H170V379H23V434H170V667H242V434H388V379Z"  />
<glyph unicode="&#x2022;" horiz-adv-x="667" d="M337 477Q365 477 389 466T432 436T462 392T473 339Q473 310 462 285T433 241T389 211T335 200Q306 200 281 211T237 240T207 284T196 338Q196 367 207 392T237 436T281 466T337 477Z"  />
<glyph unicode="&#x2026;" horiz-adv-x="576" d="M526 0H434V97H526V0ZM334 0H242V97H334V0ZM142 0H50V97H142V0Z"  />
<glyph unicode="&#x2030;" horiz-adv-x="1013" d="M862 370Q829 370 816 333T802 205Q802 157 805 125T815 76Q831 39 862 39Q895 39 908 76T922 203Q922 301 909 333Q893 370 862 370ZM862 419Q894 419 919 403T959 355Q980 310 980 202Q980 91 954 44Q923 -10 862 -10Q829 -10 804 6T764 54Q743 98 743 205Q743 320 769 365Q800 419 862 419ZM562 370Q529 370 516 333T502 205Q502 157 505 125T515 76Q531 39 562 39Q595 39 608 76T622 203Q622 301 609 333Q593 370 562 370ZM562 419Q594 419 619 403T659 355Q680 310 680 202Q680 91 654 44Q623 -10 562 -10Q529 -10 504 6T464 54Q443 98 443 205Q443 320 469 365Q500 419 562 419ZM203 0H151L510 660H561L203 0ZM152 626Q119 626 106 589T92 460Q92 369 105 332T152 294Q185 294 198 331T212 458Q212 557 199 589Q192 606 180 616T152 626ZM152 674Q184 674 209 658T249 610Q270 565 270 458Q270 345 244 300Q213 246 152 246Q119 246 94 262T54 310Q43 332 38 370T33 460Q33 577 59 620Q90 674 152 674Z"  />
<glyph unicode="&#x2039;" horiz-adv-x="217" d="M170 350L82 261L170 171V88L35 224V293L170 432V350Z"  />
<glyph unicode="&#x203A;" horiz-adv-x="217" d="M182 293V224L47 88V171L135 261L47 350V432L182 293Z"  />
<glyph unicode="&#x20AC;" horiz-adv-x="447" d="M326 412L311 367H130Q129 356 129 350T129 330Q129 327 129 319T130 297H287L272 252H134Q137 226 141 203T154 156Q187 48 273 48Q286 48 297 50T322 58T352 73T391 98V27Q367 8 332 -3T264 -14Q178 -14 126 53T56 252H-1L15 297H53Q52 300 52 309T52 323L53 367H-1L15 412H58Q76 540 130 607T273 674Q309 674 336 664T401 627L379 563Q345 592 321 603T269 614Q215 614 181 563T134 412H326Z"  />
<glyph unicode="&#x2122;" horiz-adv-x="640" d="M421 287L347 538Q344 549 342 557T337 572L333 587L334 533V287H285V667H361L427 432L434 406Q436 398 438 390T444 366Q450 391 460 430L525 667H600V287H551V533Q551 536 551 539T551 547T551 560T552 585Q549 575 548 570T545 559T542 548T537 532L466 287H421ZM156 287H104V623H7V667H253V623H156V287Z"  />

</font>
</defs>
</svg>
