<?xml  version="1.0" encoding="UTF-8"?>
<!DOCTYPE svg PUBLIC "-//W3C//DTD SVG 1.0//EN" "http://www.w3.org/TR/2001/REC-SVG-20010904/DTD/svg10.dtd" >
<svg xmlns="http://www.w3.org/2000/svg" >
<metadata>
<version>1.0</version>
<id><![CDATA[Victoria Titling MT W90]]></id>
<vendor>Monotype Imaging Inc.</vendor>
<credits>
<name>Fonts.com WebFonts</name>
<URL>http://webfonts.fonts.com</URL>
<role>Home of the Web fonts</role>
</credits>
<license>
<URL>http://webfonts.fonts.com/Legal</URL>
</license>
<copyright><![CDATA[Copyright The Monotype Corporation. All rights reserved.]]></copyright>
<trademark><![CDATA["Victoria is a trademark of The Monotype Corporation in the United States and/or other countries; ""MT"" is a trademark of Monotype Imaging Inc. Registered in U.S. Patent and Trademark Office and may be registered in certain other jurisdictions."]]></trademark>
<licensee>
<name></name>
</licensee>
</metadata>
<defs >
<font horiz-adv-x="969" id="46f6946a-4039-46e8-b001-be3e53068d46">
<font-face font-family="" panose-1="2 3 5 6 6 4 5 3 3 3" ascent="1878" descent="-380" units-per-em="2048" alphabetic="0">
</font-face>
<missing-glyph horiz-adv-x="1024" d="M51 0V1536H973V0H51ZM179 128H845V1408H179V128Z"  />

<glyph unicode="&#xA;" />
<glyph unicode="&#xD;" horiz-adv-x="459" />
<glyph unicode=" " horiz-adv-x="459" />
<glyph unicode="!" horiz-adv-x="449" d="M319 1401Q319 1371 299 1255T272 1100Q263 1036 257 975T248 854T244 731V395H207V647Q207 728 202 819T185 1001T158 1163L131 1288Q117 1355 117 1401Q117 1441 140 1488T219 1536Q273 1536 296 1492T319 1401ZM319 139Q319 80 296 30T223 -20Q176 -20 153 30T129 133Q129 210 156 252T225 295Q257 295 278 271T309 210T319 139Z"  />
<glyph unicode="$" horiz-adv-x="918" d="M862 393Q862 265 787 165T567 16V-88H526V12Q486 0 424 0Q391 0 367 4V-88H326V6Q219 29 153 89T62 214T37 324Q37 384 74 427T162 471Q200 471 226 443T252 377Q252 307 172 264Q133 245 133 217Q133 174 184 125T326 47V741Q222 797 147 877T72 1104Q72 1200 126 1307T326 1466V1552H367V1479Q417 1489 463 1489Q496 1489 526 1483V1552H567V1477Q652 1463 713 1419T805 1318T836 1212Q836 1152 802 1114T721 1075Q684 1075 657 1102T629 1167Q629 1217 680 1253Q705 1275 714 1286T723 1319Q723 1357 674 1391T567 1436V825Q645 788 711 729T819 585T862 393ZM526 842V1444Q523 1444 505 1446T473 1448Q420 1448 367 1432V913Q374 910 382 906T405 895T446 877Q513 851 526 842ZM326 936V1417Q166 1335 166 1184Q166 1088 218 1028T326 936ZM760 340Q760 525 567 635V66Q645 97 702 168T760 340ZM526 53V653Q429 700 367 725V43Q391 39 422 39Q484 39 526 53Z"  />
<glyph unicode="%" horiz-adv-x="1300" d="M559 1118Q559 1009 523 917T427 773T303 721Q237 721 177 776T81 921T45 1112Q45 1189 66 1261T123 1388T205 1474T301 1505Q357 1505 405 1471T487 1381T539 1256T559 1118ZM999 1505L346 -25H303L961 1505H999ZM1255 373Q1255 263 1219 171T1123 27T999 -25Q933 -25 873 30T777 176T741 367Q741 444 762 516T819 643T901 729T997 760Q1053 760 1101 726T1183 636T1235 511T1255 373ZM424 1047Q424 1213 419 1294T387 1424T303 1473Q255 1473 229 1442T191 1349T180 1188V1165V1135Q182 981 187 913T219 797T303 750Q372 750 398 819T424 1047ZM1120 301Q1120 467 1115 548T1083 678T999 727Q931 727 904 661T877 453V420V389Q880 243 882 200T896 108T931 32T999 4Q1069 4 1094 73T1120 301Z"  />
<glyph unicode="&amp;" horiz-adv-x="1087" d="M1090 338Q1089 114 1007 47T858 -20Q793 -20 736 24T618 162Q569 76 499 28T346 -20Q256 -20 174 46T43 216T-6 434Q-6 541 32 624T128 764T250 856Q188 1021 188 1147Q188 1237 218 1319T310 1453T451 1505Q551 1505 612 1426T674 1243Q674 1119 608 1046T434 913Q495 790 643 516Q677 457 702 406Q728 467 760 586T793 760Q793 849 734 873T596 897V932H1090V897H1053Q909 897 852 745Q838 711 816 645T762 479T725 367Q748 328 780 274T832 189T866 139Q890 112 906 101T946 90Q986 90 1010 131T1043 228T1053 338H1090ZM590 1245Q590 1319 568 1369T513 1444T444 1468Q391 1468 350 1418T309 1290Q309 1221 334 1149T420 948L426 952Q481 988 512 1017T567 1100T590 1245ZM596 195L584 213Q548 267 489 373T367 604T264 823Q121 735 121 616Q121 563 153 468T235 284T343 137T457 78Q502 78 538 114T596 195Z"  />
<glyph unicode="(" horiz-adv-x="618" d="M559 -231L537 -254Q405 -147 315 -3T180 304T135 635Q135 729 150 835T207 1061T328 1297T524 1507L547 1487Q491 1422 460 1373T404 1240T363 1003T348 627Q348 416 365 261T411 18T474 -123T559 -231Z"  />
<glyph unicode=")" horiz-adv-x="618" d="M483 618Q483 516 468 412T410 189T291 -44T94 -254L72 -233Q125 -172 157 -122T215 16T255 249T270 627Q270 917 242 1084T171 1332T59 1485L82 1507Q212 1401 303 1256T438 949T483 618Z"  />
<glyph unicode="*" horiz-adv-x="831" d="M778 1235Q778 1201 734 1175T627 1145L557 1141Q512 1141 446 1124Q474 1086 524 1042Q544 1023 557 1018Q560 1016 587 990T635 931T657 866Q657 846 644 831T612 815Q539 815 483 965Q464 1022 453 1047T420 1102Q398 1070 385 1042T365 999Q353 967 348 952Q345 946 327 911T282 846T221 815Q198 815 185 831T172 866Q172 909 203 946T274 1016Q279 1018 299 1033T322 1051Q350 1073 393 1124Q351 1139 276 1143Q53 1150 53 1237Q53 1255 70 1271T117 1288Q153 1288 187 1273T279 1221Q342 1177 397 1157Q394 1235 379 1272Q379 1285 369 1315Q354 1366 354 1403V1405Q354 1458 372 1483T416 1509Q456 1509 466 1473T477 1403Q477 1352 449 1266Q441 1242 434 1157Q476 1170 512 1194L555 1223Q610 1261 645 1273T711 1286Q747 1286 762 1270T778 1235Z"  />
<glyph unicode="&#x2c;" horiz-adv-x="449" d="M319 106Q319 -109 172 -248L152 -227Q205 -173 232 -112T260 -20Q260 -8 256 -8Q250 -8 244 -14Q228 -25 213 -25Q185 -25 158 13T131 133Q131 205 153 250T217 295Q260 295 289 247T319 106Z"  />
<glyph unicode="-" horiz-adv-x="938" d="M733 438H209V604H733V438Z"  />
<glyph unicode="." horiz-adv-x="449" d="M319 139Q319 80 296 30T223 -20Q176 -20 153 30T129 133Q129 210 156 252T225 295Q257 295 278 271T309 210T319 139Z"  />
<glyph unicode="/" horiz-adv-x="1087" d="M967 1485L238 0H121L850 1485H967Z"  />
<glyph unicode="0" horiz-adv-x="918" d="M874 748Q874 584 840 443T745 197T610 36T461 -20Q355 -20 259 85T103 367T43 735Q43 891 78 1028T174 1272T308 1434T455 1491Q544 1491 621 1426T755 1251T843 1008T874 748ZM686 635Q686 812 685 901T678 1065T662 1210Q625 1454 459 1454Q365 1454 316 1385T249 1187T231 853V817V768Q233 530 237 426T264 221T333 67T461 12Q558 12 606 87T670 291T686 635Z"  />
<glyph unicode="1" horiz-adv-x="918" d="M756 0H160V33H256Q336 33 356 62T377 154V1210Q377 1256 371 1275T345 1302T279 1309H160V1343Q242 1345 302 1353T421 1394T516 1489H549V168Q549 89 571 61T666 33H756V0Z"  />
<glyph unicode="2" horiz-adv-x="918" d="M868 485Q868 186 770 83T565 -20Q497 -20 443 9T322 92Q264 141 240 156T184 172Q145 172 129 139Q100 86 90 -27H55Q61 76 97 162T192 324T313 459Q431 573 488 635T584 758T643 899T664 1092Q664 1242 614 1344T430 1446Q367 1446 306 1417T202 1341T134 1236T109 1122Q109 1052 178 1049Q250 1045 284 1012T319 932Q319 885 288 851T209 817Q149 817 104 875T59 1053Q59 1171 111 1271T253 1428T453 1485Q562 1485 655 1432T802 1285T856 1075Q856 975 818 897T717 756T557 614Q526 588 509 574T473 545T424 504Q373 465 289 381T158 213L162 209Q199 231 260 231Q357 231 479 178Q559 145 590 135T657 125Q766 125 798 229T831 504H868V485Z"  />
<glyph unicode="3" horiz-adv-x="918" d="M852 414Q852 279 785 180T615 30T403 -20Q223 -20 141 94T59 328Q59 382 76 431T122 509T190 539Q239 539 270 502T301 410Q301 350 270 326T176 283Q155 274 139 260T123 217Q123 178 155 129T249 46T397 12Q517 12 576 83T648 238T662 410Q662 541 641 624T560 749T387 791Q373 791 346 789T313 786Q276 786 276 809Q276 817 285 824T317 831Q325 831 364 829T408 827Q511 827 560 875T621 986T633 1135Q633 1264 596 1360T422 1456Q325 1456 256 1402T186 1292Q186 1263 198 1250T246 1212Q324 1168 324 1096Q324 1052 296 1022T225 991Q175 991 136 1036T96 1171Q96 1306 194 1398T436 1491Q531 1491 620 1446T763 1321T817 1143Q817 1067 783 1005T681 893T512 811V807Q578 796 638 766T747 687T824 568T852 414Z"  />
<glyph unicode="4" horiz-adv-x="918" d="M874 365H659V150Q659 96 677 65T766 33H862V0H285V33H381Q447 33 467 62T487 141V365H18V414L621 1491H659V418H874V365ZM487 418V1186H483L57 418H487Z"  />
<glyph unicode="5" horiz-adv-x="918" d="M856 498Q856 347 794 229T630 46T410 -20Q299 -20 215 33T86 168T41 336Q41 415 74 472T176 530Q219 530 251 497T283 408Q283 300 166 256Q119 238 119 207Q119 181 156 133T259 48T410 12Q525 12 581 80T653 251T668 514Q668 631 657 717T595 869T440 936Q361 936 286 883T158 694H121L205 1487Q225 1487 233 1485T258 1470Q399 1382 530 1382Q575 1382 635 1400T754 1487H788Q759 1413 712 1356T595 1263T440 1227Q334 1227 217 1280L164 795L168 791Q195 850 263 910T453 971Q548 971 641 917T795 757T856 498Z"  />
<glyph unicode="6" horiz-adv-x="918" d="M858 453Q858 356 825 269T734 117T610 16T479 -20Q379 -20 284 62T128 304T68 684Q68 834 101 980T196 1241T346 1424T539 1491Q624 1491 690 1448T794 1338T831 1204Q831 1141 799 1102T717 1063Q670 1063 641 1097T612 1178Q612 1235 659 1282L668 1290Q697 1319 704 1329T711 1356Q711 1394 655 1424T532 1454Q411 1454 352 1373T277 1184T262 944V770H266Q338 897 485 897Q591 897 675 839T809 677T858 453ZM672 453Q672 565 668 630T648 747T591 830T483 860Q433 860 391 842T317 788Q278 745 269 682T260 487Q260 291 268 231Q280 140 331 76T471 12Q564 12 608 73T662 222T672 453Z"  />
<glyph unicode="7" horiz-adv-x="918" d="M870 1393Q870 1341 848 1282T795 1167T688 987Q636 901 605 843T552 726T520 613T510 492Q510 482 512 443T516 340L520 178V164Q520 -20 416 -20Q317 -20 317 172Q317 339 391 532Q434 645 480 727T584 893Q762 1167 799 1253L795 1257Q728 1206 641 1206Q557 1206 432 1276Q362 1314 325 1330T250 1346Q196 1346 149 1293T98 1137L92 997H59L86 1489H121L111 1307L115 1303Q165 1385 221 1438T362 1491Q451 1491 598 1384Q671 1333 705 1315T772 1296Q796 1296 811 1317T827 1368V1378Q806 1360 784 1360Q758 1360 742 1380T725 1425Q725 1453 742 1472T791 1491Q821 1491 837 1474T862 1434T870 1393Z"  />
<glyph unicode="8" horiz-adv-x="918" d="M877 418Q877 336 847 258T759 116T625 17T457 -20Q355 -20 257 30T98 171T37 377Q37 604 297 768Q209 818 145 908T80 1128Q80 1201 106 1267T179 1382T292 1461T436 1491Q532 1491 615 1447T746 1324T795 1147Q795 1035 740 968T586 829Q583 827 579 825T575 821Q738 735 807 639T877 418ZM690 1153Q690 1269 646 1363T436 1458Q351 1458 287 1421T190 1325T156 1208Q156 1150 184 1101T264 1008T362 938T539 842Q631 912 660 983T690 1153ZM782 305Q782 382 748 444T658 555T526 647T338 748Q233 672 193 595T152 389Q152 315 167 237T251 90T455 20Q542 20 617 56T737 158T782 305Z"  />
<glyph unicode="9" horiz-adv-x="918" d="M850 788Q850 632 817 488T721 229T570 47T379 -20Q255 -20 172 67T88 268Q88 325 119 365T201 406Q247 406 276 375T305 295Q305 251 290 226T240 164Q213 137 213 102Q213 76 264 44T375 12Q527 12 592 136T657 471V702H653Q624 641 561 605T424 569Q325 569 242 630T109 793T59 1008Q59 1127 111 1239T252 1421T446 1491Q532 1491 606 1439T735 1292T819 1068T850 788ZM657 893V1112Q657 1458 453 1458Q332 1458 291 1362T250 1124V899Q250 770 286 689T438 608Q657 608 657 893Z"  />
<glyph unicode=":" horiz-adv-x="449" d="M319 897Q319 838 296 788T223 737Q176 737 153 788T129 891Q129 968 156 1010T225 1053Q257 1053 278 1029T309 968T319 897ZM319 139Q319 80 296 30T223 -20Q176 -20 153 30T129 133Q129 210 156 252T225 295Q257 295 278 271T309 210T319 139Z"  />
<glyph unicode=";" horiz-adv-x="449" d="M319 897Q319 838 296 788T223 737Q176 737 153 788T129 891Q129 968 156 1010T225 1053Q257 1053 278 1029T309 968T319 897ZM319 106Q319 -109 172 -248L152 -227Q205 -173 232 -112T260 -20Q260 -8 256 -8Q250 -8 244 -14Q228 -25 213 -25Q185 -25 158 13T131 133Q131 205 153 250T217 295Q260 295 289 247T319 106Z"  />
<glyph unicode="?" horiz-adv-x="705" d="M647 1151Q647 966 539 842T268 684V393H233V883Q343 901 420 945T539 1061T580 1225Q580 1322 544 1384T455 1474T358 1501Q283 1501 226 1441T168 1319Q168 1304 173 1294T198 1272T221 1257Q295 1214 295 1126Q295 1069 268 1046T211 1022Q168 1022 135 1071T102 1202Q102 1337 171 1436T360 1536Q422 1536 475 1508T565 1428T625 1305T647 1151ZM340 139Q340 106 330 68T299 5T244 -20Q197 -20 174 30T150 133Q150 210 176 252T246 295Q278 295 299 271T330 210T340 139Z"  />
<glyph unicode="A" horiz-adv-x="1217" d="M1212 0H578V35H696Q797 35 797 78Q797 92 772 190L700 481H379L334 301Q307 202 307 158Q307 104 340 70T475 35H510V0H16V35Q106 35 154 53T236 133T305 334L600 1505H633L977 145Q996 73 1025 54T1112 35H1212V0ZM690 516L541 1112H537L389 516H690Z"  />
<glyph unicode="B" horiz-adv-x="1110" d="M1057 393Q1057 322 1027 252T935 125T780 34T571 0H41V35H98Q167 35 194 47T230 94T238 215V1296Q238 1369 229 1399T191 1439T94 1448H41V1485H547Q632 1485 695 1475T811 1436Q869 1404 915 1357T988 1253T1014 1135Q1014 1054 972 985T852 868Q786 828 688 805V801Q786 767 840 736T940 657Q1057 538 1057 393ZM805 1126Q805 1260 783 1328T705 1422T547 1448Q500 1448 479 1446T447 1437T434 1412T430 1362V821H530Q700 821 760 897Q788 932 796 983T805 1126ZM844 424Q844 517 837 573T803 676Q740 784 530 784H430V170Q430 115 435 89T464 48T541 33Q652 33 713 54T803 121Q830 163 837 227T844 424Z"  />
<glyph unicode="C" horiz-adv-x="1024" d="M965 567Q956 417 932 321T854 143Q806 68 730 24T565 -20Q459 -20 369 48T212 232T111 484T76 754Q76 894 110 1029T209 1274T359 1444T543 1505Q626 1505 683 1466T782 1378Q821 1335 846 1335Q881 1335 892 1374T905 1483Q907 1491 907 1505H946V842H915Q901 953 879 1043T819 1225Q725 1468 535 1468Q447 1468 397 1422T322 1282Q300 1196 295 1078T289 778Q289 670 290 617T296 475T307 334T328 229Q387 12 573 12Q658 12 733 63Q822 122 872 244Q894 296 908 368T934 567H965Z"  />
<glyph unicode="D" horiz-adv-x="1217" d="M1141 721Q1141 542 1076 369T868 88Q818 49 747 25T553 0H27V35Q136 38 179 47T233 82T244 176V190V1251Q244 1350 233 1389T191 1438T78 1448Q35 1448 27 1450V1485H459Q608 1485 692 1465T842 1401Q923 1347 982 1264T1075 1089T1125 904T1141 721ZM926 774Q926 914 917 1021T888 1200T838 1323Q794 1393 720 1420T528 1448Q464 1448 450 1424T436 1329V201Q436 132 445 97T484 49T573 35Q696 35 766 71T870 193Q904 273 915 406T926 774Z"  />
<glyph unicode="E" horiz-adv-x="1130" d="M1053 621L1032 0H25V35H127Q198 35 221 63T244 152V1317Q244 1381 224 1414T127 1448H25V1485H993L1008 954H973Q954 1058 923 1157T857 1319T786 1415Q752 1448 659 1448H522Q461 1448 448 1426T434 1331V772H467Q539 772 590 790T680 889T719 1135H754V410H719Q705 563 672 634T595 721T475 737H434V129Q434 82 449 59T522 35H659Q703 35 733 41T792 64T847 113T901 199Q932 259 956 334T995 480T1020 621H1053Z"  />
<glyph unicode="F" horiz-adv-x="1067" d="M1022 952H989Q954 1163 874 1319Q834 1400 788 1424T680 1448H535Q503 1448 483 1446T449 1431T434 1395V774H508Q727 774 727 1120H764V416H727Q727 484 715 544T664 662Q636 707 600 722T508 737H434V231Q434 138 441 100T474 48T563 35H715V0H33V35H121Q175 35 201 46T235 88T244 184V1288Q244 1383 226 1415T131 1448H33V1485H1008L1022 952Z"  />
<glyph unicode="G" horiz-adv-x="1174" d="M1139 680H1065Q1018 680 1000 672T977 632T971 526V-20H940Q936 49 930 93T908 170T864 203Q842 203 828 187T791 129Q707 -20 549 -20Q352 -20 219 205Q152 318 111 453T70 745Q70 870 105 1004T206 1253T360 1437T547 1505H549Q604 1505 645 1487Q722 1451 795 1368Q833 1323 856 1323Q896 1323 908 1381T920 1505H954V877H920Q910 951 893 1035T838 1204Q726 1468 543 1468Q481 1468 425 1432T346 1346Q324 1295 311 1227T292 1083T285 938T283 766Q283 547 291 410T326 186Q353 97 406 55T545 12Q688 12 748 141Q780 214 780 315V559Q780 621 771 645T740 674T662 680H563V717H1139V680Z"  />
<glyph unicode="H" horiz-adv-x="1323" d="M1298 0H686V35H739Q806 35 835 44T875 82T887 178V782H436V178Q436 117 444 89T482 48T575 35H637V0H25V35Q132 37 173 43T229 75T244 164V1303Q244 1373 229 1402T172 1439T25 1448V1485H637V1448Q551 1448 513 1441T456 1405T436 1309V819H887V1298Q887 1372 873 1401T821 1438T686 1448V1485H1298V1448Q1191 1448 1151 1441T1095 1404T1079 1298V164Q1079 117 1087 92T1116 55T1177 41T1298 35V0Z"  />
<glyph unicode="I" horiz-adv-x="682" d="M653 0H29V35H127Q186 35 209 50T238 99T244 219V1313Q244 1383 226 1415T127 1448H29V1485H653V1448H545Q474 1448 455 1414T436 1313V195Q436 120 445 89T482 47T573 35H653V0Z"  />
<glyph unicode="J" horiz-adv-x="874" d="M850 1448H762Q682 1448 664 1416T645 1294V506V504Q645 414 641 355T616 236Q579 117 500 49T315 -20Q226 -20 162 28T64 150T31 301Q31 356 46 397T90 463T162 487Q204 487 242 458T281 369Q281 300 236 262T152 219Q118 215 107 210T96 186Q96 145 153 79T303 12Q372 12 405 53T445 158T453 342V1309Q453 1448 379 1448H223V1485H850V1448Z"  />
<glyph unicode="K" horiz-adv-x="1217" d="M1200 0H645V35H715Q801 35 801 80Q801 100 774 158Q774 161 771 169T768 174L512 748L436 635V176Q436 102 443 75T474 42T567 35H610V0H27V35H117Q181 35 206 47T238 90T244 201V1268Q244 1355 237 1390T205 1436T117 1448H27V1485H610V1448H539Q470 1448 453 1433T436 1362V1300V700H440L813 1253Q856 1320 856 1364Q856 1419 814 1432T664 1450V1485H1188V1450Q1125 1448 1078 1439T983 1398T889 1298Q877 1281 859 1255T836 1221L831 1214Q823 1202 821 1202L637 934L987 152Q1020 80 1052 58T1163 35H1200V0Z"  />
<glyph unicode="L" horiz-adv-x="1067" d="M1012 612L1006 0H27V35H115Q167 35 193 44T232 79T244 164V1303Q244 1376 232 1405T191 1441T92 1448H27V1485H657V1448H590Q534 1448 505 1444T457 1421T438 1360Q436 1348 436 1284V143Q436 108 439 86T454 54T489 39T551 35H643Q702 35 737 49T809 113Q897 227 932 358T977 612H1012Z"  />
<glyph unicode="M" horiz-adv-x="1386" d="M1366 0H702V35H801Q874 35 904 46T942 86T950 188V1393H946L637 0H606L291 1393H287V240Q287 183 299 144T340 80T419 46T549 35V0H18V35Q129 35 179 68T240 150T252 287V1319Q252 1377 239 1404T197 1439T106 1448H18V1485H465L698 449H702L934 1485H1366V1448H1268Q1212 1448 1186 1437T1151 1395T1141 1294V197Q1141 124 1149 92T1183 48T1268 35H1366V0Z"  />
<glyph unicode="N" horiz-adv-x="1174" d="M1171 1450Q1070 1450 1022 1422T961 1344T948 1194V-20H911L266 1309L262 1305V303Q262 202 277 147T342 65T496 35V0H2V35Q89 40 135 61T203 138T225 305V1253Q225 1333 215 1370T158 1429T2 1450V1485H387L907 428L911 432V1196Q911 1285 898 1337T837 1419T688 1450V1485H1171V1450Z"  />
<glyph unicode="O" horiz-adv-x="1153" d="M1077 741Q1077 559 1016 392T838 100Q774 32 713 6T578 -20Q503 -20 441 6T315 100Q209 214 143 377T76 741Q76 848 95 942T146 1115T222 1262T315 1382Q380 1450 441 1477T578 1505Q653 1505 714 1478T838 1382Q918 1296 971 1193T1050 974T1077 741ZM864 741Q864 960 851 1095T807 1309Q776 1394 721 1431T578 1468Q405 1468 346 1311Q326 1258 314 1180T295 994T289 741Q289 539 301 400T346 174Q367 118 399 82T474 29T578 12Q670 12 722 51T805 172Q824 222 835 275T853 399T862 554T864 741Z"  />
<glyph unicode="P" horiz-adv-x="1067" d="M1028 1098Q1028 905 852 797Q810 772 773 758T681 735T553 727H440V166Q440 119 445 93T473 51T547 35H672V0H29V35H123Q195 35 221 58T248 160V1296Q248 1371 238 1400T199 1439T102 1448H29V1485H520Q621 1485 670 1480T764 1458Q883 1418 955 1318T1028 1098ZM823 1087Q823 1204 815 1269T784 1370Q759 1412 707 1430T559 1448H514Q462 1448 451 1436T440 1370V762H524Q624 762 685 777T774 829Q804 866 813 922T823 1087Z"  />
<glyph unicode="Q" horiz-adv-x="1153" d="M1147 221V219Q1147 96 1114 35Q1086 -18 1041 -43T950 -68Q846 -68 772 39Q737 13 694 -3T580 -20Q507 -20 445 6T317 100Q238 183 185 288T106 507T80 741Q80 862 106 976T184 1193T317 1382Q381 1450 442 1477T580 1505Q657 1505 718 1478T842 1382Q920 1299 974 1195T1053 977T1079 741Q1079 549 1023 402T883 147Q978 63 1030 63Q1085 63 1098 115T1112 260V311H1147V221ZM868 725Q868 940 856 1081T813 1303Q784 1388 727 1428T580 1468Q410 1468 350 1311Q318 1227 306 1087T293 741Q293 590 299 491T314 326T336 213Q343 181 352 159T370 124T387 96L391 100Q385 117 385 145Q385 237 440 287T573 338Q641 338 691 307T803 219Q807 217 821 203Q868 377 868 725ZM750 74L733 106Q635 297 545 297Q496 297 458 257T420 152Q420 89 444 45Q486 26 509 19T578 12Q686 12 750 74Z"  />
<glyph unicode="R" horiz-adv-x="1194" d="M1157 274Q1157 140 1122 55T975 -31Q849 -31 811 63T772 250Q772 438 766 532T739 670Q716 718 671 735T537 752H442V166V137Q442 35 502 35H662V0H33V35H127Q187 35 212 50T242 99T248 217V1286Q248 1392 226 1420T119 1448H33V1485H569Q702 1485 794 1446T940 1346T1016 1223T1040 1106Q1040 1037 1005 965T893 835T698 758V754Q799 709 864 610Q920 525 938 440T961 258Q967 133 977 81T1028 29Q1070 29 1090 73T1115 177T1120 317H1157V274ZM834 1096Q834 1201 826 1266T791 1370Q765 1411 711 1429T569 1448H555Q510 1448 490 1446T460 1437T446 1413T442 1366V780H561Q649 780 700 795T780 844Q834 909 834 1096Z"  />
<glyph unicode="S" horiz-adv-x="938" d="M893 416Q893 309 852 208T729 44T539 -20Q443 -20 385 18T262 127Q229 164 203 164Q160 164 147 114T131 -20H98V676H131Q181 372 240 254Q297 141 367 80T539 18Q653 18 724 95T795 287Q795 412 710 506T426 717Q311 786 246 835T135 961T90 1145Q90 1252 132 1334T248 1461T412 1505Q468 1505 512 1487Q580 1463 639 1395Q680 1350 702 1350Q762 1350 762 1505H797V893H762Q746 1096 688 1237Q643 1347 584 1403Q510 1470 412 1470Q356 1470 302 1443T214 1368T180 1262Q180 1211 205 1166T279 1077T372 1003T532 901Q659 824 729 768T846 626T893 416Z"  />
<glyph unicode="T" horiz-adv-x="981" d="M950 940H920Q917 955 892 1060T842 1242T795 1360Q770 1408 741 1428T657 1448H590V176Q590 109 601 80T644 43T743 35H854V0H135V35H258Q335 35 366 55T397 158V1448H315Q263 1448 236 1434T186 1376Q159 1323 136 1254T97 1120T66 971Q66 962 64 952T61 940H31V1485H950V940Z"  />
<glyph unicode="U" horiz-adv-x="1217" d="M1200 1448Q1147 1448 1103 1436T1025 1380T991 1247V391Q991 242 946 152Q863 -20 635 -20Q530 -20 431 19T279 141Q229 219 229 385V1323Q229 1406 201 1427T82 1448H29V1485H627V1448H551Q484 1448 459 1435T428 1383T422 1231V362Q422 282 426 230T451 129Q499 12 653 12Q725 12 798 46T913 158Q956 236 956 401V1219Q956 1322 925 1372T850 1435T743 1448V1485H1200V1448Z"  />
<glyph unicode="V" horiz-adv-x="1237" d="M1223 1450Q1153 1448 1105 1435T1015 1374T950 1221Q949 1220 949 1217T948 1211T946 1206L637 -20H604L258 1296Q258 1296 256 1304T252 1315Q232 1400 203 1424T82 1448H23V1485H664V1448H559Q485 1448 458 1440T430 1397Q430 1384 434 1374Q434 1360 440 1348L696 360H700L905 1186Q926 1281 926 1319Q926 1404 870 1427T729 1450V1485H1223V1450Z"  />
<glyph unicode="W" horiz-adv-x="1686" d="M1665 1450Q1587 1449 1541 1423T1470 1349T1423 1223Q1422 1220 1420 1211T1417 1198L1137 -20H1102L844 1092H840L584 -20H551L246 1282Q242 1286 242 1300Q225 1399 198 1423T119 1448H16V1485H569V1448H518Q470 1448 443 1439T416 1397Q416 1363 424 1333L641 399H645L823 1169L784 1335Q774 1385 761 1409T727 1440T657 1448H606V1485H1124V1448H1061Q1015 1448 991 1439T967 1391Q967 1376 971 1360Q971 1347 977 1335L1192 399H1196L1378 1194Q1395 1263 1395 1313Q1395 1386 1342 1417T1217 1448H1163V1485H1665V1450Z"  />
<glyph unicode="X" horiz-adv-x="1280" d="M1255 0H582V35H664Q762 35 789 43T817 76Q817 104 774 211L586 670L412 324Q412 323 401 303Q340 189 340 131Q340 73 383 54T492 35H537V0H25V35Q113 42 170 68T268 143T352 276L571 713L332 1300Q332 1302 330 1306T328 1311Q302 1378 279 1405T220 1439T94 1450V1485H690V1448H561Q535 1445 519 1440T502 1413Q502 1391 512 1366Q521 1339 532 1317Q532 1315 537 1305L684 936L868 1307Q901 1367 901 1397Q901 1433 865 1441T743 1450V1485H1174V1450Q1110 1450 1065 1438T989 1400T936 1343T877 1247Q870 1238 868 1231L698 897L969 231Q999 158 1017 121T1056 65T1109 41T1202 35H1255V0Z"  />
<glyph unicode="Y" horiz-adv-x="1280" d="M1255 1448Q1171 1448 1100 1410T977 1243L754 692V160Q754 80 780 58T879 35H987V0H326V35H424Q491 35 517 46T552 89T561 197V655L274 1323Q240 1407 203 1432Q177 1448 25 1448V1485H676V1448H623Q530 1448 510 1446Q453 1438 453 1399Q453 1382 471 1339L733 729L934 1227Q956 1288 956 1327Q956 1401 909 1424T791 1448H760V1485H1255V1448Z"  />
<glyph unicode="Z" horiz-adv-x="981" d="M918 1485L254 35H492Q547 35 571 36T613 42T641 53T674 78Q724 121 760 192T820 339T853 466T881 602V618H915L881 0H29L694 1448H408Q356 1448 328 1432T258 1346Q189 1229 137 975V963H102L131 1485H918Z"  />
<glyph unicode="[" horiz-adv-x="575" d="M559 -119H123V1489H559V1454H281V-84H559V-119Z"  />
<glyph unicode="]" horiz-adv-x="575" d="M453 -119H16V-84H295V1454H16V1489H453V-119Z"  />
<glyph unicode="_" horiz-adv-x="1024" d="M1036 -256H-12V-154H1036V-256Z"  />
<glyph unicode="`" horiz-adv-x="682" d="M436 1548H408L176 1837H393L436 1548Z"  />
<glyph unicode="{" horiz-adv-x="618" d="M659 -375Q484 -351 385 -236T285 10Q285 86 305 168Q330 281 330 326Q330 360 309 404T237 487T102 537V578Q185 589 237 626T309 708T330 788Q330 844 305 944Q285 1032 285 1104Q285 1183 328 1266T454 1411T659 1489V1454Q556 1429 495 1370T434 1223Q434 1183 444 1130T459 1059Q479 977 479 903Q479 857 458 795T370 668T184 561V557Q330 505 404 408T479 211Q479 136 459 53Q454 36 444 -17T434 -109Q434 -165 474 -234T659 -340V-375Z"  />
<glyph unicode="}" horiz-adv-x="618" d="M516 537Q396 521 343 454T289 326Q289 266 313 170Q334 88 334 10Q334 -69 291 -152T164 -297T-41 -375V-340Q63 -313 123 -255T184 -109Q184 -29 160 55Q139 142 139 211Q139 293 199 393T434 553V557Q288 610 214 707T139 903Q139 974 160 1061Q184 1145 184 1223Q184 1279 143 1349T-41 1454V1489Q50 1477 121 1439T238 1346T309 1228T334 1104Q334 1023 313 946Q289 838 289 788Q289 728 343 661T516 578V537Z"  />
<glyph unicode="&#xA0;" horiz-adv-x="459" />
<glyph unicode="&#xA1;" horiz-adv-x="449" d="M322 1382Q322 1306 295 1264T225 1221Q178 1221 155 1269T131 1376Q131 1434 154 1485T227 1536Q260 1536 281 1511T312 1449T322 1382ZM334 115Q334 74 312 27T231 -20Q178 -20 155 25T131 115Q131 131 140 192T162 328T178 416Q187 471 192 528T202 653T207 784V1120H244V868Q244 742 256 605T293 352L319 227Q334 173 334 115Z"  />
<glyph unicode="&#xA2;" horiz-adv-x="788" d="M758 334Q752 236 714 155T607 25T442 -23Q395 -23 365 -16L322 -236H287L332 -8Q267 16 205 74T101 231T59 463Q59 583 101 698T228 884T436 956Q491 956 516 946L557 1157H594L551 934Q613 908 652 865T709 774T727 686Q727 630 695 592T612 553Q587 553 567 564T536 595T524 639Q524 688 573 727Q593 741 604 757T616 799Q616 822 598 852T543 899L373 29Q412 10 455 10Q510 10 568 42T668 141Q695 185 705 229T723 334H758ZM510 911Q471 922 434 922Q312 922 272 782Q250 702 250 520V514Q250 443 254 361T264 227Q272 152 291 116T342 49L510 911Z"  />
<glyph unicode="&#xA3;" horiz-adv-x="1174" d="M1114 453Q1113 349 1087 260T1015 109T906 14T770 -20Q658 -20 504 57Q466 76 451 86Q448 89 443 91T434 94Q329 -20 199 -20Q126 -20 87 15T47 96Q47 137 82 174T181 235T324 258Q379 258 487 240Q504 285 504 340Q504 431 459 627H174V680H449Q414 833 414 969Q414 1130 467 1249T604 1430T780 1491Q868 1491 939 1438T1050 1301T1090 1135Q1090 1061 1060 1020T981 979Q944 979 917 1011T889 1098Q889 1169 942 1200Q977 1221 989 1233T1001 1270Q1001 1314 969 1357T887 1427T778 1454Q661 1454 627 1361T592 1169Q592 1113 604 975L618 829Q627 748 627 680H899V627H629V621Q629 577 622 518T592 378T522 229Q565 217 623 195Q711 163 765 148T868 133Q948 133 993 173T1056 281T1081 453H1114ZM401 109Q263 168 186 168Q144 168 116 146T88 90Q88 50 124 31T203 12Q312 12 401 109Z"  />
<glyph unicode="&#xA5;" horiz-adv-x="1280" d="M1255 1448Q1202 1448 1156 1436T1061 1378T977 1243L770 729H1192V688H754V424H1192V383H754V160Q754 80 781 58T879 35H987V0H326V35H424Q491 35 517 46T552 89T561 197V383H109V424H561V655L545 688H109V729H528L274 1323Q240 1407 203 1432Q187 1442 150 1445T25 1448V1485H676V1448Q541 1448 510 1446Q453 1437 453 1401Q453 1390 455 1381T461 1362T471 1339L733 729L934 1227Q956 1288 956 1327Q956 1405 905 1426T774 1448H760V1485H1255V1448Z"  />
<glyph unicode="&#xA8;" horiz-adv-x="682" d="M559 1683Q559 1643 542 1597T471 1550Q389 1550 389 1683Q389 1735 407 1773T471 1812Q496 1812 515 1797T547 1751T559 1683ZM295 1683Q295 1643 278 1597T207 1550Q125 1550 125 1683Q125 1735 144 1773T207 1812Q232 1812 251 1797T283 1751T295 1683Z"  />
<glyph unicode="&#xA9;" horiz-adv-x="1556" d="M1487 797Q1487 605 1392 442T1133 184T778 88Q587 88 424 183T166 441T70 797Q70 990 165 1153T424 1411T778 1505Q968 1505 1132 1411T1391 1154T1487 797ZM1425 797Q1425 930 1375 1049T1235 1257T1027 1395T778 1444Q603 1444 454 1358T218 1123T131 797Q131 664 179 548T320 340T529 199T778 150Q954 150 1103 236T1338 472T1425 797ZM1167 549Q1096 447 1002 397T782 346Q679 346 595 381T448 480T352 625T319 791Q319 882 354 965T455 1114T615 1216T817 1253Q871 1253 903 1247T1004 1217Q1030 1208 1040 1208Q1060 1208 1070 1219T1090 1253H1128L1149 973H1110Q1094 1024 1068 1073T976 1165T807 1208Q713 1208 640 1163T526 1030T485 819Q485 745 503 657T594 488T817 408Q1013 408 1128 569L1167 549Z"  />
<glyph unicode="&#xAA;" horiz-adv-x="512" d="M518 1018Q518 971 503 941T430 911Q377 911 356 931T324 983Q292 911 180 911Q101 911 70 951T39 1040Q39 1127 133 1169Q136 1169 144 1173T156 1180Q259 1222 311 1272V1425Q311 1445 288 1463T231 1481Q205 1481 185 1470T164 1446Q164 1436 186 1419Q227 1396 227 1352Q227 1315 202 1296T141 1276Q104 1276 82 1300T59 1362Q59 1421 121 1463T268 1505Q362 1505 412 1457T463 1346V977Q463 956 475 956Q481 956 490 971T500 1004Q500 1008 500 1011T498 1018H518ZM311 1032V1237Q265 1208 239 1190T200 1153T186 1118V1008Q186 973 198 962T242 950Q268 950 289 978T311 1032Z"  />
<glyph unicode="&#xAB;" horiz-adv-x="811" d="M768 244H721L418 616L721 993H768L631 616L768 244ZM393 244H346L43 616L346 993H393L256 616L393 244Z"  />
<glyph unicode="&#xAD;" horiz-adv-x="938" d="M733 438H209V604H733V438Z"  />
<glyph unicode="&#xAE;" horiz-adv-x="1556" d="M1487 797Q1487 605 1392 442T1133 184T778 88Q587 88 424 183T166 441T70 797Q70 990 165 1153T424 1411T778 1505Q968 1505 1132 1411T1391 1154T1487 797ZM1425 797Q1425 930 1375 1049T1235 1257T1027 1395T778 1444Q603 1444 454 1358T218 1123T131 797Q131 664 179 548T320 340T529 199T778 150Q954 150 1103 236T1338 472T1425 797ZM1178 367H993L698 772H623V537Q623 467 627 448T653 416Q679 401 741 401V367H375V401Q447 401 463 428T479 539V1063Q479 1146 466 1171T385 1198V1233H772Q863 1233 930 1205T1033 1125T1069 1010Q1069 904 1001 858T846 786L1057 489Q1099 432 1123 418T1178 401V367ZM907 997Q907 1049 883 1092T812 1162T707 1188Q665 1188 623 1174V815H653Q752 815 829 855T907 997Z"  />
<glyph unicode="&#xAF;" horiz-adv-x="1024" d="M1036 1639H-12V1741H1036V1639Z"  />
<glyph unicode="&#xB2;" horiz-adv-x="532" d="M520 975Q520 867 489 807T416 727T330 707Q260 707 180 764Q145 789 132 797T104 805Q80 805 71 767T61 705H16Q19 781 59 841T176 965Q204 993 244 1022Q318 1081 346 1140T375 1282Q375 1454 250 1454Q176 1454 124 1405T72 1300Q72 1266 100 1266Q143 1266 170 1251T197 1200Q197 1135 119 1135Q78 1135 48 1164T18 1260Q18 1324 50 1375T139 1457T262 1487Q330 1487 388 1459T480 1382T514 1272Q514 1219 491 1179T430 1106T330 1030Q278 994 234 962T163 904T111 848L115 844Q127 848 150 848Q214 848 281 821Q317 809 317 809Q363 795 385 795Q475 795 475 967V987H520V975Z"  />
<glyph unicode="&#xB3;" horiz-adv-x="532" d="M510 936Q510 830 425 769T233 707Q160 707 111 736T40 809T18 891Q18 937 42 971T109 1006Q143 1006 164 986T186 934Q186 901 164 886T102 862Q80 855 80 836Q80 802 121 770T231 737Q375 737 375 932Q375 1003 362 1043T317 1102T223 1120Q177 1120 162 1122T147 1137Q147 1155 182 1155H190Q261 1155 277 1157T315 1174Q341 1190 349 1219T358 1305Q358 1371 337 1415T246 1460Q210 1460 181 1448T134 1418T117 1384Q117 1370 124 1363T143 1350Q199 1323 199 1282Q199 1258 178 1241T129 1223Q95 1223 68 1247T41 1321Q41 1393 102 1442T254 1491Q313 1491 368 1467T456 1400T489 1309Q489 1253 446 1209T326 1141V1137Q408 1117 459 1065T510 936Z"  />
<glyph unicode="&#xB4;" horiz-adv-x="682" d="M522 1837L291 1548H262L305 1837H522Z"  />
<glyph unicode="&#xB7;" horiz-adv-x="449" d="M319 737Q319 678 296 628T223 578Q176 578 153 628T129 731Q129 808 156 850T225 893Q257 893 278 869T309 808T319 737Z"  />
<glyph unicode="&#xB8;" horiz-adv-x="682" d="M545 -119Q545 -173 479 -207T293 -242Q198 -242 123 -217L135 -184Q189 -197 231 -197Q295 -197 328 -175T362 -121Q362 -93 340 -75T289 -57Q270 -57 242 -61L236 -25Q309 -8 362 -8Q447 -8 496 -39T545 -119Z"  />
<glyph unicode="&#xB9;" horiz-adv-x="532" d="M455 717H78V748H147Q186 748 195 759T205 803V1341Q205 1374 200 1380T160 1386H78V1415Q147 1417 176 1420T238 1440T293 1491H332V811Q332 769 342 759T389 748H455V717Z"  />
<glyph unicode="&#xBA;" horiz-adv-x="555" d="M516 1206Q516 1126 486 1058T401 949T279 909Q176 909 109 995T41 1206Q41 1335 110 1420T274 1505Q349 1505 403 1464T487 1354T516 1206ZM342 1014V1401Q342 1481 281 1481Q215 1481 215 1401V1014Q215 930 279 930Q342 930 342 1014Z"  />
<glyph unicode="&#xBB;" horiz-adv-x="811" d="M768 621L465 244H418L555 621L418 993H465L768 621ZM393 621L90 244H43L180 621L43 993H90L393 621Z"  />
<glyph unicode="&#xBF;" horiz-adv-x="705" d="M555 1382Q555 1306 529 1264T459 1221Q412 1221 389 1269T365 1376Q365 1433 388 1484T461 1536Q508 1536 531 1486T555 1382ZM602 313Q602 228 572 151T484 27T344 -20Q220 -20 139 89T57 365Q57 489 107 588T245 749T436 831V1122H471V633Q306 607 216 519T125 291Q125 194 161 132T249 42T346 14Q397 14 441 44T511 116T537 197Q537 218 526 229T483 258Q410 302 410 389Q410 445 437 469T494 494Q521 494 546 473T586 410T602 313Z"  />
<glyph unicode="&#xC0;" horiz-adv-x="1217" d="M1212 0H578V35H696Q797 35 797 78Q797 92 772 190L700 481H379L334 301Q307 202 307 158Q307 104 340 70T475 35H510V0H16V35Q106 35 154 53T236 133T305 334L600 1505H633L977 145Q996 73 1025 54T1112 35H1212V0ZM690 516L541 1112H537L389 516H690ZM704 1579H676L444 1868H661L704 1579Z"  />
<glyph unicode="&#xC1;" horiz-adv-x="1217" d="M1212 0H578V35H696Q797 35 797 78Q797 92 772 190L700 481H379L334 301Q307 202 307 158Q307 104 340 70T475 35H510V0H16V35Q106 35 154 53T236 133T305 334L600 1505H633L977 145Q996 73 1025 54T1112 35H1212V0ZM690 516L541 1112H537L389 516H690ZM790 1868L559 1579H530L573 1868H790Z"  />
<glyph unicode="&#xC2;" horiz-adv-x="1217" d="M1212 0H578V35H696Q797 35 797 78Q797 92 772 190L700 481H379L334 301Q307 202 307 158Q307 104 340 70T475 35H510V0H16V35Q106 35 154 53T236 133T305 334L600 1505H633L977 145Q996 73 1025 54T1112 35H1212V0ZM690 516L541 1112H537L389 516H690ZM790 1581H633L549 1768L473 1581H428L544 1868H665L790 1581Z"  />
<glyph unicode="&#xC3;" horiz-adv-x="1217" d="M1212 0H578V35H696Q797 35 797 78Q797 92 772 190L700 481H379L334 301Q307 202 307 158Q307 104 340 70T475 35H510V0H16V35Q106 35 154 53T236 133T305 334L600 1505H633L977 145Q996 73 1025 54T1112 35H1212V0ZM690 516L541 1112H537L389 516H690ZM815 1819Q812 1725 790 1652T688 1579Q661 1579 641 1588T607 1609T567 1647L538 1678Q535 1683 520 1694T493 1706Q464 1706 455 1679T438 1602H403Q403 1677 409 1713T438 1782Q477 1837 534 1837Q573 1837 601 1817T645 1776Q685 1732 697 1722T729 1712Q754 1712 764 1739T780 1819H815Z"  />
<glyph unicode="&#xC4;" horiz-adv-x="1217" d="M1212 0H578V35H696Q797 35 797 78Q797 92 772 190L700 481H379L334 301Q307 202 307 158Q307 104 340 70T475 35H510V0H16V35Q106 35 154 53T236 133T305 334L600 1505H633L977 145Q996 73 1025 54T1112 35H1212V0ZM690 516L541 1112H537L389 516H690ZM827 1714Q827 1674 810 1628T739 1581Q657 1581 657 1714Q657 1766 675 1804T739 1843Q764 1843 783 1828T815 1782T827 1714ZM563 1714Q563 1674 546 1628T475 1581Q393 1581 393 1714Q393 1766 412 1804T475 1843Q500 1843 519 1828T551 1782T563 1714Z"  />
<glyph unicode="&#xC5;" horiz-adv-x="1217" d="M1212 0H578V35H696Q797 35 797 78Q797 92 772 190L700 481H379L334 301Q307 202 307 158Q307 104 340 70T475 35H510V0H16V35Q106 35 154 53T236 133T305 334L600 1505H633L977 145Q996 73 1025 54T1112 35H1212V0ZM690 516L541 1112H537L389 516H690ZM731 1698Q731 1647 695 1613T610 1579Q562 1579 526 1614T489 1698Q489 1749 524 1784T610 1819Q661 1819 696 1784T731 1698ZM671 1698Q671 1724 653 1742T610 1760Q586 1760 569 1742T551 1698Q551 1675 569 1657T610 1639Q634 1639 652 1656T671 1698Z"  />
<glyph unicode="&#xC6;" horiz-adv-x="1749" d="M1688 621L1665 0H645V35H745Q810 35 841 53T872 139V743H580L397 297Q367 222 367 172Q367 82 420 59T571 35V0H23V35Q91 37 136 48T224 92T306 189T385 350L760 1280Q760 1280 764 1292Q788 1347 788 1380Q788 1411 769 1425T704 1444T545 1450V1485H1628L1638 961H1604Q1548 1249 1448 1378Q1423 1413 1390 1431T1282 1450H1165Q1115 1450 1096 1441T1071 1409T1065 1323V780H1124Q1192 780 1238 806T1315 911T1356 1139H1391V420H1356Q1335 610 1281 676T1133 743H1065V178Q1065 88 1074 62T1120 35H1294Q1361 35 1401 54T1479 125Q1521 184 1573 318T1653 621H1688ZM872 780V1450H866L594 780H872Z"  />
<glyph unicode="&#xC7;" horiz-adv-x="1024" d="M965 567Q961 489 949 405T901 231T795 74T612 -14V-18Q717 -45 717 -119Q717 -174 651 -208T465 -242Q372 -242 295 -217L307 -184Q357 -197 401 -197Q465 -197 498 -175T532 -121Q532 -93 510 -75T459 -57Q440 -57 412 -61L408 -25Q416 -25 426 -20Q457 -12 481 -12H485V-8Q365 24 271 143T125 426T74 754Q74 894 108 1029T207 1274T357 1444T541 1505Q625 1505 682 1466T780 1378Q819 1335 844 1335Q880 1335 891 1374T905 1483Q905 1495 907 1505H944V842H915Q879 1098 792 1283T535 1468Q450 1468 399 1422T325 1290T296 1082T289 778Q289 507 304 353T381 106T573 12Q660 12 740 67T872 244Q894 296 908 368T934 567H965Z"  />
<glyph unicode="&#xC8;" horiz-adv-x="1130" d="M1053 621L1032 0H25V35H127Q198 35 221 63T244 152V1317Q244 1381 224 1414T127 1448H25V1485H993L1008 954H973Q954 1058 923 1157T857 1319T786 1415Q752 1448 659 1448H522Q461 1448 448 1426T434 1331V772H467Q539 772 590 790T680 889T719 1135H754V410H719Q705 563 672 634T595 721T475 737H434V129Q434 82 449 59T522 35H659Q703 35 733 41T792 64T847 113T901 199Q932 259 956 334T995 480T1020 621H1053ZM661 1579H633L401 1868H618L661 1579Z"  />
<glyph unicode="&#xC9;" horiz-adv-x="1130" d="M1053 621L1032 0H25V35H127Q198 35 221 63T244 152V1317Q244 1381 224 1414T127 1448H25V1485H993L1008 954H973Q954 1058 923 1157T857 1319T786 1415Q752 1448 659 1448H522Q461 1448 448 1426T434 1331V772H467Q539 772 590 790T680 889T719 1135H754V410H719Q705 563 672 634T595 721T475 737H434V129Q434 82 449 59T522 35H659Q703 35 733 41T792 64T847 113T901 199Q932 259 956 334T995 480T1020 621H1053ZM747 1868L516 1579H487L530 1868H747Z"  />
<glyph unicode="&#xCA;" horiz-adv-x="1130" d="M1053 621L1032 0H25V35H127Q198 35 221 63T244 152V1317Q244 1381 224 1414T127 1448H25V1485H993L1008 954H973Q954 1058 923 1157T857 1319T786 1415Q752 1448 659 1448H522Q461 1448 448 1426T434 1331V772H467Q539 772 590 790T680 889T719 1135H754V410H719Q705 563 672 634T595 721T475 737H434V129Q434 82 449 59T522 35H659Q703 35 733 41T792 64T847 113T901 199Q932 259 956 334T995 480T1020 621H1053ZM747 1581H590L506 1768L430 1581H385L501 1868H622L747 1581Z"  />
<glyph unicode="&#xCB;" horiz-adv-x="1130" d="M1053 621L1032 0H25V35H127Q198 35 221 63T244 152V1317Q244 1381 224 1414T127 1448H25V1485H993L1008 954H973Q954 1058 923 1157T857 1319T786 1415Q752 1448 659 1448H522Q461 1448 448 1426T434 1331V772H467Q539 772 590 790T680 889T719 1135H754V410H719Q705 563 672 634T595 721T475 737H434V129Q434 82 449 59T522 35H659Q703 35 733 41T792 64T847 113T901 199Q932 259 956 334T995 480T1020 621H1053ZM784 1714Q784 1674 767 1628T696 1581Q614 1581 614 1714Q614 1766 632 1804T696 1843Q721 1843 740 1828T772 1782T784 1714ZM520 1714Q520 1674 503 1628T432 1581Q350 1581 350 1714Q350 1766 369 1804T432 1843Q457 1843 476 1828T508 1782T520 1714Z"  />
<glyph unicode="&#xCC;" horiz-adv-x="682" d="M653 0H29V35H127Q186 35 209 50T238 99T244 219V1313Q244 1383 226 1415T127 1448H29V1485H653V1448H545Q474 1448 455 1414T436 1313V195Q436 120 445 89T482 47T573 35H653V0ZM436 1579H408L176 1868H393L436 1579Z"  />
<glyph unicode="&#xCD;" horiz-adv-x="682" d="M653 0H29V35H127Q186 35 209 50T238 99T244 219V1313Q244 1383 226 1415T127 1448H29V1485H653V1448H545Q474 1448 455 1414T436 1313V195Q436 120 445 89T482 47T573 35H653V0ZM522 1868L291 1579H262L305 1868H522Z"  />
<glyph unicode="&#xCE;" horiz-adv-x="682" d="M653 0H29V35H127Q186 35 209 50T238 99T244 219V1313Q244 1383 226 1415T127 1448H29V1485H653V1448H545Q474 1448 455 1414T436 1313V195Q436 120 445 89T482 47T573 35H653V0ZM522 1581H365L281 1768L205 1581H160L276 1868H397L522 1581Z"  />
<glyph unicode="&#xCF;" horiz-adv-x="682" d="M653 0H29V35H127Q186 35 209 50T238 99T244 219V1313Q244 1383 226 1415T127 1448H29V1485H653V1448H545Q474 1448 455 1414T436 1313V195Q436 120 445 89T482 47T573 35H653V0ZM559 1714Q559 1674 542 1628T471 1581Q389 1581 389 1714Q389 1766 407 1804T471 1843Q496 1843 515 1828T547 1782T559 1714ZM295 1714Q295 1674 278 1628T207 1581Q125 1581 125 1714Q125 1766 144 1804T207 1843Q232 1843 251 1828T283 1782T295 1714Z"  />
<glyph unicode="&#xD0;" horiz-adv-x="1217" d="M1141 721Q1141 542 1076 369T868 88Q818 49 747 25T553 0H27V35Q148 40 178 46T227 76Q239 90 241 107T244 190V723H27V762H244V1251Q244 1343 235 1383T196 1437T92 1450H45H27V1485H459Q608 1485 692 1465T842 1401Q919 1349 979 1265T1075 1089T1125 905T1141 721ZM926 782Q926 995 905 1126T837 1326T718 1422T528 1448Q464 1448 450 1424T436 1329V762H680V723H436V201Q436 132 445 97T484 49T573 35Q697 35 767 72T872 193T916 405T926 782Z"  />
<glyph unicode="&#xD1;" horiz-adv-x="1174" d="M1171 1450Q1070 1450 1022 1422T961 1344T948 1194V-20H911L266 1309L262 1305V303Q262 202 277 147T342 65T496 35V0H2V35Q89 40 135 61T203 138T225 305V1253Q225 1333 215 1370T158 1429T2 1450V1485H387L907 428L911 432V1196Q911 1285 898 1337T837 1419T688 1450V1485H1171V1450ZM793 1819Q790 1725 768 1652T666 1579Q639 1579 619 1588T585 1609T545 1647L516 1678Q513 1683 498 1694T471 1706Q442 1706 433 1679T416 1602H381Q381 1677 387 1713T416 1782Q455 1837 512 1837Q551 1837 579 1817T623 1776Q663 1732 675 1722T707 1712Q732 1712 742 1739T758 1819H793Z"  />
<glyph unicode="&#xD2;" horiz-adv-x="1153" d="M1077 741Q1077 559 1016 392T838 100Q774 32 713 6T578 -20Q503 -20 441 6T315 100Q209 214 143 377T76 741Q76 848 95 942T146 1115T222 1262T315 1382Q380 1450 441 1477T578 1505Q653 1505 714 1478T838 1382Q918 1296 971 1193T1050 974T1077 741ZM864 741Q864 960 851 1095T807 1309Q776 1394 721 1431T578 1468Q405 1468 346 1311Q326 1258 314 1180T295 994T289 741Q289 539 301 400T346 174Q367 118 399 82T474 29T578 12Q670 12 722 51T805 172Q824 222 835 275T853 399T862 554T864 741ZM672 1579H644L412 1868H629L672 1579Z"  />
<glyph unicode="&#xD3;" horiz-adv-x="1153" d="M1077 741Q1077 559 1016 392T838 100Q774 32 713 6T578 -20Q503 -20 441 6T315 100Q209 214 143 377T76 741Q76 848 95 942T146 1115T222 1262T315 1382Q380 1450 441 1477T578 1505Q653 1505 714 1478T838 1382Q918 1296 971 1193T1050 974T1077 741ZM864 741Q864 960 851 1095T807 1309Q776 1394 721 1431T578 1468Q405 1468 346 1311Q326 1258 314 1180T295 994T289 741Q289 539 301 400T346 174Q367 118 399 82T474 29T578 12Q670 12 722 51T805 172Q824 222 835 275T853 399T862 554T864 741ZM758 1868L527 1579H498L541 1868H758Z"  />
<glyph unicode="&#xD4;" horiz-adv-x="1153" d="M1077 741Q1077 559 1016 392T838 100Q774 32 713 6T578 -20Q503 -20 441 6T315 100Q209 214 143 377T76 741Q76 848 95 942T146 1115T222 1262T315 1382Q380 1450 441 1477T578 1505Q653 1505 714 1478T838 1382Q918 1296 971 1193T1050 974T1077 741ZM864 741Q864 960 851 1095T807 1309Q776 1394 721 1431T578 1468Q405 1468 346 1311Q326 1258 314 1180T295 994T289 741Q289 539 301 400T346 174Q367 118 399 82T474 29T578 12Q670 12 722 51T805 172Q824 222 835 275T853 399T862 554T864 741ZM757 1581H600L516 1768L440 1581H395L511 1868H632L757 1581Z"  />
<glyph unicode="&#xD5;" horiz-adv-x="1153" d="M1077 741Q1077 559 1016 392T838 100Q774 32 713 6T578 -20Q503 -20 441 6T315 100Q209 214 143 377T76 741Q76 848 95 942T146 1115T222 1262T315 1382Q380 1450 441 1477T578 1505Q653 1505 714 1478T838 1382Q918 1296 971 1193T1050 974T1077 741ZM864 741Q864 960 851 1095T807 1309Q776 1394 721 1431T578 1468Q405 1468 346 1311Q326 1258 314 1180T295 994T289 741Q289 539 301 400T346 174Q367 118 399 82T474 29T578 12Q670 12 722 51T805 172Q824 222 835 275T853 399T862 554T864 741ZM782 1819Q779 1725 757 1652T655 1579Q628 1579 608 1588T574 1609T534 1647L505 1678Q502 1683 487 1694T460 1706Q431 1706 422 1679T405 1602H370Q370 1677 376 1713T405 1782Q444 1837 501 1837Q540 1837 568 1817T612 1776Q652 1732 664 1722T696 1712Q721 1712 731 1739T747 1819H782Z"  />
<glyph unicode="&#xD6;" horiz-adv-x="1153" d="M1077 741Q1077 559 1016 392T838 100Q774 32 713 6T578 -20Q503 -20 441 6T315 100Q209 214 143 377T76 741Q76 848 95 942T146 1115T222 1262T315 1382Q380 1450 441 1477T578 1505Q653 1505 714 1478T838 1382Q918 1296 971 1193T1050 974T1077 741ZM864 741Q864 960 851 1095T807 1309Q776 1394 721 1431T578 1468Q405 1468 346 1311Q326 1258 314 1180T295 994T289 741Q289 539 301 400T346 174Q367 118 399 82T474 29T578 12Q670 12 722 51T805 172Q824 222 835 275T853 399T862 554T864 741ZM794 1714Q794 1674 777 1628T706 1581Q624 1581 624 1714Q624 1766 642 1804T706 1843Q731 1843 750 1828T782 1782T794 1714ZM530 1714Q530 1674 513 1628T442 1581Q360 1581 360 1714Q360 1766 379 1804T442 1843Q467 1843 486 1828T518 1782T530 1714Z"  />
<glyph unicode="&#xD8;" horiz-adv-x="1153" d="M1081 1487L936 1260Q972 1199 1002 1132T1056 963T1079 741Q1079 620 1054 506T975 289T842 100Q778 32 717 6T580 -20Q483 -20 406 27T244 193L104 -23L72 -2L221 229Q190 278 159 344T104 513T80 741Q80 862 106 976T184 1193T317 1382Q381 1450 442 1477T580 1505Q650 1505 705 1483T807 1418T911 1294L1051 1507L1081 1487ZM842 1186Q838 1199 834 1223Q821 1283 801 1334T727 1426T580 1468Q460 1468 399 1395T315 1162T293 711Q293 624 296 560T305 416Q305 381 309 365L842 1186ZM868 741Q868 973 852 1128H848L317 305Q327 239 343 188T390 97T467 34T580 12Q695 12 757 79T843 304T868 741Z"  />
<glyph unicode="&#xD9;" horiz-adv-x="1217" d="M1200 1448Q1147 1448 1103 1436T1025 1380T991 1247V391Q991 242 946 152Q863 -20 635 -20Q530 -20 431 19T279 141Q229 219 229 385V1323Q229 1406 201 1427T82 1448H29V1485H627V1448H551Q484 1448 459 1435T428 1383T422 1231V362Q422 282 426 230T451 129Q499 12 653 12Q725 12 798 46T913 158Q956 236 956 401V1219Q956 1322 925 1372T850 1435T743 1448V1485H1200V1448ZM766 1579H738L506 1868H723L766 1579Z"  />
<glyph unicode="&#xDA;" horiz-adv-x="1217" d="M1200 1448Q1147 1448 1103 1436T1025 1380T991 1247V391Q991 242 946 152Q863 -20 635 -20Q530 -20 431 19T279 141Q229 219 229 385V1323Q229 1406 201 1427T82 1448H29V1485H627V1448H551Q484 1448 459 1435T428 1383T422 1231V362Q422 282 426 230T451 129Q499 12 653 12Q725 12 798 46T913 158Q956 236 956 401V1219Q956 1322 925 1372T850 1435T743 1448V1485H1200V1448ZM872 1868L641 1579H612L655 1868H872Z"  />
<glyph unicode="&#xDB;" horiz-adv-x="1217" d="M1200 1448Q1147 1448 1103 1436T1025 1380T991 1247V391Q991 242 946 152Q863 -20 635 -20Q530 -20 431 19T279 141Q229 219 229 385V1323Q229 1406 201 1427T82 1448H29V1485H627V1448H551Q484 1448 459 1435T428 1383T422 1231V362Q422 282 426 230T451 129Q499 12 653 12Q725 12 798 46T913 158Q956 236 956 401V1219Q956 1322 925 1372T850 1435T743 1448V1485H1200V1448ZM872 1581H715L631 1768L555 1581H510L626 1868H747L872 1581Z"  />
<glyph unicode="&#xDC;" horiz-adv-x="1217" d="M1200 1448Q1147 1448 1103 1436T1025 1380T991 1247V391Q991 242 946 152Q863 -20 635 -20Q530 -20 431 19T279 141Q229 219 229 385V1323Q229 1406 201 1427T82 1448H29V1485H627V1448H551Q484 1448 459 1435T428 1383T422 1231V362Q422 282 426 230T451 129Q499 12 653 12Q725 12 798 46T913 158Q956 236 956 401V1219Q956 1322 925 1372T850 1435T743 1448V1485H1200V1448ZM899 1714Q899 1674 882 1628T811 1581Q729 1581 729 1714Q729 1766 747 1804T811 1843Q836 1843 855 1828T887 1782T899 1714ZM635 1714Q635 1674 618 1628T547 1581Q465 1581 465 1714Q465 1766 484 1804T547 1843Q572 1843 591 1828T623 1782T635 1714Z"  />
<glyph unicode="&#xDD;" horiz-adv-x="1280" d="M1255 1448Q1171 1448 1100 1410T977 1243L754 692V160Q754 80 780 58T879 35H987V0H326V35H424Q491 35 517 46T552 89T561 197V655L274 1323Q240 1407 203 1432Q177 1448 25 1448V1485H676V1448H623Q530 1448 510 1446Q453 1438 453 1399Q453 1382 471 1339L733 729L934 1227Q956 1288 956 1327Q956 1401 909 1424T791 1448H760V1485H1255V1448ZM883 1868L652 1579H623L666 1868H883Z"  />
<glyph unicode="&#xDE;" horiz-adv-x="1067" d="M1028 733Q1028 614 963 533T813 412T678 371Q663 371 610 367T553 362H440V166Q440 119 445 93T473 51T547 35H672V0H29V35H123Q190 35 220 54T250 135V158L248 186V1296Q248 1371 238 1400T199 1439T102 1448H29V1485H659V1450H588Q518 1450 490 1441T451 1401T440 1296V1120H520Q621 1120 666 1116T764 1094Q841 1066 902 1011T995 885T1028 733ZM823 723Q823 874 808 947T738 1052T559 1085H514Q463 1085 452 1072T440 1008V399H524Q630 399 687 414T775 465T814 560T823 723Z"  />
<glyph unicode="&#x141;" horiz-adv-x="1067" d="M1012 612L1006 0H27V35H115Q167 35 193 44T232 79T244 164V584L27 324V385L244 647V1303Q244 1376 232 1405T191 1441T92 1448H27V1485H657V1448H590Q534 1448 505 1444T457 1421T438 1360Q436 1348 436 1284V874L676 1163V1104L436 815V143Q436 108 439 86T454 54T489 39T551 35H643Q702 35 737 49T809 113Q897 227 932 358T977 612H1012Z"  />
<glyph unicode="&#x152;" horiz-adv-x="1665" d="M1606 616L1585 0H606Q513 0 427 32T252 182Q194 261 154 354T95 547T76 752Q76 893 113 1017T210 1237T340 1391Q409 1451 472 1468T606 1485H1548L1577 956H1544Q1499 1155 1447 1264T1356 1411Q1319 1448 1214 1448H1112Q1038 1448 1019 1432T999 1339V774H1049Q1127 774 1173 803T1244 910T1278 1137H1311V403H1278Q1267 545 1235 620T1158 718T1049 741H999V137Q999 85 1006 66T1037 41T1126 35H1206Q1263 35 1301 44T1380 91T1464 213Q1488 261 1509 321T1545 449T1575 616H1606ZM809 479V1120Q809 1215 798 1281T737 1398T582 1448Q503 1448 444 1409T354 1309Q331 1260 318 1204T300 1071T293 895T291 596V580Q291 277 360 154Q392 100 449 66T573 31Q632 31 683 57T762 127Q782 155 792 197T805 309T809 479Z"  />
<glyph unicode="&#x160;" horiz-adv-x="938" d="M893 416Q893 309 852 208T729 44T539 -20Q443 -20 385 18T262 127Q229 164 203 164Q160 164 147 114T131 -20H98V676H131Q181 372 240 254Q297 141 367 80T539 18Q653 18 724 95T795 287Q795 412 710 506T426 717Q311 786 246 835T135 961T90 1145Q90 1252 132 1334T248 1461T412 1505Q468 1505 512 1487Q580 1463 639 1395Q680 1350 702 1350Q762 1350 762 1505H797V893H762Q746 1096 688 1237Q643 1347 584 1403Q510 1470 412 1470Q356 1470 302 1443T214 1368T180 1262Q180 1211 205 1166T279 1077T372 1003T532 901Q659 824 729 768T846 626T893 416ZM651 1868L535 1581H414L289 1868H446L530 1682L606 1868H651Z"  />
<glyph unicode="&#x178;" horiz-adv-x="1280" d="M1255 1448Q1171 1448 1100 1410T977 1243L754 692V160Q754 80 780 58T879 35H987V0H326V35H424Q491 35 517 46T552 89T561 197V655L274 1323Q240 1407 203 1432Q177 1448 25 1448V1485H676V1448H623Q530 1448 510 1446Q453 1438 453 1399Q453 1382 471 1339L733 729L934 1227Q956 1288 956 1327Q956 1401 909 1424T791 1448H760V1485H1255V1448ZM919 1714Q919 1674 902 1628T831 1581Q749 1581 749 1714Q749 1766 767 1804T831 1843Q856 1843 875 1828T907 1782T919 1714ZM655 1714Q655 1674 638 1628T567 1581Q485 1581 485 1714Q485 1766 504 1804T567 1843Q592 1843 611 1828T643 1782T655 1714Z"  />
<glyph unicode="&#x17D;" horiz-adv-x="981" d="M918 1485L254 35H492Q547 35 571 36T613 42T641 53T674 78Q724 121 760 192T820 339T853 466T881 602V618H915L881 0H29L694 1448H408Q356 1448 328 1432T258 1346Q189 1229 137 975V963H102L131 1485H918ZM733 1868L617 1581H496L371 1868H528L612 1682L688 1868H733Z"  />
<glyph unicode="&#x192;" horiz-adv-x="1004" d="M1012 1329Q1012 1275 979 1244T909 1212Q872 1212 844 1239T815 1309Q815 1356 854 1393Q872 1408 872 1421Q872 1435 860 1444T829 1454Q777 1454 742 1393T684 1178L649 936H834L823 889H641L555 307Q538 187 511 97T426 -88Q329 -242 182 -242Q90 -242 40 -184T-10 -53Q-10 9 23 46T102 84Q144 84 171 57T199 -10Q199 -62 137 -113Q104 -139 104 -158Q104 -176 123 -191T174 -207Q258 -207 294 -116T346 76L473 889H281L291 936H481Q508 1138 564 1261T691 1436T838 1489Q906 1489 959 1447T1012 1329Z"  />
<glyph unicode="&#x2C6;" horiz-adv-x="682" d="M522 1550H365L281 1737L205 1550H160L276 1837H397L522 1550Z"  />
<glyph unicode="&#x2C7;" horiz-adv-x="682" d="M522 1837L406 1550H285L160 1837H317L401 1651L477 1837H522Z"  />
<glyph unicode="&#x2C9;" horiz-adv-x="682" d="M649 1579H33V1722H649V1579Z"  />
<glyph unicode="&#x2D8;" horiz-adv-x="682" d="M526 1798Q518 1548 338 1548Q258 1548 208 1611T158 1804H188Q200 1745 250 1721T344 1696Q388 1696 431 1721T494 1798H526Z"  />
<glyph unicode="&#x2D9;" horiz-adv-x="682" d="M426 1681Q426 1641 409 1595T338 1548Q256 1548 256 1681Q256 1733 275 1771T338 1810Q363 1810 382 1795T414 1749T426 1681Z"  />
<glyph unicode="&#x2DA;" horiz-adv-x="682" d="M463 1667Q463 1616 427 1582T342 1548Q294 1548 258 1583T221 1667Q221 1718 256 1753T342 1788Q393 1788 428 1753T463 1667ZM403 1667Q403 1693 385 1711T342 1729Q318 1729 301 1711T283 1667Q283 1644 301 1626T342 1608Q366 1608 384 1625T403 1667Z"  />
<glyph unicode="&#x2DB;" horiz-adv-x="682" d="M608 -287Q527 -332 481 -347T377 -362Q299 -362 248 -335T172 -267T147 -180Q147 -143 164 -86T227 16H281Q254 -34 254 -84Q254 -187 326 -233T467 -279Q523 -279 588 -256L608 -287Z"  />
<glyph unicode="&#x2DC;" horiz-adv-x="682" d="M547 1788Q544 1694 522 1621T420 1548Q393 1548 373 1557T339 1578T299 1616L270 1647Q267 1652 252 1663T225 1675Q196 1675 187 1648T170 1571H135Q135 1646 141 1682T170 1751Q209 1806 266 1806Q305 1806 333 1786T377 1745Q417 1701 429 1691T461 1681Q486 1681 496 1708T512 1788H547Z"  />
<glyph unicode="&#x2DD;" horiz-adv-x="682" d="M709 1837L477 1548H449L492 1837H709ZM416 1837L184 1548H156L199 1837H416Z"  />
<glyph unicode="&#x2013;" horiz-adv-x="1024" d="M1036 506H-12V537H1036V506Z"  />
<glyph unicode="&#x2014;" horiz-adv-x="2048" d="M2060 496H-12V528H2060V496Z"  />
<glyph unicode="&#x2018;" horiz-adv-x="449" d="M317 1155Q317 1085 295 1039T231 993Q188 993 159 1041T129 1182Q129 1397 276 1536L297 1516Q245 1463 217 1402T188 1309Q188 1296 193 1296Q200 1296 205 1303Q220 1313 236 1313Q263 1313 290 1275T317 1155Z"  />
<glyph unicode="&#x2019;" horiz-adv-x="449" d="M319 1348Q319 1133 172 993L152 1014Q205 1068 232 1129T260 1221Q260 1233 256 1233Q250 1233 244 1227Q229 1217 213 1217Q185 1217 158 1254T131 1374Q131 1446 153 1491T217 1536Q260 1536 289 1489T319 1348Z"  />
<glyph unicode="&#x201A;" horiz-adv-x="449" d="M319 111Q319 -104 172 -244L152 -223Q205 -169 232 -108T260 -16Q260 -4 256 -4Q250 -4 244 -10Q229 -20 213 -20Q185 -20 158 17T131 137Q131 209 153 254T217 299Q260 299 289 252T319 111Z"  />
<glyph unicode="&#x201C;" horiz-adv-x="705" d="M588 1155Q588 1084 566 1039T502 993Q459 993 429 1042T399 1182Q399 1398 547 1536L567 1516Q529 1476 506 1437T471 1364T459 1309Q459 1296 463 1296Q470 1296 475 1303Q490 1313 506 1313Q534 1313 561 1275T588 1155ZM305 1155Q305 1084 283 1039T219 993Q176 993 147 1041T117 1182Q117 1397 264 1536L285 1516Q233 1463 205 1402T176 1309Q176 1296 180 1296Q186 1296 193 1303Q208 1313 223 1313Q251 1313 278 1275T305 1155Z"  />
<glyph unicode="&#x201D;" horiz-adv-x="705" d="M588 1348Q588 1133 440 993L420 1014Q473 1068 500 1127T528 1221Q528 1233 524 1233Q518 1233 512 1227Q497 1217 481 1217Q454 1217 427 1254T399 1374Q399 1446 421 1491T485 1536Q529 1536 558 1489T588 1348ZM305 1348Q305 1133 158 993L137 1014Q188 1066 217 1128T246 1221Q246 1233 242 1233Q235 1233 229 1227Q214 1217 199 1217Q171 1217 144 1254T117 1374Q117 1446 139 1491T203 1536Q246 1536 275 1489T305 1348Z"  />
<glyph unicode="&#x201E;" horiz-adv-x="705" d="M588 111Q588 -104 440 -244L420 -223Q473 -169 500 -110T528 -16Q528 -4 524 -4Q518 -4 512 -10Q497 -20 481 -20Q454 -20 427 17T399 137Q399 209 421 254T485 299Q529 299 558 252T588 111ZM305 111Q305 -104 158 -244L137 -223Q188 -171 217 -109T246 -16Q246 -4 242 -4Q235 -4 229 -10Q214 -20 199 -20Q171 -20 144 17T117 137Q117 209 139 254T203 299Q246 299 275 252T305 111Z"  />
<glyph unicode="&#x2022;" horiz-adv-x="725" d="M612 678Q612 611 579 553T489 460T362 426Q258 426 185 500T111 678Q111 744 145 802T237 894T362 928Q414 928 460 909T540 856T593 776T612 678Z"  />
<glyph unicode="&#x2026;" horiz-adv-x="2048" d="M1804 139Q1804 81 1781 31T1708 -20Q1664 -20 1639 29T1614 141Q1614 203 1638 249T1710 295Q1742 295 1763 271T1794 210T1804 139ZM1120 139Q1120 81 1097 31T1024 -20Q980 -20 955 29T930 141Q930 203 954 249T1026 295Q1058 295 1079 271T1110 210T1120 139ZM436 139Q436 81 413 31T340 -20Q296 -20 271 29T246 141Q246 201 271 248T342 295Q374 295 395 271T426 210T436 139Z"  />
<glyph unicode="&#x2039;" horiz-adv-x="426" d="M387 244H340L37 616L340 993H387L250 616L387 244Z"  />
<glyph unicode="&#x203A;" horiz-adv-x="426" d="M389 621L86 244H39L176 621L39 993H86L389 621Z"  />
<glyph unicode="&#x20AC;" horiz-adv-x="918" d="M864 426Q841 303 805 208T704 46T541 -20Q416 -20 318 72T160 312T82 627H-10L10 680H78Q76 702 76 745V793H-10L10 846H80Q94 1019 151 1166T304 1402T518 1491Q609 1491 664 1463T762 1389Q807 1341 840 1296L838 1001H807Q782 1190 764 1269T691 1403T518 1458Q432 1458 378 1411T297 1270Q264 1144 264 846H817L797 793H264V770V764V680H776L756 627H264Q267 356 303 227Q333 122 392 67T549 12Q746 12 827 426H864Z"  />
<glyph unicode="&#x2122;" horiz-adv-x="2005" d="M1972 678H1575V713Q1653 716 1673 739T1694 842V1335H1690L1386 678H1354L1051 1325H1047V844Q1047 794 1051 769T1076 729T1141 713H1176V678H870V713Q944 713 963 737T983 844V1309Q983 1370 978 1396T949 1435T870 1448V1485H1155L1430 911L1694 1485H1972V1448Q1921 1446 1899 1436T1869 1400T1862 1313V844Q1862 788 1868 763T1896 727T1972 713V678ZM801 1282H766Q754 1370 704 1396T571 1423H498V846Q498 791 505 763T535 725T604 713V678H229V713Q275 718 295 726T322 761T330 844V1423H254Q155 1423 117 1390T63 1282H29L51 1485H778L801 1282Z"  />
<glyph unicode="&#x2126;" horiz-adv-x="1573" d="M1518 0H950L973 279Q1070 318 1131 381T1220 535T1249 754Q1249 1013 1126 1159Q1062 1235 974 1276T782 1317Q680 1317 595 1278T448 1165T353 990T319 768Q319 635 357 526T463 354Q494 326 520 312T596 279L618 0H55V279H90Q93 218 121 197Q147 177 176 170T260 162H530V231Q393 271 294 349T143 539T92 788Q92 918 142 1029T285 1220T503 1343T782 1386Q936 1386 1065 1343T1286 1221T1429 1032T1481 788Q1481 651 1427 535T1272 340T1042 231L1034 162H1309Q1397 162 1434 186T1479 279H1518V0Z"  />
<glyph unicode="&#x2202;" horiz-adv-x="1012" d="M995 920Q995 780 967 639T886 376T758 156Q615 -31 403 -31Q249 -31 158 60T66 305Q66 462 142 601T346 824T616 907Q722 907 805 856Q849 829 877 798T928 717H932Q942 864 942 903Q942 1020 901 1105T781 1235T596 1280Q496 1280 425 1243T295 1120H250Q285 1194 311 1236T375 1315Q424 1366 492 1394T629 1423Q676 1423 723 1410T811 1370T881 1311Q995 1181 995 920ZM911 629Q875 734 800 794T627 854Q546 854 470 805T348 678Q315 621 288 546T247 400T233 264Q233 156 286 92T430 27Q502 27 582 76T729 213Q799 306 841 401T911 629Z"  />
<glyph unicode="&#x2206;" horiz-adv-x="1253" d="M1227 0H27L655 1386L1227 0ZM991 82L592 1049L152 82H991Z"  />
<glyph unicode="&#x220F;" horiz-adv-x="1686" d="M1640 -204H1042V-167H1077Q1164 -167 1202 -130T1241 -11V1439H444V-11Q444 -90 483 -128T606 -167H643V-204H45V-167H80Q167 -167 205 -130T244 -11V1324Q244 1407 206 1443T80 1480H45V1517H1640V1480H1606Q1521 1480 1482 1444T1442 1324V-11Q1442 -92 1481 -129T1606 -167H1640V-204Z"  />
<glyph unicode="&#x2211;" horiz-adv-x="1460" d="M1419 212L1356 -204H43V-167L713 664L43 1478V1517H1321L1348 1179H1309Q1293 1312 1233 1373T1059 1435H319L881 750L252 -28H1071Q1125 -28 1185 -11T1276 28Q1312 53 1336 99T1380 220L1419 212Z"  />
<glyph unicode="&#x2219;" horiz-adv-x="449" d="M319 737Q319 678 296 628T223 578Q176 578 153 628T129 731Q129 808 156 850T225 893Q257 893 278 869T309 808T319 737Z"  />
<glyph unicode="&#x221A;" horiz-adv-x="1124" d="M1124 1870L813 -78L317 944L119 852L84 915L385 1067L788 244H793L1051 1870H1124Z"  />
<glyph unicode="&#x221E;" horiz-adv-x="1460" d="M1407 526Q1407 340 1292 219Q1242 166 1181 136T1057 106Q997 106 945 131T844 211T745 350L721 393Q677 310 631 259T528 184T397 160Q297 160 220 207T98 339T53 528Q53 630 93 714T204 847T360 895Q472 895 543 827Q597 773 653 668Q701 776 748 834Q843 944 1024 944Q1096 944 1152 925T1262 860Q1407 736 1407 526ZM1350 526Q1350 616 1312 695T1208 820T1067 866Q963 866 895 782Q866 746 841 690T762 494L750 465Q799 364 843 309T940 227T1061 201Q1144 201 1210 242T1313 358T1350 526ZM625 590Q587 670 550 715T466 782T358 805Q284 805 228 770T141 673T109 530Q109 451 139 383T222 277T338 238Q398 238 453 274T537 367Q576 444 614 557L625 590Z"  />
<glyph unicode="&#x222B;" horiz-adv-x="561" d="M561 1755Q561 1726 549 1702T515 1666T467 1653Q431 1653 391 1688Q371 1708 352 1708Q311 1708 311 1645Q311 1599 322 1499Q340 1295 349 1128T358 834L356 713L342 242Q336 52 293 -78Q271 -145 225 -182T119 -219Q65 -219 33 -186T0 -98Q0 -54 25 -27T90 0Q132 0 160 -33Q173 -47 184 -55T209 -63Q248 -63 248 -2Q248 35 238 117Q218 287 209 512Q206 616 203 741Q201 811 201 895L217 1448Q223 1639 283 1765Q302 1805 346 1834T434 1864Q465 1864 495 1849T543 1808T561 1755Z"  />
<glyph unicode="&#x2248;" horiz-adv-x="1124" d="M1073 874Q1053 722 980 638T791 553Q735 553 668 579T487 670Q347 748 276 748Q204 748 158 699T98 561H51Q71 712 144 797T326 883Q374 883 449 858Q505 837 657 756Q775 694 850 694Q891 694 918 707T973 754Q1012 801 1022 874H1073ZM1073 487Q1053 335 980 251T791 166Q735 166 670 191T487 281Q416 323 366 341T276 360Q204 360 158 311T98 174H51Q63 272 100 344T195 455T326 494Q374 494 449 469Q501 453 657 369Q775 307 850 307Q891 307 918 320T973 367Q1012 414 1022 487H1073Z"  />
<glyph unicode="&#x2260;" horiz-adv-x="1124" d="M1087 289H485L322 0H211L377 289H37V385H430L588 664H37V760H641L805 1051H913L750 760H1087V664H696L541 385H1087V289Z"  />
<glyph unicode="&#x2264;" horiz-adv-x="1124" d="M1065 221L59 719V770L1065 1272V1161L223 745L1065 328V221ZM1065 0H59V96H1065V0Z"  />
<glyph unicode="&#x2265;" horiz-adv-x="1124" d="M1065 723L59 221V332L901 748L59 1165V1272L1065 774V723ZM1065 0H59V96H1065V0Z"  />
<glyph unicode="&#x25CA;" horiz-adv-x="1012" d="M967 709L549 0H438L47 709L438 1423H549L967 709ZM854 709L496 1325L156 709L496 94L854 709Z"  />

</font>
</defs>
</svg>
