<?xml  version="1.0" encoding="UTF-8"?>
<!DOCTYPE svg PUBLIC "-//W3C//DTD SVG 1.0//EN" "http://www.w3.org/TR/2001/REC-SVG-20010904/DTD/svg10.dtd" >
<svg xmlns="http://www.w3.org/2000/svg" >
<metadata>
<version>1.0</version>
<id><![CDATA[Braggadocio W01]]></id>
<vendor>Monotype Imaging Inc.</vendor>
<credits>
<name>Fonts.com WebFonts</name>
<URL>http://webfonts.fonts.com</URL>
<role>Home of the Web fonts</role>
</credits>
<license>
<URL>http://webfonts.fonts.com/Legal</URL>
</license>
<copyright><![CDATA[Font software Copyright 1991 Adobe Systems Incorporated. Typeface designs Copyright 1991 The Monotype Corporation. All rights reserved.]]></copyright>
<trademark><![CDATA[Braggadocio is a trademark of The Monotype Corporation in the United States and/or other countries; MT is a trademark of Monotype Imaging Inc. Registered in U.S. Patent and Trademark Office and may be registered in certain other jurisdictions.]]></trademark>
<licensee>
<name></name>
</licensee>
</metadata>
<defs >
<font horiz-adv-x="725" id="b2a0a25d-e054-4c65-bffa-e5760b48dec3">
<font-face font-family="" panose-1="2 1 10 5 2 1 1 2 2 4" ascent="979" descent="-188" units-per-em="1000" alphabetic="0">
</font-face>
<missing-glyph horiz-adv-x="479" />

<glyph unicode="&#xA;" />
<glyph unicode="&#xD;" horiz-adv-x="479" />
<glyph unicode=" " horiz-adv-x="479" />
<glyph unicode="!" horiz-adv-x="271" d="M26 574Q18 604 16 624T13 655Q13 676 21 696T46 731T83 756T131 765Q156 765 177 756T214 731T239 694T248 648Q248 642 247 631T243 608T239 585T235 566L166 271H101L26 574ZM136 234Q159 234 181 226T220 202T247 164T258 115Q258 89 249 68T223 31T185 6T139 -3Q113 -3 91 6T53 32T28 70T18 116Q18 140 27 161T52 199T89 224T136 234Z"  />
<glyph unicode="&quot;" horiz-adv-x="490" d="M39 646V765H213V646L186 507H69L39 646ZM277 646V765H451V646L424 507H306L277 646Z"  />
<glyph unicode="#" horiz-adv-x="604" d="M19 169V291H110L137 423H19V545H162L198 728H323L286 545H393L429 728H555L519 545H586V423H494L467 291H586V169H443L406 -12H282L318 169H210L174 -12H49L86 169H19ZM235 291H342L369 423H262L235 291Z"  />
<glyph unicode="$" horiz-adv-x="854" d="M799 725V418L586 596V725H799ZM295 139V0H63V322L295 139ZM520 770V565L748 375Q792 338 817 296T843 201Q843 176 837 151T817 102T780 59T722 25Q684 8 651 5T580 0L485 78V-77H362V172L201 297Q172 319 148 345T104 402T75 465T64 535Q64 547 66 564T73 600T89 640T117 677Q139 699 163 711T212 731T260 740T304 743L397 666V770H520Z"  />
<glyph unicode="%" horiz-adv-x="1135" d="M826 -5Q781 -5 744 11T679 53T637 115T622 188Q622 232 639 267T683 327T746 365T816 379H841V-5H826ZM906 379Q949 379 985 363T1047 321T1087 259T1102 186Q1102 141 1085 106T1040 46T977 8T906 -5H883V379H906ZM237 386Q192 386 155 402T90 444T48 506T33 579Q33 623 50 658T94 718T157 756T227 770H252V386H237ZM317 770Q360 770 396 754T458 712T498 650T513 577Q513 532 496 497T451 437T388 399T317 386H294V770H317ZM859 770L339 -5H269L789 770H859Z"  />
<glyph unicode="&amp;" horiz-adv-x="1021" d="M641 765Q674 765 703 754T754 724T788 679T801 622Q801 592 791 569T765 529T734 501T706 483L488 765H641ZM1031 446L903 228L734 446H1031ZM257 398Q244 415 233 432T211 469Q198 493 196 507T194 529Q194 585 221 635T294 719Q331 746 362 754T416 765L1014 0H571L257 398ZM483 23Q444 9 402 5T311 0Q282 0 253 2T197 10T143 29T94 62Q59 94 47 130T35 200Q35 231 41 255T58 299T81 333T105 356Q131 377 156 386T194 400L483 23Z"  />
<glyph unicode="&apos;" horiz-adv-x="260" d="M43 646V765H217V646L190 507H72L43 646Z"  />
<glyph unicode="(" horiz-adv-x="458" d="M454 727Q437 721 421 711T394 674Q383 650 378 613T372 506V114Q372 78 373 52T378 6T385 -28T394 -55Q405 -82 421 -92T454 -108V-155Q433 -151 413 -147T370 -136T324 -119T270 -91Q213 -58 169 -15T95 81T49 191T33 310Q33 368 48 425T93 535T167 632T270 710Q300 727 324 738T370 755T412 766T454 774V727Z"  />
<glyph unicode=")" horiz-adv-x="458" d="M4 775Q25 771 45 767T87 756T133 739T188 711Q246 678 290 633T365 536T410 427T425 311Q425 250 409 192T363 82T289 -14T188 -90Q158 -107 134 -117T88 -135T46 -146T4 -154V-107Q21 -101 36 -91T64 -54Q69 -42 73 -28T80 6T84 52T86 115V507Q86 576 80 613T64 675Q53 702 37 712T4 728V775H4Z"  />
<glyph unicode="*" horiz-adv-x="417" d="M207 697L280 770L384 668L311 595L384 522L280 421L207 492L135 421L33 522L105 595L33 668L135 770L207 697Z"  />
<glyph unicode="+" horiz-adv-x="625" d="M241 311H54V453H241V640H383V453H571V311H383V124H241V311Z"  />
<glyph unicode="&#x2c;" horiz-adv-x="292" d="M138 0Q123 2 106 6T70 25Q48 41 37 65T26 116Q26 143 36 165T64 202T102 226T147 235Q171 235 192 226T230 199T256 159T266 106Q266 92 262 64T245 3T207 -61T138 -112V0Z"  />
<glyph unicode="-" horiz-adv-x="552" d="M539 405Q531 396 522 385T506 358T493 325T487 282Q487 238 504 210T539 162H13Q19 169 28 179T44 205T57 240T63 286Q63 329 48 355T13 405H539Z"  />
<glyph unicode="." horiz-adv-x="292" d="M144 237Q167 237 189 229T228 205T255 167T266 118Q266 92 257 71T231 34T193 9T147 0Q121 0 99 9T61 35T36 73T26 119Q26 143 35 164T60 202T97 227T144 237Z"  />
<glyph unicode="/" horiz-adv-x="365" d="M352 765L173 0H13L189 765H352Z"  />
<glyph unicode="0" horiz-adv-x="990" d="M565 770Q649 770 722 741T849 659T935 537T966 384Q966 343 958 304T936 228T901 162T857 111Q825 83 793 62T724 25T646 3T554 -5H525V770H565ZM465 -5H436Q386 -5 344 2T266 25T198 61T133 111Q109 132 89 162T55 228T32 303T24 384Q24 466 55 536T140 659T268 740T425 770H465V-5Z"  />
<glyph unicode="1" horiz-adv-x="563" d="M502 765V0H62V765H502Z"  />
<glyph unicode="2" horiz-adv-x="906" d="M208 768Q243 768 273 755T326 719T362 666T375 601Q375 566 362 536T326 483T273 447T208 434Q173 434 143 447T90 483T54 536T41 601Q41 636 54 666T90 719T143 755T208 768ZM528 0H22L287 335Q335 396 365 434T411 501T434 551T440 601Q440 638 431 666T407 714T378 748T351 771Q366 772 375 772T392 773T407 774T424 774Q483 774 534 773T632 762T721 728T802 660Q843 614 865 557T886 438L528 0ZM886 0H615L886 344V0Z"  />
<glyph unicode="3" horiz-adv-x="1000" d="M205 763Q239 763 269 750T322 715T358 662T371 597Q371 562 358 532T323 480T270 444T205 431Q171 431 141 444T88 479T52 532T38 597Q38 632 51 662T87 714T140 750T205 763ZM201 344Q236 344 266 331T318 295T354 242T367 177Q367 142 354 112T319 60T266 24T201 11Q166 11 136 24T83 59T47 112T34 177Q34 212 47 242T83 295T136 331T201 344ZM370 774H663Q711 774 746 770T807 760T851 744T882 724Q920 694 940 651T960 562Q960 503 933 462T857 387Q873 376 892 362T927 326T953 277T964 209Q964 171 952 134T912 67T842 19T736 0H370V12Q378 13 391 16T420 24T452 38T484 59Q511 82 530 115T550 197Q550 254 521 296T447 361Q424 372 404 376T362 383V395Q390 401 408 406T449 424Q482 443 500 466T528 512T539 552T541 581Q541 618 531 645T508 689T484 716T469 728Q452 740 424 749T370 763V774Z"  />
<glyph unicode="4" horiz-adv-x="1042" d="M357 128H3V258L357 565V128ZM872 765V492H1019V128H872V0H423V621L590 765H872Z"  />
<glyph unicode="5" horiz-adv-x="1000" d="M199 342Q234 342 264 329T317 293T353 240T366 175Q366 140 353 110T318 57T265 21T199 8Q164 8 134 21T81 57T45 110T32 175Q32 210 45 240T81 293T134 329T199 342ZM904 765L899 423L607 740H604L487 409H763Q818 409 860 392T930 346T972 279T986 201Q986 163 973 127T934 63T867 17T772 0H395V8Q421 16 447 27T501 70Q515 85 531 114T548 190Q548 232 533 266T489 326Q460 351 421 365T334 379H55L160 765H904Z"  />
<glyph unicode="6" horiz-adv-x="927" d="M697 764Q728 764 755 753T802 721T833 674T845 616Q845 585 834 558T802 511T755 480T697 468Q666 468 639 479T592 511T560 558T548 616Q548 647 559 674T591 721T639 752T697 764ZM416 0Q336 0 267 29T146 110T64 230T34 380Q34 461 64 532T145 656T266 739T415 770Q482 770 539 748Q525 735 515 724T497 696T487 658T483 601V0H416ZM679 413Q731 413 774 398T847 356T894 291T911 207Q911 157 894 119T847 54T778 14T696 0H548V413H679Z"  />
<glyph unicode="7" horiz-adv-x="990" d="M429 765L80 130H71V765H429ZM997 765L582 0H85L501 765H997Z"  />
<glyph unicode="8" horiz-adv-x="1021" d="M756 774Q809 774 852 757T925 712T971 645T988 564Q988 534 981 510T960 466T931 433T899 408Q881 397 866 392T828 382Q853 376 879 367T934 329Q960 303 976 268T992 193Q992 162 980 128T944 66T882 19T794 0H543V774H756ZM478 0H227Q176 0 139 18T78 65T41 128T29 193Q29 232 45 267T87 329Q116 358 142 367T193 382Q170 387 155 392T122 408Q105 418 90 432T61 466T41 509T33 564Q33 606 49 644T96 711T169 757T265 774H478V0Z"  />
<glyph unicode="9" horiz-adv-x="958" d="M246 6Q215 6 188 17T141 49T109 96T97 154Q97 185 108 212T140 259T188 290T246 302Q277 302 304 291T351 259T382 212T394 154Q394 123 383 96T351 49T303 18T246 6ZM527 774Q605 774 674 746T795 666T877 545T908 391Q908 307 878 236T795 112T674 30T527 0Q462 0 403 22Q417 34 428 46T446 73T456 111T460 169V774H527ZM263 355Q214 355 172 369T98 410T49 476T31 564Q31 606 45 647T88 712Q122 741 157 757T246 774H395V355H263Z"  />
<glyph unicode=":" horiz-adv-x="292" d="M144 498Q167 498 189 490T228 466T255 428T266 379Q266 353 257 332T231 295T193 270T147 261Q121 261 99 270T61 296T36 334T26 380Q26 404 35 425T60 463T97 488T144 498ZM144 237Q167 237 189 229T228 205T255 167T266 118Q266 92 257 71T231 34T193 9T147 0Q121 0 99 9T61 35T36 73T26 119Q26 143 35 164T60 202T97 227T144 237Z"  />
<glyph unicode=";" horiz-adv-x="292" d="M144 498Q167 498 189 490T228 466T255 428T266 379Q266 353 257 332T231 295T193 270T147 261Q121 261 99 270T61 296T36 334T26 380Q26 404 35 425T60 463T97 488T144 498ZM138 0Q123 2 106 6T70 25Q49 42 38 66T26 116Q26 143 36 165T64 202T102 226T147 235Q171 235 192 226T230 199T256 159T266 106Q266 92 262 64T245 3T207 -61T138 -112V0Z"  />
<glyph unicode="&lt;" horiz-adv-x="625" d="M51 318V449L574 670V516L234 384L574 251V96L51 318Z"  />
<glyph unicode="=" horiz-adv-x="625" d="M54 198V340H571V198H54ZM54 427V569H571V427H54Z"  />
<glyph unicode="&gt;" horiz-adv-x="625" d="M51 251L391 384L51 516V670L574 449V318L51 96V251Z"  />
<glyph unicode="?" horiz-adv-x="583" d="M148 734Q174 734 196 725T234 699T260 660T270 612Q270 587 261 565T235 526T196 500T148 490Q123 490 101 499T63 525T37 564T27 612Q27 637 36 659T62 698T101 724T148 734ZM329 600Q329 628 326 648T314 684T293 716T259 749Q267 754 282 761T330 768Q371 768 414 752T494 704T553 624T577 513Q577 472 565 437T535 374T493 327T446 296Q414 281 385 278T329 272V600ZM348 237Q371 237 393 229T432 205T459 167T470 118Q470 92 461 71T435 34T397 9T351 0Q325 0 303 9T265 35T240 73T230 119Q230 143 239 164T264 202T301 227T348 237Z"  />
<glyph unicode="@" horiz-adv-x="854" d="M541 580H653L586 212Q583 194 583 190T582 182Q582 172 587 167T601 161Q618 161 645 177T697 224T741 302T760 409Q760 465 742 515T686 604T591 666T458 689Q363 689 294 656T180 568T114 446T92 306Q92 232 117 169T189 59T305 -13T460 -39Q542 -39 619 -14T752 71H854Q849 63 839 48T811 15T770 -24T712 -62Q658 -91 595 -105T463 -120Q355 -120 271 -87T129 3T41 139T11 309Q11 389 36 471T116 619T256 728T461 770Q554 770 625 741T744 661T816 545T841 407Q841 329 814 267T745 160T653 93T555 69Q543 69 530 71T505 79T484 97T471 126Q463 119 452 109T426 90T390 75T345 69Q305 69 274 85T220 129T185 194T173 275Q173 327 188 383T234 487T307 564T406 595Q436 595 458 587T494 567T517 545T531 526L541 580ZM287 261Q287 211 309 180T368 149Q395 149 415 164T451 204T476 258T492 317T500 370T503 408Q503 417 501 434T490 468T466 499T423 512Q387 512 361 487T319 423T295 341T287 261Z"  />
<glyph unicode="A" horiz-adv-x="906" d="M573 770L906 0H411L272 332H202L338 0H16L180 388H248L215 469L343 770H573Z"  />
<glyph unicode="B" horiz-adv-x="1042" d="M502 765V0H68V765H502ZM786 765Q823 765 850 761T898 750T932 733T960 711Q989 684 1004 647T1020 568Q1020 523 999 483T942 416Q925 404 905 396T867 381Q890 373 907 366T941 347Q953 338 967 324T994 290T1014 245T1023 188Q1023 154 1010 121T972 60T911 17T829 0H568V765H786Z"  />
<glyph unicode="C" horiz-adv-x="854" d="M427 0Q347 0 277 31T154 114T70 237T39 386Q39 446 56 496T98 585T152 652T206 697Q226 710 252 722T310 744T376 759T448 765H819V430L482 752H479V16H482L819 338V0H427Z"  />
<glyph unicode="D" horiz-adv-x="1031" d="M510 765V0H72V765H510ZM630 765Q708 765 778 735T903 653T989 531T1021 381Q1021 325 1007 279T971 196T924 131T876 84Q850 62 820 47T759 21T698 5T640 0H575V765H630Z"  />
<glyph unicode="E" horiz-adv-x="906" d="M870 765V477L792 535V250L870 313V0H65V765H870ZM508 749H505V387L789 538L508 749ZM505 378V16H508L792 247L505 378Z"  />
<glyph unicode="F" horiz-adv-x="896" d="M866 765V473L803 519V237L511 377V0H71V765H866ZM514 741H511V387L791 529L514 741Z"  />
<glyph unicode="G" horiz-adv-x="927" d="M838 765V443L484 733H481V395H896V-5L782 76Q763 62 740 48T687 23T623 3T544 -5V335H481V-5Q453 -5 419 -3T349 6T277 26T209 60Q164 90 131 128T77 208T45 294T34 380Q34 426 45 471T79 557T134 634T208 699Q260 734 324 749T464 765H838Z"  />
<glyph unicode="H" horiz-adv-x="1042" d="M490 765V419H552V765H986V0H552V355H490V0H56V765H490Z"  />
<glyph unicode="I" horiz-adv-x="552" d="M493 0H59V765H493V0Z"  />
<glyph unicode="J" horiz-adv-x="719" d="M669 765V234Q669 186 650 144T596 70Q562 38 516 19T414 0H22V21Q30 21 45 22T79 26T117 34T155 49Q191 68 213 105T235 205V765H669Z"  />
<glyph unicode="K" horiz-adv-x="1146" d="M990 765V757L759 560L617 765H990ZM490 765V331L759 559L1152 0H690L490 316V0H56V765H490Z"  />
<glyph unicode="L" horiz-adv-x="938" d="M510 765V19H513L921 380V0H67V765H510Z"  />
<glyph unicode="M" horiz-adv-x="1146" d="M399 765L627 402L375 6L55 509V765H399ZM1091 765V0H657V447L859 765H1091ZM303 0H55V377H64L303 0Z"  />
<glyph unicode="N" horiz-adv-x="885" d="M830 765V376L494 765H830ZM392 0H55V395L392 0ZM407 765L830 280V0H479L55 496V765H407Z"  />
<glyph unicode="O" horiz-adv-x="990" d="M587 770Q665 770 734 740T855 657T937 533T967 382Q967 331 959 291T935 218T901 160T859 111Q809 60 733 28T562 -5H527V770H587ZM403 -5Q325 -5 256 25T135 108T53 232T23 383Q23 434 31 474T55 547T89 605T131 654Q181 705 257 737T428 770H463V-5H403Z"  />
<glyph unicode="P" horiz-adv-x="1010" d="M705 765Q773 765 828 744T923 687T983 601T1004 497Q1004 470 999 443T983 391T959 346T928 310Q877 266 830 247T722 228H570V765H705ZM506 765V0H68V765H506Z"  />
<glyph unicode="Q" horiz-adv-x="1010" d="M601 770Q679 770 748 740T869 657T951 533T981 382Q981 331 973 291T949 218T915 160T873 111Q823 60 747 28T576 -5H541V770H601ZM417 -5Q339 -5 270 25T149 108T67 232T37 383Q37 434 45 474T69 547T103 605T145 654Q195 705 271 737T442 770H477V-5H417ZM1022 -5H743V4Q763 9 785 17T831 41T881 79T935 135L1022 -5Z"  />
<glyph unicode="R" horiz-adv-x="1052" d="M700 765Q743 765 768 765T810 764T837 762T863 757Q913 746 944 723T992 673T1016 617T1023 567Q1023 535 1015 510T994 465T969 433T946 413Q932 402 918 396T883 380Q899 374 923 364T969 331T1008 271T1025 176V0H576V765H700ZM511 765V0H73V765H511Z"  />
<glyph unicode="S" horiz-adv-x="844" d="M794 765V455L416 765H794ZM467 0H58V320L467 0ZM202 282Q193 289 179 301T151 326T125 353T106 376Q81 410 68 450T54 532Q54 561 61 591T86 649T130 700T199 741Q215 747 232 751T266 757T296 760T318 761L730 424Q731 423 741 414T765 390T793 357T819 320Q826 307 832 283T838 231Q838 198 829 166T802 107T757 57T695 20Q681 14 665 11T632 5T600 1T575 0L202 282Z"  />
<glyph unicode="T" horiz-adv-x="948" d="M916 765V421L697 733H694V0H254V733H251L32 421V765H916Z"  />
<glyph unicode="U" horiz-adv-x="854" d="M500 765V20Q535 23 573 31T655 69Q711 107 737 165T764 293V471L538 765H794V293Q794 237 781 195T748 123T706 73T668 42Q650 30 629 20T581 3T519 -8T439 -12Q376 -12 330 -5T251 14T194 41T152 74Q126 99 108 129T80 190T65 252T60 308V765H500Z"  />
<glyph unicode="V" horiz-adv-x="979" d="M974 765L753 224L552 765H974ZM483 765L715 134L661 0H285L5 765H483Z"  />
<glyph unicode="W" horiz-adv-x="1146" d="M1147 765L1041 340L915 765H1147ZM395 765L533 220L477 0H181L9 765H395ZM847 765L1010 220L956 0H656L461 765H847Z"  />
<glyph unicode="X" horiz-adv-x="927" d="M926 765L751 442L582 765H926ZM507 765L915 0H403L4 757V765H507ZM329 0H1L169 307L329 0Z"  />
<glyph unicode="Y" horiz-adv-x="990" d="M985 765L750 383L531 765H985ZM456 765L710 321V0H272V295L5 765H456Z"  />
<glyph unicode="Z" horiz-adv-x="1052" d="M412 765L62 181H53V765H412ZM1001 765V756L558 0H34L485 765H1001ZM1001 0H634L992 615H1001V0Z"  />
<glyph unicode="[" horiz-adv-x="583" d="M535 765V727H398V-107H535V-145H89V765H535Z"  />
<glyph unicode="\" horiz-adv-x="365" d="M352 0H192L13 765H176L352 0Z"  />
<glyph unicode="]" horiz-adv-x="583" d="M494 -145H48V-107H185V727H48V765H494V-145Z"  />
<glyph unicode="^" horiz-adv-x="625" d="M253 765H375L564 372H408L313 611L217 372H61L253 765Z"  />
<glyph unicode="_" horiz-adv-x="552" d="M-6 -75H558V-125H-6V-75Z"  />
<glyph unicode="`" horiz-adv-x="333" d="M239 765V601L37 765H239Z"  />
<glyph unicode="a" horiz-adv-x="750" d="M223 564Q247 564 268 555T304 531T328 494T337 450Q337 427 328 406T304 370T268 345T223 336Q199 336 178 345T142 369T118 405T109 450Q109 474 118 495T142 531T178 555T223 564ZM460 565Q475 565 500 563T552 555T605 536T649 503Q658 492 668 478T688 443T702 393T708 323V0H399V565H460ZM334 0H230Q188 0 154 13T94 49T56 105T42 176Q42 211 52 237T76 283T106 314T130 333Q146 322 168 311T225 299Q267 299 291 314T334 347V0Z"  />
<glyph unicode="b" horiz-adv-x="781" d="M374 763V0H69V763H374ZM438 0V565Q480 563 514 561T582 544Q619 529 651 502T708 440T746 362T760 272Q760 224 746 186T713 119T672 71T636 42Q573 0 462 0H438Z"  />
<glyph unicode="c" horiz-adv-x="646" d="M519 569Q543 569 563 560T599 536T623 500T632 456Q632 433 623 413T599 377T564 352T519 343Q495 343 475 352T439 376T415 412T406 456Q406 479 415 499T439 535T475 560T519 569ZM343 569V34Q351 33 359 33T380 32Q393 32 408 33T441 39T480 54T525 81Q538 91 548 100T567 119T584 141T601 167L635 159Q625 142 605 112T543 54Q514 35 489 24T442 8T401 2T364 0Q270 0 207 28T107 98T54 191T38 285Q38 333 56 383T110 475T201 543T329 569H343Z"  />
<glyph unicode="d" horiz-adv-x="781" d="M729 0H424V763H729V0ZM360 0Q342 1 318 2T267 8T212 22T160 47Q100 86 69 146T38 279Q38 345 63 398T130 488T227 545T342 565H360V0Z"  />
<glyph unicode="e" horiz-adv-x="729" d="M407 287V569Q474 566 527 547T627 481Q655 454 671 427T695 374T705 326T708 287H407ZM342 30Q355 28 366 28T393 27Q444 27 497 41T594 98Q627 129 642 161T664 210L694 197Q686 172 670 139T614 70Q566 27 504 11T378 -5Q363 -5 337 -4T280 3T219 19T161 48Q99 91 68 153T37 283Q37 363 74 424T165 521Q189 537 213 546T260 560T303 567T342 569V30Z"  />
<glyph unicode="f" horiz-adv-x="510" d="M419 770Q457 770 483 744T509 680Q509 642 483 616T419 590Q381 590 355 616T329 680Q329 699 336 715T355 744T384 763T419 770ZM511 564V530H393V0H88V530H17V564H88Q91 578 94 593T104 626T122 660T150 696Q176 724 205 738T262 760T311 768T345 769Q339 764 332 758T318 741T306 716T301 682Q301 653 311 631T339 594T380 572T430 564H511Z"  />
<glyph unicode="g" horiz-adv-x="781" d="M324 0Q267 0 215 22T124 82T62 173T38 286Q38 355 64 413T140 507Q162 523 182 535T225 554T273 565T333 569H360V0H324ZM728 569V104Q728 54 721 14T694 -56T644 -107T567 -141Q526 -152 492 -154T423 -155V569H728Z"  />
<glyph unicode="h" horiz-adv-x="792" d="M378 765V0H73V765H378ZM748 0H443V565Q465 567 481 568T516 570Q538 570 562 567T611 557T657 537T694 508Q720 479 734 446T748 362V0Z"  />
<glyph unicode="i" horiz-adv-x="427" d="M204 770Q279 770 322 746T366 685Q366 650 324 627T211 604Q145 604 103 626T61 687Q61 725 100 747T204 770ZM366 565V0H61V565H366Z"  />
<glyph unicode="j" horiz-adv-x="417" d="M198 770Q273 770 316 746T360 685Q360 650 317 627T205 604Q138 604 97 626T55 687Q55 725 94 747T198 770ZM362 565V54Q362 -2 342 -41T286 -106T202 -143T99 -155H57V565H362Z"  />
<glyph unicode="k" horiz-adv-x="854" d="M755 565L580 413L484 565H755ZM373 765V235L580 413L854 0H501L373 217V0H68V765H373Z"  />
<glyph unicode="l" horiz-adv-x="427" d="M366 765V0H61V765H366Z"  />
<glyph unicode="m" horiz-adv-x="1146" d="M356 565V0H51V565H356ZM447 565Q497 565 534 558T598 541T642 519T667 499Q688 478 700 454T717 405T724 357T726 313V0H420V565H447ZM1095 0H790V348Q790 404 775 450T713 538Q730 546 759 555T840 565Q856 565 882 563T938 554T995 535T1041 501Q1051 489 1061 475T1078 443T1090 402T1095 347V0Z"  />
<glyph unicode="n" horiz-adv-x="792" d="M362 565V0H57V565H362ZM511 565Q561 565 602 552T672 515T718 456T735 377V0H430V565H511Z"  />
<glyph unicode="o" horiz-adv-x="771" d="M419 569Q503 569 559 547T649 494Q693 456 717 399T741 280Q741 236 726 187T674 94T575 23T419 -5V569ZM352 -5Q258 -5 196 23T97 94T45 186T30 280Q30 342 54 399T122 494Q156 524 212 546T352 569V-5Z"  />
<glyph unicode="p" horiz-adv-x="781" d="M457 565Q517 565 572 545T669 488T736 397T761 277Q761 204 730 143T639 42Q615 26 587 17T532 4T481 -2T439 -5V565H457ZM374 565V-155H69V565H374Z"  />
<glyph unicode="q" horiz-adv-x="781" d="M358 -5Q340 -4 316 -3T265 3T210 17T158 42Q98 82 67 143T36 277Q36 343 61 396T128 487T225 545T340 565H358V-5ZM728 -155H423V565H728V-155Z"  />
<glyph unicode="r" horiz-adv-x="667" d="M370 565V479Q382 491 398 505T434 531T477 551T529 559Q558 559 582 550T623 524T649 487T659 440Q659 416 651 395T627 358T590 333T543 324Q517 324 495 333T457 358T432 396T423 444Q423 456 425 465T431 489Q414 478 401 466T370 437V0H65V565H370Z"  />
<glyph unicode="s" horiz-adv-x="594" d="M453 576Q471 576 487 569T515 551T533 524T540 490Q540 454 515 428T453 402Q435 402 419 409T391 428T373 456T366 490Q366 526 391 551T453 576ZM403 392Q417 386 445 372T500 334T549 274T570 187Q570 152 558 118T521 56T460 12T374 -5Q363 -5 353 -5T328 -3Q339 8 347 21T355 54Q355 83 335 102T283 133L176 171Q146 181 119 198T70 240T37 296T24 365Q24 398 37 434T79 501T153 549T262 567Q250 551 245 540T239 515Q239 494 249 479T274 452T305 433T335 420L403 392ZM125 162Q143 162 159 155T186 136T205 109T212 75Q212 57 206 42T187 14T159 -5T125 -12Q89 -12 64 13T38 75Q38 112 63 137T125 162Z"  />
<glyph unicode="t" horiz-adv-x="469" d="M375 672V565H473V524H378V-5H355Q324 -5 290 0T225 15T166 40T121 75Q89 110 81 135T73 185V565L375 672Z"  />
<glyph unicode="u" horiz-adv-x="792" d="M363 565V0H329Q308 0 278 3T217 14T156 36T106 72Q78 104 68 131T58 194V565H363ZM734 565V0H429V565H734Z"  />
<glyph unicode="v" horiz-adv-x="729" d="M723 565L565 160L404 565H723ZM333 565L530 72L501 0H229L6 565H333Z"  />
<glyph unicode="w" horiz-adv-x="1000" d="M995 565L904 252L785 565H995ZM325 565L480 148L435 3H211L5 565H325ZM716 565L874 152L829 3H604L393 565H716Z"  />
<glyph unicode="x" horiz-adv-x="667" d="M642 565L538 353L424 565H642ZM351 562L659 0H311L8 562H351ZM237 0H14L122 212L237 0Z"  />
<glyph unicode="y" horiz-adv-x="865" d="M869 565L647 176L434 565H869ZM359 565L607 118Q578 57 554 18T508 -47T469 -87T434 -114Q442 -94 444 -82T447 -56Q447 -22 434 4T401 48T357 75T311 84Q299 84 289 82L25 565H359ZM310 43Q352 43 380 15T409 -56Q409 -77 401 -95T380 -126T348 -147T310 -155Q290 -155 272 -148T241 -127T219 -95T211 -56Q211 -14 239 14T310 43Z"  />
<glyph unicode="z" horiz-adv-x="781" d="M299 565L74 175H65V565H299ZM725 565L394 0H42L372 565H725ZM468 0L722 436H731V0H468Z"  />
<glyph unicode="{" horiz-adv-x="385" d="M377 616Q352 616 335 614T306 601T290 569T284 510Q284 456 279 422T264 366T238 332T198 309Q218 299 234 288T260 258T277 207T284 128Q285 88 287 64T297 26T324 7T377 2V-155H316Q252 -155 211 -144T147 -110T116 -51T108 34L109 103Q110 145 103 169T83 205T53 221T14 226V392Q30 392 44 394T70 404Q94 421 101 448T108 517Q108 526 108 541T108 574T108 606T110 628Q111 640 114 656T124 689T142 721T170 748Q181 756 214 765T311 775H377V616Z"  />
<glyph unicode="|" horiz-adv-x="281" d="M82 765H199V-155H82V765Z"  />
<glyph unicode="}" horiz-adv-x="385" d="M74 775Q138 775 171 766T215 748Q232 737 243 722T260 689T270 656T275 628Q276 621 276 606T277 574T277 542T277 517Q277 475 284 448T315 404Q326 396 340 394T371 392V226Q350 225 333 222T302 206T282 169T276 103L277 34Q278 -15 270 -50T238 -109T174 -144T69 -155H8V2Q42 2 60 7T87 25T98 63T101 128Q102 176 108 207T124 257T151 288T187 309Q164 319 148 331T121 365T106 421T101 510Q101 547 96 568T79 600T51 613T8 616V775H74Z"  />
<glyph unicode="~" horiz-adv-x="625" d="M43 418Q56 430 72 443T108 466T150 482T200 489Q216 489 242 485T314 460Q350 445 371 436T404 423T424 418T442 417Q448 417 460 418T491 427T532 449T582 490V345Q573 338 558 326T524 303T480 284T430 275Q395 275 366 285T298 314Q260 331 236 339T188 347Q162 347 126 333T43 274V418Z"  />
<glyph unicode="&#xA0;" horiz-adv-x="479" />
<glyph unicode="&#xA1;" horiz-adv-x="271" d="M245 36Q253 6 255 -14T258 -45Q258 -66 250 -86T225 -121T188 -146T140 -155Q115 -155 94 -146T57 -122T32 -85T23 -38Q23 -32 24 -21T28 2T32 25T36 44L105 339H170L245 36ZM135 376Q112 376 90 384T51 408T24 446T13 495Q13 520 22 542T48 579T86 604T132 613Q157 613 179 604T218 578T243 540T253 494Q253 470 244 449T219 411T182 386T135 376Z"  />
<glyph unicode="&#xA2;" horiz-adv-x="646" d="M343 33Q351 32 358 32T378 31Q391 31 406 32T440 39T480 54T525 81Q538 91 548 100T567 119T584 141T601 167L635 159Q625 142 605 112T543 54Q514 35 490 24T443 8T401 2T363 0Q341 0 312 2T251 13L157 -152H97L200 30Q151 53 120 85T70 153T45 222T38 285Q38 334 56 384T110 476T201 543T329 569H343V279L415 410Q413 416 410 426T406 454Q406 470 411 487T427 521T457 549T503 566L619 770H679L560 559Q595 546 613 516T632 454Q632 431 623 411T599 375T564 350T519 341Q481 341 450 365L343 173V33Z"  />
<glyph unicode="&#xA3;" horiz-adv-x="990" d="M990 240V195Q990 151 985 119T972 64T955 26T939 0H607Q612 14 618 33T631 77T641 136T645 212V240H990ZM152 493Q152 567 177 619T253 711Q277 730 302 741T351 759T396 768T434 770H656Q644 759 631 747T608 716T590 671T583 608V292Q583 217 576 143T536 0H105Q132 47 142 99T152 206V333H12V388H152V493ZM954 388V333H645V388H954ZM808 770Q842 770 871 757T921 723T955 672T968 610Q968 577 956 548T921 497T870 463T808 450Q775 450 746 462T695 496T661 547T648 610Q648 643 660 672T695 723T746 757T808 770Z"  />
<glyph unicode="&#xA4;" horiz-adv-x="604" d="M102 276Q95 288 85 314T75 382Q75 424 85 450T101 489L35 555L126 650L194 582Q205 588 233 599T302 610Q342 610 370 599T409 582L477 650L569 557L502 490Q515 464 522 439T529 384Q529 344 518 316T502 276L569 209L477 115L409 183Q397 177 370 167T303 156Q265 156 237 166T195 183L130 116L36 209L102 276ZM302 479Q262 479 234 452T206 383Q206 343 234 315T302 287Q342 287 370 315T398 383Q398 424 370 451T302 479Z"  />
<glyph unicode="&#xA5;" horiz-adv-x="1010" d="M15 765H466L720 321H942V266H720V200H942V145H720V0H282V145H59V200H282V266H59V321H267L15 765ZM995 765L760 383L541 765H995Z"  />
<glyph unicode="&#xA6;" horiz-adv-x="281" d="M82 228H199V-155H82V228ZM82 765H199V383H82V765Z"  />
<glyph unicode="&#xA7;" horiz-adv-x="635" d="M158 12Q174 12 189 6T216 -12T234 -38T241 -71Q241 -106 217 -130T158 -155Q123 -155 99 -131T74 -71Q74 -53 81 -38T99 -12T126 5T158 12ZM387 -141Q395 -131 402 -119T409 -84Q409 -55 395 -35T359 -1T311 22T261 38Q213 51 174 68T107 108T64 164T49 240Q49 279 60 305T86 348T119 376T150 393Q153 370 166 353T202 321T257 293T331 266Q368 254 394 245T439 227T474 210T503 193Q518 183 532 169T559 138T578 99T586 55Q586 32 576 3T541 -55T479 -107T387 -141ZM482 221Q480 231 477 242T464 265T433 292T379 322Q372 325 366 327T350 333T322 343T275 358Q233 372 193 390T120 433T69 488T49 557Q49 586 60 616T96 674T159 723T250 757Q242 746 235 734T228 699Q228 672 239 653T267 622T300 604T329 593Q376 577 403 568T448 552T476 540T501 525Q522 512 540 495T570 451Q580 431 583 411T586 376Q586 334 573 306T543 261T508 234T482 221ZM473 770Q507 770 531 746T555 687Q555 653 531 629T473 605Q439 605 415 628T390 687Q390 705 396 720T414 746T441 763T473 770Z"  />
<glyph unicode="&#xA8;" horiz-adv-x="333" d="M284 765Q327 765 356 744T385 683Q385 647 357 626T287 604Q266 604 248 609T215 625T193 650T184 684Q184 720 212 742T284 765ZM48 765Q91 765 120 744T149 683Q149 647 121 626T51 604Q30 604 12 609T-21 625T-43 650T-52 684Q-52 720 -24 742T48 765Z"  />
<glyph unicode="&#xA9;" horiz-adv-x="802" d="M587 330Q581 313 571 290T541 244T488 207T405 191Q355 191 317 208T254 253T215 319T202 399Q202 445 217 483T260 549T324 592T405 607Q447 607 486 591T551 542Q565 524 571 508T583 473L488 459Q486 468 482 481T468 506T442 528T400 537Q370 537 353 523T326 486T313 440T310 396Q310 386 311 364T321 319T348 279T401 261Q425 261 440 271T466 296T480 327T488 354L587 330ZM30 399Q30 477 59 544T139 662T257 741T401 770Q478 770 545 741T663 662T743 544T772 399Q772 322 743 255T664 138T546 58T401 29Q324 29 257 58T139 137T59 255T30 399ZM102 399Q102 336 126 282T190 188T285 124T401 101Q463 101 517 124T612 188T676 283T700 399Q700 461 677 515T613 610T518 674T401 698Q339 698 285 675T190 611T126 516T102 399Z"  />
<glyph unicode="&#xAA;" horiz-adv-x="479" d="M70 697Q70 726 90 748T142 770Q171 770 193 750T215 697Q215 667 194 646T142 624Q112 624 91 645T70 697ZM289 770Q378 770 416 732T454 609V409H256V770H289ZM213 409H149Q119 409 96 418T58 442T34 478T26 520Q26 542 32 559T47 588T65 609T82 622Q91 615 106 608T144 600Q172 600 187 610T213 630V409Z"  />
<glyph unicode="&#xAB;" horiz-adv-x="750" d="M746 565L552 306L749 48H527L333 306L527 565H746ZM444 565L250 306L447 48H225L31 306L225 565H444Z"  />
<glyph unicode="&#xAC;" horiz-adv-x="625" d="M429 427H54V569H571V199H429V427Z"  />
<glyph unicode="&#xAD;" horiz-adv-x="552" d="M539 405Q531 396 522 385T506 358T493 325T487 282Q487 238 504 210T539 162H13Q19 169 28 179T44 205T57 240T63 286Q63 329 48 355T13 405H539Z"  />
<glyph unicode="&#xAE;" horiz-adv-x="802" d="M410 597Q430 597 455 594T501 578T538 545T553 487Q553 456 542 436T514 404T479 386T445 375Q461 368 473 361T503 328Q511 316 530 281T575 201H459L445 230Q421 281 403 307T372 345T349 357T331 357V201H233V597H410ZM331 429H374Q388 429 402 431T427 438T445 454T452 479Q452 495 445 505T426 520T401 527T378 529H331V429ZM30 399Q30 477 59 544T139 662T257 741T401 770Q478 770 545 741T663 662T743 544T772 399Q772 322 743 255T664 138T546 58T401 29Q324 29 257 58T139 137T59 255T30 399ZM102 399Q102 336 126 282T190 188T285 124T401 101Q463 101 517 124T612 188T676 283T700 399Q700 461 677 515T613 610T518 674T401 698Q339 698 285 675T190 611T126 516T102 399Z"  />
<glyph unicode="&#xAF;" horiz-adv-x="333" d="M-51 765H384V603H-51V765Z"  />
<glyph unicode="&#xB0;" horiz-adv-x="396" d="M198 770Q228 770 255 759T302 727T334 680T346 622Q346 592 335 565T303 518T256 486T198 474Q167 474 140 485T93 517T62 565T50 622Q50 653 61 680T93 727T141 758T198 770ZM198 684Q172 684 154 666T136 622Q136 597 154 579T198 560Q224 560 242 578T260 622Q260 649 242 666T198 684Z"  />
<glyph unicode="&#xB1;" horiz-adv-x="625" d="M54 0V142H571V0H54ZM241 366H54V508H241V695H383V508H571V366H383V179H241V366Z"  />
<glyph unicode="&#xB2;" horiz-adv-x="531" d="M126 767Q160 767 183 743T207 686Q207 652 184 629T126 605Q92 605 69 628T45 686Q45 720 68 743T126 767ZM292 388H43L214 597Q229 615 242 639T255 691Q255 722 242 739T217 769Q270 770 317 768T405 740Q428 726 441 709T462 675T473 641T478 612L292 388ZM478 388H349L478 545V388Z"  />
<glyph unicode="&#xB3;" horiz-adv-x="531" d="M119 551Q153 551 176 528T200 470Q200 436 177 413T119 389Q85 389 62 412T38 470Q38 504 62 527T119 551ZM119 759Q153 759 176 736T200 678Q200 644 176 621T119 597Q86 597 62 620T38 678Q38 713 62 736T119 759ZM207 390Q215 391 230 395T260 409T286 436T297 480Q297 521 273 542T207 571V578Q217 581 231 586T259 602T282 628T292 671Q292 693 285 709T266 735T243 752T222 763Q241 765 269 767T322 770Q353 770 384 767T441 752T482 719T498 662Q498 630 484 612T447 578Q472 563 486 544T501 489Q501 453 488 432T450 399T391 385T317 381Q311 381 295 381T262 382T229 384T207 385V390Z"  />
<glyph unicode="&#xB4;" horiz-adv-x="333" d="M101 601V765H303L101 601Z"  />
<glyph unicode="&#xB5;" horiz-adv-x="667" d="M259 565V256Q259 224 262 208T272 182Q289 159 305 154T333 149Q375 149 392 180T409 262V565H606V0H421V41Q407 18 389 3T342 -12Q322 -12 308 -7T284 7T268 23T259 37V-155H61V565H259Z"  />
<glyph unicode="&#xB6;" horiz-adv-x="698" d="M270 -155V357H253Q181 357 137 379T69 434T38 501T30 562Q30 583 35 611T54 666T95 716T163 753Q182 759 208 762T285 765H668V625H608V-155H476V625H402V-155H270Z"  />
<glyph unicode="&#xB7;" horiz-adv-x="292" d="M144 501Q167 501 189 493T228 469T255 431T266 382Q266 356 257 335T231 298T193 273T147 264Q121 264 99 273T61 299T36 337T26 383Q26 407 35 428T60 466T97 491T144 501Z"  />
<glyph unicode="&#xB8;" horiz-adv-x="333" d="M157 7Q165 8 174 9T191 10Q212 10 231 4T266 -15T290 -46T299 -86Q299 -121 282 -140T242 -170T194 -183T157 -187V7ZM120 -187H12L120 -96V-187Z"  />
<glyph unicode="&#xB9;" horiz-adv-x="531" d="M375 765V388H156V765H375Z"  />
<glyph unicode="&#xBA;" horiz-adv-x="500" d="M227 402Q156 405 115 429T54 483T28 542T22 586Q22 639 50 683T136 753Q159 763 179 765T227 770V402ZM270 770Q298 768 318 766T365 752Q397 738 419 719T454 677T472 632T478 586Q478 563 472 540T453 494T418 453T365 420Q341 409 321 407T270 402V770Z"  />
<glyph unicode="&#xBB;" horiz-adv-x="750" d="M417 306L223 48H1L198 306L4 565H223L417 306ZM719 306L525 48H303L500 306L306 565H525L719 306Z"  />
<glyph unicode="&#xBC;" horiz-adv-x="1125" d="M375 765V388H156V765H375ZM267 -25L797 767H868L337 -25H267ZM598 55V118L773 273V55H598ZM816 -7V310L894 377H1040V241H1113V55H1040V-7H816Z"  />
<glyph unicode="&#xBD;" horiz-adv-x="1125" d="M886 0H637L808 209Q822 227 835 251T849 303Q849 333 836 351T811 381Q864 382 911 380T999 352Q1022 338 1035 321T1056 287T1067 253T1072 223L886 0ZM719 379Q754 379 777 355T801 297Q801 263 777 240T719 216Q685 216 662 240T638 297Q638 331 662 355T719 379ZM1072 0H943L1072 156V0ZM375 765V388H156V765H375ZM244 -25L774 767H844L314 -25H244Z"  />
<glyph unicode="&#xBE;" horiz-adv-x="1125" d="M119 551Q153 551 176 528T200 470Q200 436 177 413T119 389Q85 389 62 412T38 470Q38 504 62 527T119 551ZM119 759Q153 759 176 736T200 678Q200 644 176 621T119 597Q86 597 62 620T38 678Q38 713 62 736T119 759ZM207 390Q215 391 230 395T260 409T286 436T297 480Q297 521 273 542T207 571V578Q217 581 231 586T259 602T282 628T292 671Q292 693 285 709T266 735T243 752T222 763Q241 765 269 767T322 770Q353 770 384 767T441 752T482 719T498 662Q498 630 484 612T447 578Q472 563 486 544T501 489Q501 453 488 432T450 399T391 385T317 381Q311 381 295 381T262 382T229 384T207 385V390ZM291 -25L821 767H891L361 -25H291ZM598 55V118L773 273V55H598ZM816 -7V310L894 377H1040V241H1113V55H1040V-7H816Z"  />
<glyph unicode="&#xBF;" horiz-adv-x="583" d="M435 -121Q409 -121 387 -112T349 -86T323 -47T313 1Q313 26 322 48T348 87T387 113T435 123Q460 123 482 114T520 88T546 49T556 1Q556 -25 547 -47T521 -85T482 -111T435 -121ZM254 13Q254 -15 257 -35T269 -72T290 -103T324 -136Q316 -141 301 -148T253 -155Q212 -155 169 -139T89 -91T30 -11T6 100Q6 141 18 176T48 239T90 286T137 317Q169 332 198 335T254 341V13ZM235 376Q212 376 190 384T151 408T124 446T113 495Q113 520 122 542T148 579T186 604T232 613Q257 613 279 604T318 578T343 540T353 494Q353 470 344 449T319 411T282 386T235 376Z"  />
<glyph unicode="&#xC0;" horiz-adv-x="906" d="M573 770L906 0H411L272 332H202L338 0H16L180 388H248L215 469L343 770H573ZM526 970V806L324 970H526Z"  />
<glyph unicode="&#xC1;" horiz-adv-x="906" d="M573 770L906 0H411L272 332H202L338 0H16L180 388H248L215 469L343 770H573ZM388 806V970H590L388 806Z"  />
<glyph unicode="&#xC2;" horiz-adv-x="906" d="M573 770L906 0H411L272 332H202L338 0H16L180 388H248L215 469L343 770H573ZM235 807L333 911L432 807H235ZM490 807L359 941L387 970H522L672 807H490Z"  />
<glyph unicode="&#xC3;" horiz-adv-x="906" d="M573 770L906 0H411L272 332H202L338 0H16L180 388H248L215 469L343 770H573ZM234 808Q234 866 252 898T298 947T357 966T414 970H433V808H234ZM672 970Q672 912 653 880T607 831T548 812T492 808H473V970H672Z"  />
<glyph unicode="&#xC4;" horiz-adv-x="906" d="M573 770L906 0H411L272 332H202L338 0H16L180 388H248L215 469L343 770H573ZM571 970Q614 970 643 949T672 888Q672 852 644 831T574 809Q553 809 535 814T502 830T480 855T471 889Q471 925 499 947T571 970ZM335 970Q378 970 407 949T436 888Q436 852 408 831T338 809Q317 809 299 814T266 830T244 855T235 889Q235 925 263 947T335 970Z"  />
<glyph unicode="&#xC5;" horiz-adv-x="906" d="M573 770L906 0H411L272 332H202L338 0H16L180 388H248L215 469L343 770H573ZM457 979Q477 979 501 977T546 965T581 940T595 895Q595 867 581 851T545 825T501 814T460 811Q440 811 415 813T366 825T328 850T312 896Q312 925 328 941T368 966T416 977T457 979ZM454 947Q442 947 424 946T387 940T357 924T344 895Q344 880 352 870T376 854T410 846T452 843Q486 843 507 847T541 858T558 874T563 894Q563 910 555 920T531 937T496 945T454 947Z"  />
<glyph unicode="&#xC6;" horiz-adv-x="1167" d="M1151 765V479L1073 536V249L1151 312V0H433L294 333H222L361 0H35L202 389H269L237 467L364 765H1151ZM787 748H784V395L1073 537L787 748ZM784 385V17H787L1070 247L784 385Z"  />
<glyph unicode="&#xC7;" horiz-adv-x="854" d="M444 -91V-188H334L444 -91ZM567 0Q588 -10 600 -23T617 -48T623 -70T624 -84Q624 -119 607 -139T565 -169T517 -183T480 -188V0H427Q347 0 277 31T154 114T70 237T39 386Q39 446 56 496T98 585T152 652T206 697Q226 710 252 722T310 744T376 759T448 765H819V430L479 752V16L819 338V0H567Z"  />
<glyph unicode="&#xC8;" horiz-adv-x="906" d="M870 765V477L792 535V250L870 313V0H65V765H870ZM508 749H505V387L789 538L508 749ZM505 378V16H508L792 247L505 378ZM526 970V806L324 970H526Z"  />
<glyph unicode="&#xC9;" horiz-adv-x="906" d="M870 765V477L792 535V250L870 313V0H65V765H870ZM508 749H505V387L789 538L508 749ZM505 378V16H508L792 247L505 378ZM388 806V970H590L388 806Z"  />
<glyph unicode="&#xCA;" horiz-adv-x="906" d="M870 765V477L792 535V250L870 313V0H65V765H870ZM508 749H505V387L789 538L508 749ZM505 378V16H508L792 247L505 378ZM235 807L333 911L432 807H235ZM490 807L359 941L387 970H522L672 807H490Z"  />
<glyph unicode="&#xCB;" horiz-adv-x="906" d="M870 765V477L792 535V250L870 313V0H65V765H870ZM508 749H505V387L789 538L508 749ZM505 378V16H508L792 247L505 378ZM571 970Q614 970 643 949T672 888Q672 852 644 831T574 809Q553 809 535 814T502 830T480 855T471 889Q471 925 499 947T571 970ZM335 970Q378 970 407 949T436 888Q436 852 408 831T338 809Q317 809 299 814T266 830T244 855T235 889Q235 925 263 947T335 970Z"  />
<glyph unicode="&#xCC;" horiz-adv-x="552" d="M493 0H59V765H493V0ZM349 970V806L147 970H349Z"  />
<glyph unicode="&#xCD;" horiz-adv-x="552" d="M493 0H59V765H493V0ZM211 806V970H413L211 806Z"  />
<glyph unicode="&#xCE;" horiz-adv-x="552" d="M493 0H59V765H493V0ZM58 807L156 911L255 807H58ZM313 807L182 941L210 970H345L495 807H313Z"  />
<glyph unicode="&#xCF;" horiz-adv-x="552" d="M493 0H59V765H493V0ZM394 970Q437 970 466 949T495 888Q495 852 467 831T397 809Q376 809 358 814T325 830T303 855T294 889Q294 925 322 947T394 970ZM158 970Q201 970 230 949T259 888Q259 852 231 831T161 809Q140 809 122 814T89 830T67 855T58 889Q58 925 86 947T158 970Z"  />
<glyph unicode="&#xD0;" horiz-adv-x="1031" d="M510 357V0H72V357H13V408H72V765H510V408H575V765H630Q708 765 778 735T903 653T989 531T1021 381Q1021 325 1006 276T965 187T908 115T844 62Q827 51 803 40T752 20T696 6T640 0H575V357H510Z"  />
<glyph unicode="&#xD1;" horiz-adv-x="885" d="M830 765V376L494 765H830ZM392 0H55V395L392 0ZM407 765L830 280V0H479L55 496V765H407ZM223 808Q223 866 241 898T287 947T346 966T403 970H422V808H223ZM661 970Q661 912 642 880T596 831T537 812T481 808H462V970H661Z"  />
<glyph unicode="&#xD2;" horiz-adv-x="990" d="M587 770Q665 770 734 740T855 657T937 533T967 382Q967 331 959 291T935 218T901 160T859 111Q809 60 733 28T562 -5H527V770H587ZM403 -5Q325 -5 256 25T135 108T53 232T23 383Q23 434 31 474T55 547T89 605T131 654Q181 705 257 737T428 770H463V-5H403ZM568 970V806L366 970H568Z"  />
<glyph unicode="&#xD3;" horiz-adv-x="990" d="M587 770Q665 770 734 740T855 657T937 533T967 382Q967 331 959 291T935 218T901 160T859 111Q809 60 733 28T562 -5H527V770H587ZM403 -5Q325 -5 256 25T135 108T53 232T23 383Q23 434 31 474T55 547T89 605T131 654Q181 705 257 737T428 770H463V-5H403ZM430 806V970H632L430 806Z"  />
<glyph unicode="&#xD4;" horiz-adv-x="990" d="M587 770Q665 770 734 740T855 657T937 533T967 382Q967 331 959 291T935 218T901 160T859 111Q809 60 733 28T562 -5H527V770H587ZM403 -5Q325 -5 256 25T135 108T53 232T23 383Q23 434 31 474T55 547T89 605T131 654Q181 705 257 737T428 770H463V-5H403ZM277 807L375 911L474 807H277ZM532 807L401 941L429 970H564L714 807H532Z"  />
<glyph unicode="&#xD5;" horiz-adv-x="990" d="M587 770Q665 770 734 740T855 657T937 533T967 382Q967 331 959 291T935 218T901 160T859 111Q809 60 733 28T562 -5H527V770H587ZM403 -5Q325 -5 256 25T135 108T53 232T23 383Q23 434 31 474T55 547T89 605T131 654Q181 705 257 737T428 770H463V-5H403ZM276 808Q276 866 294 898T340 947T399 966T456 970H475V808H276ZM714 970Q714 912 695 880T649 831T590 812T534 808H515V970H714Z"  />
<glyph unicode="&#xD6;" horiz-adv-x="990" d="M587 770Q665 770 734 740T855 657T937 533T967 382Q967 331 959 291T935 218T901 160T859 111Q809 60 733 28T562 -5H527V770H587ZM403 -5Q325 -5 256 25T135 108T53 232T23 383Q23 434 31 474T55 547T89 605T131 654Q181 705 257 737T428 770H463V-5H403ZM613 970Q656 970 685 949T714 888Q714 852 686 831T616 809Q595 809 577 814T544 830T522 855T513 889Q513 925 541 947T613 970ZM377 970Q420 970 449 949T478 888Q478 852 450 831T380 809Q359 809 341 814T308 830T286 855T277 889Q277 925 305 947T377 970Z"  />
<glyph unicode="&#xD7;" horiz-adv-x="625" d="M211 383L60 534L162 636L313 485L464 636L564 535L413 384L565 232L464 131L312 283L161 131L60 232L211 383Z"  />
<glyph unicode="&#xD8;" horiz-adv-x="990" d="M527 -5V372L463 320V-5H403Q337 -5 276 17T164 82L55 -5L19 40L122 122Q105 144 88 170T56 227T32 297T23 382Q23 457 46 524T131 654Q182 705 258 737T428 770H463V392L527 445V770H567Q620 770 660 762T730 741T783 713T826 683L935 770L971 727L866 643Q878 629 895 606T928 552T955 479T967 386Q967 300 940 231T856 110Q818 76 781 54T707 18T635 0T567 -5H527Z"  />
<glyph unicode="&#xD9;" horiz-adv-x="854" d="M500 765V20Q535 23 573 31T655 69Q711 107 737 165T764 293V471L538 765H794V293Q794 237 781 195T748 123T706 73T668 42Q650 30 629 20T581 3T519 -8T439 -12Q376 -12 330 -5T251 14T194 41T152 74Q126 99 108 129T80 190T65 252T60 308V765H500ZM500 970V806L298 970H500Z"  />
<glyph unicode="&#xDA;" horiz-adv-x="854" d="M500 765V20Q535 23 573 31T655 69Q711 107 737 165T764 293V471L538 765H794V293Q794 237 781 195T748 123T706 73T668 42Q650 30 629 20T581 3T519 -8T439 -12Q376 -12 330 -5T251 14T194 41T152 74Q126 99 108 129T80 190T65 252T60 308V765H500ZM362 806V970H564L362 806Z"  />
<glyph unicode="&#xDB;" horiz-adv-x="854" d="M500 765V20Q535 23 573 31T655 69Q711 107 737 165T764 293V471L538 765H794V293Q794 237 781 195T748 123T706 73T668 42Q650 30 629 20T581 3T519 -8T439 -12Q376 -12 330 -5T251 14T194 41T152 74Q126 99 108 129T80 190T65 252T60 308V765H500ZM209 807L307 911L406 807H209ZM464 807L333 941L361 970H496L646 807H464Z"  />
<glyph unicode="&#xDC;" horiz-adv-x="854" d="M500 765V20Q535 23 573 31T655 69Q711 107 737 165T764 293V471L538 765H794V293Q794 237 781 195T748 123T706 73T668 42Q650 30 629 20T581 3T519 -8T439 -12Q376 -12 330 -5T251 14T194 41T152 74Q126 99 108 129T80 190T65 252T60 308V765H500ZM545 970Q588 970 617 949T646 888Q646 852 618 831T548 809Q527 809 509 814T476 830T454 855T445 889Q445 925 473 947T545 970ZM309 970Q352 970 381 949T410 888Q410 852 382 831T312 809Q291 809 273 814T240 830T218 855T209 889Q209 925 237 947T309 970Z"  />
<glyph unicode="&#xDD;" horiz-adv-x="990" d="M985 765L750 383L531 765H985ZM456 765L710 321V0H272V295L5 765H456ZM430 806V970H632L430 806Z"  />
<glyph unicode="&#xDE;" horiz-adv-x="1010" d="M705 651Q773 651 828 630T923 573T983 487T1004 383Q1004 356 999 329T983 277T959 232T928 196Q877 152 830 133T722 114H570V651H705ZM506 765V0H68V765H506Z"  />
<glyph unicode="&#xDF;" horiz-adv-x="781" d="M78 550Q78 578 86 606T110 661T152 708T212 745Q247 760 290 765T369 770H431Q480 770 533 761T631 731T705 676T734 589Q734 556 718 521T666 456Q646 439 630 433T592 419Q609 413 636 402T690 369T736 311T755 222Q755 175 739 134T691 62T614 13T511 -5Q489 -5 472 -3T438 2V738H379V0H78V550Z"  />
<glyph unicode="&#xE0;" horiz-adv-x="750" d="M223 564Q247 564 268 555T304 531T328 494T337 450Q337 427 328 406T304 370T268 345T223 336Q199 336 178 345T142 369T118 405T109 450Q109 474 118 495T142 531T178 555T223 564ZM460 565Q475 565 500 563T552 555T605 536T649 503Q658 492 668 478T688 443T702 393T708 323V0H399V565H460ZM334 0H230Q188 0 154 13T94 49T56 105T42 176Q42 211 52 237T76 283T106 314T130 333Q146 322 168 311T225 299Q267 299 291 314T334 347V0ZM448 787V623L246 787H448Z"  />
<glyph unicode="&#xE1;" horiz-adv-x="750" d="M223 564Q247 564 268 555T304 531T328 494T337 450Q337 427 328 406T304 370T268 345T223 336Q199 336 178 345T142 369T118 405T109 450Q109 474 118 495T142 531T178 555T223 564ZM460 565Q475 565 500 563T552 555T605 536T649 503Q658 492 668 478T688 443T702 393T708 323V0H399V565H460ZM334 0H230Q188 0 154 13T94 49T56 105T42 176Q42 211 52 237T76 283T106 314T130 333Q146 322 168 311T225 299Q267 299 291 314T334 347V0ZM310 623V787H512L310 623Z"  />
<glyph unicode="&#xE2;" horiz-adv-x="750" d="M223 564Q247 564 268 555T304 531T328 494T337 450Q337 427 328 406T304 370T268 345T223 336Q199 336 178 345T142 369T118 405T109 450Q109 474 118 495T142 531T178 555T223 564ZM460 565Q475 565 500 563T552 555T605 536T649 503Q658 492 668 478T688 443T702 393T708 323V0H399V565H460ZM334 0H230Q188 0 154 13T94 49T56 105T42 176Q42 211 52 237T76 283T106 314T130 333Q146 322 168 311T225 299Q267 299 291 314T334 347V0ZM157 624L255 728L354 624H157ZM412 624L281 758L309 787H444L594 624H412Z"  />
<glyph unicode="&#xE3;" horiz-adv-x="750" d="M223 564Q247 564 268 555T304 531T328 494T337 450Q337 427 328 406T304 370T268 345T223 336Q199 336 178 345T142 369T118 405T109 450Q109 474 118 495T142 531T178 555T223 564ZM460 565Q475 565 500 563T552 555T605 536T649 503Q658 492 668 478T688 443T702 393T708 323V0H399V565H460ZM334 0H230Q188 0 154 13T94 49T56 105T42 176Q42 211 52 237T76 283T106 314T130 333Q146 322 168 311T225 299Q267 299 291 314T334 347V0ZM156 625Q156 683 174 715T220 764T279 783T336 787H355V625H156ZM594 787Q594 729 575 697T529 648T470 629T414 625H395V787H594Z"  />
<glyph unicode="&#xE4;" horiz-adv-x="750" d="M223 564Q247 564 268 555T304 531T328 494T337 450Q337 427 328 406T304 370T268 345T223 336Q199 336 178 345T142 369T118 405T109 450Q109 474 118 495T142 531T178 555T223 564ZM460 565Q475 565 500 563T552 555T605 536T649 503Q658 492 668 478T688 443T702 393T708 323V0H399V565H460ZM334 0H230Q188 0 154 13T94 49T56 105T42 176Q42 211 52 237T76 283T106 314T130 333Q146 322 168 311T225 299Q267 299 291 314T334 347V0ZM493 787Q536 787 565 766T594 705Q594 669 566 648T496 626Q475 626 457 631T424 647T402 672T393 706Q393 742 421 764T493 787ZM257 787Q300 787 329 766T358 705Q358 669 330 648T260 626Q239 626 221 631T188 647T166 672T157 706Q157 742 185 764T257 787Z"  />
<glyph unicode="&#xE5;" horiz-adv-x="750" d="M223 564Q247 564 268 555T304 531T328 494T337 450Q337 427 328 406T304 370T268 345T223 336Q199 336 178 345T142 369T118 405T109 450Q109 474 118 495T142 531T178 555T223 564ZM460 565Q475 565 500 563T552 555T605 536T649 503Q658 492 668 478T688 443T702 393T708 323V0H399V565H460ZM334 0H230Q188 0 154 13T94 49T56 105T42 176Q42 211 52 237T76 283T106 314T130 333Q146 322 168 311T225 299Q267 299 291 314T334 347V0ZM379 796Q399 796 423 794T468 782T503 757T517 712Q517 684 503 668T467 642T423 631T382 628Q362 628 337 630T288 642T250 667T234 713Q234 742 250 758T290 783T338 794T379 796ZM376 764Q364 764 346 763T309 757T279 741T266 712Q266 697 274 687T298 671T332 663T374 660Q408 660 429 664T463 675T480 691T485 711Q485 727 477 737T453 754T418 762T376 764Z"  />
<glyph unicode="&#xE6;" horiz-adv-x="1083" d="M334 0H226Q184 0 151 14T94 51T57 106T44 174Q44 203 52 226T72 269T99 304T128 332Q141 323 164 310T225 297Q247 297 264 302T295 315T317 331T334 346V0ZM224 564Q248 564 269 555T305 530T329 493T338 449Q338 425 329 405T305 369T269 344T224 335Q200 335 179 344T143 368T118 404T109 449Q109 473 118 494T142 530T179 555T224 564ZM698 569V30Q721 28 732 28T755 27Q852 27 917 73T1018 210L1047 199Q1039 177 1022 143T971 75T881 19T737 -5Q732 -5 720 -5T693 -2Q679 0 668 0T651 0H397V569Q424 569 445 568T486 563T523 556T563 544Q580 550 612 559T685 569H698ZM765 288V569Q780 569 804 567T856 557T915 533T975 488Q1015 448 1037 397T1061 288H765Z"  />
<glyph unicode="&#xE7;" horiz-adv-x="646" d="M305 -93V-188H196L305 -93ZM413 5Q421 2 433 -3T456 -18T476 -44T485 -85Q485 -120 468 -140T427 -170T379 -184T340 -188V0Q252 5 195 33T102 103Q67 145 53 192T38 285Q38 333 56 383T110 475T201 543T329 569H343V34Q351 33 359 33T380 32Q393 32 408 33T441 39T480 54T525 81Q538 91 548 100T567 119T584 141T601 167L635 159Q625 142 605 112T543 54Q514 35 491 25T452 10T425 5T413 5ZM519 569Q543 569 563 560T599 536T623 500T632 456Q632 433 623 413T599 377T564 352T519 343Q495 343 475 352T439 376T415 412T406 456Q406 479 415 499T439 535T475 560T519 569Z"  />
<glyph unicode="&#xE8;" horiz-adv-x="729" d="M407 287V569Q474 566 527 547T627 481Q655 454 671 427T695 374T705 326T708 287H407ZM342 30Q355 28 366 28T393 27Q444 27 497 41T594 98Q627 129 642 161T664 210L694 197Q686 172 670 139T614 70Q566 27 504 11T378 -5Q363 -5 337 -4T280 3T219 19T161 48Q99 91 68 153T37 283Q37 363 74 424T165 521Q189 537 213 546T260 560T303 567T342 569V30ZM437 787V623L235 787H437Z"  />
<glyph unicode="&#xE9;" horiz-adv-x="729" d="M407 287V569Q474 566 527 547T627 481Q655 454 671 427T695 374T705 326T708 287H407ZM342 30Q355 28 366 28T393 27Q444 27 497 41T594 98Q627 129 642 161T664 210L694 197Q686 172 670 139T614 70Q566 27 504 11T378 -5Q363 -5 337 -4T280 3T219 19T161 48Q99 91 68 153T37 283Q37 363 74 424T165 521Q189 537 213 546T260 560T303 567T342 569V30ZM299 623V787H501L299 623Z"  />
<glyph unicode="&#xEA;" horiz-adv-x="729" d="M407 287V569Q474 566 527 547T627 481Q655 454 671 427T695 374T705 326T708 287H407ZM342 30Q355 28 366 28T393 27Q444 27 497 41T594 98Q627 129 642 161T664 210L694 197Q686 172 670 139T614 70Q566 27 504 11T378 -5Q363 -5 337 -4T280 3T219 19T161 48Q99 91 68 153T37 283Q37 363 74 424T165 521Q189 537 213 546T260 560T303 567T342 569V30ZM146 624L244 728L343 624H146ZM401 624L270 758L298 787H433L583 624H401Z"  />
<glyph unicode="&#xEB;" horiz-adv-x="729" d="M407 287V569Q474 566 527 547T627 481Q655 454 671 427T695 374T705 326T708 287H407ZM342 30Q355 28 366 28T393 27Q444 27 497 41T594 98Q627 129 642 161T664 210L694 197Q686 172 670 139T614 70Q566 27 504 11T378 -5Q363 -5 337 -4T280 3T219 19T161 48Q99 91 68 153T37 283Q37 363 74 424T165 521Q189 537 213 546T260 560T303 567T342 569V30ZM482 787Q525 787 554 766T583 705Q583 669 555 648T485 626Q464 626 446 631T413 647T391 672T382 706Q382 742 410 764T482 787ZM246 787Q289 787 318 766T347 705Q347 669 319 648T249 626Q228 626 210 631T177 647T155 672T146 706Q146 742 174 764T246 787Z"  />
<glyph unicode="&#xEC;" horiz-adv-x="427" d="M366 565V0H61V565H366ZM286 787V623L84 787H286Z"  />
<glyph unicode="&#xED;" horiz-adv-x="427" d="M366 565V0H61V565H366ZM148 623V787H350L148 623Z"  />
<glyph unicode="&#xEE;" horiz-adv-x="427" d="M366 565V0H61V565H366ZM-5 624L93 728L192 624H-5ZM250 624L119 758L147 787H282L432 624H250Z"  />
<glyph unicode="&#xEF;" horiz-adv-x="427" d="M366 565V0H61V565H366ZM331 787Q374 787 403 766T432 705Q432 669 404 648T334 626Q313 626 295 631T262 647T240 672T231 706Q231 742 259 764T331 787ZM95 787Q138 787 167 766T196 705Q196 669 168 648T98 626Q77 626 59 631T26 647T4 672T-5 706Q-5 742 23 764T95 787Z"  />
<glyph unicode="&#xF0;" horiz-adv-x="771" d="M662 729L672 701L563 663Q582 646 598 632T628 601T654 564T678 517Q697 476 705 440T713 362Q713 320 704 276T676 191T627 113T556 48Q536 34 520 26T487 14T453 6T413 0V610L303 573L293 601L413 643Q409 678 401 703T377 755Q425 744 463 726T535 685L662 729ZM346 0Q320 1 297 3T250 9T204 22T154 45Q121 63 99 86T63 136T44 190T38 244Q38 295 55 333T96 398T149 444T200 471Q241 488 274 492T346 498V0Z"  />
<glyph unicode="&#xF1;" horiz-adv-x="792" d="M362 565V0H57V565H362ZM511 565Q561 565 602 552T672 515T718 456T735 377V0H430V565H511ZM177 625Q177 683 195 715T241 764T300 783T357 787H376V625H177ZM615 787Q615 729 596 697T550 648T491 629T435 625H416V787H615Z"  />
<glyph unicode="&#xF2;" horiz-adv-x="771" d="M419 569Q503 569 559 547T649 494Q693 456 717 399T741 280Q741 236 726 187T674 94T575 23T419 -5V569ZM352 -5Q258 -5 196 23T97 94T45 186T30 280Q30 342 54 399T122 494Q156 524 212 546T352 569V-5ZM458 787V623L256 787H458Z"  />
<glyph unicode="&#xF3;" horiz-adv-x="771" d="M419 569Q503 569 559 547T649 494Q693 456 717 399T741 280Q741 236 726 187T674 94T575 23T419 -5V569ZM352 -5Q258 -5 196 23T97 94T45 186T30 280Q30 342 54 399T122 494Q156 524 212 546T352 569V-5ZM320 623V787H522L320 623Z"  />
<glyph unicode="&#xF4;" horiz-adv-x="771" d="M419 569Q503 569 559 547T649 494Q693 456 717 399T741 280Q741 236 726 187T674 94T575 23T419 -5V569ZM352 -5Q258 -5 196 23T97 94T45 186T30 280Q30 342 54 399T122 494Q156 524 212 546T352 569V-5ZM167 624L265 728L364 624H167ZM422 624L291 758L319 787H454L604 624H422Z"  />
<glyph unicode="&#xF5;" horiz-adv-x="771" d="M419 569Q503 569 559 547T649 494Q693 456 717 399T741 280Q741 236 726 187T674 94T575 23T419 -5V569ZM352 -5Q258 -5 196 23T97 94T45 186T30 280Q30 342 54 399T122 494Q156 524 212 546T352 569V-5ZM166 625Q166 683 184 715T230 764T289 783T346 787H365V625H166ZM604 787Q604 729 585 697T539 648T480 629T424 625H405V787H604Z"  />
<glyph unicode="&#xF6;" horiz-adv-x="771" d="M419 569Q503 569 559 547T649 494Q693 456 717 399T741 280Q741 236 726 187T674 94T575 23T419 -5V569ZM352 -5Q258 -5 196 23T97 94T45 186T30 280Q30 342 54 399T122 494Q156 524 212 546T352 569V-5ZM503 787Q546 787 575 766T604 705Q604 669 576 648T506 626Q485 626 467 631T434 647T412 672T403 706Q403 742 431 764T503 787ZM267 787Q310 787 339 766T368 705Q368 669 340 648T270 626Q249 626 231 631T198 647T176 672T167 706Q167 742 195 764T267 787Z"  />
<glyph unicode="&#xF7;" horiz-adv-x="625" d="M54 311V453H571V311H54ZM229 666H395V507H229V666ZM229 257H395V98H229V257Z"  />
<glyph unicode="&#xF8;" horiz-adv-x="771" d="M352 569V266L419 318V569Q493 569 552 549T647 497L740 569L759 542L671 474Q681 463 693 443T716 397T734 341T741 280Q741 244 735 215T718 162T696 122T673 92Q635 50 572 23T419 -5V276L352 224V-5H336Q289 -5 235 10T138 57L59 -5L39 22L111 79Q30 163 30 281Q30 342 54 399T122 495Q153 523 208 546T333 569H352Z"  />
<glyph unicode="&#xF9;" horiz-adv-x="792" d="M363 565V0H329Q308 0 278 3T217 14T156 36T106 72Q78 104 68 131T58 194V565H363ZM734 565V0H429V565H734ZM469 787V623L267 787H469Z"  />
<glyph unicode="&#xFA;" horiz-adv-x="792" d="M363 565V0H329Q308 0 278 3T217 14T156 36T106 72Q78 104 68 131T58 194V565H363ZM734 565V0H429V565H734ZM331 623V787H533L331 623Z"  />
<glyph unicode="&#xFB;" horiz-adv-x="792" d="M363 565V0H329Q308 0 278 3T217 14T156 36T106 72Q78 104 68 131T58 194V565H363ZM734 565V0H429V565H734ZM178 624L276 728L375 624H178ZM433 624L302 758L330 787H465L615 624H433Z"  />
<glyph unicode="&#xFC;" horiz-adv-x="792" d="M363 565V0H329Q308 0 278 3T217 14T156 36T106 72Q78 104 68 131T58 194V565H363ZM734 565V0H429V565H734ZM514 787Q557 787 586 766T615 705Q615 669 587 648T517 626Q496 626 478 631T445 647T423 672T414 706Q414 742 442 764T514 787ZM278 787Q321 787 350 766T379 705Q379 669 351 648T281 626Q260 626 242 631T209 647T187 672T178 706Q178 742 206 764T278 787Z"  />
<glyph unicode="&#xFD;" horiz-adv-x="865" d="M869 565L647 176L434 565H869ZM359 565L607 118Q578 57 554 18T508 -47T469 -87T434 -114Q442 -94 444 -82T447 -56Q447 -22 434 4T401 48T357 75T311 84Q299 84 289 82L25 565H359ZM310 43Q352 43 380 15T409 -56Q409 -77 401 -95T380 -126T348 -147T310 -155Q290 -155 272 -148T241 -127T219 -95T211 -56Q211 -14 239 14T310 43ZM367 623V787H569L367 623Z"  />
<glyph unicode="&#xFE;" horiz-adv-x="781" d="M457 562Q518 562 573 542T670 484T736 393T761 276Q761 230 746 182T697 93T607 25T470 -4Q456 -4 451 -4T439 -5V562H457ZM374 761V-155H69V761H374Z"  />
<glyph unicode="&#xFF;" horiz-adv-x="865" d="M869 565L647 176L434 565H869ZM359 565L607 118Q578 57 554 18T508 -47T469 -87T434 -114Q442 -94 444 -82T447 -56Q447 -22 434 4T401 48T357 75T311 84Q299 84 289 82L25 565H359ZM310 43Q352 43 380 15T409 -56Q409 -77 401 -95T380 -126T348 -147T310 -155Q290 -155 272 -148T241 -127T219 -95T211 -56Q211 -14 239 14T310 43ZM550 787Q593 787 622 766T651 705Q651 669 623 648T553 626Q532 626 514 631T481 647T459 672T450 706Q450 742 478 764T550 787ZM314 787Q357 787 386 766T415 705Q415 669 387 648T317 626Q296 626 278 631T245 647T223 672T214 706Q214 742 242 764T314 787Z"  />
<glyph unicode="&#x131;" horiz-adv-x="427" d="M366 565V0H61V565H366Z"  />
<glyph unicode="&#x152;" horiz-adv-x="1167" d="M1147 765V481L1082 541V261L1147 331V0H482V765H1147ZM863 748H860V397L1082 542L863 748ZM860 384V20H863L1082 261L860 384ZM385 0Q303 0 238 30T126 111T56 232T31 382Q31 421 38 462T59 540T93 611T138 669Q167 697 201 715T268 745T330 760T381 765H415V0H385Z"  />
<glyph unicode="&#x153;" horiz-adv-x="1115" d="M731 569V33Q745 31 763 30T801 28Q872 28 920 53T997 110Q1020 136 1031 160T1052 207L1080 197Q1069 168 1051 133T1000 68T913 17T778 -4Q743 -4 715 0T664 11T620 27T581 46Q562 34 546 26T512 12T475 2T430 -5V569H448Q468 569 501 564T581 532Q600 542 633 555T713 569H731ZM815 569Q884 569 945 536T1046 444Q1062 421 1071 399T1085 356T1091 317T1094 286H798V569H815ZM364 -5Q270 -5 208 23T109 94T57 186T42 280Q42 342 66 399T134 494Q168 524 224 546T364 569V-5Z"  />
<glyph unicode="&#x160;" horiz-adv-x="844" d="M794 765V455L416 765H794ZM467 0H58V320L467 0ZM202 282Q193 289 179 301T151 326T125 353T106 376Q81 410 68 450T54 532Q54 561 61 591T86 649T130 700T199 741Q215 747 232 751T266 757T296 760T318 761L730 424Q731 423 741 414T765 390T793 357T819 320Q826 307 832 283T838 231Q838 198 829 166T802 107T757 57T695 20Q681 14 665 11T632 5T600 1T575 0L202 282ZM641 970L543 866L444 970H641ZM386 970L517 836L489 807H354L204 970H386Z"  />
<glyph unicode="&#x161;" horiz-adv-x="594" d="M453 576Q471 576 487 569T515 551T533 524T540 490Q540 454 515 428T453 402Q435 402 419 409T391 428T373 456T366 490Q366 526 391 551T453 576ZM403 392Q417 386 445 372T500 334T549 274T570 187Q570 152 558 118T521 56T460 12T374 -5Q363 -5 353 -5T328 -3Q339 8 347 21T355 54Q355 83 335 102T283 133L176 171Q146 181 119 198T70 240T37 296T24 365Q24 398 37 434T79 501T153 549T262 567Q250 551 245 540T239 515Q239 494 249 479T274 452T305 433T335 420L403 392ZM125 162Q143 162 159 155T186 136T205 109T212 75Q212 57 206 42T187 14T159 -5T125 -12Q89 -12 64 13T38 75Q38 112 63 137T125 162ZM516 787L418 683L319 787H516ZM261 787L392 653L364 624H229L79 787H261Z"  />
<glyph unicode="&#x178;" horiz-adv-x="990" d="M985 765L750 383L531 765H985ZM456 765L710 321V0H272V295L5 765H456ZM613 970Q656 970 685 949T714 888Q714 852 686 831T616 809Q595 809 577 814T544 830T522 855T513 889Q513 925 541 947T613 970ZM377 970Q420 970 449 949T478 888Q478 852 450 831T380 809Q359 809 341 814T308 830T286 855T277 889Q277 925 305 947T377 970Z"  />
<glyph unicode="&#x17D;" horiz-adv-x="1052" d="M412 765L62 181H53V765H412ZM1001 765V756L558 0H34L485 765H1001ZM1001 0H634L992 615H1001V0ZM745 970L647 866L548 970H745ZM490 970L621 836L593 807H458L308 970H490Z"  />
<glyph unicode="&#x17E;" horiz-adv-x="781" d="M299 565L74 175H65V565H299ZM725 565L394 0H42L372 565H725ZM468 0L722 436H731V0H468ZM609 787L511 683L412 787H609ZM354 787L485 653L457 624H322L172 787H354Z"  />
<glyph unicode="&#x192;" horiz-adv-x="552" d="M42 478H114L127 551Q134 590 147 625T194 693Q232 730 281 748T385 766Q380 761 373 754T359 736T348 711T343 680Q343 672 346 657T359 624T389 590T443 564L426 478H501L495 444H419L364 143Q351 74 335 30T295 -44Q260 -89 212 -115T117 -148Q81 -153 45 -154T-34 -155Q-27 -143 -19 -128T-2 -92T15 -40T32 35L107 444H33L42 478ZM464 770Q483 770 499 763T528 744T547 715T554 679Q554 641 528 615T464 589Q426 589 400 615T374 679Q374 698 381 714T400 743T428 763T464 770Z"  />
<glyph unicode="&#x2C6;" horiz-adv-x="333" d="M-52 602L46 706L145 602H-52ZM203 602L72 736L100 765H235L385 602H203Z"  />
<glyph unicode="&#x2C7;" horiz-adv-x="333" d="M385 765L287 661L188 765H385ZM130 765L261 631L233 602H98L-52 765H130Z"  />
<glyph unicode="&#x2DA;" horiz-adv-x="333" d="M170 774Q190 774 214 772T259 760T294 735T308 690Q308 662 294 646T258 620T214 609T173 606Q153 606 128 608T79 620T41 645T25 691Q25 720 41 736T81 761T129 772T170 774ZM167 742Q155 742 137 741T100 735T70 719T57 690Q57 675 65 665T89 649T123 641T165 638Q199 638 220 642T254 653T271 669T276 689Q276 705 268 715T244 732T209 740T167 742Z"  />
<glyph unicode="&#x2DC;" horiz-adv-x="333" d="M-53 603Q-53 661 -35 693T11 742T70 761T127 765H146V603H-53ZM385 765Q385 707 366 675T320 626T261 607T205 603H186V765H385Z"  />
<glyph unicode="&#x2013;" horiz-adv-x="500" d="M506 454V124H-6V454H506Z"  />
<glyph unicode="&#x2014;" horiz-adv-x="1000" d="M1006 454V124H-6V454H1006Z"  />
<glyph unicode="&#x2018;" horiz-adv-x="292" d="M154 662Q169 660 186 656T222 637Q244 621 255 597T266 546Q266 519 256 497T228 460T190 436T145 428Q121 428 100 437T62 463T36 503T26 556Q26 570 30 598T47 659T85 723T154 774V662Z"  />
<glyph unicode="&#x2019;" horiz-adv-x="292" d="M138 539Q123 541 106 545T70 564Q48 581 37 605T26 656Q26 683 36 705T64 742T102 765T147 774Q171 774 192 765T230 739T256 698T266 645Q266 631 262 603T245 542T207 478T138 428V539Z"  />
<glyph unicode="&#x201A;" horiz-adv-x="292" d="M138 0Q123 2 106 6T70 25Q48 41 37 65T26 116Q26 143 36 165T64 202T102 226T147 235Q171 235 192 226T230 199T256 159T266 106Q266 92 262 64T245 3T207 -61T138 -112V0Z"  />
<glyph unicode="&#x201C;" horiz-adv-x="583" d="M456 662Q471 660 488 656T524 637Q546 621 557 597T568 546Q568 519 558 497T530 460T492 436T447 428Q423 428 402 437T364 463T338 503T328 556Q328 570 332 598T349 659T387 723T456 774V662ZM168 662Q183 660 200 656T236 637Q258 621 269 597T280 546Q280 519 270 497T242 460T204 436T159 428Q135 428 114 437T76 463T50 503T40 556Q40 570 44 598T61 659T99 723T168 774V662Z"  />
<glyph unicode="&#x201D;" horiz-adv-x="583" d="M127 539Q112 541 95 545T59 564Q37 581 26 605T15 656Q15 683 25 705T53 742T91 765T136 774Q160 774 181 765T219 739T245 698T255 645Q255 631 251 603T234 542T196 478T127 428V539ZM415 539Q400 541 383 545T347 564Q325 581 314 605T303 656Q303 683 313 705T341 742T379 765T424 774Q448 774 469 765T507 739T533 698T543 645Q543 631 539 603T522 542T484 478T415 428V539Z"  />
<glyph unicode="&#x201E;" horiz-adv-x="583" d="M127 0Q112 2 95 6T59 25Q37 41 26 65T15 116Q15 143 25 165T53 202T91 226T136 235Q160 235 181 226T219 199T245 159T255 106Q255 92 251 64T234 3T196 -61T127 -112V0ZM415 0Q400 2 383 6T347 25Q325 41 314 65T303 116Q303 143 313 165T341 202T379 226T424 235Q448 235 469 226T507 199T533 159T543 106Q543 92 539 64T522 3T484 -61T415 -112V0Z"  />
<glyph unicode="&#x2020;" horiz-adv-x="677" d="M666 559V482H493V-155H184V482H11V559H184V765H493V559H666Z"  />
<glyph unicode="&#x2021;" horiz-adv-x="677" d="M666 589V512H493V98H666V21H493V-155H184V21H11V98H184V512H11V589H184V765H493V589H666Z"  />
<glyph unicode="&#x2022;" horiz-adv-x="354" d="M54 348Q54 374 64 396T90 435T129 461T177 471Q202 471 224 462T264 436T290 397T300 348Q300 323 291 301T264 262T225 235T177 225Q152 225 130 234T91 261T64 300T54 348Z"  />
<glyph unicode="&#x2026;" horiz-adv-x="1000" d="M498 237Q521 237 543 229T582 205T609 167T620 118Q620 92 611 71T585 34T547 9T501 0Q475 0 453 9T415 35T390 73T380 119Q380 143 389 164T414 202T451 227T498 237ZM831 237Q854 237 876 229T915 205T942 167T953 118Q953 92 944 71T918 34T881 9T834 0Q808 0 786 9T748 35T723 73T713 119Q713 143 722 164T747 202T784 227T831 237ZM164 237Q187 237 209 229T248 205T276 167T287 118Q287 92 278 71T252 34T214 9T167 0Q142 0 120 9T82 35T57 73T47 119Q47 143 56 164T80 202T117 227T164 237Z"  />
<glyph unicode="&#x2030;" horiz-adv-x="1594" d="M1285 -5Q1240 -5 1203 11T1138 53T1096 115T1081 188Q1081 232 1098 267T1142 327T1205 365T1275 379H1300V-5H1285ZM1365 379Q1408 379 1444 363T1506 321T1546 259T1561 186Q1561 141 1544 106T1499 46T1436 8T1365 -5H1342V379H1365ZM759 -5Q714 -5 677 11T612 53T570 115T555 188Q555 232 572 267T616 327T679 365T749 379H774V-5H759ZM839 379Q882 379 918 363T980 321T1020 259T1035 186Q1035 141 1018 106T973 46T910 8T839 -5H816V379H839ZM237 386Q192 386 155 402T90 444T48 506T33 579Q33 623 50 658T94 718T157 756T227 770H252V386H237ZM317 770Q360 770 396 754T458 712T498 650T513 577Q513 532 496 497T451 437T388 399T317 386H294V770H317ZM828 770L308 -5H238L758 770H828Z"  />
<glyph unicode="&#x2039;" horiz-adv-x="448" d="M444 565L250 306L447 48H225L31 306L225 565H444Z"  />
<glyph unicode="&#x203A;" horiz-adv-x="448" d="M417 306L223 48H1L198 306L4 565H223L417 306Z"  />
<glyph unicode="&#x20AC;" horiz-adv-x="854" d="M40 356Q39 364 39 371T39 386Q39 397 39 407T41 427H0V482H52Q63 522 81 556T120 617T164 664T206 697Q226 710 252 722T310 744T376 759T448 765H819V514L482 752H479V482H719V427H479V356H719V301H479V16H482L819 258V0H427Q359 0 297 23T185 86T100 182T49 301H0V356H40Z"  />
<glyph unicode="&#x2122;" horiz-adv-x="938" d="M404 765V671H266V370H152V671H15V765H404ZM623 765L678 549L735 765H903V370H795V649L722 370H632L558 649V370H450V765H623Z"  />

</font>
</defs>
</svg>
